<?xml version="1.0" standalone="no"?>
<!DOCTYPE svg PUBLIC "-//W3C//DTD SVG 1.1//EN" "http://www.w3.org/Graphics/SVG/1.1/DTD/svg11.dtd" >
<svg xmlns="http://www.w3.org/2000/svg" xmlns:xlink="http://www.w3.org/1999/xlink" version="1.1">
<metadata></metadata>
<defs>
<font id="argent_cfbold_italic" horiz-adv-x="1239" >
<font-face units-per-em="2048" ascent="1638" descent="-410" />
<missing-glyph horiz-adv-x="450" />
<glyph unicode="&#xfb01;" horiz-adv-x="1673" d="M-338 -299q0 55 37 91t90 36q32 0 61 -18.5t50 -45.5t40 -54t40.5 -45.5t42.5 -18.5q26 0 43.5 4t40.5 21t39 49.5t32.5 93t28.5 147.5l135 957v4h-135q-17 0 -28 11t-11 28v22q0 19 8.5 31t22.5 12h166q97 371 469 371q143 0 231 -61t88 -130q0 -51 -31 -77.5t-90 -26.5 q-93 0 -164 110q-6 9 -17 27.5t-16 26.5t-14 20t-15.5 17.5t-16 9.5t-19.5 4q-41 0 -68.5 -75.5t-48.5 -215.5h117q11 0 18.5 -2t11.5 -3.5t5.5 -7t2 -8t0 -11t-0.5 -11.5v-22q0 -18 -10.5 -28.5t-28.5 -10.5h-129l-78 -553q-21 -147 -55.5 -267.5t-75.5 -204t-92 -147 t-100 -100.5t-104 -60t-100.5 -31t-92.5 -8q-279 0 -279 150zM938 764q-20 20 16 67q87 104 193 161t203 57q75 0 100.5 -45.5t11.5 -135.5l-90 -639q-4 -23 8.5 -35t34.5 -12q21 0 55.5 19.5t67.5 50.5q36 33 55 20q12 -9 8.5 -29t-16.5 -36q-85 -110 -191.5 -165.5 t-209.5 -55.5q-73 0 -100 44t-13 132l90 651q2 25 -5 35t-28 10t-56.5 -23t-67.5 -57q-15 -19 -34.5 -23t-31.5 9z" />
<glyph unicode="&#xfb02;" horiz-adv-x="1431" d="M-338 -299q0 55 37 91t90 36q40 0 74.5 -28.5t54.5 -62.5t43 -62.5t41 -28.5q52 0 73 40t34 144l149 1092h-156q-17 0 -28 11t-11 28v22q0 19 9 31t24 12h185q25 92 69 163.5t97 116.5t118 74t127 40.5t129 11.5q35 0 69.5 -4t75.5 -14t75.5 -27t70 -42.5t59.5 -61 t43.5 -82.5t22.5 -106.5t-4 -133.5l-98 -732q-3 -28 11 -37.5t38 -9.5q21 0 56 19t69 51q35 35 53 22q12 -8 10 -29t-16 -38q-87 -111 -199 -168t-223 -57q-127 0 -107 143l123 823q16 121 12.5 205.5t-45 130t-126.5 45.5q-168 0 -220 -303h136q11 0 18.5 -2t11.5 -3.5 t6 -7.5l2.5 -7.5t0 -11t-0.5 -11.5v-22q0 -17 -10.5 -28t-27.5 -11h-150l-96 -682q-21 -157 -65 -280t-98.5 -198.5t-121.5 -124.5t-129 -67.5t-127 -18.5q-123 0 -190.5 37.5t-67.5 112.5z" />
<glyph horiz-adv-x="0" />
<glyph horiz-adv-x="682" />
<glyph unicode=" "  horiz-adv-x="450" />
<glyph unicode="&#x09;" horiz-adv-x="450" />
<glyph unicode="&#xa0;" horiz-adv-x="450" />
<glyph unicode="!" horiz-adv-x="538" d="M23 117q0 68 54.5 123t119.5 55q54 0 91.5 -39.5t37.5 -97.5q0 -70 -54 -124t-122 -54q-54 0 -90.5 40t-36.5 97zM188 1118q14 86 75 136.5t124 50.5q60 0 104.5 -51t30.5 -136q-5 -46 -31 -117.5t-56 -141.5t-63.5 -183.5t-52.5 -231.5h-112q20 190 11 297.5 t-22.5 215.5t-7.5 161z" />
<glyph unicode="&#x22;" horiz-adv-x="784" d="M166 1145l27 -252q0 -25 16.5 -41t42.5 -16q51 0 65 57l99 252q25 73 -7.5 116.5t-91.5 43.5q-63 0 -109 -43t-42 -117zM514 1145l25 -252q0 -25 16.5 -41t42.5 -16q27 0 44 15.5t22 41.5l98 252q26 73 -6 116.5t-92 43.5q-64 0 -110 -43t-40 -117z" />
<glyph unicode="#" horiz-adv-x="1159" d="M45 319l35 162q12 31 35 31h164l86 221h-156q-14 0 -20.5 8t-2.5 23l35 160q9 30 35 30h195l161 422h213l-159 -422h129l161 422h213l-157 -422h110q29 0 23 -30l-37 -160q-9 -31 -35 -31h-145l-84 -221h139q26 0 23 -31l-39 -162q-6 -30 -35 -30h-170l-133 -350h-223 l133 350h-125l-135 -350h-220l136 350h-127q-29 0 -23 30zM498 512h127l84 221h-127z" />
<glyph unicode="$" horiz-adv-x="1011" d="M-2 0l27 326h67q31 0 47 -14t15 -44q18 -85 74 -132.5t134 -55.5l62 444q-67 34 -118 70t-95 83t-67 107t-23 131q0 109 56.5 196t149 135.5t205.5 56.5l15 108h162l-19 -123q18 -5 44.5 -13.5t42.5 -13t28 -4.5q13 0 27.5 11t21.5 28h92l-28 -325h-52q-28 0 -44 16 t-25 51q-39 122 -121 152l-53 -383q49 -25 84.5 -46t83 -60t78 -80.5t52 -103t21.5 -132.5q0 -162 -125.5 -287t-314.5 -131l-13 -92h-155l14 111q-39 12 -93 38.5t-77 26.5q-71 0 -84 -51h-96zM416 1036q0 -78 59 -137l41 287q-44 -20 -72 -59t-28 -91zM526 133 q35 32 56.5 77.5t21.5 88.5q0 76 -37 123z" />
<glyph unicode="%" horiz-adv-x="1355" d="M139 -10l985 1313h164l-981 -1313h-168zM164 1024q18 117 97.5 199t189.5 82q116 0 173.5 -81.5t41.5 -199.5q-18 -117 -98.5 -200t-192.5 -83q-113 0 -170 82.5t-41 200.5zM334 1024q-28 -195 53 -195t109 195q7 52 7 94.5t-16 70.5t-47 28q-46 0 -69.5 -51.5 t-36.5 -141.5zM731 260q16 117 96 199t193 82q112 0 168.5 -82t40.5 -199t-97 -200t-194 -83q-110 0 -166.5 83t-40.5 200zM890.5 167q-1.5 -43 13.5 -72t48 -29q79 0 111 194q23 193 -55 193q-88 0 -111 -193q-5 -50 -6.5 -93z" />
<glyph unicode="&#x26;" horiz-adv-x="1486" d="M57 385q0 104 57 190t144.5 130t179.5 36q-88 11 -149.5 77.5t-61.5 160.5q0 86 63 161.5t168.5 120t225.5 44.5q43 0 83.5 -6.5t82 -23t72 -42.5t50 -68.5t19.5 -97.5q0 -60 -33 -126t-92.5 -112.5t-124.5 -46.5q-114 0 -114 97q0 30 19 60t42.5 53t42.5 60t19 78 q0 18 -2 30t-8 25t-20 20t-36 7q-43 0 -74 -29t-45 -75.5t-20 -87t-6 -78.5q0 -144 88 -188l-49 -123q-89 3 -138 -76.5t-49 -224.5q0 -54 10.5 -98t34 -83t68 -61t106.5 -22q140 0 230 116.5t90 268.5q0 51 -16 77.5t-58 26.5q-33 0 -57.5 -25.5t-24.5 -58.5q0 -32 23 -55 h-113q-66 29 -66 92q0 19 7.5 37t16 30.5t28.5 29t32 25t40 27.5t40 27l260 174q13 10 44 32t43 31t34 27t31 30.5t21 30.5t16 36.5t4 39.5q0 27 -18 43.5t-54 16.5q-19 0 -53 -6l-10 102q80 33 162 33q39 0 80.5 -14t79 -41t61.5 -71.5t24 -98.5q0 -43 -20 -84t-48.5 -73 t-76 -64.5t-86 -54.5t-97 -47.5t-90.5 -37.5t-83 -31q118 -17 177.5 -82.5t59.5 -168.5q0 -90 -60 -173t-153.5 -140t-206.5 -90.5t-219 -33.5q-158 0 -280.5 47.5t-194.5 142.5t-72 226z" />
<glyph unicode="'" horiz-adv-x="403" d="M166 1145l27 -252q0 -25 16.5 -41t42.5 -16q51 0 65 57l99 252q25 73 -7.5 116.5t-91.5 43.5q-63 0 -109 -43t-42 -117z" />
<glyph unicode="(" horiz-adv-x="649" d="M84 606q42 301 177 541t372 391q22 14 39 14h63q19 0 25 -8t-6 -18q-163 -152 -263.5 -373.5t-146.5 -546.5q-45 -340 -10.5 -548.5t153.5 -360.5q12 -15 7.5 -26t-21.5 -11h-67q-21 0 -35 14q-193 151 -261 391t-26 541z" />
<glyph unicode=")" horiz-adv-x="649" d="M-83 -321.5q3 8.5 13 18.5q163 153 259 366.5t141 542.5q45 333 7 550t-159 370q-8 11 0 18.5t27 7.5h63q21 0 35 -14q192 -151 260.5 -391t26.5 -541q-42 -300 -177.5 -540.5t-371.5 -391.5q-20 -14 -39 -14h-68q-11 0 -15.5 5t-1.5 13.5z" />
<glyph unicode="*" horiz-adv-x="638" d="M104 821q30 -56 101 -28l123 137q15 15 6 29.5t-29 9.5l-160 -35q-59 -45 -41 -113zM150 1149q-37 -70 10 -111l147 -37q20 -5 33.5 9.5t3.5 29.5l-86 138q-58 27 -108 -29zM274 750q0 -71 66 -80q70 9 88 80l-35 159q-3 13 -9.5 18t-14.5 0t-15 -18zM342 1225l35 -160 q3 -13 9 -18t13.5 0t14.5 18l82 160q0 71 -66 80q-70 -9 -88 -80zM430 930l84 -137q57 -27 109 28q35 67 -11 113l-151 35q-18 5 -30.5 -9.5t-0.5 -29.5zM437 1010.5q10 -14.5 32 -9.5l158 37q60 44 41 111q-38 56 -101 29l-125 -138q-15 -15 -5 -29.5z" />
<glyph unicode="+" horiz-adv-x="856" d="M86 483l16 117h281l41 301h113l-41 -301h280l-16 -117h-281l-43 -299h-110l41 299h-281z" />
<glyph unicode="," horiz-adv-x="448" d="M0 143q15 65 66 107.5t116 42.5q67 0 103.5 -43t36.5 -113q0 -105 -54 -208.5t-141 -188.5q-23 -27 -43 0l-18 22q85 76 106 193q4 21 0 25q-25 -5 -39 -5q-74 0 -110 51t-23 117z" />
<glyph unicode="-" horiz-adv-x="696" d="M72 422v182h553v-182h-553z" />
<glyph unicode="." horiz-adv-x="417" d="M-4 117q0 70 53.5 124t120.5 54q53 0 90 -39.5t37 -97.5q0 -70 -53.5 -124t-120.5 -54q-54 0 -90.5 40t-36.5 97z" />
<glyph unicode="/" horiz-adv-x="923" d="M-2 -164l743 1641h226l-746 -1641h-223z" />
<glyph unicode="0" horiz-adv-x="1232" d="M84 528q0 149 47.5 290t130.5 248t203 172t256 65q142 0 248 -72t160.5 -196t54.5 -281q0 -150 -48 -292.5t-130.5 -251.5t-203 -175t-257.5 -66q-139 0 -245 74t-161 200t-55 285zM403 354q0 -280 148 -280q71 0 132 82.5t99 211t59 274.5t21 282q0 276 -141 276 q-74 0 -136.5 -81.5t-101 -208.5t-59.5 -272.5t-21 -283.5z" />
<glyph unicode="1" horiz-adv-x="673" d="M-6 0l6 94q128 14 139 84l119 850q7 44 -11.5 55.5t-90.5 6.5l16 88q89 11 159.5 31t104 37t62.5 29.5t47 12.5q67 0 67 -59q0 -27 -25 -143.5t-34 -186.5l-104 -737q-5 -35 22 -48t92 -20l-12 -94q-90 4 -260 4q-205 0 -297 -4z" />
<glyph unicode="2" horiz-adv-x="1069" d="M2 0l10 92q202 177 228 201q372 342 457 593q26 78 26 150q0 83 -34.5 124.5t-92.5 41.5q-60 0 -107.5 -44t-70.5 -101.5t-23 -110.5q0 -18 5.5 -58t5.5 -73q0 -51 -39 -80.5t-99 -29.5q-71 0 -110 48t-39 115q0 124 64 224.5t174.5 156.5t244.5 56q190 0 305 -94.5 t115 -254.5q0 -65 -24 -130t-53.5 -115t-94.5 -111.5t-106 -96.5t-132.5 -95.5t-128.5 -83t-137 -82.5l-45 -27l326 4q136 0 186 64l80 94h106l-125 -338q-10 -39 -61 -39h-811z" />
<glyph unicode="3" horiz-adv-x="1130" d="M41 268q0 65 32.5 106.5t94.5 41.5q33 0 56.5 -11t35.5 -25.5t18.5 -40.5t7.5 -44.5t1 -48.5q0 -174 174 -174q87 0 151 59t93.5 148t29.5 192q0 158 -112 158q-18 0 -38 -4.5t-34 -9.5t-40.5 -16t-41.5 -17l-25 96l72 37q122 54 175.5 138t53.5 208q0 61 -25 101t-83 40 q-55 0 -97 -44.5t-61.5 -104.5t-19.5 -121q0 -13 3 -32.5t3 -35.5q0 -139 -135 -139q-68 0 -108 50.5t-40 131.5q0 164 131.5 281t325.5 117q168 0 266.5 -78t98.5 -193q0 -56 -18.5 -103t-46.5 -78.5t-72.5 -59t-84 -44t-92.5 -34.5q33 10 92 10q51 0 96 -14t84 -43.5 t62 -83.5t23 -127q0 -108 -51 -200t-134 -153t-188 -95t-215 -34q-194 0 -306 81t-112 212z" />
<glyph unicode="4" horiz-adv-x="1163" d="M74 514l725 791h153l-114 -787h69q38 0 62 11t47 49l26 40h66l-84 -233q-15 -39 -66 -39h-141l-29 -184q-4 -37 23 -50t109 -18l-5 -94q-302 9 -616 0l2 94q82 4 119.5 24.5t42.5 59.5l24 168h-397zM180 518h332l63 420z" />
<glyph unicode="5" horiz-adv-x="1132" d="M41 268q0 64 32.5 106t94.5 42q33 0 56.5 -11.5t35.5 -26.5t18.5 -41t7.5 -44.5t1 -46.5q0 -31 6.5 -58t23.5 -55t53.5 -44.5t88.5 -16.5q68 0 122.5 37.5t88 100t51.5 137t18 153.5q0 112 -50.5 173.5t-141.5 61.5q-69 0 -149.5 -41t-131.5 -98l-106 8l143 668h361 q144 0 190 65l154 -8l-90 -237q-15 -39 -62 -39h-520l-76 -348q73 88 166.5 141t232.5 53q39 0 86.5 -11.5t103 -41t100 -73t74.5 -115.5t30 -160q0 -153 -84 -274t-219 -185t-291 -64q-183 0 -300.5 82t-117.5 211z" />
<glyph unicode="6" horiz-adv-x="1130" d="M78 473q0 170 50 321.5t139 264t220.5 178.5t286.5 66q69 0 133 -24t109 -62l-55 -84q-49 41 -96 56t-109 15q-56 0 -101 -19t-78 -57.5t-57 -81.5t-43 -107.5t-30.5 -117t-24.5 -127.5q79 137 264 137q69 0 133 -24t116 -68.5t83 -116.5t31 -159q0 -143 -79.5 -258.5 t-204 -176.5t-263.5 -61q-203 0 -313.5 137.5t-110.5 368.5zM385 317q0 -53 5 -93.5t17 -77.5t36.5 -56.5t60.5 -19.5q75 0 130 68.5t80 170t25 217.5q0 203 -100 203q-53 0 -99.5 -25t-74.5 -60.5t-44 -63.5t-20 -45q-16 -99 -16 -218z" />
<glyph unicode="7" horiz-adv-x="974" d="M111 918l143 372l113 -2q24 -10 53 -13t100 -3h510l-635 -1209q-49 -88 -141 -88q-52 0 -78 34t-26 73q0 59 75.5 173.5t475.5 664.5q21 30 33.5 47t32 44t36.5 50l-305 -8q-172 0 -256 -135h-131z" />
<glyph unicode="8" horiz-adv-x="1134" d="M49 317q0 119 86.5 219t235.5 156q-73 36 -114.5 103t-41.5 151q0 161 133 260t328 99q175 0 271.5 -85.5t96.5 -215.5q0 -33 -11 -72t-36 -84.5t-73.5 -89.5t-114.5 -74q105 -42 167 -125t62 -188q0 -114 -71 -207t-194.5 -146t-272.5 -53q-201 0 -326 98.5t-125 253.5z M381 209q0 -73 26 -106t95 -33q61 0 104 34.5t65.5 95.5t32 129t9.5 150q0 79 -26.5 119.5t-92.5 40.5q-60 0 -103.5 -36.5t-66.5 -101t-33 -136t-10 -156.5zM475 889q0 -164 117 -164q48 0 86.5 32.5t60.5 84.5t33.5 111t11.5 118q0 68 -26.5 99.5t-85.5 31.5 q-51 0 -90.5 -28t-62 -74.5t-33.5 -100t-11 -110.5z" />
<glyph unicode="9" horiz-adv-x="1107" d="M98 821q0 143 79.5 258.5t204 176.5t263.5 61q203 0 313.5 -137.5t110.5 -368.5q0 -171 -50 -322.5t-139 -263.5t-221.5 -177.5t-289.5 -65.5q-74 0 -146.5 22.5t-105.5 63.5l71 79q47 -38 94 -52.5t109 -14.5q48 0 88.5 15.5t70 40t55 65.5t42.5 80t33 96.5t25.5 102.5 t21.5 110q-83 -137 -266 -137q-69 0 -133 24t-116 68.5t-83 116.5t-31 159zM408 758q0 -203 100 -203q52 0 98.5 25.5t74 60t43.5 64.5t17 45q21 130 21 221q0 53 -5 93t-17 76t-36.5 55t-60.5 19q-77 0 -132 -68t-79 -168.5t-24 -219.5z" />
<glyph unicode=":" horiz-adv-x="417" d="M-4 117q0 70 53.5 124t120.5 54q53 0 90 -39.5t37 -97.5q0 -70 -53.5 -124t-120.5 -54q-54 0 -90.5 40t-36.5 97zM86 756q0 70 53.5 124t120.5 54q53 0 90 -39t37 -96q0 -71 -53.5 -126t-120.5 -55q-54 0 -90.5 40.5t-36.5 97.5z" />
<glyph unicode=";" horiz-adv-x="530" d="M-2 143q15 65 66 107.5t116 42.5q67 0 103 -43t36 -113q0 -105 -53.5 -208.5t-140.5 -188.5q-24 -26 -43 0l-16 22q83 77 104 193q4 21 0 25q-25 -5 -39 -5q-74 0 -109 51t-24 117zM96 754q0 70 53.5 124t120.5 54q53 0 90 -39t37 -96q0 -71 -53.5 -126t-120.5 -55 q-54 0 -90.5 40.5t-36.5 97.5z" />
<glyph unicode="&#x3c;" horiz-adv-x="915" d="M80 416l29 194q434 168 776 351l-25 -162q-66 -32 -181.5 -96.5t-212 -109.5t-206.5 -79q100 -35 184 -80.5t183 -110t155 -96.5l-24 -161q-289 183 -678 350z" />
<glyph unicode="=" horiz-adv-x="858" d="M59 287l17 119h674l-17 -119h-674zM111 655l16 119h674l-17 -119h-673z" />
<glyph unicode="&#x3e;" horiz-adv-x="919" d="M31 66l24 161q65 32 182.5 96.5t214.5 110t207 80.5q-102 34 -185.5 79t-182 109.5t-154.5 96.5l21 162q299 -187 680 -351l-25 -194q-453 -174 -782 -350z" />
<glyph unicode="?" horiz-adv-x="1003" d="M104 868q0 120 67.5 221t179.5 158.5t241 57.5q191 0 298 -86.5t107 -229.5q0 -54 -27.5 -103.5t-71.5 -88.5t-96.5 -76.5t-105 -74.5t-95 -75.5t-68 -86.5t-23.5 -101h-100q0 71 29.5 147t71 140.5t83 125.5t71 122t29.5 110q0 174 -119 174q-59 0 -103.5 -42 t-64.5 -102t-20 -126q0 -16 3 -40t3 -40q0 -58 -43.5 -100.5t-122.5 -42.5q-63 0 -93 45t-30 114zM217 117q0 68 54.5 123t119.5 55q54 0 91.5 -39.5t37.5 -97.5q0 -70 -54 -124t-122 -54q-54 0 -90.5 40t-36.5 97z" />
<glyph unicode="@" horiz-adv-x="1550" d="M63 418q0 153 69 296.5t181 246.5t259 165t298 62q169 0 309 -73.5t223 -209.5t83 -307q0 -207 -114 -344t-292 -137q-137 0 -213 108q-36 -44 -99 -77t-146 -33q-89 0 -152 47.5t-63 128.5q0 39 10.5 71.5t41 68.5t81 65t136.5 56.5t202 47.5v12q10 52 10 88 q0 97 -72 97q-40 0 -59.5 -32t-30.5 -91q-3 -26 -38 -44t-91 -18q-96 0 -96 68q0 60 32 104.5t83.5 67t104 33t107.5 10.5q144 0 211.5 -54t67.5 -165q0 -41 -25.5 -226t-25.5 -192q0 -43 26 -43q35 0 61.5 74.5t38 168.5t11.5 185q0 200 -90.5 320t-245.5 120 q-109 0 -205.5 -64t-160.5 -165.5t-101 -225t-37 -243.5q0 -200 90 -323t252 -123l-14 -109q-128 0 -242 45.5t-196.5 123.5t-130.5 187.5t-48 231.5zM653 287q0 -32 10.5 -43t41.5 -11q40 0 67 22.5t66 74.5l22 174q-96 -26 -151.5 -81t-55.5 -136z" />
<glyph unicode="A" horiz-adv-x="1368" d="M-33 0l4 94q105 6 162.5 39t93.5 105l480 1044h186l207 -981q28 -120 64 -160.5t126 -46.5l-4 -94q-162 4 -326 4t-331 -4l4 94q42 4 69.5 9t55.5 15.5t39.5 31t5.5 49.5l-53 235h-318l-106 -241q-11 -26 -10 -42.5t15.5 -27t38.5 -16t59.5 -8.5t77.5 -5h7v-94 q-136 4 -272.5 4t-274.5 -4zM475 530h254l-86 381z" />
<glyph unicode="B" horiz-adv-x="1288" d="M-18 0l10 94q81 6 116.5 24.5t41.5 57.5l131 942q5 29 -16 41.5t-95 18.5l2 94q126 -4 188 -4q71 0 167.5 2t119.5 2q529 0 529 -293q0 -90 -60.5 -170t-200.5 -127q302 -67 302 -293q0 -105 -46.5 -181.5t-131 -121t-192 -65.5t-241.5 -21h-624zM475 170q-5 -43 2 -52 q10 -13 81 -14h52q141 0 213 91t72 241q0 92 -55.5 136t-186.5 44l-118 -22zM551 696l63 17q265 45 265 301q0 164 -166 164q-65 0 -90 -2z" />
<glyph unicode="C" horiz-adv-x="1230" d="M82 668q21 148 85 270t153 201.5t195 122.5t216 43q85 0 178 -26t140 -26q39 0 116 9q-4 -49 -4 -97q0 -140 35 -264l-170 14q-92 285 -305 285q-77 0 -138 -69.5t-97.5 -179t-55.5 -253.5q-16 -108 -18 -214v-20q0 -95 13 -181q14 -95 54.5 -154t104.5 -59 q61 0 111.5 18.5t100 63.5t78 78t83.5 103q12 15 18 23l201 -16q-151 -222 -172 -346q-17 7 -32 12t-24.5 7.5t-21.5 3.5t-16.5 1h-16h-14.5q-60 0 -137.5 -26.5t-153.5 -26.5q-282 1 -417 189q-101 141 -101 357q0 74 12 157z" />
<glyph unicode="D" horiz-adv-x="1329" d="M-12 0l4 96q99 8 120 15q29 12 35 45l134 962q5 29 -16 41.5t-95 18.5l2 94q126 -4 188 -4q58 0 174 2t175 2q129 0 231 -27t180 -85t120 -157t42 -235q0 -163 -44 -302t-127 -242t-212 -161.5t-289 -58.5q-36 0 -152.5 16.5t-172.5 16.5q-25 0 -47.5 -1t-48 -3.5 t-40.5 -4t-43.5 -6.5t-37 -6.5t-42 -8t-38.5 -7.5zM470 117.5q1 -9.5 1 -11.5t8 -5l8 -3q23 -1 49.5 -2.5t43.5 -2.5t22 -1h3q61 0 113 47q54 48 91.5 126.5t64.5 177t39.5 198t12.5 190.5q0 170 -63.5 257.5t-182.5 87.5q-21 0 -57 -5l-150 -1028q-4 -16 -3 -25.5z" />
<glyph unicode="E" horiz-adv-x="1085" d="M-10 0l2 88q80 6 116 25.5t42 58.5l131 940q7 37 -17 48.5t-110 17.5l10 94h866q21 0 28.5 -10.5t4.5 -34.5l2 -252h-98l-19 51q-13 29 -19.5 41.5t-17.5 32t-19 27t-20.5 18t-27 13.5t-34 6t-44.5 3h-107q-19 0 -34 -14t-17 -31l-57 -411h160q72 0 111 29.5t59 97.5 l75 -17q-38 -161 -47 -348l-80 16q-2 67 -25.5 92t-96.5 25h-170l-68 -469q-1 -17 5.5 -24t25.5 -7h37q120 0 182 29t110 113l78 133l109 -8q-53 -116 -82 -203t-35 -170q-188 10 -415 10t-494 -10z" />
<glyph unicode="F" horiz-adv-x="1040" d="M-12 0l4 94q79 4 114.5 24t43.5 60l129 934q7 37 -17 48.5t-110 17.5l10 94h864q35 0 29 -45v-252h-97l-20 51q-15 33 -22 48t-19.5 35t-22.5 28t-27.5 16.5t-38 11t-50.5 2.5h-101q-17 0 -32.5 -14t-16.5 -31l-57 -411h158q71 0 110 28t60 90h75q-38 -171 -47 -348h-78 q-3 73 -27 99t-97 26h-168l-62 -442q-6 -38 19.5 -51.5t105.5 -18.5l-4 -94q-152 4 -304 4t-304 -4z" />
<glyph unicode="G" horiz-adv-x="1316" d="M78 412q-7 49 -7 104q0 71 11 152q21 148 86 270.5t155 201.5t197 122t217 43q77 0 170.5 -26t141.5 -26q39 0 116 9q-4 -49 -4 -97q0 -139 35 -264l-170 14q-42 130 -122.5 207.5t-178.5 77.5q-75 0 -137 -69t-100.5 -180t-57.5 -253q-15 -110 -15 -217.5t15.5 -201 t56 -151.5t101.5 -58q109 0 161.5 46.5t69.5 153.5l25 170v9q0 60 -64 63l-75 2l10 96q172 -6 326 -6q123 0 235 4l-10 -94l-31 -4q-28 -3 -49.5 -27.5t-30.5 -68.5q-30 -121 -41 -293l19 -4q46 -12 43 -45l-7 -49h-108h-21q-126 0 -260.5 -29t-232.5 -29q-87 0 -164 27.5 t-141.5 83t-106.5 139t-57 197.5z" />
<glyph unicode="H" horiz-adv-x="1409" d="M-12 0l4 94q80 4 117 24.5t45 59.5l131 932q6 37 -21.5 50t-111.5 18l4 94q156 -4 310 -4t306 4v-94q-81 -4 -120 -24.5t-44 -59.5l-57 -408h354l60 424q3 38 -22.5 50.5t-108.5 17.5v94q154 -4 309 -4t311 4v-94q-84 -4 -122 -24.5t-44 -59.5l-131 -932q-4 -38 22 -50.5 t109 -17.5l-2 -94q-153 4 -307.5 4t-310.5 -4l4 94q80 4 118 24.5t44 59.5l57 412h-352l-60 -428q-6 -37 19.5 -50t107.5 -18v-94q-154 4 -309 4z" />
<glyph unicode="I" horiz-adv-x="727" d="M-12 0l4 94q80 4 117 24.5t45 59.5l131 932q6 37 -21.5 50t-111.5 18l4 94q156 -4 310 -4t306 4v-94q-81 -4 -120 -24.5t-44 -59.5l-129 -932q-6 -37 19.5 -50t107.5 -18v-94q-154 4 -309 4z" />
<glyph unicode="J" horiz-adv-x="741" d="M-162 -362l4 96q54 0 90 6.5t75.5 30t65.5 66t49 117.5t38 183l135 973q7 38 -19 50.5t-112 17.5l4 94q154 -4 309 -4t311 4l-4 -94q-81 -4 -119 -24.5t-44 -59.5l-113 -803q-25 -182 -80 -309t-141.5 -202.5t-195.5 -108.5t-253 -33z" />
<glyph unicode="K" horiz-adv-x="1402" d="M-12 0l4 94q81 4 120 24.5t42 59.5l131 932q7 37 -19.5 50t-111.5 18l4 94q154 -4 308 -4t310 4l-4 -94q-78 -4 -116 -24.5t-46 -59.5l-65 -476l473 472q12 12 12 23q0 15 -21 31q-37 27 -118 34l4 94q121 -4 243 -4t244 4l-4 -94q-130 -11 -225 -111l-367 -360 q113 -191 202.5 -322.5t150 -199.5t100 -96.5t70.5 -31.5l-86 -94q-158 0 -313.5 125t-327.5 418l-62 -62l-41 -282q-6 -37 21.5 -50t109.5 -18l-4 -94q-153 4 -307.5 4t-310.5 -4z" />
<glyph unicode="L" horiz-adv-x="1093" d="M-6 0l2 88q81 6 118 26.5t40 59.5l131 936q7 37 -19.5 50t-111.5 18l4 94q154 -4 308 -4t310 4l-4 -94q-78 -4 -116 -24.5t-46 -59.5l-137 -959q-1 -17 5.5 -24t25.5 -7h55q120 0 182.5 30.5t112.5 115.5l78 133l110 -8q-103 -201 -118 -383q-266 12 -574 12 q-171 0 -356 -4z" />
<glyph unicode="M" horiz-adv-x="1660" d="M-8 0v94q106 7 175.5 27.5t72.5 56.5l127 893q1 4 1 8q0 35 -40 63q-44 32 -123 36l2 94q116 -4 233 -4t236 4l209 -721l334 721q122 -4 244.5 -4t246.5 4l-2 -96q-87 -4 -124 -22.5t-42 -57.5l-133 -934q-4 -38 22 -50.5t109 -17.5v-94q-154 4 -309 4t-311 -4l4 94 q81 4 118 24.5t43 59.5l113 795l-455 -973l-282 973l-117 -811q-3 -18 11 -30.5t48.5 -20t67.5 -10.5t90 -7l-2 -94q-141 4 -283 4t-284 -4z" />
<glyph unicode="N" horiz-adv-x="1437" d="M-12 0l4 94q237 15 248 84l125 895q3 35 -43 68t-121 37v94q118 -4 237.5 -4t239.5 4l369 -701l81 539q2 18 -12.5 30.5t-49 20t-67 10.5t-88.5 7v94q144 -4 287 -4l287 4l-4 -94q-241 -15 -252 -84l-154 -1094h-100l-518 973l-117 -811q-4 -35 49 -48t170 -20l-4 -94 q-141 4 -283 4t-284 -4z" />
<glyph unicode="O" horiz-adv-x="1280" d="M72 522q0 159 51.5 303t140.5 249.5t216.5 168t271.5 62.5q220 0 359.5 -159t139.5 -409q0 -205 -92 -383t-248.5 -283.5t-337.5 -105.5q-227 0 -364 148t-137 409zM412 467q0 -181 48 -288t140 -107q66 0 121 51t90 131.5t59.5 183.5t34.5 202.5t10 193.5 q0 364 -180 364q-86 0 -151.5 -69t-101.5 -181.5t-53 -234t-17 -246.5z" />
<glyph unicode="P" horiz-adv-x="1230" d="M-12 0l4 94q81 6 115.5 24.5t42.5 57.5l131 942q6 32 -18.5 43.5t-92.5 16.5l2 94q88 -4 185.5 -4t191.5 2t119 2q167 0 280 -25.5t175 -77t82 -122.5q11 -41 11 -90q0 -37 -6 -78q-20 -147 -172 -240t-481 -166l-41 -4l-45 -309q-3 -37 22 -48.5t107 -17.5l-4 -94 q-152 4 -304 4t-304 -4zM530 571l23 9q156 27 250.5 116.5t111.5 221.5q7 44 7 81q0 71 -27 114q-41 65 -150 65q-91 0 -122 -2z" />
<glyph unicode="Q" horiz-adv-x="1380" d="M18 -342q58 90 205.5 175t376.5 138h-7q-239 0 -379 135q-142 137 -142 408q0 224 87 404t248 283.5t367 103.5q144 0 263 -73t188 -204.5t69 -294.5q0 -308 -189 -526.5t-519 -329.5q-10 -3 -47 -14.5t-48 -15.5t-40 -14t-42.5 -16.5t-35 -17t-38 -21.5t-32.5 -24 q95 64 213 64q66 0 201.5 -39t195.5 -39q163 0 205 117l135 -15q-20 -150 -128.5 -255t-239.5 -105q-53 0 -96 19t-70.5 47t-55.5 61t-51 61t-57 47t-74 19q-61 0 -113.5 -24.5t-74.5 -53.5h-275zM418 541q0 -122 24 -226t75.5 -172.5t121.5 -68.5t126.5 49.5t91 126.5 t58 177.5t32.5 196t9 189.5q0 180 -49.5 283.5t-152.5 103.5q-81 0 -147 -61.5t-106 -160t-61.5 -212t-21.5 -225.5z" />
<glyph unicode="R" horiz-adv-x="1308" d="M-12 0l4 94q81 6 116.5 24.5t41.5 57.5l131 942q5 29 -16 41.5t-95 18.5l2 94q63 -4 148.5 -4t192 2t155.5 2q293 0 421 -78t128 -236q0 -75 -22 -137t-57 -105t-88.5 -78.5t-108.5 -58t-124 -42.5q141 -252 242.5 -362.5t165.5 -117.5l-86 -94q-154 0 -305.5 118 t-313.5 388h-4l-45 -309q-3 -37 22 -48.5t107 -17.5l-4 -94q-86 3 -303 3t-305 -3zM530 569l23 6q174 24 270.5 132t96.5 290q0 90 -41.5 135.5t-133.5 45.5q-91 0 -122 -2z" />
<glyph unicode="S" horiz-adv-x="1011" d="M-2 0l27 326h67q31 0 47 -14t15 -44q21 -93 87 -141.5t156 -48.5q84 0 145.5 71.5t61.5 149.5q0 72 -34 120.5t-134 98.5q-70 34 -122.5 70.5t-98.5 84t-70 109t-24 133.5q0 116 63.5 206.5t165.5 137t223 46.5q66 0 142 -24t90 -24q13 0 27.5 11t21.5 28h92l-28 -325 h-52q-28 0 -44 16t-25 51q-29 89 -77 126.5t-128 37.5q-68 0 -122 -46t-54 -120q0 -75 47.5 -124.5t134.5 -92.5q31 -16 47 -24t49 -27t52 -33t48.5 -37.5t47.5 -45.5t39.5 -52.5t33 -62t19.5 -70.5t8 -82q0 -79 -34 -155t-93.5 -134t-145.5 -93.5t-184 -35.5q-62 0 -116 13 t-83.5 29t-59 29t-48.5 13q-71 0 -84 -51h-96z" />
<glyph unicode="T" horiz-adv-x="1204" d="M121 961l104 321l101 -2q26 -5 53 -7t45 -2t60 0.5t71 0.5h365h43h39.5t30.5 0.5t31.5 1t26 2t30 3.5t28.5 5l113 -2l-113 -321h-109q21 69 21 112q-1 9 -1 15q-4 46 -22 61.5t-53 15.5h-129l-141 -1003q-6 -38 20 -50.5t109 -17.5v-94q-155 4 -310.5 4t-310.5 -4l4 94 q80 4 118 24.5t46 59.5l135 987h-123q-44 0 -87 -62q-18 -25 -85 -142h-110z" />
<glyph unicode="U" horiz-adv-x="1464" d="M127 1178v94q156 -3 311 -3t310 3l-5 -94q-81 -4 -119 -24.5t-44 -59.5q-100 -724 -106 -799q-3 -32 -3 -59q0 -80 17.5 -116t74.5 -36q55 0 107.5 24.5t97.5 68.5t79.5 88.5t70.5 101.5l106 743q3 38 -22.5 50.5t-108.5 17.5v94q155 -3 310 -3l310 3l-4 -94 q-81 -4 -119 -24.5t-44 -59.5l-129 -932q-4 -37 22 -50t107 -18l-5 -94q-85 3 -256 3t-241 -3l6 98q32 18 39 80l4 29q-62 -96 -157.5 -161.5t-221.5 -65.5q-180 0 -273.5 90t-93.5 247q0 14 111 793q3 37 -23.5 50t-107.5 18z" />
<glyph unicode="V" horiz-adv-x="1329" d="M156 1178l2 94q153 -4 307 -4t309 4l-2 -94q-86 -5 -130 -26q-35 -17 -35 -42q0 -7 3 -14l152 -699l319 715q17 35 -22.5 48t-134.5 18l2 94q112 -4 224 -4t224 4l-2 -94q-81 -4 -123 -23.5t-63 -58.5l-520 -1114h-117l-260 1130q-8 36 -32 49t-101 17z" />
<glyph unicode="W" horiz-adv-x="1998" d="M156 1178l2 94q153 -4 307 -4t309 4l-2 -94q-84 -5 -128 -26q-35 -17 -36 -43q0 -6 2 -13l125 -699l283 678l-8 37q-6 37 -29.5 49.5t-103.5 16.5l4 94q153 -4 307.5 -4t310.5 4l-4 -94q-83 -5 -127 -26q-38 -18 -38 -47q0 -5 1 -9l127 -699l291 715q2 10 4 17.5t-4 13.5 t-11.5 10.5t-18.5 8.5t-24 6t-29.5 4t-34.5 3.5t-38 2.5v94q112 -4 225 -4t226 4l-2 -94q-81 -4 -123 -23.5t-61 -58.5l-496 -1114h-113l-198 933l-412 -933h-117l-233 1130q-6 36 -30.5 49t-102.5 17z" />
<glyph unicode="X" horiz-adv-x="1345" d="M6 0v94q114 11 205 127l340 379l-238 487q-25 48 -58.5 65.5t-104.5 25.5l4 94q140 -4 281.5 -4t283.5 4l-4 -98q-47 -8 -77 -24t-24 -36l142 -285l252 281q10 10 10 20q0 23 -60 37l-57 11v94q108 -4 217 -4l217 4l-4 -94q-63 -7 -121 -38.5t-98 -78.5l-303 -344 l258 -527q24 -51 57.5 -70.5t98.5 -25.5v-94q-144 4 -286.5 4t-283.5 -4l4 94q52 7 85.5 26t19.5 48l-156 317l-276 -313q-24 -31 -3.5 -51.5t76.5 -26.5l-2 -94q-99 4 -198 4t-197 -4z" />
<glyph unicode="Y" horiz-adv-x="1316" d="M137 1178v94q153 -6 308 -6t311 6l-4 -94q-78 -7 -106.5 -31t-14.5 -57l160 -449l266 412q21 28 21 50q0 8 -3 15q-10 27 -34.5 40.5t-61.5 19.5v94q95 -6 191 -6t194 6l-4 -94q-109 -14 -191 -142l-354 -547l-51 -327q-4 -37 22.5 -50.5t108.5 -21.5v-90 q-153 4 -308.5 4t-312.5 -4l5 94q81 4 118 24.5t45 59.5l43 303l-229 623q-6 22 -9 28.5t-14.5 19t-34 17.5t-61.5 9z" />
<glyph unicode="Z" horiz-adv-x="1189" d="M-20 0l815 1178h-303q-13 0 -24.5 -2.5t-20.5 -5t-19.5 -10.5t-17.5 -13t-17.5 -18t-16 -20t-17 -25t-17 -26.5t-19.5 -31.5t-20 -33l-127 8l105 281l106 -2q24 -5 50 -7t44 -2t60.5 0.5t72.5 0.5h619l-819 -1180h114q54 0 92 7t67.5 26t47.5 36.5t49 52.5q9 10 13 15 l155 156l168 -8q-76 -92 -186 -275l45 -10q44 -11 41 -45l-6 -47h-140q0 -4 -4 -8z" />
<glyph unicode="[" horiz-adv-x="667" d="M-25 -305l256 1825l551 34l-12 -84q-6 -29 -45 -32l-188 -15l-230 -1632l182 -14q18 -2 28 -11t9 -22l-10 -84z" />
<glyph unicode="\" horiz-adv-x="901" d="M207 1477h225l283 -1641h-223z" />
<glyph unicode="]" horiz-adv-x="692" d="M-68 -340l13 84q1 13 14 22t31 11l186 14l230 1632l-185 15q-17 2 -26.5 10.5t-8.5 21.5l13 84l540 -34l-256 -1825z" />
<glyph unicode="^" horiz-adv-x="802" d="M139 952.5q-11 28.5 11 53.5l331 397q28 28 54.5 24t37.5 -24l220 -397q15 -25 -3.5 -53.5t-54.5 -28.5h-20q-43 0 -84 53l-137 170l-189 -170q-53 -53 -100 -53h-23q-32 0 -43 28.5z" />
<glyph unicode="_" horiz-adv-x="1085" d="M-55 -250l28 209h985l-30 -209h-983z" />
<glyph unicode="`" horiz-adv-x="675" d="M236 1345.5q23 -54.5 86 -77.5l340 -119l36 55l-274 238q-51 43 -99 44t-81 -42q-31 -44 -8 -98.5z" />
<glyph unicode="a" d="M37 287q0 138 57.5 276t152 244.5t224.5 173t266 66.5q156 0 324 -66l-103 -752q-1 -7 -1 -13q0 -34 38 -34q21 0 56 19t69 51q19 19 28 23t21 -1q14 -8 13 -28.5t-15 -38.5q-86 -110 -191.5 -165.5t-201.5 -55.5q-126 0 -126 109q0 10 1 22l17 149q-25 -62 -44 -99.5 t-47.5 -76t-61 -58.5t-80 -33t-109.5 -13q-56 0 -103.5 14t-90.5 46.5t-68 94t-25 146.5zM332 313q0 -110 22 -157t72 -47q69 0 138.5 111.5t114 257t62.5 278.5l23 174q-57 33 -105 33q-72 0 -130.5 -48.5t-94 -121t-59.5 -163.5t-33.5 -170t-9.5 -147z" />
<glyph unicode="b" horiz-adv-x="1185" d="M102 1096l17 100q76 17 145 45.5t106.5 52t68 41t42.5 17.5q55 0 55 -67q0 -11 -1 -23l-80 -603q30 60 58.5 108.5t70 102t84.5 89.5t98.5 59.5t114.5 23.5q47 0 91 -18t82.5 -54.5t61.5 -99t23 -143.5q0 -73 -20 -156t-57 -166t-94 -159t-125 -134t-155.5 -93 t-181.5 -35q-44 0 -93.5 10.5t-103.5 37t-94.5 65.5t-62.5 102q-16 45 -16 97q0 21 3 44l78 684q5 39 -7 57.5t-40 20.5h-10q-24 0 -58 -6zM414 120q20 -54 106 -54q75 0 135 53.5t95.5 134.5t59 185t32 195t8.5 175q0 65 -12.5 96t-46.5 31q-46 0 -98 -49.5t-96.5 -125 t-83.5 -162t-64 -164.5t-33 -128q-12 -70 -13 -119q1 -43 11 -68z" />
<glyph unicode="c" horiz-adv-x="954" d="M57 362q0 95 29.5 193t84.5 184.5t127.5 154.5t165 108t189.5 40q116 0 197.5 -71.5t81.5 -171.5q0 -64 -40 -112t-106 -48q-54 0 -81 31.5t-27 81.5q0 29 4.5 62t8.5 53.5t5 40.5t-4.5 31t-21.5 17.5t-45 6.5q-57 0 -106 -35.5t-80.5 -90t-54 -123t-32.5 -132 t-10 -117.5q0 -135 48 -211t138 -76q122 0 224 107q2 2 6 6.5t6 6t5 4.5t5.5 4t5.5 2.5t6 2t7 0.5h32q19 0 25 -11t0 -27t-19 -33q-157 -254 -434 -254q-67 0 -126 21t-108 63.5t-77.5 117.5t-28.5 174z" />
<glyph unicode="d" horiz-adv-x="1271" d="M45 287q0 138 59 275.5t156.5 244.5t235 173.5t284.5 66.5q10 0 19 0.5t12 -0.5l4 10q5 36 -31 44q-14 3 -31 3q-28 0 -67 -8l19 100q98 22 182 61.5t128 67t56 27.5q35 0 45 -22q7 -15 8 -41q0 -12 -2 -27l-143 -1033q-1 -7 -1 -13q0 -34 38 -34q22 0 57 19t68 51 q20 19 28.5 22.5t22.5 -0.5q13 -8 11.5 -28.5t-15.5 -38.5q-85 -111 -194 -166t-218 -55q-63 0 -92 35q-22 27 -22 69q0 13 2 27l22 114q-26 -52 -45 -84t-48.5 -66t-62.5 -52.5t-81.5 -30.5t-110.5 -12q-55 0 -104.5 16t-93 49.5t-69.5 94t-26 141.5zM344 313 q0 -109 23 -156.5t73 -47.5q51 0 107 70.5t99.5 173.5t74.5 212t41 191l22 174q-57 33 -104 33q-71 0 -130.5 -48t-96.5 -121.5t-62.5 -163.5t-36 -170t-10.5 -147z" />
<glyph unicode="e" horiz-adv-x="935" d="M57 362q0 95 30.5 193t87 184.5t129.5 154.5t166 108t189 40q226 0 226 -184q0 -62 -27.5 -119.5t-76 -102.5t-103 -83t-120.5 -68t-115 -49t-99 -35q-1 -10 -1 -20q0 -47 12 -83q14 -44 39.5 -69.5t55.5 -38t62 -12.5q127 0 229 107q2 2 6 6.5t6 6t5 4.5t5.5 4t5.5 2.5 t6 2t7 0.5h33q19 0 25 -11t0 -27t-19 -33q-157 -254 -424 -254q-67 0 -126 21t-108 63.5t-77.5 117.5t-28.5 174zM348 479q299 102 299 385q0 97 -59 97q-77 0 -147.5 -140.5t-92.5 -341.5z" />
<glyph unicode="f" horiz-adv-x="833" d="M-338 -299q0 55 37 91t90 36q32 0 61 -18.5t50 -45.5t40 -54t40.5 -45.5t42.5 -18.5q26 0 43.5 4t40.5 21t39 49.5t32.5 93t28.5 147.5l135 957v4h-135q-17 0 -28 11t-11 28v22q0 19 8.5 31t22.5 12h166q97 371 469 371q143 0 231 -61t88 -130q0 -51 -31 -77.5t-90 -26.5 q-93 0 -164 110q-6 9 -17 27.5t-16 26.5t-14 20t-15.5 17.5t-16 9.5t-19.5 4q-41 0 -68.5 -75.5t-48.5 -215.5h117q11 0 18.5 -2t11.5 -3.5t5.5 -7t2 -8t0 -11t-0.5 -11.5v-22q0 -18 -10.5 -28.5t-28.5 -10.5h-129l-78 -553q-21 -147 -55.5 -267.5t-75.5 -204t-92 -147 t-100 -100.5t-104 -60t-100.5 -31t-92.5 -8q-279 0 -279 150z" />
<glyph unicode="g" horiz-adv-x="1189" d="M-66 -193q0 86 51.5 139.5t129.5 53.5q116 0 116 -94q0 -31 -19 -75.5t-19 -76.5q0 -45 55.5 -82t183.5 -37q139 0 230.5 57t91.5 171q0 34 -35.5 63t-110.5 45l-366 74q-90 17 -141.5 61t-51.5 105q0 32 12.5 56.5t29 39t51.5 27t60 18t74 15.5q-64 25 -118 101t-54 173 q0 118 68 211t178.5 141.5t241.5 48.5q223 0 342 -133q37 131 145 131q54 0 90.5 -29.5t36.5 -80.5q0 -52 -30 -86.5t-76 -34.5q-19 0 -41 12.5t-33 12.5q-12 0 -20.5 -10.5t-8.5 -28.5q0 -5 8.5 -39.5t8.5 -61.5q0 -79 -30 -141.5t-80.5 -104t-125.5 -71.5t-157.5 -46.5 t-184.5 -25.5q-41 -3 -95 -7q-47 -3 -59 -5.5t-12 -9.5q0 -10 17 -15t70 -14q15 -3 24 -4l274 -47q178 -30 269.5 -92.5t91.5 -180.5q0 -85 -59 -158t-150.5 -119t-196 -71.5t-202.5 -25.5q-225 0 -349.5 66.5t-124.5 184.5zM393 592q0 -101 34 -154t97 -53q64 0 111 63 t67.5 150.5t20.5 181.5q0 90 -32 139.5t-93 49.5q-58 0 -106 -57.5t-73.5 -143.5t-25.5 -176z" />
<glyph unicode="h" horiz-adv-x="1189" d="M82 68l135 956q5 39 -7 57.5t-40 20.5h-10q-25 0 -58 -6l17 100q97 22 182 61.5t133 67t70 27.5q56 0 56 -59q0 -14 -3 -31l-117 -592q68 129 108 183q139 189 337 189q118 0 187 -81t69 -201q0 -204 -59.5 -380t-173 -286t-257.5 -110q-96 0 -147 36t-51 99 q0 56 34.5 85t83.5 29q40 0 63.5 -17.5t30.5 -43t10 -51t9 -43t21 -17.5q44 0 77 249t33 483q0 118 -72 118q-116 0 -223 -226t-168 -630q-6 -37 -44.5 -55t-98.5 -18q-128 0 -128 71q0 7 1 15z" />
<glyph unicode="i" horiz-adv-x="768" d="M63 764q-6 7 -6 16q0 20 25 51q87 105 192 161.5t203 56.5q75 1 100 -45q16 -29 16 -77q0 -27 -5 -59l-119 -639q-3 -23 12.5 -35t38.5 -12q21 0 55.5 19.5t67.5 50.5q37 35 55 22q12 -11 8.5 -30.5t-16.5 -36.5q-86 -111 -194 -168t-215 -57q-72 0 -100 39 q-19 27 -19 76q0 23 4 50l119 666q3 25 -4 35t-29 10q-21 0 -56 -22.5t-67 -57.5q-15 -19 -34.5 -23t-31.5 9zM334 1292q0 70 51 120t123 50q70 0 119 -49.5t49 -120.5t-49 -122.5t-119 -51.5q-72 0 -123 51.5t-51 122.5z" />
<glyph unicode="j" horiz-adv-x="712" d="M-338 -299q0 55 37 91t90 36q32 0 61 -18.5t50 -45.5t40 -54t40.5 -45.5t42.5 -18.5q26 0 43.5 3.5t40 17.5t38 40.5t30.5 75t24 117.5l127 913q1 7 1 13q0 32 -32 32q-21 0 -58 -23t-67 -57q-13 -14 -31.5 -20.5t-34.5 6.5q-6 6 -6 18q0 16 23 49q87 105 192.5 161.5 t202.5 56.5q81 0 104 -44q14 -28 14 -75q0 -28 -5 -62l-80 -561q-18 -134 -51 -244.5t-72.5 -187.5t-89.5 -136t-99 -94t-103.5 -57t-100 -29.5t-92.5 -7.5q-279 0 -279 150zM330 1292q0 71 50 120.5t122 49.5q71 0 119.5 -49.5t48.5 -120.5q0 -73 -48.5 -123.5 t-119.5 -50.5t-121.5 51.5t-50.5 122.5z" />
<glyph unicode="k" horiz-adv-x="1189" d="M72 0l145 1024q5 39 -7 57.5t-40 20.5h-10q-25 0 -58 -6l17 100q98 22 184 61.5t131.5 67t57.5 27.5q53 0 53 -62q0 -13 -2 -28l-97 -703q179 116 253 210q35 43 35 69q0 34 -60 40q-16 2 -35 1l14 102q72 25 135 37q64 14 109 14h5q42 0 72 -8q32 -8 48 -22t16 -33 q0 -38 -26 -74t-107.5 -100t-245.5 -174q81 -155 155.5 -269t131.5 -174.5t98 -89t72 -31.5l-86 -94q-305 0 -600 475l-61 -438q-75 -15 -149 -15t-148 15z" />
<glyph unicode="l" horiz-adv-x="694" d="M90 125l127 899q5 39 -7 57.5t-40 20.5h-10q-25 0 -58 -6l17 100q98 22 184.5 61.5t132.5 67t58 27.5q36 0 46 -22q7 -15 7 -41q0 -12 -2 -27l-146 -1033q-1 -7 -1 -12q0 -35 48 -35q21 0 56 19t69 51q35 35 54 22q12 -8 9.5 -28.5t-16.5 -38.5q-87 -111 -198.5 -168 t-222.5 -57q-63 0 -89 34q-20 25 -20 74q0 16 2 35z" />
<glyph unicode="m" horiz-adv-x="2048" d="M63 764q-6 7 -6 16q0 20 25 51q181 218 391 218q68 0 96 -47q18 -31 18 -78q0 -25 -5 -56l-43 -198q68 133 112 192q135 180 324 180q231 0 231 -245q0 -56 -12 -125v-4q62 123 83 157q127 205 317 216q12 1 24 1q48 0 85 -10t69.5 -35t48 -67t21.5 -106q2 -18 2 -39 q0 -50 -11 -113l-70 -443l-2 -14q0 -33 41 -33q21 0 55.5 19.5t67.5 50.5q38 35 53 22q13 -12 9.5 -30.5t-15.5 -36.5q-85 -110 -195.5 -165.5t-217.5 -55.5q-114 0 -114 121q0 25 5 55l76 504q3 18 7 44.5t6.5 42.5t5.5 38t3 35t-1 28.5t-5 24.5t-10.5 17t-17.5 11.5 t-25 3.5q-123 0 -236.5 -236t-179.5 -675q-68 -15 -135 -15l-135 15l84 666q20 137 20 165q0 74 -49 79q-5 1 -10 1q-119 0 -230.5 -236t-177.5 -675q-68 -16 -135 -16l-135 16l115 813q4 24 -3.5 34.5t-29.5 10.5q-21 0 -56 -22.5t-67 -57.5q-15 -19 -34.5 -23t-31.5 9z " />
<glyph unicode="n" horiz-adv-x="1409" d="M63 764q-6 7 -6 16q0 20 25 51q181 218 391 218q68 0 96 -47q18 -31 18 -78q0 -25 -5 -56l-43 -198q68 133 112 192q135 180 324 180q49 0 86 -10t69.5 -35t48 -67t21.5 -106q2 -19 2 -41q0 -50 -10 -111l-68 -443q-4 -23 7.5 -35t33.5 -12q44 0 121 70q35 35 53 22 q12 -11 9 -30.5t-15 -36.5q-86 -110 -197.5 -165.5t-217.5 -55.5q-112 0 -112 121q0 25 5 55l74 504q2 17 7 50q14 65 14 111q0 16 -2 30q-6 54 -56 54q-121 0 -229.5 -233.5t-178.5 -677.5q-68 -16 -135 -16l-135 16l115 813q4 24 -3.5 34.5t-29.5 10.5q-21 0 -56 -22.5 t-67 -57.5q-15 -19 -34.5 -23t-31.5 9z" />
<glyph unicode="o" horiz-adv-x="1118" d="M61 406q0 164 81 312t212.5 236t274.5 88q84 0 157 -22t135 -68.5t98 -128.5t36 -192q0 -121 -48 -239t-127 -207t-187 -144t-222 -55q-57 0 -113.5 15t-110.5 48t-95 80.5t-66 119t-25 157.5zM362 260q0 -194 119 -194q72 0 134 105t96 267t34 334q0 94 -31 143.5 t-89 49.5q-57 0 -107.5 -67.5t-83.5 -171.5t-52.5 -227.5t-19.5 -238.5z" />
<glyph unicode="p" horiz-adv-x="1169" d="M-23 -397q3 18 15 34t25 30t28.5 59t24.5 114l106 889v13q0 46 -26 58q-15 7 -37 7q-24 0 -56 -8l17 102q77 17 146 45.5t106.5 52t67.5 41t42 17.5q54 0 54 -67q0 -11 -1 -23l-43 -342q174 417 428 417q47 0 91 -18t82.5 -54.5t62 -99t23.5 -143.5q0 -88 -28 -188.5 t-84 -198.5t-130.5 -178t-177 -129t-213.5 -49q-38 0 -94 12l-15 -105q-1 -11 -1 -20q0 -40 24 -53q18 -9 51 -9q24 0 55 5l-10 -103q-106 -21 -213.5 -60.5t-175 -67t-96.5 -27.5q-25 0 -38 12t-10 35zM434 116q13 -50 82 -50q75 0 134.5 53.5t94.5 134.5t58.5 185t32 195 t8.5 175q0 65 -13 96t-47 31q-56 0 -116.5 -74t-106.5 -181.5t-79 -217.5t-44 -191q-10 -61 -10 -104q0 -31 6 -52z" />
<glyph unicode="q" horiz-adv-x="1210" d="M43 287q0 136 65 277t162 245.5t213 171t215 66.5q52 0 91.5 -10.5t61 -25.5t37.5 -30.5t32 -26t34 -10.5q15 0 25 6t16 20t8.5 24t6.5 32h24q66 0 66 -58q0 -9 -2 -20l-148 -1057q-1 -10 -1 -19q0 -41 25 -54q19 -9 52 -9q24 0 55 5l-12 -103q-107 -21 -199.5 -60.5 t-143.5 -67t-71 -27.5q-37 0 -48.5 20t-6.5 62l86 593q-25 -51 -44.5 -83.5t-49.5 -66.5t-63.5 -52.5t-82 -30.5t-110.5 -12q-55 0 -104.5 16t-93 49.5t-69.5 94t-26 141.5zM342 313q0 -109 23 -156.5t73 -47.5q49 0 103.5 65.5t97.5 162.5t75 202.5t44 189.5l24 203 q-49 31 -98 31q-75 0 -136 -48t-98 -120.5t-62.5 -163t-35.5 -170t-10 -148.5z" />
<glyph unicode="r" horiz-adv-x="1036" d="M58 787q4 15 11 26.5t13 17.5q181 218 391 218q72 -1 98 -51q16 -32 16 -75q0 -25 -5 -55l-33 -147q113 326 332 326q69 0 112 -44.5t43 -107.5q0 -73 -37 -111.5t-92 -38.5q-31 0 -52.5 11t-33 26t-22.5 29t-29.5 20t-46.5 0q-29 -7 -55.5 -39.5t-51.5 -92t-46.5 -128.5 t-45 -168.5t-42 -189.5t-42.5 -213q-52 -17 -120 -17t-150 17l115 813q1 7 1 12q0 33 -34 33q-21 0 -56 -22.5t-67 -57.5q-11 -14 -30 -20.5t-36 6.5q-9 8 -5 23z" />
<glyph unicode="s" horiz-adv-x="858" d="M12 166q0 53 33 90t82 37q44 0 73 -24.5t44.5 -59.5t30 -70t41.5 -59.5t67 -24.5t63 20t23 52q0 25 -5 49t-9.5 39.5t-22.5 45.5t-26 42.5t-39.5 57t-44.5 63.5q-13 18 -41.5 56t-40.5 55t-31.5 48.5t-28 53.5t-15.5 52.5t-7 60.5q0 136 106.5 214t276.5 78 q102 0 192 -52t90 -124q0 -49 -29 -79.5t-75 -30.5t-79.5 21.5t-52 52t-35 60.5t-39.5 51.5t-54 21.5t-51.5 -12.5t-20.5 -37.5q0 -15 8 -34t27 -46t34.5 -47.5t47 -59.5t47.5 -60q47 -67 60.5 -87t44.5 -70.5t41 -77t20 -66.5t10 -78q0 -142 -111 -226t-297 -84 q-136 0 -221.5 55t-85.5 134z" />
<glyph unicode="t" horiz-adv-x="782" d="M86 961v26q0 17 9 28t24 11h164l39 279h294l-38 -279h127q17 0 27.5 -11t10.5 -28v-26q0 -17 -10.5 -28t-27.5 -11h-142l-96 -697q-1 -8 -2 -14q0 -33 39 -33q21 0 56 19t69 51q35 35 53 22q12 -11 9 -30.5t-15 -36.5q-87 -111 -191 -166t-206 -55q-75 0 -103 44 q-20 31 -20 83q0 22 4 49l108 764h-143q-17 0 -28 11t-11 28z" />
<glyph unicode="u" horiz-adv-x="1406" d="M61 787q3 19 15 36q87 111 199 168.5t217 57.5q113 0 113 -124q0 -26 -5 -57l-82 -503q-21 -120 -21 -170q0 -10 1 -17q7 -61 61 -61q119 0 227 227t168 631q7 37 46.5 55.5t99.5 18.5q66 -1 99 -21q27 -17 27 -50q0 -7 -1 -15l-105 -746q-4 -24 3.5 -34.5t29.5 -10.5 q21 0 56 22.5t67 57.5q15 19 34 23t31 -9q6 -7 6 -18q0 -20 -24 -49q-177 -213 -391 -213q-115 0 -115 118q0 26 6 58l43 198q-66 -130 -109 -188q-139 -186 -343 -186q-211 0 -211 251q0 65 14 146l72 418q4 23 -9.5 35t-35.5 12q-44 0 -121 -70q-34 -34 -53 -20 q-12 10 -9 29z" />
<glyph unicode="v" horiz-adv-x="1185" d="M57 686q0 53 25 111t70 110t119.5 85.5t162.5 33.5h322q-13 -23 -76.5 -127t-102 -173.5t-75.5 -172t-37 -180.5q0 -76 61.5 -134.5t159.5 -58.5q137 0 215 109t78 286q0 57 -12 101.5t-28.5 71.5t-33.5 50.5t-29 51.5t-12 61q0 46 36 85.5t87 39.5q160 0 160 -239 q0 -205 -84.5 -395.5t-224.5 -307.5t-293 -117q-87 0 -162 33.5t-122.5 100t-47.5 153.5q0 228 307 553h-323q-23 0 -23 -22q0 -21 17 -37.5t37.5 -28t37.5 -37t17 -61.5q0 -37 -25.5 -65.5t-73.5 -28.5q-57 0 -92 38t-35 111z" />
<glyph unicode="w" horiz-adv-x="1611" d="M47 686q0 53 25 111t70 110t119.5 85.5t162.5 33.5h321q-15 -28 -59.5 -99t-78.5 -131t-72 -136.5t-59 -151.5t-21 -139q0 -83 48 -136t124 -53q33 0 66 12.5t46 30.5q-18 43 -26 88t-8 127q0 132 52.5 271t141.5 233t184 94q65 0 104.5 -52.5t39.5 -145.5 q0 -158 -67 -327.5t-156 -274.5q21 -24 58.5 -40t76.5 -16q100 0 169.5 52t100.5 134.5t31 188.5q0 63 -13 111.5t-31 78t-36.5 53.5t-31.5 52t-13 61q0 47 36.5 86t86.5 39q80 0 126 -66.5t46 -199.5q0 -115 -32 -232.5t-89 -217t-129.5 -177.5t-160 -122t-173.5 -44 q-143 0 -223 109q-52 -51 -122 -80t-138 -29q-141 0 -240.5 78.5t-99.5 208.5q0 228 307 553h-324q-22 0 -22 -22q0 -21 17 -37.5t37 -28t37 -37t17 -61.5q0 -38 -25 -66t-73 -28q-57 0 -92 38t-35 111zM905 541q0 -115 39 -205q77 70 131.5 213.5t54.5 261.5q0 48 -16 83.5 t-45 35.5q-47 0 -85.5 -58t-58.5 -146.5t-20 -184.5z" />
<glyph unicode="x" horiz-adv-x="1167" d="M-18 141q0 66 37 104t92 38q31 0 51 -9t29.5 -21.5t18 -25t22.5 -21.5t36 -9q99 0 176 198l-133 369q-12 31 -27 43t-40 12q-13 0 -25 -3t-19.5 -6.5t-26.5 -12.5t-32 -15q-24 -12 -41 23q-15 28 15 41q70 39 154.5 92.5t131 82t60.5 28.5q37 0 59 -29.5t49 -104.5 l72 -198q135 330 346 330q67 0 112.5 -48.5t45.5 -111.5q0 -66 -38 -104t-93 -38q-31 0 -52 9.5t-31.5 22.5t-19.5 26.5t-25 23t-40 9.5q-91 0 -170 -213l143 -398q17 -47 84 -47q24 0 61 19.5t70 50.5q38 35 53 22q13 -12 9.5 -30.5t-15.5 -36.5q-171 -221 -383 -221 q-71 0 -102 37.5t-68 138.5l-49 141q-135 -317 -344 -317q-68 0 -110.5 47.5t-42.5 111.5z" />
<glyph unicode="y" horiz-adv-x="1142" d="M86 805q-15 28 14 41q70 39 154.5 92.5t131 82t60.5 28.5q38 0 60 -30t49 -104l260 -706q84 171 128 322t44 214q0 16 -3.5 18.5t-13.5 -3.5q-31 -15 -63 -15q-61 0 -104 44t-43 106q0 64 44.5 108t115.5 44q88 0 138 -58t50 -176q0 -124 -66.5 -338t-205.5 -457 q-85 -153 -144.5 -244.5t-111 -142t-92 -66.5t-95.5 -16q-79 0 -134.5 52t-55.5 133q0 72 43 121t112 49q34 0 58.5 -19t36 -42.5t28 -42.5t35.5 -19q13 0 24 4.5t34 27t51 64.5l-328 887q-12 31 -27 43t-41 12q-13 0 -24.5 -3t-20 -6.5t-27 -12.5t-32.5 -15q-22 -12 -39 23 z" />
<glyph unicode="z" horiz-adv-x="1007" d="M33 39l624 733q-4 -3 -12.5 -10.5t-15 -12t-23 -8.5t-39.5 -4q-61 0 -119 18.5t-93.5 40t-77.5 40t-76 18.5q-27 0 -27 -20q0 -14 26 -26.5t57 -23.5t57 -38.5t26 -67.5q0 -44 -25 -74.5t-77 -30.5q-71 0 -118.5 64t-47.5 151q0 45 15 89.5t44.5 83.5t79.5 63.5t113 24.5 q71 0 131.5 -19.5t112 -39t100.5 -19.5q30 0 52.5 3.5t62 24.5t77.5 60l78 -80l-625 -733q53 35 111 35q68 0 129 -18.5t97 -41t77.5 -41t75.5 -18.5q26 0 26 20q0 13 -26 25t-56.5 23t-56.5 38.5t-26 67.5q0 44 25.5 74t76.5 30q71 0 119.5 -64.5t48.5 -150.5 q0 -45 -15.5 -89.5t-45 -83.5t-80 -63t-113.5 -24q-72 0 -135.5 20.5t-116 41t-98.5 20.5q-44 0 -72 -4t-68 -24t-79 -60z" />
<glyph unicode="{" horiz-adv-x="598" d="M98 563l15 84q80 36 106 58t35 67l47 350q9 61 20.5 108t33 97.5t51 89t76 74t106.5 59.5l96 -55q-18 -9 -32 -23t-24.5 -27t-19 -38t-13.5 -41t-11 -52t-9 -55.5t-9 -66.5t-9 -70l-35 -260q-19 -112 -71 -172t-146 -82l2 -6q87 -22 122 -82.5t20 -171.5l-37 -260 q-3 -24 -9.5 -63t-9 -59t-7 -51.5t-5 -48.5t-0.5 -40.5t3.5 -37t8.5 -29t14.5 -26t22.5 -18.5l-108 -55q-66 30 -106.5 76t-54.5 100.5t-15.5 119t10.5 132.5l49 350q6 45 -15 67t-92 58z" />
<glyph unicode="|" horiz-adv-x="544" d="M41 -440l293 2078h194l-292 -2078h-195z" />
<glyph unicode="}" horiz-adv-x="591" d="M-61 -285q17 9 31 22.5t24 27.5t19 38t14 41.5t11 52t9 55.5t9 65.5t10 70.5l36 260q13 110 65 171t146 83v6q-88 22 -122 82t-21 172l41 260q4 31 11 80t10 73.5t6 60.5t1.5 55.5t-6.5 42t-16.5 37t-28.5 24.5l109 55q88 -40 132 -107.5t46 -146.5t-10 -174l-51 -350 q-6 -45 14.5 -67t91.5 -58l-12 -84q-81 -36 -107 -58t-32 -67l-50 -350q-12 -78 -28.5 -134.5t-47.5 -115.5t-83 -103.5t-125 -74.5z" />
<glyph unicode="~" horiz-adv-x="1056" d="M96 391h113q27 0 46.5 11.5t31 28.5t20.5 33.5t20 28t25 11.5q24 0 55.5 -24t60 -52t78.5 -52t107 -24q90 0 185.5 85t124.5 208h-107q-23 0 -44 -16.5t-34.5 -35.5t-31.5 -35.5t-35 -16.5q-26 0 -50 13.5t-45.5 32.5t-47 38.5t-64 33t-86.5 13.5q-100 0 -190.5 -82 t-131.5 -199z" />
<glyph unicode="&#xa1;" horiz-adv-x="540" d="M16 -88q6 46 33 117.5t57 141.5t64 183.5t53 231.5h113q-20 -189 -11 -298t21 -215t4 -161q-11 -86 -70.5 -136t-121.5 -50t-107.5 50t-34.5 136zM162 891q7 65 58 112.5t110 47.5q60 0 97.5 -47t29.5 -113q-11 -64 -61 -110t-111 -46q-60 0 -96 46.5t-27 109.5z" />
<glyph unicode="&#xa2;" horiz-adv-x="974" d="M57 362q0 142 63.5 284t178.5 247.5t252 136.5l47 174h166l-45 -168q93 -20 153 -86t60 -151q0 -64 -40 -112t-106 -48q-54 0 -81 31.5t-27 81.5q0 36 6.5 79.5t10 61.5t-2.5 43l-205 -754q14 -4 41 -4q122 0 224 107q2 2 6 6.5t6 6t5 4.5t5.5 4t5.5 2.5t6 2t7 0.5h32 q19 0 25 -11t0 -27t-19 -33q-148 -237 -395 -252l-30 -113h-168l36 131q-98 33 -157.5 121t-59.5 235zM342 465q0 -77 16 -143l164 608q-59 -40 -102 -127.5t-60.5 -174.5t-17.5 -163z" />
<glyph unicode="&#xa3;" horiz-adv-x="987" d="M-49 158q0 83 53 138.5t135 55.5q36 0 65.5 -13.5t53 -29.5t39.5 -20q1 7 9 25t14 42.5t6 53.5q0 47 -31 104h-262l10 98h180q-35 45 -54.5 76.5t-37.5 84t-18 108.5q0 180 141.5 302t378.5 122q176 0 277.5 -96.5t101.5 -256.5q0 -108 -45 -175.5t-123 -67.5 q-65 0 -101 33t-36 85q0 28 7 49.5t15.5 36t15.5 50t7 88.5q0 77 -29.5 114t-93.5 37q-92 0 -148.5 -76.5t-56.5 -169.5q0 -40 8.5 -89.5t16.5 -79.5t28 -93.5t25 -81.5h213l-17 -98h-174q6 -37 6 -74q0 -54 -21 -116.5t-50 -106.5q17 6 88 6q46 0 78 3t74.5 14.5t77.5 38.5 t63 69l90 -16q-30 -83 -67 -144.5t-73.5 -96.5t-80.5 -56.5t-81 -28t-81 -6.5q-128 0 -219 53q-100 -53 -197 -53q-71 0 -125.5 43t-54.5 115zM49 135q-8 -33 13.5 -50t58.5 -17q75 0 117 57q-20 16 -43.5 39.5t-35.5 32t-26 8.5q-65 0 -84 -70z" />
<glyph unicode="&#xa4;" horiz-adv-x="1159" d="M41 70l172 159q-57 111 -39 256q18 124 96 224l-118 147l124 119l121 -152q106 70 228 70q126 0 217 -78l172 160l92 -119l-170 -160q53 -116 33 -247q-14 -121 -97 -228l123 -151l-121 -117l-126 156q-109 -70 -232 -70q-118 0 -209 72l-170 -158zM324 449 q-12 -104 46.5 -179t161.5 -75q102 0 189 86.5t102 203.5q17 101 -44 175.5t-161 74.5q-104 0 -189.5 -84t-104.5 -202z" />
<glyph unicode="&#xa5;" horiz-adv-x="1316" d="M137 1178v94q306 -12 619 0l-4 -94q-78 -7 -106.5 -31t-14.5 -57l160 -449l266 412q28 38 18 65t-34.5 40.5t-61.5 19.5v94q190 -12 385 0l-4 -94q-109 -14 -191 -142l-225 -346h111l-27 -174h-197l-16 -27l-4 -22h209l-23 -174h-213l-20 -131q-4 -37 22.5 -50.5 t108.5 -21.5v-90q-307 9 -621 0l5 94q81 4 118 24.5t45 59.5l17 115h-226l27 174h223l2 14l-12 35h-209l27 174h119l-154 414q-6 22 -9 28.5t-14.5 19t-34 17.5t-61.5 9z" />
<glyph unicode="&#xa6;" horiz-adv-x="544" d="M41 -440l100 714h195l-100 -714h-195zM233 924l101 714h194l-100 -714h-195z" />
<glyph unicode="&#xa7;" horiz-adv-x="1015" d="M12 238l82 30q34 15 65 3.5t31 -48.5q15 -41 21 -104q35 -221 219 -221q99 0 162.5 50t64.5 154q0 18 -3.5 34.5t-8 28.5t-16 23.5t-18.5 19t-25 15.5t-26.5 12t-31 10.5t-31 8.5t-34.5 8t-33 8q-10 3 -38 9t-44 10t-44.5 12.5t-46.5 16t-43.5 20.5t-41.5 26.5t-34.5 33 t-29 41.5t-17.5 50.5t-7 61.5q-3 126 96 237q-35 58 -35 132q-2 78 32 148.5t95 122.5t150.5 83t193.5 31q83 0 145 -16.5t91 -36.5t62 -42.5t59 -29.5l-19 -281l-80 -22q-35 -8 -59 5t-24 42q0 19 -19 108q-12 81 -49.5 124.5t-120.5 43.5q-95 0 -157 -64t-64 -145 q-1 -32 7.5 -53t31.5 -33.5t40 -18t57 -12.5t58 -12q120 -23 170 -41q229 -80 226 -268q-6 -133 -97 -234q46 -62 46 -149q-1 -72 -32 -134t-80.5 -106t-113.5 -75.5t-132 -46.5t-134 -15q-65 0 -120 8t-96 23.5t-65.5 27t-54 30.5t-35.5 22zM319 614q1 -27 12.5 -47.5 t25.5 -32.5t42.5 -21.5t47.5 -13.5t56 -11q11 -2 17 -3q8 -2 44.5 -10t71 -17.5t66.5 -21.5q7 28 7 49q0 18 -3.5 34t-8 28.5t-15.5 23.5t-18 18.5t-24.5 15.5t-26.5 12t-31.5 10t-31.5 8t-35 8t-34 8q-14 4 -64.5 14.5t-80.5 18.5q-14 -36 -17 -70z" />
<glyph unicode="&#xa8;" horiz-adv-x="1120" d="M211 1268q0 70 52 123t120 53q54 0 88.5 -38t34.5 -95q0 -70 -51 -124t-117 -54q-54 0 -90.5 39.5t-36.5 95.5zM713 1268q0 70 52 123t118 53q54 0 89.5 -38t35.5 -95q0 -70 -51.5 -124t-116.5 -54q-54 0 -90.5 39.5t-36.5 95.5z" />
<glyph unicode="&#xa9;" horiz-adv-x="1482" d="M111 643q28 205 136.5 364.5t269 245.5t345.5 86q138 0 250 -50.5t184.5 -140.5t103 -220.5t9.5 -284.5q-46 -312 -252.5 -504t-490.5 -192q-138 0 -251 50.5t-187.5 140.5t-106 220.5t-10.5 284.5zM260 643q-35 -260 83.5 -415.5t340.5 -155.5q219 0 377 155.5 t194 415.5q38 259 -76.5 415t-332.5 156q-223 0 -385 -155.5t-201 -415.5zM418 651q24 167 139 269t256 102q47 0 102 -14.5t89 -14.5q28 0 75 11q0 -133 17 -207h-144q-20 71 -62.5 118.5t-94.5 47.5q-132 0 -168 -273q-9 -65 -10 -124t7.5 -115t36 -89.5t72.5 -33.5 q109 0 217 151h123q-82 -122 -96 -198q-39 12 -70 12q-32 0 -80.5 -14.5t-97.5 -14.5q-173 0 -254.5 103.5t-56.5 283.5z" />
<glyph unicode="&#xaa;" horiz-adv-x="751" d="M115 397l22 156h479l-22 -156h-479zM117 844q10 75 92 128.5t283 86.5l8 8q9 40 7.5 89.5t-30.5 49.5q-50 0 -68 -19t-32 -79q-9 -25 -40 -38t-71 -13t-60.5 27.5t-15.5 70.5q6 45 51 78.5t103.5 48t120.5 14.5q140 0 187.5 -60.5t31.5 -182.5l-39 -256q0 -11 -8 -13 q5 0 13.5 4.5t25 14t35.5 16.5l-6 -123q-68 -27 -94.5 -33t-53.5 -6q-24 0 -46.5 16.5t-31.5 39.5q-63 -56 -170 -56q-85 0 -144 50t-48 137zM301 809q-4 -25 3.5 -33t35.5 -8q11 0 22 3t19 6.5t18 12t15.5 13.5t15 18t13.5 18t14.5 20.5t13.5 19.5l18 82q-105 -21 -143 -59 t-45 -93z" />
<glyph unicode="&#xab;" horiz-adv-x="761" d="M66 469q225 198 346 389l-31 -217l-109 -168l62 -176l-31 -217q-72 196 -237 389zM412 469q224 197 348 389l-31 -217l-111 -168l62 -176l-31 -217q-72 196 -237 389z" />
<glyph unicode="&#xac;" horiz-adv-x="1044" d="M102 602l27 195h862l-73 -504h-181l43 309h-678z" />
<glyph unicode="&#xad;" horiz-adv-x="778" d="M72 422v182h553v-182h-553z" />
<glyph unicode="&#xae;" horiz-adv-x="1482" d="M111 643q28 205 136.5 364.5t269 245.5t345.5 86q138 0 250 -50.5t184.5 -140.5t103 -220.5t9.5 -284.5q-46 -312 -252.5 -504t-490.5 -192q-138 0 -251 50.5t-187.5 140.5t-106 220.5t-10.5 284.5zM260 643q-35 -260 83.5 -415.5t340.5 -155.5q219 0 377 155.5 t194 415.5q38 259 -76.5 415t-332.5 156q-223 0 -385 -155.5t-201 -415.5zM393 303l6 53q45 1 65 10.5t23 30.5l64 480q1 11 0 21.5t-15.5 19.5t-41.5 12l8 49q45 -2 96.5 -2t101.5 1t64 1q179 0 243.5 -47.5t51.5 -147.5q-20 -151 -178 -184l90 -176q22 -39 38 -53t46 -15 l-11 -53q-117 6 -243 0q9 70 -17 115l-86 162l-10 2l-24 -185q-3 -21 11.5 -30.5t57.5 -10.5l-6 -53q-171 6 -334 0zM694 635l51 4q56 2 97.5 38t54.5 109q8 71 -14 105.5t-80 34.5q-50 0 -66 2z" />
<glyph unicode="&#xaf;" horiz-adv-x="866" d="M209 1266l20 137q0 35 43 35h545q39 0 31 -35l-19 -137q-3 -35 -43 -35h-544q-39 0 -33 35z" />
<glyph unicode="&#xb0;" horiz-adv-x="577" d="M150 1063q15 101 87.5 168t163.5 67q90 0 143 -67.5t40 -167.5q-13 -101 -86 -168.5t-164 -67.5q-90 0 -143.5 68t-40.5 168zM287 1063q-6 -49 9.5 -80t53.5 -31t63 31.5t31 79.5q6 47 -9.5 79t-53.5 32q-39 0 -65 -32.5t-29 -78.5z" />
<glyph unicode="&#xb1;" horiz-adv-x="886" d="M53 18l17 119h673l-16 -119h-674zM115 690l16 117h281l41 301h112l-43 -301h283l-17 -117h-282l-41 -299h-111l41 299h-280z" />
<glyph unicode="&#xb2;" horiz-adv-x="634" d="M92 793q33 158 213 268q40 25 67 55.5t27 57.5t-21 43t-50 16q-22 0 -43 -10.5t-25 -26.5q-7 -16 0 -42t4 -36q-14 -31 -50.5 -37t-67.5 13t-31 49q0 71 54 120.5t155 49.5q93 0 141.5 -41t48.5 -115q0 -35 -13.5 -64.5t-40.5 -54t-46.5 -38t-53.5 -33.5 q-17 -10 -25.5 -15.5t-15 -9.5t-9.5 -9.5t-4.5 -8t-4 -13t-4.5 -16.5h117q32 0 43 16l18 27h68l-21 -117q-6 -28 -43 -28h-387z" />
<glyph unicode="&#xb3;" horiz-adv-x="669" d="M123 946q0 23 15.5 38t43.5 15q25 0 38.5 -9.5t16.5 -20t5.5 -30t5.5 -28.5q6 -20 31 -35.5t51 -15.5q46 0 75 32t25 60q3 58 -36.5 69t-92.5 -17l-37 69l49 23q37 13 52.5 34t15.5 56q0 22 -17 36.5t-49 14.5q-30 0 -42 -35t-1 -74l-112 13q-25 9 -25 28q-2 64 49.5 105 t145.5 41t146 -39.5t52 -85.5q0 -63 -69 -88q51 -14 79.5 -48.5t28.5 -86.5q0 -80 -61 -131.5t-170 -51.5q-100 0 -156.5 48t-56.5 114z" />
<glyph unicode="&#xb4;" horiz-adv-x="675" d="M201 1204l32 -53l326 119q61 25 93 52.5t32 74.5q0 39 -23.5 62.5t-58.5 23.5q-50 0 -102 -41z" />
<glyph unicode="&#xb5;" horiz-adv-x="1417" d="M61 787q3 19 15 36q87 111 199 168.5t217 57.5q136 0 108 -181l-82 -503q-25 -144 -20 -187q7 -61 61 -61q119 0 227 227t168 631q7 37 46.5 55.5t99.5 18.5q66 0 99 -20.5t26 -65.5l-105 -746q-4 -24 3.5 -34.5t29.5 -10.5q21 0 56 22.5t67 57.5q15 19 34 23t31 -9 q19 -22 -18 -67q-177 -213 -391 -213q-140 0 -109 176l43 198q-66 -130 -109 -188q-139 -186 -343 -186q-52 0 -90 14q1 -59 12 -105.5t26 -72t30 -45t23 -36t5 -32.5q-20 -66 -98 -100t-142 -11q-72 25 -61 110v3l88 604q2 12 5 34.5t5 33.5l72 418q4 23 -9.5 35t-35.5 12 q-44 0 -121 -70q-34 -34 -53 -20q-12 10 -9 29z" />
<glyph unicode="&#xb6;" horiz-adv-x="1351" d="M102 881q17 118 100 208.5t204 136.5t258 46h722l-18 -123q-45 -9 -68.5 -22.5t-27.5 -45.5l-137 -993q-8 -36 8.5 -53.5t66.5 -24.5l-22 -147h-823l18 147q72 7 97 24t30 54l57 404h-30q-138 0 -242 46t-157 135.5t-36 207.5zM371.5 818q-1.5 -36 8 -76t25 -73t46 -55 t71.5 -22h60l75 545h-43q-56 0 -102 -27t-73.5 -68t-43.5 -82.5t-20 -78.5q-2 -27 -3.5 -63zM754 88q-8 -36 5.5 -52t53.5 -16q36 0 53.5 16t22.5 52l141 991q6 35 -2 46.5t-33 11.5h-96z" />
<glyph unicode="&#xb7;" horiz-adv-x="518" d="M-14 584q0 70 53.5 124t120.5 54q53 0 90 -39t37 -96q0 -71 -53.5 -126t-120.5 -55q-54 0 -90.5 40.5t-36.5 97.5z" />
<glyph unicode="&#xb8;" horiz-adv-x="718" d="M-6 -276q0 35 22 58t60 23q34 0 48.5 -16t14.5 -39.5t0.5 -46.5t16 -39t51.5 -16q100 0 100 98q0 41 -26.5 65.5t-85.5 47.5q-53 17 -48 57q1 7 6.5 14t22.5 27t35 43h94l-35 -61q29 -11 51 -20t55 -27.5t54 -37.5t37 -47t16 -59q0 -52 -45.5 -89.5t-105.5 -53 t-123 -15.5q-93 0 -154 33.5t-61 100.5z" />
<glyph unicode="&#xb9;" horiz-adv-x="421" d="M82 1163v97l115 51q28 12 62.5 -0.5t31.5 -30.5v-356q0 -21 15.5 -28t43.5 -9v-84h-264v84q18 1 29 3.5t20.5 11t9.5 22.5v260z" />
<glyph unicode="&#xba;" horiz-adv-x="743" d="M115 397l22 156h479l-22 -156h-479zM137 989q18 134 117 218.5t217 86.5q80 -1 144.5 -41.5t98.5 -117t21 -172.5q-21 -133 -121.5 -218.5t-218.5 -85.5q-77 0 -140.5 41t-97 118t-20.5 171zM319 977q-13 -111 13 -174.5t78 -63.5q50 0 86 59.5t53 176.5q16 109 -9.5 173 t-70.5 64q-57 0 -96 -59.5t-54 -175.5z" />
<glyph unicode="&#xbb;" horiz-adv-x="706" d="M12 80l33 217l113 176l-66 168l29 217q75 -192 241 -389q-222 -196 -350 -389zM299 80l33 217l112 176l-65 168l29 217q75 -192 241 -389q-222 -196 -350 -389z" />
<glyph unicode="&#xbc;" horiz-adv-x="1433" d="M82 1163v97l115 51q28 12 62.5 -0.5t31.5 -30.5v-356q0 -21 15.5 -28t43.5 -9v-84h-264v84q18 1 29 3.5t20.5 11t9.5 22.5v260zM104 -10l885 1313h193l-885 -1313h-193zM934 125v94l246 283q12 15 35 16t41 -9.5t18 -25.5v-260h57v-98h-57v-53q0 -37 51 -37v-47h-250v47 q49 0 49 37v53h-190zM1042 223h82v99z" />
<glyph unicode="&#xbd;" horiz-adv-x="1456" d="M82 1163v97l115 51q28 12 62.5 -0.5t31.5 -30.5v-356q0 -21 15.5 -28t43.5 -9v-84h-264v84q18 1 29 3.5t20.5 11t9.5 22.5v260zM104 -10l885 1313h193l-885 -1313h-193zM913 -12q33 158 213 268q41 25 68 56t27 57q0 27 -21.5 43t-50.5 16q-22 0 -43 -10.5t-25 -26.5 q-7 -16 0 -42t4 -36q-14 -31 -50.5 -37t-67.5 13t-31 49q0 71 54 120.5t155 49.5q93 0 141.5 -41t48.5 -115q0 -35 -13 -64.5t-40 -54t-47 -38t-53 -33.5q-15 -9 -22 -13t-15 -9.5t-10 -7t-5.5 -8t-4 -8.5t-3 -11.5t-4.5 -14.5h117q32 0 43 16l18 27h68l-21 -117 q-6 -28 -43 -28h-387z" />
<glyph unicode="&#xbe;" horiz-adv-x="1603" d="M123 946q0 23 15.5 38t43.5 15q25 0 38.5 -9.5t16.5 -20t5.5 -30t5.5 -28.5q6 -20 31 -35.5t51 -15.5q46 0 75 32t25 60q3 58 -36.5 69t-92.5 -17l-37 69l49 23q37 13 52.5 34t15.5 56q0 22 -17 36.5t-49 14.5q-30 0 -42 -35t-1 -74l-112 13q-25 9 -25 28q-2 64 49.5 105 t145.5 41t146 -39.5t52 -85.5q0 -63 -69 -88q51 -14 79.5 -48.5t28.5 -86.5q0 -80 -61 -131.5t-170 -51.5q-100 0 -156.5 48t-56.5 114zM248 -10l885 1313h192l-885 -1313h-192zM1006 125v94l245 283q12 15 35 16t41.5 -9.5t18.5 -25.5v-260h57v-98h-57v-53q0 -37 51 -37 v-47h-250v47q49 0 49 37v53h-190zM1114 223h82v99z" />
<glyph unicode="&#xbf;" horiz-adv-x="1060" d="M29 27q0 78 22.5 140.5t59.5 104.5t82 76t94 64.5t92.5 61.5t79 75t51.5 98h100q1 -70 -23.5 -129t-62 -104t-76 -89t-72 -105t-44.5 -132q-6 -44 -6 -80q0 -180 118 -180q59 0 103.5 42.5t65 103.5t20.5 126q0 14 -4 35t-4 35q0 61 43.5 107.5t122.5 46.5q64 0 94 -46 t30 -116q0 -181 -144.5 -308.5t-342.5 -127.5q-188 0 -293.5 79.5t-105.5 221.5zM446 872q0 71 55 125t122 54q53 0 89 -37t36 -94q0 -73 -52 -129t-118 -56q-55 0 -93.5 40t-38.5 97z" />
<glyph unicode="&#xc0;" horiz-adv-x="1368" d="M-33 0l4 94q105 6 162.5 39t93.5 105l480 1044h186l207 -981q28 -120 64 -160.5t126 -46.5l-4 -94q-324 9 -657 0l4 94q42 4 69.5 9t55.5 15.5t39.5 31t5.5 49.5l-53 235h-318l-106 -241q-11 -26 -10 -42.5t15.5 -27t38.5 -16t59.5 -8.5t77.5 -5h7v-94q-272 9 -547 0z M475 530h254l-86 381zM573.5 1591q-22.5 55 8.5 99q33 43 80.5 42t97.5 -44l276 -238l-37 -55l-340 118q-63 23 -85.5 78z" />
<glyph unicode="&#xc1;" horiz-adv-x="1368" d="M-33 0l4 94q105 6 162.5 39t93.5 105l480 1044h186l207 -981q28 -120 64 -160.5t126 -46.5l-4 -94q-324 9 -657 0l4 94q42 4 69.5 9t55.5 15.5t39.5 31t5.5 49.5l-53 235h-318l-106 -241q-11 -26 -10 -42.5t15.5 -27t38.5 -16t59.5 -8.5t77.5 -5h7v-94q-272 9 -547 0z M475 530h254l-86 381zM608 1450l299 238q52 41 103 41q35 0 58.5 -24t23.5 -63q0 -47 -32 -74t-93 -52l-326 -119z" />
<glyph unicode="&#xc2;" horiz-adv-x="1368" d="M-33 0l4 94q105 6 162.5 39t93.5 105l480 1044h186l207 -981q28 -120 64 -160.5t126 -46.5l-4 -94q-324 9 -657 0l4 94q42 4 69.5 9t55.5 15.5t39.5 31t5.5 49.5l-53 235h-318l-106 -241q-11 -26 -10 -42.5t15.5 -27t38.5 -16t59.5 -8.5t77.5 -5h7v-94q-272 9 -547 0z M453 1401q203 108 407 305q141 -203 324 -317l-205 6l-150 92l-172 -92zM475 530h254l-86 381z" />
<glyph unicode="&#xc3;" horiz-adv-x="1368" d="M-33 0l4 94q105 6 162.5 39t93.5 105l480 1044h186l207 -981q28 -120 64 -160.5t126 -46.5l-4 -94q-324 9 -657 0l4 94q42 4 69.5 9t55.5 15.5t39.5 31t5.5 49.5l-53 235h-318l-106 -241q-11 -26 -10 -42.5t15.5 -27t38.5 -16t59.5 -8.5t77.5 -5h7v-94q-272 9 -547 0z M475 530h254l-86 381zM514 1460q7 70 28.5 119.5t56 76t73 37.5t86.5 11q84 0 144.5 -19t105.5 -38t90 -19q28 0 48 23t15 37l88 -17q-9 -69 -34.5 -120t-62 -80t-77.5 -42.5t-86 -13.5q-66 0 -121 15.5t-84 33.5t-61 33.5t-57 15.5q-34 0 -51 -24.5t-15 -42.5z" />
<glyph unicode="&#xc4;" horiz-adv-x="1368" d="M-33 0l4 94q105 6 162.5 39t93.5 105l480 1044h186l207 -981q28 -120 64 -160.5t126 -46.5l-4 -94q-324 9 -657 0l4 94q42 4 69.5 9t55.5 15.5t39.5 31t5.5 49.5l-53 235h-318l-106 -241q-11 -26 -10 -42.5t15.5 -27t38.5 -16t59.5 -8.5t77.5 -5h7v-94q-272 9 -547 0z M440 1513q0 70 52 123.5t118 53.5q55 0 90 -38t35 -96q0 -70 -51 -124t-117 -54q-54 0 -90.5 39.5t-36.5 95.5zM475 530h254l-86 381zM942 1513q0 70 52 123.5t118 53.5q54 0 89.5 -38.5t35.5 -95.5q0 -70 -51.5 -124t-116.5 -54q-54 0 -90.5 39.5t-36.5 95.5z" />
<glyph unicode="&#xc5;" horiz-adv-x="1368" d="M-33 0l4 94q105 6 162.5 39t93.5 105l480 1044h186l207 -981q28 -120 64 -160.5t126 -46.5l-4 -94q-324 9 -657 0l4 94q42 4 69.5 9t55.5 15.5t39.5 31t5.5 49.5l-53 235h-318l-106 -241q-11 -26 -10 -42.5t15.5 -27t38.5 -16t59.5 -8.5t77.5 -5h7v-94q-272 9 -547 0z M475 530h254l-86 381zM680 1628q0 82 61 144.5t140 62.5q68 0 109.5 -45.5t41.5 -112.5q0 -82 -61 -144.5t-142 -62.5q-66 0 -107.5 45.5t-41.5 112.5zM813 1645q0 -13 10.5 -24t26.5 -11q18 0 33.5 16.5t15.5 34.5q0 13 -10.5 24t-26.5 11q-18 0 -33.5 -16.5t-15.5 -34.5z " />
<glyph unicode="&#xc6;" horiz-adv-x="1970" d="M-41 0l16 94q96 5 151 36.5t120 98.5l878 938q-44 9 -86 11l11 94h866q21 0 28.5 -10.5t4.5 -34.5l2 -252h-99l-20 51q-15 33 -22 48t-19.5 35t-22.5 28t-27.5 16.5t-38 11t-50.5 2.5h-107q-19 0 -34.5 -14t-16.5 -33l-57 -409h159q72 0 111 29.5t59 97.5l74 -17 q-39 -177 -47 -348l-78 16q-2 67 -26 92t-97 25h-172l-65 -469q-2 -17 4.5 -24t23.5 -7h39q119 0 182 29t109 113l80 133l109 -8q-107 -227 -117 -373q-377 21 -912 0l5 88q80 6 115.5 25.5t41.5 58.5l37 262h-506l-223 -233q-75 -77 99 -100l75 -7l-12 -94q-269 9 -545 0z M655 530h428l76 537z" />
<glyph unicode="&#xc7;" horiz-adv-x="1230" d="M82 668q21 148 85 270t153 201.5t195 122.5t216 43q85 0 178 -26t140 -26q39 0 116 9q-16 -194 31 -361l-170 14q-92 285 -305 285q-77 0 -138 -69.5t-97.5 -179t-55.5 -253.5q-16 -108 -17.5 -214t12.5 -201t54.5 -154t104.5 -59q61 0 111.5 18.5t100 63.5t78 78 t83.5 103q12 15 18 23l201 -16q-151 -222 -172 -346q-17 7 -32 12t-24.5 7.5t-21.5 3.5t-16.5 1h-16h-14.5q-60 0 -131.5 -24t-129.5 -27l-16 -28q29 -11 51 -20t55 -27.5t54 -37.5t37 -47t16 -59q0 -52 -45.5 -89.5t-105.5 -53t-123 -15.5q-93 0 -154 33.5t-61 100.5 q0 35 22 58t60 23q34 0 48.5 -16t14.5 -39.5t0.5 -46.5t16 -39t51.5 -16q100 0 100 98q0 41 -26.5 65.5t-86.5 47.5q-52 17 -47 57q1 4 2 7t5 7.5t7 8.5t10.5 13t14.5 17q-248 25 -363.5 210t-72.5 489z" />
<glyph unicode="&#xc8;" horiz-adv-x="1085" d="M-10 0l2 88q80 6 116 25.5t42 58.5l131 940q7 37 -17 48.5t-110 17.5l10 94h866q21 0 28.5 -10.5t4.5 -34.5l2 -252h-98l-19 51q-13 29 -19.5 41.5t-17.5 32t-19 27t-20.5 18t-27 13.5t-34 6t-44.5 3h-107q-19 0 -34 -14t-17 -31l-57 -411h160q72 0 111 29.5t59 97.5 l75 -17q-38 -161 -47 -348l-80 16q-2 67 -25.5 92t-96.5 25h-170l-68 -469q-1 -17 5.5 -24t25.5 -7h37q120 0 182 29t110 113l78 133l109 -8q-53 -116 -82 -203t-35 -170q-375 21 -909 0zM426 1591q-23 55 8 99q33 43 80.5 42t97.5 -44l277 -238l-37 -55l-340 118 q-63 23 -86 78z" />
<glyph unicode="&#xc9;" horiz-adv-x="1085" d="M-10 0l2 88q80 6 116 25.5t42 58.5l131 940q7 37 -17 48.5t-110 17.5l10 94h866q21 0 28.5 -10.5t4.5 -34.5l2 -252h-98l-19 51q-13 29 -19.5 41.5t-17.5 32t-19 27t-20.5 18t-27 13.5t-34 6t-44.5 3h-107q-19 0 -34 -14t-17 -31l-57 -411h160q72 0 111 29.5t59 97.5 l75 -17q-38 -161 -47 -348l-80 16q-2 67 -25.5 92t-96.5 25h-170l-68 -469q-1 -17 5.5 -24t25.5 -7h37q120 0 182 29t110 113l78 133l109 -8q-53 -116 -82 -203t-35 -170q-375 21 -909 0zM461 1450l299 238q52 41 102 41q35 0 58.5 -24t23.5 -63q0 -47 -32 -74t-93 -52 l-325 -119z" />
<glyph unicode="&#xca;" horiz-adv-x="1085" d="M-10 0l2 88q80 6 116 25.5t42 58.5l131 940q7 37 -17 48.5t-110 17.5l10 94h866q21 0 28.5 -10.5t4.5 -34.5l2 -252h-98l-19 51q-13 29 -19.5 41.5t-17.5 32t-19 27t-20.5 18t-27 13.5t-34 6t-44.5 3h-107q-19 0 -34 -14t-17 -31l-57 -411h160q72 0 111 29.5t59 97.5 l75 -17q-38 -161 -47 -348l-80 16q-2 67 -25.5 92t-96.5 25h-170l-68 -469q-1 -17 5.5 -24t25.5 -7h37q120 0 182 29t110 113l78 133l109 -8q-53 -116 -82 -203t-35 -170q-375 21 -909 0zM305 1401q206 109 408 305q141 -204 323 -317l-205 6l-149 92l-172 -92z" />
<glyph unicode="&#xcb;" horiz-adv-x="1085" d="M-10 0l2 88q80 6 116 25.5t42 58.5l131 940q7 37 -17 48.5t-110 17.5l10 94h866q21 0 28.5 -10.5t4.5 -34.5l2 -252h-98l-19 51q-13 29 -19.5 41.5t-17.5 32t-19 27t-20.5 18t-27 13.5t-34 6t-44.5 3h-107q-19 0 -34 -14t-17 -31l-57 -411h160q72 0 111 29.5t59 97.5 l75 -17q-38 -161 -47 -348l-80 16q-2 67 -25.5 92t-96.5 25h-170l-68 -469q-1 -17 5.5 -24t25.5 -7h37q120 0 182 29t110 113l78 133l109 -8q-53 -116 -82 -203t-35 -170q-375 21 -909 0zM295 1513q0 70 52 123.5t118 53.5q55 0 90 -38t35 -96q0 -70 -51 -124t-117 -54 q-54 0 -90.5 39.5t-36.5 95.5zM797 1513q0 70 52 123.5t118 53.5q54 0 89.5 -38.5t35.5 -95.5q0 -70 -51.5 -124t-116.5 -54q-54 0 -90.5 39.5t-36.5 95.5z" />
<glyph unicode="&#xcc;" horiz-adv-x="727" d="M-12 0l4 94q80 4 117 24.5t45 59.5l131 932q6 37 -21.5 50t-111.5 18l4 94q311 -9 616 0v-94q-81 -4 -120 -24.5t-44 -59.5l-129 -932q-6 -37 19.5 -50t107.5 -18v-94q-309 9 -618 0zM242 1591q23 -55 86 -78l340 -118l37 55l-277 238q-50 43 -97.5 44t-80.5 -42 q-31 -44 -8 -99z" />
<glyph unicode="&#xcd;" horiz-adv-x="727" d="M-12 0l4 94q80 4 117 24.5t45 59.5l131 932q6 37 -21.5 50t-111.5 18l4 94q311 -9 616 0v-94q-81 -4 -120 -24.5t-44 -59.5l-129 -932q-6 -37 19.5 -50t107.5 -18v-94q-309 9 -618 0zM279 1450l32 -53l326 119q61 25 93 52t32 74q0 39 -23.5 63t-58.5 24q-50 0 -102 -41z " />
<glyph unicode="&#xce;" horiz-adv-x="727" d="M-12 0l4 94q80 4 117 24.5t45 59.5l131 932q6 37 -21.5 50t-111.5 18l4 94q311 -9 616 0v-94q-81 -4 -120 -24.5t-44 -59.5l-129 -932q-6 -37 19.5 -50t107.5 -18v-94q-309 9 -618 0zM123 1401q203 108 407 305q141 -203 324 -317l-205 6l-149 92l-172 -92z" />
<glyph unicode="&#xcf;" horiz-adv-x="727" d="M-12 0l4 94q80 4 117 24.5t45 59.5l131 932q6 37 -21.5 50t-111.5 18l4 94q311 -9 616 0v-94q-81 -4 -120 -24.5t-44 -59.5l-129 -932q-6 -37 19.5 -50t107.5 -18v-94q-309 9 -618 0zM111 1513q0 70 52 123.5t118 53.5q55 0 90 -38t35 -96q0 -70 -51 -124t-117 -54 q-54 0 -90.5 39.5t-36.5 95.5zM612 1513q0 70 52 123.5t118 53.5q54 0 89.5 -38.5t35.5 -95.5q0 -70 -51.5 -124t-116.5 -54q-54 0 -90.5 39.5t-36.5 95.5z" />
<glyph unicode="&#xd0;" horiz-adv-x="1329" d="M-12 0l4 96q99 8 120 15q29 12 35 45l54 397h-133l22 166h135l56 399q5 29 -16 41.5t-95 18.5l2 94q126 -4 188 -4q58 0 174 2t175 2q129 0 231 -27t180 -85t120 -157t42 -235q0 -163 -44 -302t-127 -242t-212 -161.5t-289 -58.5q-36 0 -152.5 16.5t-172.5 16.5 q-25 0 -47.5 -1t-48 -3.5t-40.5 -4t-43.5 -6.5t-37 -6.5t-42 -8t-38.5 -7.5zM470 117.5q1 -9.5 1 -11.5t8 -5l8 -3q23 -1 49.5 -2.5t43.5 -2.5t22 -1q62 -1 116.5 47t91.5 126.5t64 177t39.5 198t12.5 190.5q0 170 -63.5 257.5t-182.5 87.5q-21 0 -57 -5l-66 -452h150 l-25 -166h-150l-59 -410q-4 -16 -3 -25.5z" />
<glyph unicode="&#xd1;" horiz-adv-x="1437" d="M-12 0l4 94q237 15 248 84l125 895q3 35 -43 68t-121 37v94q237 -9 477 0l369 -701l81 539q2 18 -12.5 30.5t-49 20t-67 10.5t-88.5 7v94q287 -9 574 0l-4 -94q-241 -15 -252 -84l-154 -1094h-100l-518 973l-117 -811q-4 -35 49 -48t170 -20l-4 -94q-282 9 -567 0z M537 1460q7 71 28.5 120t55.5 75.5t72.5 37.5t86.5 11q84 0 144.5 -19t105.5 -38t90 -19q28 0 48.5 23t15.5 37l88 -17q-9 -69 -34.5 -120t-62 -80t-77.5 -42.5t-86 -13.5q-66 0 -121 15.5t-84.5 33.5t-61.5 33.5t-57 15.5q-33 0 -50 -24.5t-15 -42.5z" />
<glyph unicode="&#xd2;" horiz-adv-x="1280" d="M72 522q0 159 51.5 303t140.5 249.5t216.5 168t271.5 62.5q220 0 359.5 -159t139.5 -409q0 -205 -92 -383t-248.5 -283.5t-337.5 -105.5q-227 0 -364 148t-137 409zM412 467q0 -181 48 -288t140 -107q66 0 121 51t90 131.5t59.5 183.5t34.5 202.5t10 193.5 q0 364 -180 364q-86 0 -151.5 -69t-101.5 -181.5t-53 -234t-17 -246.5zM514 1591q23 -55 86 -78l340 -118l37 55l-277 238q-50 43 -97.5 44t-80.5 -42q-31 -44 -8 -99z" />
<glyph unicode="&#xd3;" horiz-adv-x="1280" d="M72 522q0 159 51.5 303t140.5 249.5t216.5 168t271.5 62.5q220 0 359.5 -159t139.5 -409q0 -205 -92 -383t-248.5 -283.5t-337.5 -105.5q-227 0 -364 148t-137 409zM412 467q0 -181 48 -288t140 -107q66 0 121 51t90 131.5t59.5 183.5t34.5 202.5t10 193.5 q0 364 -180 364q-86 0 -151.5 -69t-101.5 -181.5t-53 -234t-17 -246.5zM549 1450l33 -53l325 119q61 25 93 52t32 74q0 39 -23.5 63t-58.5 24q-50 0 -102 -41z" />
<glyph unicode="&#xd4;" horiz-adv-x="1280" d="M72 522q0 159 51.5 303t140.5 249.5t216.5 168t271.5 62.5q220 0 359.5 -159t139.5 -409q0 -205 -92 -383t-248.5 -283.5t-337.5 -105.5q-227 0 -364 148t-137 409zM393 1401q206 109 408 305q141 -204 323 -317l-204 6l-150 92l-172 -92zM412 467q0 -181 48 -288 t140 -107q66 0 121 51t90 131.5t59.5 183.5t34.5 202.5t10 193.5q0 364 -180 364q-86 0 -151.5 -69t-101.5 -181.5t-53 -234t-17 -246.5z" />
<glyph unicode="&#xd5;" horiz-adv-x="1280" d="M72 522q0 159 51.5 303t140.5 249.5t216.5 168t271.5 62.5q220 0 359.5 -159t139.5 -409q0 -205 -92 -383t-248.5 -283.5t-337.5 -105.5q-227 0 -364 148t-137 409zM412 467q0 -181 48 -288t140 -107q66 0 121 51t90 131.5t59.5 183.5t34.5 202.5t10 193.5 q0 364 -180 364q-86 0 -151.5 -69t-101.5 -181.5t-53 -234t-17 -246.5zM455 1460q7 71 28.5 120t55.5 75.5t72.5 37.5t86.5 11q84 0 144.5 -19t105.5 -38t90 -19q28 0 48.5 23t15.5 37l88 -17q-9 -69 -34.5 -120t-62 -80t-77.5 -42.5t-86 -13.5q-66 0 -121 15.5t-84.5 33.5 t-61.5 33.5t-57 15.5q-33 0 -50 -24.5t-15 -42.5z" />
<glyph unicode="&#xd6;" horiz-adv-x="1280" d="M72 522q0 159 51.5 303t140.5 249.5t216.5 168t271.5 62.5q220 0 359.5 -159t139.5 -409q0 -205 -92 -383t-248.5 -283.5t-337.5 -105.5q-227 0 -364 148t-137 409zM381 1513q0 70 52 123.5t118 53.5q55 0 90 -38t35 -96q0 -70 -51 -124t-117 -54q-54 0 -90.5 39.5 t-36.5 95.5zM412 467q0 -181 48 -288t140 -107q66 0 121 51t90 131.5t59.5 183.5t34.5 202.5t10 193.5q0 364 -180 364q-86 0 -151.5 -69t-101.5 -181.5t-53 -234t-17 -246.5zM883 1513q0 70 52 123.5t118 53.5q54 0 89.5 -38.5t35.5 -95.5q0 -70 -51.5 -124t-116.5 -54 q-54 0 -90.5 39.5t-36.5 95.5z" />
<glyph unicode="&#xd7;" horiz-adv-x="872" d="M84 307l223 207l-166 209l148 135l166 -205l223 205l106 -135l-221 -207l168 -209l-151 -135l-164 207l-223 -207z" />
<glyph unicode="&#xd8;" horiz-adv-x="1427" d="M72 522q0 159 51.5 303t140.5 249.5t216.5 168t271.5 62.5q152 0 276 -84l64 86l155 -127l-82 -109q86 -144 86 -334q0 -205 -92 -383t-248.5 -283.5t-337.5 -105.5q-115 0 -208 41l-27 -37l-156 127l19 27q-129 148 -129 399zM412 403l481 639q-43 156 -158 156 q-86 0 -151.5 -69t-101.5 -181.5t-53 -234t-17 -246.5v-64zM473 152q49 -80 127 -80q60 0 110.5 41t85 107.5t60 155t39 178t18.5 181.5z" />
<glyph unicode="&#xd9;" horiz-adv-x="1464" d="M127 1178v94q311 -6 621 0l-5 -94q-81 -4 -119 -24.5t-44 -59.5q-100 -724 -106 -799q-3 -32 -3 -59q0 -80 17.5 -116t74.5 -36q55 0 107.5 24.5t97.5 68.5t79.5 88.5t70.5 101.5l106 743q3 38 -22.5 50.5t-108.5 17.5v94q310 -6 620 0l-4 -94q-81 -4 -119 -24.5 t-44 -59.5l-129 -932q-4 -37 22 -50t107 -18l-5 -94q-85 3 -256 3t-241 -3l6 98q32 18 39 80l4 29q-62 -96 -157.5 -161.5t-221.5 -65.5q-180 0 -273.5 90t-93.5 247q0 14 111 793q3 37 -23.5 50t-107.5 18zM627 1591q-23 55 8 99q33 43 80.5 42t97.5 -44l277 -238l-37 -55 l-340 118q-63 23 -86 78z" />
<glyph unicode="&#xda;" horiz-adv-x="1464" d="M127 1178v94q311 -6 621 0l-5 -94q-81 -4 -119 -24.5t-44 -59.5q-100 -724 -106 -799q-3 -32 -3 -59q0 -80 17.5 -116t74.5 -36q55 0 107.5 24.5t97.5 68.5t79.5 88.5t70.5 101.5l106 743q3 38 -22.5 50.5t-108.5 17.5v94q310 -6 620 0l-4 -94q-81 -4 -119 -24.5 t-44 -59.5l-129 -932q-4 -37 22 -50t107 -18l-5 -94q-85 3 -256 3t-241 -3l6 98q32 18 39 80l4 29q-62 -96 -157.5 -161.5t-221.5 -65.5q-180 0 -273.5 90t-93.5 247q0 14 111 793q3 37 -23.5 50t-107.5 18zM662 1450l299 238q52 41 102 41q35 0 58.5 -24t23.5 -63 q0 -47 -32 -74t-93 -52l-326 -119z" />
<glyph unicode="&#xdb;" horiz-adv-x="1464" d="M127 1178v94q311 -6 621 0l-5 -94q-81 -4 -119 -24.5t-44 -59.5q-100 -724 -106 -799q-3 -32 -3 -59q0 -80 17.5 -116t74.5 -36q55 0 107.5 24.5t97.5 68.5t79.5 88.5t70.5 101.5l106 743q3 38 -22.5 50.5t-108.5 17.5v94q310 -6 620 0l-4 -94q-81 -4 -119 -24.5 t-44 -59.5l-129 -932q-4 -37 22 -50t107 -18l-5 -94q-85 3 -256 3t-241 -3l6 98q32 18 39 80l4 29q-62 -96 -157.5 -161.5t-221.5 -65.5q-180 0 -273.5 90t-93.5 247q0 14 111 793q3 37 -23.5 50t-107.5 18zM506 1401q203 108 407 305q141 -203 324 -317l-205 6l-149 92 l-172 -92z" />
<glyph unicode="&#xdc;" horiz-adv-x="1464" d="M127 1178v94q311 -6 621 0l-5 -94q-81 -4 -119 -24.5t-44 -59.5q-100 -724 -106 -799q-3 -32 -3 -59q0 -80 17.5 -116t74.5 -36q55 0 107.5 24.5t97.5 68.5t79.5 88.5t70.5 101.5l106 743q3 38 -22.5 50.5t-108.5 17.5v94q310 -6 620 0l-4 -94q-81 -4 -119 -24.5 t-44 -59.5l-129 -932q-4 -37 22 -50t107 -18l-5 -94q-85 3 -256 3t-241 -3l6 98q32 18 39 80l4 29q-62 -96 -157.5 -161.5t-221.5 -65.5q-180 0 -273.5 90t-93.5 247q0 14 111 793q3 37 -23.5 50t-107.5 18zM496 1513q0 70 52 123.5t118 53.5q55 0 90 -38t35 -96 q0 -70 -51 -124t-117 -54q-54 0 -90.5 39.5t-36.5 95.5zM997 1513q0 70 52 123.5t118 53.5q54 0 89.5 -38.5t35.5 -95.5q0 -70 -51.5 -124t-116.5 -54q-54 0 -90.5 39.5t-36.5 95.5z" />
<glyph unicode="&#xdd;" horiz-adv-x="1316" d="M137 1178v94q306 -12 619 0l-4 -94q-78 -7 -106.5 -31t-14.5 -57l160 -449l266 412q28 38 18 65t-34.5 40.5t-61.5 19.5v94q190 -12 385 0l-4 -94q-109 -14 -191 -142l-354 -547l-51 -327q-4 -37 22.5 -50.5t108.5 -21.5v-90q-307 9 -621 0l5 94q81 4 118 24.5t45 59.5 l43 303l-229 623q-6 22 -9 28.5t-14.5 19t-34 17.5t-61.5 9zM563 1450l33 -53l326 119q61 25 93 52t32 74q0 39 -23.5 63t-58.5 24q-51 0 -103 -41z" />
<glyph unicode="&#xde;" horiz-adv-x="1181" d="M-12 0l4 94q80 4 117 24.5t45 59.5l131 932q6 37 -21.5 50t-111.5 18l4 94q311 -9 616 0v-94q-81 -4 -120 -24.5t-44 -59.5l-8 -68h31q160 0 277 -47t176 -139.5t42 -218.5q-16 -114 -96.5 -198t-207.5 -126.5t-287 -42.5h-43l-13 -92q-6 -37 19.5 -50t107.5 -18v-94 q-309 9 -618 0zM506 358h55q93 0 171 95.5t93 201.5q8 61 -8 121t-59.5 103t-104.5 43h-67z" />
<glyph unicode="&#xdf;" horiz-adv-x="1267" d="M-14 0l6 94q84 6 119.5 24.5t38.5 57.5l98 686q15 104 45.5 176.5t88.5 127t151 80.5t225 26q393 0 393 -295q0 -48 -9 -86.5t-31 -76.5t-65 -69.5t-106 -54.5q131 -23 194.5 -89.5t63.5 -182.5q0 -98 -32 -171.5t-86.5 -120t-136 -75.5t-170.5 -40t-200 -11h-26l14 92 h14q141 0 220 93.5t79 234.5q0 99 -65.5 142.5t-206.5 43.5q-33 -2 -41 -5.5t-16 -4.5l-66 -424q-12 -76 -64.5 -124t-123.5 -48h-305zM551 700l35 5q148 17 209 89.5t61 231.5q0 152 -104 152q-49 0 -87 -47.5t-57.5 -109.5t-29.5 -136z" />
<glyph unicode="&#xe0;" d="M37 287q0 138 57.5 276t152 244.5t224.5 173t266 66.5q156 0 324 -66l-103 -752q-8 -47 37 -47q21 0 56 19t69 51q19 19 28 23t21 -1q14 -8 13 -28.5t-15 -38.5q-86 -110 -191.5 -165.5t-201.5 -55.5q-138 0 -125 131l17 149q-25 -62 -44 -99.5t-47.5 -76t-61 -58.5 t-80 -33t-109.5 -13q-56 0 -103.5 14t-90.5 46.5t-68 94t-25 146.5zM332 313q0 -110 22 -157t72 -47q69 0 138.5 111.5t114 257t62.5 278.5l23 174q-57 33 -105 33q-72 0 -130.5 -48.5t-94 -121t-59.5 -163.5t-33.5 -170t-9.5 -147zM449 1345.5q23 -54.5 86 -77.5l339 -119 l37 55l-276 238q-50 43 -97.5 44t-80.5 -42q-31 -44 -8 -98.5z" />
<glyph unicode="&#xe1;" d="M37 287q0 138 57.5 276t152 244.5t224.5 173t266 66.5q156 0 324 -66l-103 -752q-8 -47 37 -47q21 0 56 19t69 51q19 19 28 23t21 -1q14 -8 13 -28.5t-15 -38.5q-86 -110 -191.5 -165.5t-201.5 -55.5q-138 0 -125 131l17 149q-25 -62 -44 -99.5t-47.5 -76t-61 -58.5 t-80 -33t-109.5 -13q-56 0 -103.5 14t-90.5 46.5t-68 94t-25 146.5zM332 313q0 -110 22 -157t72 -47q69 0 138.5 111.5t114 257t62.5 278.5l23 174q-57 33 -105 33q-72 0 -130.5 -48.5t-94 -121t-59.5 -163.5t-33.5 -170t-9.5 -147zM483 1204l33 -53l326 119q61 25 93 52.5 t32 74.5q0 39 -23.5 62.5t-58.5 23.5q-51 0 -103 -41z" />
<glyph unicode="&#xe2;" d="M37 287q0 138 57.5 276t152 244.5t224.5 173t266 66.5q156 0 324 -66l-103 -752q-8 -47 37 -47q21 0 56 19t69 51q19 19 28 23t21 -1q14 -8 13 -28.5t-15 -38.5q-86 -110 -191.5 -165.5t-201.5 -55.5q-138 0 -125 131l17 149q-25 -62 -44 -99.5t-47.5 -76t-61 -58.5 t-80 -33t-109.5 -13q-56 0 -103.5 14t-90.5 46.5t-68 94t-25 146.5zM328 1155q203 108 407 305q141 -203 324 -317l-205 6l-149 92l-173 -92zM332 313q0 -110 22 -157t72 -47q69 0 138.5 111.5t114 257t62.5 278.5l23 174q-57 33 -105 33q-72 0 -130.5 -48.5t-94 -121 t-59.5 -163.5t-33.5 -170t-9.5 -147z" />
<glyph unicode="&#xe3;" d="M37 287q0 138 57.5 276t152 244.5t224.5 173t266 66.5q156 0 324 -66l-103 -752q-8 -47 37 -47q21 0 56 19t69 51q19 19 28 23t21 -1q14 -8 13 -28.5t-15 -38.5q-86 -110 -191.5 -165.5t-201.5 -55.5q-138 0 -125 131l17 149q-25 -62 -44 -99.5t-47.5 -76t-61 -58.5 t-80 -33t-109.5 -13q-56 0 -103.5 14t-90.5 46.5t-68 94t-25 146.5zM332 313q0 -110 22 -157t72 -47q69 0 138.5 111.5t114 257t62.5 278.5l23 174q-57 33 -105 33q-72 0 -130.5 -48.5t-94 -121t-59.5 -163.5t-33.5 -170t-9.5 -147zM391 1214q7 70 28.5 119.5t56 76t73 37.5 t86.5 11q84 0 144.5 -19t105.5 -38t90 -19q28 0 48 23t15 37l88 -17q-9 -69 -34.5 -120t-62 -80t-77.5 -42.5t-86 -13.5q-66 0 -121 15.5t-84 34t-61 34t-57 15.5q-34 0 -51 -25t-15 -43z" />
<glyph unicode="&#xe4;" d="M37 287q0 138 57.5 276t152 244.5t224.5 173t266 66.5q156 0 324 -66l-103 -752q-8 -47 37 -47q21 0 56 19t69 51q19 19 28 23t21 -1q14 -8 13 -28.5t-15 -38.5q-86 -110 -191.5 -165.5t-201.5 -55.5q-138 0 -125 131l17 149q-25 -62 -44 -99.5t-47.5 -76t-61 -58.5 t-80 -33t-109.5 -13q-56 0 -103.5 14t-90.5 46.5t-68 94t-25 146.5zM317 1268q0 70 52 123t118 53q55 0 90 -38t35 -95q0 -70 -51 -124t-117 -54q-54 0 -90.5 39.5t-36.5 95.5zM332 313q0 -110 22 -157t72 -47q69 0 138.5 111.5t114 257t62.5 278.5l23 174q-57 33 -105 33 q-72 0 -130.5 -48.5t-94 -121t-59.5 -163.5t-33.5 -170t-9.5 -147zM819 1268q0 70 52 123t118 53q54 0 89.5 -38t35.5 -95q0 -70 -51.5 -124t-116.5 -54q-54 0 -90.5 39.5t-36.5 95.5z" />
<glyph unicode="&#xe5;" d="M37 287q0 138 57.5 276t152 244.5t224.5 173t266 66.5q156 0 324 -66l-103 -752q-8 -47 37 -47q21 0 56 19t69 51q19 19 28 23t21 -1q14 -8 13 -28.5t-15 -38.5q-86 -110 -191.5 -165.5t-201.5 -55.5q-138 0 -125 131l17 149q-25 -62 -44 -99.5t-47.5 -76t-61 -58.5 t-80 -33t-109.5 -13q-56 0 -103.5 14t-90.5 46.5t-68 94t-25 146.5zM332 313q0 -110 22 -157t72 -47q69 0 138.5 111.5t114 257t62.5 278.5l23 174q-57 33 -105 33q-72 0 -130.5 -48.5t-94 -121t-59.5 -163.5t-33.5 -170t-9.5 -147zM555 1382q0 82 61 144.5t140 62.5 q68 0 109.5 -45t41.5 -112q0 -82 -60.5 -144.5t-141.5 -62.5q-66 0 -108 45t-42 112zM688 1399q0 -13 10.5 -24t26.5 -11q18 0 33.5 16.5t15.5 34.5q0 13 -10.5 24t-26.5 11q-18 0 -33.5 -16.5t-15.5 -34.5z" />
<glyph unicode="&#xe6;" horiz-adv-x="1562" d="M45 287q0 138 58.5 276t154 244.5t226.5 173t268 66.5q74 0 139 -15t145 -59q122 69 248 69q227 0 227 -184q0 -73 -41.5 -141.5t-99.5 -115.5t-138.5 -90.5t-139.5 -66.5t-121 -43q-6 -112 45 -167.5t123 -55.5q125 0 229 107q2 2 6 6.5t6 6t5 4.5t5.5 4t5.5 2.5t6 2 t7 0.5h33q19 0 25 -11t0 -27t-19 -33q-161 -254 -424 -254q-57 0 -108.5 15.5t-97.5 46.5t-79 85.5t-47 126.5l-14 -29q-26 -52 -45 -84t-48.5 -66t-62.5 -52.5t-81.5 -30.5t-110.5 -12q-56 0 -103 14t-90 46.5t-67.5 94t-24.5 146.5zM338 313q0 -110 22 -157t72 -47 q52 0 108.5 70.5t99.5 173.5t74 211.5t42 191.5l22 174q-59 33 -104 33q-72 0 -131.5 -48t-96 -121t-62 -163.5t-36 -170.5t-10.5 -147zM973 479q301 102 301 385q0 45 -15 71t-45 26q-77 0 -147.5 -140t-93.5 -342z" />
<glyph unicode="&#xe7;" horiz-adv-x="954" d="M57 362q0 95 29.5 193t84.5 184.5t127.5 154.5t165 108t189.5 40q116 0 197.5 -71.5t81.5 -171.5q0 -64 -40 -112t-106 -48q-54 0 -81 31.5t-27 81.5q0 29 4.5 62t8.5 53.5t5 40.5t-4.5 31t-21.5 17.5t-45 6.5q-57 0 -106 -35.5t-80.5 -90t-54 -123t-32.5 -132 t-10 -117.5q0 -135 48 -211t138 -76q122 0 224 107q2 2 6 6.5t6 6t5 4.5t5.5 4t5.5 2.5t6 2t7 0.5h32q19 0 25 -11t0 -27t-19 -33q-145 -230 -385 -252l-28 -49q29 -11 51 -20t55 -27.5t54 -37.5t37 -47t16 -59q0 -52 -45.5 -89.5t-106 -53t-123.5 -15.5q-93 0 -154 33.5 t-61 100.5q0 35 22 58t60 23q34 0 48.5 -16t14.5 -39.5t0.5 -46.5t16 -39t51.5 -16q49 0 75 25.5t26 72.5q0 41 -26.5 65.5t-86.5 47.5q-52 17 -47 57q1 6 5.5 12t20 24t29.5 36q-61 7 -112 31.5t-92.5 68t-65 113.5t-23.5 161z" />
<glyph unicode="&#xe8;" horiz-adv-x="935" d="M57 362q0 95 30.5 193t87 184.5t129.5 154.5t166 108t189 40q226 0 226 -184q0 -62 -27.5 -119.5t-76 -102.5t-103 -83t-120.5 -68t-115 -49t-99 -35q-3 -58 11 -102.5t39.5 -70t55.5 -38t62 -12.5q127 0 229 107q2 2 6 6.5t6 6t5 4.5t5.5 4t5.5 2.5t6 2t7 0.5h33 q19 0 25 -11t0 -27t-19 -33q-157 -254 -424 -254q-67 0 -126 21t-108 63.5t-77.5 117.5t-28.5 174zM328 1345.5q23 -54.5 86 -77.5l340 -119l37 55l-277 238q-50 43 -97.5 44t-80.5 -42q-31 -44 -8 -98.5zM348 479q299 102 299 385q0 97 -59 97q-77 0 -147.5 -140.5 t-92.5 -341.5z" />
<glyph unicode="&#xe9;" horiz-adv-x="935" d="M57 362q0 95 30.5 193t87 184.5t129.5 154.5t166 108t189 40q226 0 226 -184q0 -62 -27.5 -119.5t-76 -102.5t-103 -83t-120.5 -68t-115 -49t-99 -35q-3 -58 11 -102.5t39.5 -70t55.5 -38t62 -12.5q127 0 229 107q2 2 6 6.5t6 6t5 4.5t5.5 4t5.5 2.5t6 2t7 0.5h33 q19 0 25 -11t0 -27t-19 -33q-157 -254 -424 -254q-67 0 -126 21t-108 63.5t-77.5 117.5t-28.5 174zM348 479q299 102 299 385q0 97 -59 97q-77 0 -147.5 -140.5t-92.5 -341.5zM365 1204l32 -53l326 119q61 25 93 52.5t32 74.5q0 39 -23.5 62.5t-58.5 23.5q-50 0 -102 -41z " />
<glyph unicode="&#xea;" horiz-adv-x="935" d="M57 362q0 95 30.5 193t87 184.5t129.5 154.5t166 108t189 40q226 0 226 -184q0 -62 -27.5 -119.5t-76 -102.5t-103 -83t-120.5 -68t-115 -49t-99 -35q-3 -58 11 -102.5t39.5 -70t55.5 -38t62 -12.5q127 0 229 107q2 2 6 6.5t6 6t5 4.5t5.5 4t5.5 2.5t6 2t7 0.5h33 q19 0 25 -11t0 -27t-19 -33q-157 -254 -424 -254q-67 0 -126 21t-108 63.5t-77.5 117.5t-28.5 174zM209 1155q203 108 407 305q141 -203 324 -317l-205 6l-149 92l-172 -92zM348 479q299 102 299 385q0 97 -59 97q-77 0 -147.5 -140.5t-92.5 -341.5z" />
<glyph unicode="&#xeb;" horiz-adv-x="935" d="M57 362q0 95 30.5 193t87 184.5t129.5 154.5t166 108t189 40q226 0 226 -184q0 -62 -27.5 -119.5t-76 -102.5t-103 -83t-120.5 -68t-115 -49t-99 -35q-3 -58 11 -102.5t39.5 -70t55.5 -38t62 -12.5q127 0 229 107q2 2 6 6.5t6 6t5 4.5t5.5 4t5.5 2.5t6 2t7 0.5h33 q19 0 25 -11t0 -27t-19 -33q-157 -254 -424 -254q-67 0 -126 21t-108 63.5t-77.5 117.5t-28.5 174zM197 1268q0 70 52 123t118 53q55 0 90 -38t35 -95q0 -70 -51 -124t-117 -54q-54 0 -90.5 39.5t-36.5 95.5zM348 479q299 102 299 385q0 97 -59 97q-77 0 -147.5 -140.5 t-92.5 -341.5zM698 1268q0 70 52 123t118 53q54 0 89.5 -38t35.5 -95q0 -70 -51.5 -124t-116.5 -54q-54 0 -90.5 39.5t-36.5 95.5z" />
<glyph unicode="&#xec;" horiz-adv-x="798" d="M63 764q-18 21 19 67q87 105 192 161.5t203 56.5q75 0 100.5 -45t12.5 -136l-92 -639q-4 -23 8.5 -35t34.5 -12q21 0 55.5 19.5t67.5 50.5q37 35 55 22q12 -11 9 -30.5t-15 -36.5q-87 -110 -193 -165.5t-209 -55.5q-74 0 -100 43.5t-14 132.5l90 651q2 25 -5 35t-28 10 t-57.5 -23t-67.5 -57q-15 -19 -34.5 -23t-31.5 9zM238 1345.5q23 -54.5 86 -77.5l340 -119l36 55l-276 238q-50 43 -97.5 44t-80.5 -42q-31 -44 -8 -98.5z" />
<glyph unicode="&#xed;" horiz-adv-x="798" d="M63 764q-18 21 19 67q87 105 192 161.5t203 56.5q75 0 100.5 -45t12.5 -136l-92 -639q-4 -23 8.5 -35t34.5 -12q21 0 55.5 19.5t67.5 50.5q37 35 55 22q12 -11 9 -30.5t-15 -36.5q-87 -110 -193 -165.5t-209 -55.5q-74 0 -100 43.5t-14 132.5l90 651q2 25 -5 35t-28 10 t-57.5 -23t-67.5 -57q-15 -19 -34.5 -23t-31.5 9zM272 1204l33 -53l326 119q61 25 93 52.5t32 74.5q0 39 -23.5 62.5t-58.5 23.5q-51 0 -103 -41z" />
<glyph unicode="&#xee;" horiz-adv-x="798" d="M63 764q-18 21 19 67q87 105 192 161.5t203 56.5q75 0 100.5 -45t12.5 -136l-92 -639q-4 -23 8.5 -35t34.5 -12q21 0 55.5 19.5t67.5 50.5q37 35 55 22q12 -11 9 -30.5t-15 -36.5q-87 -110 -193 -165.5t-209 -55.5q-74 0 -100 43.5t-14 132.5l90 651q2 25 -5 35t-28 10 t-57.5 -23t-67.5 -57q-15 -19 -34.5 -23t-31.5 9zM117 1155q203 108 407 305q141 -203 324 -317l-205 6l-149 92l-172 -92z" />
<glyph unicode="&#xef;" horiz-adv-x="798" d="M63 764q-18 21 19 67q87 105 192 161.5t203 56.5q75 0 100.5 -45t12.5 -136l-92 -639q-4 -23 8.5 -35t34.5 -12q21 0 55.5 19.5t67.5 50.5q37 35 55 22q12 -11 9 -30.5t-15 -36.5q-87 -110 -193 -165.5t-209 -55.5q-74 0 -100 43.5t-14 132.5l90 651q2 25 -5 35t-28 10 t-57.5 -23t-67.5 -57q-15 -19 -34.5 -23t-31.5 9zM106 1268q0 70 52 123t118 53q55 0 90 -38t35 -95q0 -70 -51 -124t-117 -54q-54 0 -90.5 39.5t-36.5 95.5zM608 1268q0 70 52 123t118 53q54 0 89.5 -38t35.5 -95q0 -70 -51.5 -124t-116.5 -54q-54 0 -90.5 39.5t-36.5 95.5 z" />
<glyph unicode="&#xf0;" horiz-adv-x="1218" d="M72 506q16 109 55.5 200.5t90.5 152t111 103t116.5 61.5t107.5 19q94 0 148 -39t94 -104l24 150q8 54 2 90l-256 -68l10 90l187 51q-38 11 -172 0v95q166 33 201 39t65 6q46 0 76 -2.5t68.5 -16.5t64.5 -41l207 56l-10 -91l-152 -40q31 -100 6 -271l-90 -657 q-10 -56 20.5 -70.5t88.5 2.5l-5 -112q-93 -24 -181.5 -61t-138.5 -60t-69 -23q-38 0 -55.5 30t-5.5 77l20 57q-63 -80 -120 -122t-136 -42q-77 0 -149.5 36t-129 102t-83.5 171.5t-10 231.5zM385 231q1 -57 11.5 -93t32.5 -57.5t56 -21.5q62 0 133 81.5t101 195.5l67 469 q-35 61 -87 96t-105 35q-130 0 -188 -447q-11 -80 -16.5 -140.5t-4.5 -117.5z" />
<glyph unicode="&#xf1;" horiz-adv-x="1409" d="M63 764q-18 21 19 67q181 218 391 218q68 0 96 -47t13 -134l-43 -198q68 133 112 192q135 180 324 180q49 0 86 -10t69.5 -35t48 -67t22 -106t-8.5 -152l-68 -443q-4 -23 7.5 -35t33.5 -12q44 0 121 70q35 35 53 22q12 -11 9 -30.5t-15 -36.5q-86 -110 -197.5 -165.5 t-217.5 -55.5q-135 0 -107 176l74 504q2 17 7 50q19 87 12.5 141t-56.5 54q-121 0 -229.5 -233.5t-178.5 -677.5q-135 -31 -270 0l115 813q4 24 -3.5 34.5t-29.5 10.5q-21 0 -56 -22.5t-67 -57.5q-15 -19 -34.5 -23t-31.5 9zM401 1214q7 70 28.5 119.5t56 76t73 37.5 t86.5 11q84 0 144.5 -19t105.5 -38t90 -19q28 0 48.5 23t15.5 37l88 -17q-9 -69 -34.5 -120t-62 -80t-77.5 -42.5t-86 -13.5q-66 0 -121 15.5t-84.5 34t-61.5 34t-57 15.5q-34 0 -51 -25t-15 -43z" />
<glyph unicode="&#xf2;" horiz-adv-x="1118" d="M61 406q0 164 81 312t212.5 236t274.5 88q84 0 157 -22t135 -68.5t98 -128.5t36 -192q0 -121 -48 -239t-127 -207t-187 -144t-222 -55q-57 0 -113.5 15t-110.5 48t-95 80.5t-66 119t-25 157.5zM362 260q0 -194 119 -194q72 0 134 105t96 267t34 334q0 94 -31 143.5 t-89 49.5q-57 0 -107.5 -67.5t-83.5 -171.5t-52.5 -227.5t-19.5 -238.5zM403.5 1345.5q22.5 -54.5 85.5 -77.5l340 -119l37 55l-276 238q-50 43 -97.5 44t-80.5 -42q-31 -44 -8.5 -98.5z" />
<glyph unicode="&#xf3;" horiz-adv-x="1118" d="M61 406q0 164 81 312t212.5 236t274.5 88q84 0 157 -22t135 -68.5t98 -128.5t36 -192q0 -121 -48 -239t-127 -207t-187 -144t-222 -55q-57 0 -113.5 15t-110.5 48t-95 80.5t-66 119t-25 157.5zM362 260q0 -194 119 -194q72 0 134 105t96 267t34 334q0 94 -31 143.5 t-89 49.5q-57 0 -107.5 -67.5t-83.5 -171.5t-52.5 -227.5t-19.5 -238.5zM438 1204l33 -53l326 119q61 25 93 52.5t32 74.5q0 39 -23.5 62.5t-58.5 23.5q-51 0 -103 -41z" />
<glyph unicode="&#xf4;" horiz-adv-x="1118" d="M61 406q0 164 81 312t212.5 236t274.5 88q84 0 157 -22t135 -68.5t98 -128.5t36 -192q0 -121 -48 -239t-127 -207t-187 -144t-222 -55q-57 0 -113.5 15t-110.5 48t-95 80.5t-66 119t-25 157.5zM283 1155q203 108 407 305q141 -203 324 -317l-205 6l-150 92l-172 -92z M362 260q0 -194 119 -194q72 0 134 105t96 267t34 334q0 94 -31 143.5t-89 49.5q-57 0 -107.5 -67.5t-83.5 -171.5t-52.5 -227.5t-19.5 -238.5z" />
<glyph unicode="&#xf5;" horiz-adv-x="1118" d="M61 406q0 164 81 312t212.5 236t274.5 88q84 0 157 -22t135 -68.5t98 -128.5t36 -192q0 -121 -48 -239t-127 -207t-187 -144t-222 -55q-57 0 -113.5 15t-110.5 48t-95 80.5t-66 119t-25 157.5zM344 1214q7 70 28.5 119.5t56 76t73 37.5t86.5 11q84 0 144.5 -19t105.5 -38 t90 -19q28 0 48 23t15 37l88 -17q-9 -69 -34.5 -120t-62 -80t-77.5 -42.5t-86 -13.5q-66 0 -121 15.5t-84 34t-61 34t-57 15.5q-34 0 -51 -25t-15 -43zM362 260q0 -194 119 -194q72 0 134 105t96 267t34 334q0 94 -31 143.5t-89 49.5q-57 0 -107.5 -67.5t-83.5 -171.5 t-52.5 -227.5t-19.5 -238.5z" />
<glyph unicode="&#xf6;" horiz-adv-x="1118" d="M61 406q0 164 81 312t212.5 236t274.5 88q84 0 157 -22t135 -68.5t98 -128.5t36 -192q0 -121 -48 -239t-127 -207t-187 -144t-222 -55q-57 0 -113.5 15t-110.5 48t-95 80.5t-66 119t-25 157.5zM270 1268q0 70 52 123t118 53q55 0 90 -38t35 -95q0 -70 -51 -124t-117 -54 q-54 0 -90.5 39.5t-36.5 95.5zM362 260q0 -194 119 -194q72 0 134 105t96 267t34 334q0 94 -31 143.5t-89 49.5q-57 0 -107.5 -67.5t-83.5 -171.5t-52.5 -227.5t-19.5 -238.5zM772 1268q0 70 52 123t118 53q54 0 89.5 -38t35.5 -95q0 -70 -51.5 -124t-116.5 -54 q-54 0 -90.5 39.5t-36.5 95.5z" />
<glyph unicode="&#xf7;" horiz-adv-x="937" d="M127 471l16 119h674l-16 -119h-674zM287 221q8 48 47 82.5t92 34.5q56 0 89 -45t26 -109q-8 -50 -48 -84t-92 -34q-56 0 -89.5 45t-24.5 110zM375 848q8 48 47 82.5t92 34.5q56 0 89 -45t26 -109q-8 -50 -48 -84.5t-92 -34.5q-56 0 -89.5 45t-24.5 111z" />
<glyph unicode="&#xf8;" horiz-adv-x="1048" d="M61 406q0 164 81 312t212.5 236t274.5 88q120 0 209 -41l18 25l156 -127l-21 -27q64 -97 64 -241q0 -121 -48 -239t-127 -207t-187 -144t-222 -55q-71 0 -135 20l-45 -61l-156 127l31 41q-105 117 -105 293zM369 381l366 485q-27 99 -110 99q-49 0 -94 -51.5t-77 -136 t-54 -187t-31 -209.5zM406 98q25 -32 75 -32q82 0 148.5 130t97.5 326z" />
<glyph unicode="&#xf9;" horiz-adv-x="1406" d="M61 787q3 19 15 36q87 111 199 168.5t217 57.5q136 0 108 -181l-82 -503q-25 -144 -20 -187q7 -61 61 -61q119 0 227 227t168 631q7 37 46.5 55.5t99.5 18.5q66 0 99 -20.5t26 -65.5l-105 -746q-4 -24 3.5 -34.5t29.5 -10.5q21 0 56 22.5t67 57.5q15 19 34 23t31 -9 q19 -22 -18 -67q-177 -213 -391 -213q-140 0 -109 176l43 198q-66 -130 -109 -188q-139 -186 -343 -186q-265 0 -197 397l72 418q4 23 -9.5 35t-35.5 12q-44 0 -121 -70q-34 -34 -53 -20q-12 10 -9 29zM543 1345.5q23 -54.5 86 -77.5l340 -119l37 55l-277 238 q-50 43 -97.5 44t-80.5 -42q-31 -44 -8 -98.5z" />
<glyph unicode="&#xfa;" horiz-adv-x="1406" d="M61 787q3 19 15 36q87 111 199 168.5t217 57.5q136 0 108 -181l-82 -503q-25 -144 -20 -187q7 -61 61 -61q119 0 227 227t168 631q7 37 46.5 55.5t99.5 18.5q66 0 99 -20.5t26 -65.5l-105 -746q-4 -24 3.5 -34.5t29.5 -10.5q21 0 56 22.5t67 57.5q15 19 34 23t31 -9 q19 -22 -18 -67q-177 -213 -391 -213q-140 0 -109 176l43 198q-66 -130 -109 -188q-139 -186 -343 -186q-265 0 -197 397l72 418q4 23 -9.5 35t-35.5 12q-44 0 -121 -70q-34 -34 -53 -20q-12 10 -9 29zM578 1204l32 -53l326 119q61 25 93 52.5t32 74.5q0 39 -23.5 62.5 t-58.5 23.5q-50 0 -102 -41z" />
<glyph unicode="&#xfb;" horiz-adv-x="1406" d="M61 787q3 19 15 36q87 111 199 168.5t217 57.5q136 0 108 -181l-82 -503q-25 -144 -20 -187q7 -61 61 -61q119 0 227 227t168 631q7 37 46.5 55.5t99.5 18.5q66 0 99 -20.5t26 -65.5l-105 -746q-4 -24 3.5 -34.5t29.5 -10.5q21 0 56 22.5t67 57.5q15 19 34 23t31 -9 q19 -22 -18 -67q-177 -213 -391 -213q-140 0 -109 176l43 198q-66 -130 -109 -188q-139 -186 -343 -186q-265 0 -197 397l72 418q4 23 -9.5 35t-35.5 12q-44 0 -121 -70q-34 -34 -53 -20q-12 10 -9 29zM422 1155q203 108 407 305q141 -203 324 -317l-205 6l-149 92l-172 -92 z" />
<glyph unicode="&#xfc;" horiz-adv-x="1406" d="M61 787q3 19 15 36q87 111 199 168.5t217 57.5q136 0 108 -181l-82 -503q-25 -144 -20 -187q7 -61 61 -61q119 0 227 227t168 631q7 37 46.5 55.5t99.5 18.5q66 0 99 -20.5t26 -65.5l-105 -746q-4 -24 3.5 -34.5t29.5 -10.5q21 0 56 22.5t67 57.5q15 19 34 23t31 -9 q19 -22 -18 -67q-177 -213 -391 -213q-140 0 -109 176l43 198q-66 -130 -109 -188q-139 -186 -343 -186q-265 0 -197 397l72 418q4 23 -9.5 35t-35.5 12q-44 0 -121 -70q-34 -34 -53 -20q-12 10 -9 29zM412 1268q0 70 52 123t118 53q55 0 90 -38t35 -95q0 -70 -51 -124 t-117 -54q-54 0 -90.5 39.5t-36.5 95.5zM913 1268q0 70 52 123t118 53q54 0 89.5 -38t35.5 -95q0 -70 -51.5 -124t-116.5 -54q-54 0 -90.5 39.5t-36.5 95.5z" />
<glyph unicode="&#xfd;" horiz-adv-x="1142" d="M86 805q-15 28 14 41q70 39 154.5 92.5t131 82t60.5 28.5q38 0 60 -30t49 -104l260 -706q84 171 128 322t44 214q0 16 -3.5 18.5t-13.5 -3.5q-31 -15 -63 -15q-61 0 -104 44t-43 106q0 64 44.5 108t115.5 44q88 0 138 -58t50 -176q0 -124 -66.5 -338t-205.5 -457 q-85 -153 -144.5 -244.5t-111 -142t-92 -66.5t-95.5 -16q-79 0 -134.5 52t-55.5 133q0 72 43 121t112 49q34 0 58.5 -19t36 -42.5t28 -42.5t35.5 -19q13 0 24 4.5t34 27t51 64.5l-328 887q-12 31 -27 43t-41 12q-13 0 -24.5 -3t-20 -6.5t-27 -12.5t-32.5 -15q-22 -12 -39 23 zM489 1204l299 238q52 41 103 41q35 0 58.5 -23.5t23.5 -62.5q0 -47 -32 -74.5t-93 -52.5l-326 -119z" />
<glyph unicode="&#xfe;" horiz-adv-x="1204" d="M-39 -393q0 21 11 36t25 28t31 58.5t27 118.5l162 1176q7 42 -7 60t-40 16t-57 -4l2 100q98 22 185.5 61.5t137 67t70.5 27.5q28 0 42 -17t13.5 -37t-0.5 -36l-45 -314q106 94 258 94q59 0 120.5 -30.5t115.5 -87t88.5 -149.5t34.5 -206t-44.5 -223.5t-117.5 -194 t-174 -135t-207 -51.5q-114 0 -195 103l-26 -185q-4 -39 6.5 -56.5t33.5 -18t56 2.5q20 2 31 3l-6 -105q-104 -22 -211 -61t-174.5 -65.5t-96.5 -26.5q-23 0 -36 14t-13 37zM428 289v2q3 -106 53 -169t117 -63q53 0 94.5 57t64 149t33.5 190.5t11 197.5q0 138 -31.5 210.5 t-89.5 72.5q-75 0 -178 -107z" />
<glyph unicode="&#xff;" horiz-adv-x="1142" d="M86 805q-15 28 14 41q70 39 154.5 92.5t131 82t60.5 28.5q38 0 60 -30t49 -104l260 -706q84 171 128 322t44 214q0 16 -3.5 18.5t-13.5 -3.5q-31 -15 -63 -15q-61 0 -104 44t-43 106q0 64 44.5 108t115.5 44q88 0 138 -58t50 -176q0 -124 -66.5 -338t-205.5 -457 q-85 -153 -144.5 -244.5t-111 -142t-92 -66.5t-95.5 -16q-79 0 -134.5 52t-55.5 133q0 72 43 121t112 49q34 0 58.5 -19t36 -42.5t28 -42.5t35.5 -19q13 0 24 4.5t34 27t51 64.5l-328 887q-12 31 -27 43t-41 12q-13 0 -24.5 -3t-20 -6.5t-27 -12.5t-32.5 -15q-22 -12 -39 23 zM324 1268q0 70 52 123t118 53q55 0 89.5 -37.5t34.5 -95.5q0 -70 -50.5 -124t-116.5 -54q-54 0 -90.5 39.5t-36.5 95.5zM825 1268q0 70 52 123t118 53q54 0 89.5 -38t35.5 -95q0 -70 -51.5 -124t-116.5 -54q-54 0 -90.5 39.5t-36.5 95.5z" />
<glyph unicode="&#x152;" horiz-adv-x="1798" d="M82 668q21 148 85 270t153 201.5t195 122.5t216 43q23 0 45 -1.5t37 -3.5t36 -6.5t29 -6.5t30 -8t26 -7h809q21 0 28 -10.5t5 -34.5v-252h-99l-18 51q-15 33 -22 48t-19.5 35t-22.5 28t-27.5 16.5t-38 11t-50.5 2.5h-109q-17 0 -32.5 -14t-16.5 -33l-57 -409h157 q71 0 110.5 29.5t61.5 97.5l74 -17q-38 -161 -47 -348l-78 16q-2 67 -27 92t-98 25h-170l-65 -469q-2 -17 4.5 -24t23.5 -7h37q120 0 182.5 29t110.5 113l78 133l108 -8q-104 -227 -116 -373q-288 16 -604 10q0 -3 -1 -8.5t-1 -7.5l-43 14q-21 -1 -58.5 -1.5t-69 -1.5 t-59.5 -3q-10 -3 -35.5 -11.5t-41.5 -13t-46 -8.5t-63 -4q-282 0 -417 188.5t-89 514.5zM412.5 484q-1.5 -106 12.5 -201t54.5 -154t104.5 -59q85 0 150.5 39t131.5 114l113 807q-90 170 -258 170q-77 0 -138 -69.5t-97.5 -179t-55.5 -253.5q-16 -108 -17.5 -214z" />
<glyph unicode="&#x153;" horiz-adv-x="1632" d="M61 406q0 164 81 312t212.5 236t274.5 88q112 0 206.5 -39t151.5 -122q168 161 369 161q225 0 225 -184q0 -62 -27.5 -119.5t-76 -102.5t-103 -83t-120.5 -68t-115 -49t-99 -35q-3 -58 11 -102.5t39.5 -70t55.5 -38t62 -12.5q128 0 230 107q2 2 6 6.5t6 6t5 4.5t5.5 4 t5.5 2.5t6 2t7 0.5h32q19 0 25 -11t0.5 -27t-18.5 -33q-157 -254 -424 -254q-85 0 -158.5 33.5t-120.5 103.5q-157 -137 -344 -137q-57 0 -113.5 15t-110.5 48t-95 80.5t-66 119t-25 157.5zM362 260q0 -194 119 -194q72 0 134 105t96 267t34 334q0 94 -31 143.5t-89 49.5 q-57 0 -107.5 -67.5t-83.5 -171.5t-52.5 -227.5t-19.5 -238.5zM1044 479q299 102 299 385q0 97 -59 97q-77 0 -147.5 -140.5t-92.5 -341.5z" />
<glyph unicode="&#x178;" horiz-adv-x="1316" d="M137 1178v94q306 -12 619 0l-4 -94q-78 -7 -106.5 -31t-14.5 -57l160 -449l266 412q28 38 18 65t-34.5 40.5t-61.5 19.5v94q190 -12 385 0l-4 -94q-109 -14 -191 -142l-354 -547l-51 -327q-4 -37 22.5 -50.5t108.5 -21.5v-90q-307 9 -621 0l5 94q81 4 118 24.5t45 59.5 l43 303l-229 623q-6 22 -9 28.5t-14.5 19t-34 17.5t-61.5 9zM395 1513q0 70 52 123.5t118 53.5q55 0 90 -38t35 -96q0 -70 -51 -124t-117 -54q-54 0 -90.5 39.5t-36.5 95.5zM897 1513q0 70 52 123.5t118 53.5q54 0 89.5 -38.5t35.5 -95.5q0 -70 -51.5 -124t-116.5 -54 q-54 0 -90.5 39.5t-36.5 95.5z" />
<glyph unicode="&#x2c6;" horiz-adv-x="980" d="M193 1155q203 108 407 305q141 -203 324 -317l-205 6l-150 92l-172 -92z" />
<glyph unicode="&#x2dc;" horiz-adv-x="1036" d="M201 1214q7 71 28.5 120t55.5 75.5t72.5 37.5t86.5 11q66 0 119.5 -12t82 -26t65.5 -26t73 -12q28 0 48.5 23t15.5 37l88 -17q-9 -69 -34.5 -120t-62 -80t-77.5 -42.5t-86 -13.5q-66 0 -121 15.5t-84.5 34t-61.5 34t-57 15.5q-33 0 -50 -25t-15 -43z" />
<glyph unicode="&#x2000;" horiz-adv-x="917" />
<glyph unicode="&#x2001;" horiz-adv-x="1835" />
<glyph unicode="&#x2002;" horiz-adv-x="917" />
<glyph unicode="&#x2003;" horiz-adv-x="1835" />
<glyph unicode="&#x2004;" horiz-adv-x="611" />
<glyph unicode="&#x2005;" horiz-adv-x="458" />
<glyph unicode="&#x2006;" horiz-adv-x="305" />
<glyph unicode="&#x2007;" horiz-adv-x="305" />
<glyph unicode="&#x2008;" horiz-adv-x="229" />
<glyph unicode="&#x2009;" horiz-adv-x="367" />
<glyph unicode="&#x200a;" horiz-adv-x="101" />
<glyph unicode="&#x2010;" horiz-adv-x="696" d="M72 422v182h553v-182h-553z" />
<glyph unicode="&#x2011;" horiz-adv-x="696" d="M72 422v182h553v-182h-553z" />
<glyph unicode="&#x2012;" horiz-adv-x="696" d="M72 422v182h553v-182h-553z" />
<glyph unicode="&#x2013;" horiz-adv-x="1366" d="M61 422v182h1192v-182h-1192z" />
<glyph unicode="&#x2014;" horiz-adv-x="1820" d="M51 422v182h1678v-182h-1678z" />
<glyph unicode="&#x2018;" horiz-adv-x="436" d="M115 950q0 105 53.5 209t140.5 189q24 26 43 0l19 -23q-86 -77 -107 -192q-4 -22 2 -25q20 4 39 4q73 0 108.5 -51t24.5 -117q-18 -66 -68 -107.5t-116 -41.5t-102.5 43t-36.5 112z" />
<glyph unicode="&#x2019;" horiz-adv-x="428" d="M156 1249q15 65 66 107.5t116 42.5q67 0 103 -43t36 -113q0 -105 -53.5 -208.5t-140.5 -188.5q-23 -27 -43 0l-19 22q86 77 107 193q4 21 -2 24q-20 -4 -37 -4q-74 0 -110 51t-23 117z" />
<glyph unicode="&#x201a;" horiz-adv-x="448" d="M0 143q15 65 66 107.5t116 42.5q67 0 103.5 -43t36.5 -113q0 -105 -54 -208.5t-141 -188.5q-23 -27 -43 0l-18 22q85 76 106 193q4 21 0 25q-25 -5 -39 -5q-74 0 -110 51t-23 117z" />
<glyph unicode="&#x201c;" horiz-adv-x="823" d="M115 950q0 105 53.5 209t140.5 189q24 26 43 0l19 -23q-86 -77 -107 -192q-4 -22 2 -25q20 4 37 4q74 0 110 -51t23 -117q-15 -65 -66 -107t-116 -42q-67 0 -103 42.5t-36 112.5zM504 950q0 105 53.5 209t140.5 189q24 26 43 0l19 -23q-86 -77 -107 -192q-4 -22 2 -25 q20 4 37 4q74 0 110 -51t23 -117q-15 -65 -66 -107t-116 -42q-67 0 -103 42.5t-36 112.5z" />
<glyph unicode="&#x201d;" horiz-adv-x="1124" d="M156 1249q15 65 66 107.5t116 42.5q67 0 103 -43t36 -113q0 -105 -53.5 -208.5t-140.5 -188.5q-23 -27 -43 0l-19 22q86 77 107 193q4 21 -2 24q-20 -4 -37 -4q-74 0 -110 51t-23 117zM543 1249q18 66 68 108t116 42t101.5 -43t35.5 -113q0 -105 -52.5 -209t-139.5 -188 q-23 -27 -43 0l-19 22q86 77 107 193q4 21 -2 24q-20 -4 -39 -4q-73 0 -108.5 51t-24.5 117z" />
<glyph unicode="&#x201e;" horiz-adv-x="796" d="M0 143q15 65 66 107.5t116 42.5q67 0 103.5 -43t36.5 -113q0 -105 -54 -208.5t-141 -188.5q-23 -27 -43 0l-18 22q85 76 106 193q4 21 0 25q-25 -5 -39 -5q-74 0 -110 51t-23 117zM346 143q18 66 68 108t116 42q67 0 103.5 -43t36.5 -113q0 -105 -54 -208.5t-141 -188.5 q-24 -26 -43 0l-18 22q85 76 106 193q4 22 -2 25q-25 -5 -37 -5q-74 0 -110 51t-25 117z" />
<glyph unicode="&#x2022;" horiz-adv-x="804" d="M113 549q0 149 104.5 257.5t243.5 108.5q110 0 183 -77.5t73 -194.5q0 -149 -104.5 -256.5t-241.5 -107.5q-113 0 -185.5 76t-72.5 194z" />
<glyph unicode="&#x2026;" horiz-adv-x="1400" d="M-4 117q0 70 53.5 124t120.5 54q53 0 90 -39.5t37 -97.5q0 -70 -53.5 -124t-120.5 -54q-54 0 -90.5 40t-36.5 97zM426 117q0 69 55 123.5t121 54.5q53 0 90 -39.5t37 -97.5q0 -70 -54 -124t-122 -54q-53 0 -90 40t-37 97zM858 117q0 69 54 123.5t120 54.5q53 0 90 -39.5 t37 -97.5q0 -70 -53 -124t-121 -54q-54 0 -90.5 40t-36.5 97z" />
<glyph unicode="&#x202f;" horiz-adv-x="367" />
<glyph unicode="&#x2039;" horiz-adv-x="415" d="M66 469q225 198 346 389l-31 -217l-109 -168l62 -176l-31 -217q-72 196 -237 389z" />
<glyph unicode="&#x203a;" horiz-adv-x="419" d="M12 80l33 217l113 176l-66 168l29 217q75 -192 241 -389q-222 -196 -350 -389z" />
<glyph unicode="&#x205f;" horiz-adv-x="458" />
<glyph unicode="&#x20ac;" horiz-adv-x="1558" d="M57 381l35 174h164q4 74 10 113q4 20 4 30h-157l34 174h175q83 202 246.5 317.5t346.5 115.5q85 0 178 -26t140 -26q41 0 117 9q-16 -197 30 -361l-170 14q-92 285 -305 285q-89 0 -154 -88t-104 -240h340l-35 -174h-338q-12 -94 -14 -143h332l-35 -174h-299 q5 -91 23 -158t55.5 -110t91.5 -43q61 0 111.5 18.5t100 63.5t78 78t83.5 103q12 15 18 23l201 -16q-151 -222 -172 -346q-17 7 -32 12t-24.5 7.5t-21.5 3.5t-16.5 1h-16h-14.5q-60 0 -137.5 -26.5t-153.5 -26.5q-212 0 -343 109t-165 307h-207z" />
<glyph unicode="&#x2122;" d="M139 1147l21 98q2 10 12 18.5t21 8.5h382q10 0 18.5 -9t6.5 -18l-8 -98h-41l-12 33q-5 16 -23 16h-86l-45 -317q-1 -10 14.5 -15.5t32.5 -5.5l-6 -51h-215l8 51q48 0 51 21l43 317h-84q-18 0 -26 -16l-21 -33h-43zM596 807l6 47q29 8 37.5 13.5t9.5 19.5l43 297 q1 18 -5.5 24.5t-31.5 12.5l7 51h147l135 -283l213 283h129l-8 -49q-22 -8 -28 -14t-9 -25l-43 -297q-1 -16 4.5 -20.5t32.5 -12.5l-6 -47h-191l9 47q27 8 35.5 13.5t11.5 19.5l30 225l-184 -256q-14 -23 -31 -23t-24 23l-129 258l-33 -227q-1 -14 6 -19.5t33 -13.5l-8 -47 h-158z" />
<glyph unicode="&#x25fc;" horiz-adv-x="1044" d="M0 0v1044h1044v-1044h-1044z" />
</font>
</defs>
</svg>
