<?xml version="1.0" standalone="no"?>
<!DOCTYPE svg PUBLIC "-//W3C//DTD SVG 1.1//EN" "http://www.w3.org/Graphics/SVG/1.1/DTD/svg11.dtd" >
<svg xmlns="http://www.w3.org/2000/svg" xmlns:xlink="http://www.w3.org/1999/xlink" version="1.1">
<metadata></metadata>
<defs>
<font id="argent_cfthin_italic" horiz-adv-x="1013" >
<font-face units-per-em="2048" ascent="1638" descent="-410" />
<missing-glyph horiz-adv-x="450" />
<glyph unicode="&#xfb01;" horiz-adv-x="1216" d="M-344 -334q0 30 21 53t55 23q27 0 52 -17.5t42 -38t46.5 -38t64.5 -17.5q26 0 52.5 28t54 86.5t53 163t44.5 243.5l109 796q1 4 2 12.5t2 12.5h-145q-5 0 -9 4t-4 10v27q0 12 17 12h151q77 371 385 371q58 0 104 -17t72 -42.5t39 -52.5t13 -52q0 -74 -60 -74 q-32 0 -51 19t-41 65q-13 24 -23 39t-27 33t-39.5 27.5t-49.5 9.5q-44 0 -77 -30t-53 -86t-30 -100.5t-20 -109.5h159q4 0 10.5 -3.5t6.5 -8.5v-27q0 -14 -13 -14h-170l-73 -547q-26 -193 -67 -344.5t-89 -250t-106 -162.5t-115.5 -91t-120.5 -27q-88 0 -130 36t-42 79z M709 829q-14 14 2 33q64 93 140.5 140t135.5 47q40 0 53.5 -33t8.5 -82l-107 -770q-3 -22 -3.5 -30.5t0.5 -19.5t7.5 -14.5t18.5 -3.5q60 0 133 90q23 26 39 7q8 -15 -13 -43q-61 -81 -135 -122.5t-127 -41.5q-46 0 -62.5 31.5t-11.5 78.5l107 752q9 67 -29 67 q-9 0 -17.5 -2t-16 -4.5t-17 -7.5t-15 -8.5t-15.5 -11.5t-14.5 -11.5t-15.5 -13t-14 -12.5q-16 -15 -19.5 -16.5t-12.5 1.5z" />
<glyph unicode="&#xfb02;" horiz-adv-x="1038" d="M-344 -334q0 30 21 53t55 23q27 0 51.5 -17.5t40 -38t40 -38t52.5 -17.5q47 0 65.5 52t45.5 229l145 1026q1 6 2 18t2 17h-166q-12 0 -12 14v27q0 12 16 12h172q42 211 143.5 301t276.5 90q72 0 127.5 -20t98.5 -64.5t59 -126t0 -194.5l-119 -848q-6 -20 -3 -44t26 -24 q58 0 135 90q20 26 39 7q2 -3 3 -7t1 -6.5t-2.5 -7t-3.5 -6.5t-5 -8t-6 -8q-61 -79 -136 -123.5t-115 -44.5q-102 0 -82 143l129 895q27 168 -17 261t-143 93q-56 0 -100 -22.5t-70.5 -55t-46.5 -82.5t-29.5 -91.5t-17.5 -96.5h180q3 0 9.5 -3.5t6.5 -8.5v-27q0 -14 -12 -14 h-193l-108 -785q-35 -242 -93 -384.5t-132 -197.5t-179 -55q-74 0 -112.5 36.5t-38.5 78.5z" />
<glyph horiz-adv-x="0" />
<glyph horiz-adv-x="682" />
<glyph unicode=" "  horiz-adv-x="450" />
<glyph unicode="&#x09;" horiz-adv-x="450" />
<glyph unicode="&#xa0;" horiz-adv-x="450" />
<glyph unicode="!" horiz-adv-x="395" d="M8 66q0 47 33 81.5t76 34.5q36 0 58 -25t22 -61q0 -46 -34 -81t-75 -35q-34 0 -57 24t-23 62zM166 444q20 151 15.5 386.5t13.5 345.5q7 56 33.5 92.5t76.5 36.5q88 0 80 -129q-18 -119 -88 -350t-96 -382h-35z" />
<glyph unicode="&#x22;" horiz-adv-x="534" d="M162 852q0 -16 12 -16q5 0 9.5 3.5t7.5 7.5t4 5l98 385q3 29 -13 48.5t-40 19.5t-45.5 -20t-22.5 -48zM406 852q0 -16 14 -16q4 0 8 3.5t7 8.5l3 4l99 385q4 28 -12 48t-40 20q-25 0 -45.5 -19.5t-23.5 -48.5z" />
<glyph unicode="#" horiz-adv-x="1144" d="M59 422v8q3 31 35 31h199l164 426h-228q-22 0 -22 31v6q9 30 39 30h237l160 422h70l-158 -422h274l162 422h66l-158 -422h209q28 0 22 -30l-2 -6q0 -31 -34 -31h-222l-159 -426h243q35 0 23 -31l2 -8q-6 -31 -35 -31h-260l-170 -452h-76l174 452h-272l-170 -452h-78 l174 452h-186q-35 0 -23 31zM369 461h272l162 426h-275z" />
<glyph unicode="$" horiz-adv-x="899" d="M-2 0l20 281h43q9 0 21 -39q16 -79 89.5 -141t178.5 -72l78 549q-16 8 -22 12q-60 32 -101.5 60.5t-88 74t-71 107t-24.5 135.5q0 61 25.5 120t72.5 108t124.5 79.5t172.5 30.5h16l15 106h59l-16 -111q60 -6 106.5 -24.5t57.5 -18.5q43 0 55 33h39l-23 -241h-24 q-12 0 -16 6.5t-9 27.5q-14 62 -68.5 107t-123.5 59l-74 -524q7 -4 41.5 -22.5t47 -26t44.5 -27t47 -33t40.5 -35.5t38.5 -42.5t27.5 -47t20.5 -55.5t6 -61q0 -81 -29 -150.5t-74 -114.5t-101 -77t-108 -46t-97 -14h-8l-15 -98h-63l14 102q-72 9 -146 41.5t-90 32.5 q-20 0 -37 -14.5t-26 -36.5h-45zM262 1010q0 -140 193 -254l69 497q-69 -1 -121.5 -23t-82 -58t-44 -77t-14.5 -85zM414 27q119 9 190.5 86.5t71.5 199.5q0 77 -51.5 131t-139.5 103z" />
<glyph unicode="%" horiz-adv-x="1198" d="M119 -10l960 1313h72l-963 -1313h-69zM164 1024q18 117 87.5 199t164.5 82q94 0 141 -82t31 -199q-18 -118 -88 -200.5t-166 -82.5q-94 0 -140 83t-30 200zM265 907q-1 -53 18 -88t59 -35q38 0 66.5 35.5t43.5 87t23 117.5q7 63 8.5 115.5t-16.5 87.5t-57 35 q-103 0 -138 -238q-6 -64 -7 -117zM649 260q16 117 84.5 199t163.5 82q96 0 143 -82t31 -199t-86.5 -200t-165.5 -83t-140.5 82.5t-29.5 200.5zM760 260q-35 -240 63 -240q57 0 90.5 67.5t47.5 172.5q31 238 -72 238q-98 0 -129 -238z" />
<glyph unicode="&#x26;" horiz-adv-x="1363" d="M51 344q0 169 115 285t278 98q-89 29 -139.5 93t-50.5 149q0 65 26.5 125t75 107.5t125 75.5t168.5 28q130 0 200.5 -69t70.5 -169q0 -109 -42 -174.5t-102 -65.5q-27 0 -45 15.5t-18 42.5q0 20 9 34.5t22 27t26 29t22 49t9 79.5q0 78 -43 119t-119 41 q-102 0 -167.5 -85.5t-65.5 -205.5q0 -91 49 -164t131 -96l-15 -41q-151 30 -254.5 -67.5t-103.5 -260.5q0 -155 86.5 -242.5t245.5 -87.5q170 0 293 118t123 284q0 71 -32.5 118.5t-86.5 47.5q-51 0 -82 -34t-31 -77q0 -29 16 -55h-40q-35 22 -35 65q0 44 35 82t108 86 l244 164q90 57 139 116t49 146q0 65 -34.5 100t-98.5 35q-29 0 -53 -6l-4 37q76 33 145 33q75 0 132 -52t57 -147q0 -41 -15 -80.5t-36.5 -70.5t-60 -64t-69.5 -55t-82.5 -50t-81.5 -43t-83.5 -40t-73.5 -35q105 -12 169 -68t64 -143q0 -105 -53.5 -193.5t-139.5 -145 t-190.5 -87.5t-210.5 -31q-73 0 -142 15t-129.5 46t-106 74.5t-71.5 105.5t-26 134z" />
<glyph unicode="'" horiz-adv-x="260" d="M162 852q0 -16 12 -16q5 0 9.5 3.5t7.5 7.5t4 5l98 385q3 29 -13 48.5t-40 19.5t-45.5 -20t-22.5 -48z" />
<glyph unicode="(" horiz-adv-x="542" d="M84 606q38 272 177.5 517.5t326.5 414.5q14 14 39 14h2q19 0 25 -8t-3 -18q-154 -144 -268.5 -403.5t-151.5 -516.5q-34 -255 5 -510t145 -399q12 -15 7.5 -26t-21.5 -11h-7q-20 0 -34 14q-139 169 -209.5 414.5t-32.5 517.5z" />
<glyph unicode=")" horiz-adv-x="542" d="M-83 -321.5q3 8.5 13 18.5q148 144 258.5 399t147.5 510q37 258 -3.5 517t-154.5 403q-8 11 0 18.5t27 7.5h6q23 0 31 -14q141 -169 211 -414.5t30 -517.5q-38 -272 -176 -517.5t-323 -414.5q-20 -14 -39 -14h-11q-11 0 -15.5 5t-1.5 13.5z" />
<glyph unicode="*" horiz-adv-x="638" d="M104 821q30 -56 101 -28l123 137q15 15 6 29.5t-29 9.5l-160 -35q-59 -45 -41 -113zM150 1149q-37 -70 10 -111l147 -37q20 -5 33.5 9.5t3.5 29.5l-86 138q-58 27 -108 -29zM274 750q0 -71 66 -80q70 9 88 80l-35 159q-3 13 -9.5 18t-14.5 0t-15 -18zM342 1225l35 -160 q3 -13 9 -18t13.5 0t14.5 18l82 160q0 71 -66 80q-70 -9 -88 -80zM430 930l84 -137q57 -27 109 28q35 67 -11 113l-151 35q-18 5 -30.5 -9.5t-0.5 -29.5zM437 1010.5q10 -14.5 32 -9.5l158 37q60 44 41 111q-38 56 -101 29l-125 -138q-15 -15 -5 -29.5z" />
<glyph unicode="+" horiz-adv-x="862" d="M92 498l10 67h306l47 326h61l-45 -326h305l-10 -67h-305l-45 -324h-64l47 324h-307z" />
<glyph unicode="," horiz-adv-x="315" d="M-10 51q-7 55 26 92t80 37q40 0 61 -32t21 -82q0 -65 -40 -143t-97 -122q-17 -13 -23 0l-14 19q68 64 82 149q1 4 2 11t2 10q-20 -4 -35 -4q-22 0 -42 18t-23 47z" />
<glyph unicode="-" horiz-adv-x="696" d="M72 473v80h553v-80h-553z" />
<glyph unicode="." horiz-adv-x="311" d="M-10 66q0 47 32.5 81.5t75.5 34.5q36 0 58 -25t22 -61q0 -46 -32.5 -81t-73.5 -35q-36 0 -59 24t-23 62z" />
<glyph unicode="/" horiz-adv-x="780" d="M-2 -164l743 1641h82l-745 -1641h-80z" />
<glyph unicode="0" horiz-adv-x="1058" d="M78 494q0 149 39.5 293t109.5 259.5t176.5 186t231.5 70.5q81 0 146 -28t108 -76t71.5 -114.5t41 -140t12.5 -156.5q0 -150 -39.5 -295.5t-109 -262.5t-176 -189t-230.5 -72q-102 0 -177.5 43t-119 118.5t-64 166t-20.5 197.5zM225 369q0 -178 55 -262t173 -84 q90 0 162.5 54.5t118.5 143t77 207t44 239t13 246.5q0 173 -55 255.5t-174 82.5q-89 0 -161 -54.5t-118.5 -142.5t-77.5 -205.5t-44 -236.5t-13 -243z" />
<glyph unicode="1" horiz-adv-x="516" d="M29 0l2 43q109 14 119 78l139 969q3 22 -1 36t-11 20.5t-23 8t-27 0.5t-33 -4t-32 -4l4 51q63 8 111 23.5t70 30t44 25.5t41 11q31 0 31 -53q0 -24 -17 -99t-26 -135l-125 -884q-5 -35 21 -51t77 -23v-43q-61 4 -188 4q-113 0 -176 -4z" />
<glyph unicode="2" horiz-adv-x="970" d="M2 0l4 47q69 58 118.5 101.5t133.5 122t144.5 144t131 153t115.5 164t75 163t30 162.5q0 93 -45 144.5t-134 51.5q-114 0 -182.5 -88t-68.5 -213q0 -18 5 -35t5 -24q0 -45 -25 -73.5t-61 -28.5q-41 0 -67.5 29t-26.5 93q0 163 121.5 277.5t295.5 114.5q91 0 158.5 -23.5 t105.5 -66t56 -94t18 -113.5q0 -93 -42 -189.5t-88 -164.5t-154.5 -169t-162.5 -145t-191 -151q-51 -40 -76 -60l417 4q69 0 105.5 13.5t60.5 54.5l80 125h35l-105 -281q-20 -45 -67 -45h-719z" />
<glyph unicode="3" horiz-adv-x="997" d="M41 289q0 46 24.5 73t67.5 27q47 0 64.5 -41t17.5 -112q0 -90 45 -149.5t143 -59.5q96 0 177 60.5t125.5 153t44.5 189.5q0 110 -55 172t-124 62q-41 0 -71 -9t-97 -39l-20 68l88 37q126 48 200 136.5t74 209.5q0 86 -41 136t-112 50q-109 0 -174.5 -73.5t-65.5 -182.5 q0 -13 3 -42.5t3 -45.5q0 -48 -23.5 -70t-55.5 -22q-42 0 -69.5 30t-27.5 91q0 158 120 262.5t286 104.5q143 0 223 -74.5t80 -181.5q0 -99 -70.5 -186t-216.5 -138q33 10 66 10q109 0 176 -83t67 -201q0 -91 -44 -179.5t-114.5 -153t-162.5 -104t-184 -39.5 q-76 0 -138.5 20t-104 52t-70.5 73.5t-41.5 84t-12.5 84.5z" />
<glyph unicode="4" horiz-adv-x="964" d="M63 457l725 848h35l-118 -844h28q66 0 105 55l30 37h31l-53 -123q-17 -43 -72 -43h-80l-39 -270q-4 -37 22.5 -50.5t104.5 -23.5l-4 -43q-211 9 -422 0l6 43q78 9 110 25t36 53l41 266h-479zM119 461h438l84 610z" />
<glyph unicode="5" horiz-adv-x="989" d="M41 289q0 49 24.5 74.5t67.5 25.5q47 0 64.5 -39t17.5 -114q0 -56 18 -101.5t63 -76.5t112 -31q76 0 140.5 38.5t107 101.5t66 140.5t23.5 157.5q0 145 -77.5 240.5t-192.5 95.5q-24 0 -45.5 -2t-41.5 -7.5t-35 -10t-33 -14.5t-27.5 -15t-26.5 -18t-22.5 -17t-22.5 -18.5 t-20 -16.5l-51 4l133 586h438q63 0 99 12t61 47l65 -2l-55 -145q-17 -45 -66 -45h-530l-92 -408q63 66 156 101.5t188 35.5q91 0 162 -31.5t114 -86t64.5 -122.5t21.5 -145q0 -100 -41.5 -194.5t-109 -163t-158.5 -109.5t-186 -41q-75 0 -138.5 19.5t-105.5 52t-72 74 t-43.5 84t-13.5 84.5z" />
<glyph unicode="6" horiz-adv-x="987" d="M72 446q0 157 43 309.5t119 274.5t191 197.5t247 75.5q135 0 221 -80l-45 -45q-81 77 -191 77q-72 0 -134.5 -38t-106 -97t-78.5 -139.5t-56 -157.5t-34 -159q15 17 42 38.5t69.5 47.5t99.5 43.5t114 17.5q145 0 238.5 -93t93.5 -245q0 -122 -61 -236.5t-168.5 -187 t-231.5 -72.5q-79 0 -142 24t-105.5 66t-71 101.5t-41 128.5t-12.5 149zM221 416q0 -182 60 -284.5t157 -102.5q71 0 132 43t100.5 110.5t61.5 148.5t22 161q0 115 -53 191.5t-154 76.5q-111 0 -210 -69.5t-106 -129.5q-10 -92 -10 -145z" />
<glyph unicode="7" horiz-adv-x="888" d="M125 1047l94 243l25 -2q61 -16 174 -16h526l-631 -1223q-21 -41 -39.5 -57.5t-46.5 -16.5q-57 0 -57 56q0 23 37.5 89.5t207.5 347.5q226 373 408 675l-444 -4h-21.5h-24t-23 -1t-25 -3.5t-23 -7t-25.5 -11.5t-23 -16.5t-23.5 -22.5t-20.5 -30h-45z" />
<glyph unicode="8" horiz-adv-x="1021" d="M43 303q0 52 19.5 108t57.5 110t105 98.5t152 66.5q-61 25 -99 71t-50.5 91.5t-12.5 97.5q0 151 115.5 255t283.5 104q75 0 134 -18.5t93.5 -47t57.5 -67t31 -74.5t8 -74q0 -125 -70 -216.5t-172 -129.5q120 -30 178 -109t58 -178q0 -53 -18 -108.5t-57.5 -111t-95.5 -99 t-140 -70.5t-183 -27q-103 0 -182 28.5t-124 76t-67 104t-22 119.5zM197 281q0 -117 60 -184.5t179 -67.5q156 0 247 109.5t91 275.5q0 112 -59.5 178.5t-177.5 66.5q-157 0 -248.5 -109.5t-91.5 -268.5zM356 903q0 -89 41.5 -143.5t132.5 -54.5q126 0 195.5 102t69.5 250 q0 87 -41 141.5t-133 54.5q-125 0 -195 -100.5t-70 -249.5z" />
<glyph unicode="9" horiz-adv-x="970" d="M98 811q0 122 61 236.5t168.5 187t231.5 72.5q98 0 171.5 -36t116.5 -101.5t64 -148t21 -183.5q0 -123 -27 -247t-80 -233t-124.5 -193.5t-166.5 -133.5t-200 -49q-125 0 -223 79l36 52q91 -84 199 -84q88 0 161.5 55.5t121.5 147.5t78.5 188.5t46.5 200.5 q-20 -24 -60.5 -54.5t-116.5 -62t-151 -31.5q-142 0 -235 93.5t-93 244.5zM250 793q0 -115 53.5 -192t153.5 -77q73 0 146.5 35t118 81t50.5 83q10 69 10 145q0 181 -60 284t-157 103q-93 0 -167.5 -73.5t-111 -177.5t-36.5 -211z" />
<glyph unicode=":" horiz-adv-x="311" d="M-10 66q0 47 32.5 81.5t75.5 34.5q36 0 58 -25t22 -61q0 -46 -32.5 -81t-73.5 -35q-36 0 -59 24t-23 62zM86 756q0 47 33 81.5t76 34.5q36 0 57.5 -24.5t21.5 -59.5q0 -48 -32.5 -83t-73.5 -35q-35 0 -58.5 24.5t-23.5 61.5z" />
<glyph unicode=";" horiz-adv-x="401" d="M-8 51q-6 55 28 92t80 37q38 0 60 -32.5t22 -81.5q0 -65 -40 -143t-97 -122q-18 -14 -25 0l-12 19q68 64 82 149q2 8 2 21q-20 -4 -33 -4q-22 0 -42.5 18t-24.5 47zM96 754q0 47 33 81.5t76 34.5q36 0 58 -24.5t22 -59.5q0 -48 -33 -83t-74 -35q-35 0 -58.5 24.5 t-23.5 61.5z" />
<glyph unicode="&#x3c;" horiz-adv-x="888" d="M86 467l12 92q354 135 756 350l-8 -59q-163 -93 -364.5 -186.5t-364.5 -149.5q148 -59 324 -152.5t311 -185.5l-9 -59q-334 211 -657 350z" />
<glyph unicode="=" horiz-adv-x="858" d="M66 317l10 68h674l-11 -68h-673zM117 686l10 68h674l-10 -68h-674z" />
<glyph unicode="&#x3e;" horiz-adv-x="888" d="M37 117l8 59q161 93 361.5 186.5t365.5 151.5q-147 57 -323 150t-312 186l10 59q327 -208 656 -350l-17 -92q-336 -129 -749 -350z" />
<glyph unicode="?" horiz-adv-x="866" d="M111 899q0 167 122.5 286.5t296.5 119.5q87 0 152.5 -23t103 -64t56 -91.5t18.5 -110.5q0 -72 -20.5 -133t-55 -107t-77.5 -87.5t-90.5 -83t-90 -84.5t-80.5 -101t-59 -123h-49q0 57 37.5 127t90.5 139.5t106 144t90.5 164.5t37.5 177q0 96 -46 150t-130 54 q-73 0 -129.5 -42.5t-85 -107t-28.5 -136.5q0 -22 7 -44.5t7 -35.5q0 -45 -30 -70.5t-64 -25.5q-35 0 -62.5 25.5t-27.5 82.5zM203 66q0 47 32.5 81.5t75.5 34.5q36 0 58 -25t22 -61q0 -46 -33.5 -81t-74.5 -35q-34 0 -57 24t-23 62z" />
<glyph unicode="@" horiz-adv-x="1345" d="M63 397q0 153 56 298t149.5 253.5t225 174t274.5 65.5q225 0 371.5 -148.5t146.5 -400.5q0 -92 -24 -181.5t-66.5 -161t-107 -115.5t-138.5 -44q-15 0 -31.5 4.5t-40 18t-43.5 47.5t-30 84q-119 -166 -283 -166q-76 0 -127 37t-51 114q0 54 21 97.5t74 86t156.5 74.5 t254.5 52l6 26q1 9 11 61.5t10 78.5q0 40 -24.5 63t-88.5 23q-109 0 -151.5 -31t-51.5 -119q-3 -26 -19.5 -35.5t-47.5 -9.5q-45 0 -45 47q0 59 96.5 127t224.5 68q110 0 163.5 -46.5t53.5 -148.5q0 -26 -27.5 -227t-27.5 -219q0 -29 10.5 -44.5t40.5 -15.5q45 0 83 92 t56.5 204t18.5 198q0 213 -93.5 335t-289.5 122q-130 0 -235 -63.5t-171.5 -171.5t-101.5 -245t-35 -290q0 -138 39.5 -247.5t124 -177t203.5 -67.5l-9 -43q-221 0 -365.5 157t-144.5 410zM463 297q0 -41 32 -72.5t80 -31.5q47 0 101 30t86.5 60t54.5 57l29 199 q-79 -12 -132 -24t-104.5 -30.5t-81 -43t-47.5 -60.5t-18 -84z" />
<glyph unicode="A" horiz-adv-x="1230" d="M-39 0l4 43q88 10 131 40.5t74 102.5l510 1096h90l238 -1135q8 -48 15 -60q21 -32 117 -43q6 0 13 -1l-4 -43q-106 4 -211.5 4t-210.5 -4l4 43q27 2 47 5t34 7.5t23 8.5t14 12t7 13t1 16.5t-2.5 18.5t-5 22.5t-5.5 25.5l-53 256h-451l-133 -281q-8 -18 -8 -33 q0 -24 21 -38q33 -22 116 -33l-6 -43q-92 5 -184 5t-185 -5zM362 479h418l-127 627z" />
<glyph unicode="B" horiz-adv-x="1110" d="M-18 0l4 43q78 6 107.5 22t35.5 54l141 989q1 10 1 19q0 89 -115 102l6 43q106 -4 153 -4t133.5 2t126.5 2q96 0 170.5 -15.5t118.5 -41t72.5 -60.5t38.5 -70t10 -75q0 -101 -57 -170t-207 -131q148 -17 232.5 -99t84.5 -207q0 -129 -74.5 -221.5t-195.5 -137t-274 -44.5 h-512zM281 109q-5 -41 21 -48.5t145 -7.5h40q184 0 285.5 93.5t101.5 259.5q0 111 -67 186.5t-180 75.5l-277 -43zM356 670l121 16q176 28 263 104t87 230q0 85 -59 142t-184 57q-111 0 -152 -2z" />
<glyph unicode="C" horiz-adv-x="1101" d="M82 647q18 135 73 255t137 209.5t192.5 141.5t232.5 52q68 0 142.5 -18.5t127.5 -18.5h45q2 -18 8.5 -66.5t10 -72t10 -62.5t14.5 -74t19 -71l-62 4q-39 163 -121 244t-221 81q-54 0 -103 -14t-104 -52t-99 -99t-81 -163t-57 -235q-13 -95 -13 -177q0 -56 6 -106 q15 -123 59.5 -206.5t112.5 -126.5t152 -43q114 0 206 75.5t200 241.5l78 -6q-116 -176 -173 -332q-12 4 -26 4q-58 0 -141 -18.5t-154 -18.5q-165 0 -282.5 88t-166.5 241q-32 99 -32 213q0 62 10 130z" />
<glyph unicode="D" horiz-adv-x="1165" d="M-18 0l4 45q70 13 108 46t43 71l133 946q1 10 1 19q0 89 -115 102l6 43q106 -4 141 -4q43 0 124 2t128 2q269 0 416 -128t147 -382q0 -212 -81.5 -384.5t-233.5 -273t-346 -100.5q-20 0 -106 13.5t-128 13.5t-119 -13.5t-122 -17.5zM283 158q-3 -16 -3 -29q0 -45 33 -51 q99 -17 146 -17q127 2 225.5 60t157.5 157.5t89 226t30 275.5q0 96 -19.5 173.5t-61 138.5t-112.5 95t-166 34q-100 0 -170 -4z" />
<glyph unicode="E" horiz-adv-x="952" d="M-20 0l6 53q77 9 107 25t36 53l145 1026q4 38 -20.5 52t-99.5 20l4 43h766q16 0 20 -7t6 -32l-8 -207h-41l-10 45q-24 78 -69.5 113t-116.5 35h-261q-9 0 -14 -15l-76 -534h264q33 0 56 8.5t40 30t25.5 38.5t23.5 52q3 8 5 12l39 -4q-39 -186 -47 -328l-37 4 q-4 38 -7.5 56.5t-14.5 39.5t-32 29t-55 8h-266l-78 -550q-3 -11 9 -11h251q142 0 218 121l81 127l43 -2q-48 -107 -96 -301q-132 2 -331 2t-465 -2z" />
<glyph unicode="F" horiz-adv-x="927" d="M-18 0l4 43q82 9 111 23t32 51l150 1040q3 37 -22 51.5t-99 20.5l4 43h766q18 0 23 -7.5t5 -31.5l-8 -207h-41l-10 45q-24 78 -69.5 113t-114.5 35h-264q-10 0 -15 -15l-76 -534h265q32 0 54.5 7.5t40.5 31t24 34.5t23 51q2 3 2.5 5t2 5l2.5 5h39q-39 -189 -47 -328h-37 q-4 39 -7.5 58t-14.5 40t-32 29t-55 8h-268l-69 -503q-6 -36 17.5 -48t102.5 -22l-4 -43q-103 4 -207 4t-208 -4z" />
<glyph unicode="G" horiz-adv-x="1214" d="M82 647q18 135 73 255t136 209.5t190 141.5t230 52q74 0 149 -18.5t127 -18.5h45q2 -18 8.5 -66.5t10 -72t10 -62.5t14.5 -74t19 -71l-62 4q-40 166 -120 245.5t-228 79.5q-52 0 -100.5 -13.5t-102.5 -52t-97.5 -99.5t-80.5 -163t-57 -235q-14 -98 -14 -182 q0 -180 62 -300q92 -177 267 -177q139 0 207.5 49.5t85.5 165.5l35 237q7 38 -9.5 50.5t-84.5 21.5l-45 6l6 41q81 -4 173 -4q114 0 245 6l-7 -43l-51 -8q-38 -8 -54.5 -24t-25.5 -56q-38 -184 -55 -373l29 -2q12 0 16 -18l-6 -29h-78q-55 0 -108 -18.5t-117.5 -37 t-149.5 -18.5q-137 0 -241 54.5t-162.5 147.5t-79.5 213q-11 64 -11 131q0 61 9 126z" />
<glyph unicode="H" horiz-adv-x="1210" d="M-18 0l4 43q81 9 112.5 25t34.5 53l146 1034q6 37 -19.5 50.5t-101.5 23.5l4 43q102 -4 207 -4t213 4l-4 -43q-81 -9 -112.5 -25t-35.5 -53l-70 -492h535l70 496q7 36 -20 50t-105 24l4 43q106 -4 211 -4t209 4l-4 -43q-77 -9 -108.5 -25t-37.5 -53l-147 -1034 q-4 -37 22.5 -50.5t104.5 -23.5l-7 -43q-106 4 -210.5 4t-208.5 -4l4 43q80 9 112 25t35 53l68 489h-533l-69 -493q-6 -37 19.5 -50.5t103.5 -23.5l-7 -43q-102 4 -207 4t-212 -4z" />
<glyph unicode="I" horiz-adv-x="528" d="M-18 0l4 43q81 9 112.5 25t34.5 53l146 1034q6 37 -19.5 50.5t-101.5 23.5l4 43q102 -4 207 -4t213 4l-4 -43q-81 -9 -112.5 -25t-35.5 -53l-145 -1034q-6 -37 19.5 -50.5t103.5 -23.5l-7 -43q-102 4 -207 4t-212 -4z" />
<glyph unicode="J" horiz-adv-x="520" d="M-176 -356l8 45q75 0 139 53t98.5 123.5t45.5 142.5l159 1147q3 37 -22.5 51t-101.5 23l4 43q106 -4 210.5 -4t208.5 4l-4 -43q-78 -9 -109.5 -25t-37.5 -53l-139 -979q-17 -122 -47 -213.5t-70 -151t-94 -96.5t-114 -52t-134 -15z" />
<glyph unicode="K" horiz-adv-x="1116" d="M-18 0l4 43q77 9 108.5 25t38.5 53l146 1034q4 36 -22 50t-103 24l4 43q104 -4 209 -4t211 4l-5 -43q-80 -9 -112 -25t-35 -53l-80 -567l543 577q19 21 19 35q0 18 -31 25q-22 5 -93 8l4 43q92 -4 183 -4t182 4l-4 -43q-6 0 -22.5 -1t-21 -1t-18.5 -1.5t-19 -2.5 t-16.5 -3.5t-17.5 -5t-15.5 -7t-16.5 -10t-16 -12.5t-17 -16l-443 -469q151 -341 277.5 -509.5t212.5 -174.5l-55 -43q-126 0 -249.5 130t-310.5 464l-67 -71l-53 -379q-6 -36 21 -50t104 -24l-5 -43q-104 4 -209 4t-210 -4z" />
<glyph unicode="L" horiz-adv-x="944" d="M-16 0l6 53q77 9 106.5 24t36.5 52l146 1026q4 36 -22 50t-103 24l4 43q104 -4 209 -4t211 4l-5 -43q-80 -9 -112 -25t-35 -53l-152 -1088q-2 -10 9 -10h266q141 0 213 119l84 129l39 -4q-50 -124 -94 -299q-213 6 -436 6q-182 0 -371 -4z" />
<glyph unicode="M" horiz-adv-x="1417" d="M-18 0l4 43q99 11 134.5 26t41.5 52l143 1032q4 39 -24.5 52.5t-110.5 23.5l6 43q78 -4 153 -4t148 4l250 -991l457 991q69 -5 139 -5t141 5l-6 -39q-71 -9 -102.5 -26t-38.5 -54l-143 -1036q-4 -37 22 -50.5t102 -23.5l-4 -43q-106 4 -211 4t-209 -4l5 43q77 9 108 25 t37 53l139 1001l-512 -1122l-297 1126l-139 -1009q-6 -36 25.5 -49.5t126.5 -24.5l-7 -43q-94 4 -188.5 4t-189.5 -4z" />
<glyph unicode="N" horiz-adv-x="1202" d="M-18 0l4 43q99 11 134.5 26t41.5 52l145 1030q7 40 -22 54t-111 24l6 43q73 -4 145.5 -4t143.5 4l440 -950l113 833q7 36 -23.5 49.5t-128.5 24.5l7 43q94 -4 188.5 -4t189.5 4l-4 -43q-96 -11 -132.5 -26t-39.5 -52l-161 -1151h-41l-519 1126l-141 -1009 q-4 -36 26.5 -49.5t125.5 -24.5l-4 -43q-94 4 -189.5 4t-193.5 -4z" />
<glyph unicode="O" horiz-adv-x="1150" d="M72 516q0 120 28.5 236.5t83.5 215.5t129 175t170.5 119t202.5 43q206 0 324 -147t118 -380q0 -116 -26.5 -231.5t-79 -218t-124.5 -181.5t-169.5 -125.5t-206.5 -46.5q-138 0 -241.5 72t-156 194t-52.5 275zM238 528q0 -227 82 -364t219 -137q86 0 158 47t120 122.5 t81 173t48 195t15 191.5q0 223 -85 361t-223 138q-83 0 -153.5 -46.5t-117.5 -121t-80.5 -171t-48.5 -195t-15 -193.5z" />
<glyph unicode="P" horiz-adv-x="1026" d="M-18 0l4 43q79 6 109.5 22t33.5 54l141 989q2 12 2 23q0 35 -18 59q-23 30 -98 39l6 43q72 -4 153.5 -4t168.5 2t122 2q79 0 143 -10.5t107 -29t76 -44t49.5 -55.5t27.5 -63q10 -30 10 -61v-6q-1 -34 -3 -67q-11 -67 -48 -125t-107.5 -110.5t-188 -91.5t-273.5 -58 l-57 -10l-61 -426q-6 -38 18.5 -52t101.5 -20l-4 -43q-103 4 -207 4t-208 -4zM346 592l70 8q116 16 198 47.5t130.5 79.5t73.5 103t36 128q2 19 2 38q0 84 -48 146q-60 76 -196 77q-143 0 -180 -2z" />
<glyph unicode="Q" horiz-adv-x="1261" d="M72 520q0 119 29.5 234.5t86 214.5t131.5 174.5t171.5 118.5t201.5 43q212 0 330.5 -142t118.5 -379q0 -310 -133.5 -517t-411.5 -292q-268 -88 -313 -114q86 39 213 39q54 0 111 -18t96.5 -39.5t88 -39.5t87.5 -18q82 0 148 43.5t71 85.5l49 -6q-20 -131 -91 -199.5 t-186 -68.5q-52 0 -97 23t-78.5 56t-66.5 66.5t-75.5 56.5t-91.5 23q-90 0 -150.5 -35.5t-83.5 -79.5h-151q34 51 113.5 98.5t156 76t148.5 46.5h-3q-123 0 -219 74q-98 75 -149 199.5t-51 275.5zM233 500q0 -221 80 -349t207 -128q87 0 162.5 43.5t128.5 116.5t91.5 168 t56.5 198t18 207q0 220 -86.5 357.5t-218.5 137.5q-93 0 -169 -48t-125 -124.5t-82.5 -176.5t-48 -201t-14.5 -201z" />
<glyph unicode="R" horiz-adv-x="1138" d="M-18 0l4 43q78 6 107.5 22t35.5 54l141 989q1 10 1 19q0 89 -115 102l6 43q51 -4 134 -4q42 0 92 1q150 3 218 3q412 0 412 -283q0 -29 -5.5 -57t-19.5 -66.5t-44.5 -75t-74 -73t-114.5 -70t-160 -57.5q131 -275 250 -421.5t201 -152.5l-56 -43q-125 0 -246.5 127.5 t-308.5 456.5l-41 -6l-57 -10l-61 -426q-6 -38 18.5 -52t101.5 -20l-4 -43q-60 3 -206.5 3t-208.5 -3zM346 596l70 10q215 45 328.5 138t113.5 247q0 100 -60.5 164t-185.5 64q-143 0 -180 -2z" />
<glyph unicode="S" horiz-adv-x="899" d="M-2 0l20 281h43q9 0 21 -39q18 -87 102 -151t203 -64q130 0 209.5 78t79.5 208q0 40 -17 76.5t-39.5 61.5t-61.5 52t-67 42.5t-71 37.5q-9 5 -14 7q-60 32 -101.5 60.5t-88 74t-71 107t-24.5 135.5q0 61 25.5 120t72.5 108t124.5 79.5t172.5 30.5q73 0 123.5 -12t76 -24 t38.5 -12q43 0 55 33h39l-23 -241h-24q-12 0 -16 6.5t-9 27.5q-18 74 -91.5 122t-154.5 48q-71 0 -124.5 -22t-84 -58.5t-45 -77.5t-14.5 -85q0 -152 234 -277q13 -8 53 -29.5t63 -35t60 -38t59.5 -49t46 -56t34.5 -69.5t11 -81q0 -81 -29 -150.5t-74 -114.5t-101 -77 t-108 -46t-97 -14q-77 0 -142.5 19.5t-106.5 39t-59 19.5q-20 0 -37 -14.5t-26 -36.5h-45z" />
<glyph unicode="T" horiz-adv-x="1005" d="M121 975l110 317l29 -2q29 -11 55 -14.5t86 -3.5h484q87 0 151 22l27 -2l-105 -317h-40q12 62 16 101q3 27 4 53q0 12 -1 23q-2 37 -18.5 54t-46.5 17h-188l-154 -1106q-6 -36 20 -50t103 -24l-4 -43q-104 4 -208.5 4t-211.5 -4l4 43q80 9 112 25t36 53l158 1102h-166 q-24 0 -42 -8t-37 -32t-32 -46t-42.5 -72.5t-53.5 -89.5h-45z" />
<glyph unicode="U" horiz-adv-x="1265" d="M121 1229l6 43q106 -3 212.5 -3t213.5 3l-4 -43q-78 -9 -110 -25t-38 -53q-36 -254 -77 -544q-37 -256 -37 -279q0 -132 63.5 -208.5t171.5 -76.5q114 0 214 76t163 176l119 860q7 36 -19.5 50t-105.5 24l6 43q104 -3 209 -3t211 3l-4 -43q-78 -9 -110 -25t-38 -53 l-145 -1034q-4 -37 21.5 -51t103.5 -23l-4 -43q-59 3 -171 3t-149 -3l6 47q36 28 45 74l13 94q-67 -99 -173 -167t-245 -68q-154 0 -243 91.5t-89 245.5q0 27 2 53t5 55t12 94.5t19 133t31 211.5t42 291q6 36 -21 50t-106 24z" />
<glyph unicode="V" horiz-adv-x="1277" d="M150 1229l8 43q104 -4 209 -4t213 4l-7 -43q-79 -9 -110 -25.5t-27 -50.5l207 -940l444 944q17 35 -14.5 48t-118.5 24l7 43q92 -4 184.5 -4t187.5 4l-6 -43q-84 -10 -125 -25t-57 -51l-557 -1171h-60l-249 1175q-8 36 -31 49.5t-98 22.5z" />
<glyph unicode="W" horiz-adv-x="1841" d="M150 1229l8 43q104 -4 209 -4t213 4l-7 -43q-79 -9 -109.5 -25.5t-27.5 -50.5l176 -940l328 766l-33 178q-6 35 -31.5 49t-97.5 23l4 43q106 -4 211 -4t209 4l-4 -43q-76 -9 -106.5 -25.5t-26.5 -50.5l172 -940l414 944q16 35 -16 48t-119 24l6 43q93 -4 186 -4l186 4 l-6 -43q-85 -10 -127.5 -25.5t-56.5 -50.5l-520 -1171h-64l-166 911l-397 -911h-61l-217 1175q-6 36 -30 49.5t-99 22.5z" />
<glyph unicode="X" horiz-adv-x="1136" d="M-25 0l5 43q129 12 210 121l328 461l-215 469q-18 36 -26.5 51.5t-26 37.5t-39 32t-51.5 14l4 43q86 -4 174 -4t176 4l-4 -41q-43 -8 -66 -34.5t-8 -51.5l178 -385l265 370q13 18 13 34q0 14 -10 28q-22 28 -79 37l6 43q76 -4 154 -4t157 4l-4 -43q-96 -11 -194 -137 l-281 -394l248 -534q4 -9 13.5 -28.5t12.5 -25t10.5 -19t12 -17t13 -11.5t17.5 -10t21.5 -5t28.5 -5l-4 -43q-84 4 -171.5 4t-178.5 -4l4 43q45 6 72.5 26t15.5 42l-209 454l-316 -438q-15 -21 -15 -37q0 -38 89 -47l-6 -43q-79 4 -160 4t-164 -4z" />
<glyph unicode="Y" horiz-adv-x="1167" d="M131 1229l6 43q105 -2 210 -2l210 2l-4 -43q-72 -3 -100 -24t-17 -54l197 -524l321 524q14 23 14 38q0 13 -12 21q-23 16 -120 19l6 43q96 -2 190.5 -2t188.5 2l-4 -43q-96 -3 -136.5 -22.5t-68.5 -67.5l-367 -578l-59 -444q-4 -37 22.5 -50t102.5 -18l-6 -49 q-105 4 -210 4l-210 -4l4 43q79 9 111.5 25t35.5 53l60 438l-220 596q-15 35 -46 53t-99 21z" />
<glyph unicode="Z" horiz-adv-x="1015" d="M-20 0l897 1223h-488q-54 0 -85.5 -34t-113.5 -175l-40 2l110 276l25 -2q32 -11 58.5 -14.5t86.5 -3.5h645l-891 -1221h351q30 0 59.5 8.5t47 16.5t44 30t33 28.5l33.5 33.5l114 125l64 -2q-78 -109 -148 -242l43 -2q21 -3 17 -20l-2 -27h-80l-2 -2z" />
<glyph unicode="[" horiz-adv-x="477" d="M-25 -326l263 1866l354 14v-2q0 -29 -45 -32l-185 -19l-253 -1788l182 -18q20 -1 29.5 -10t7.5 -23l-2 -2z" />
<glyph unicode="\" horiz-adv-x="757" d="M207 1477h82l282 -1641h-79z" />
<glyph unicode="]" horiz-adv-x="497" d="M-68 -340l2 2q3 30 46 33l186 18l250 1788l-180 19q-42 3 -39 32l2 2l350 -14l-260 -1866z" />
<glyph unicode="^" horiz-adv-x="768" d="M131 933q-1 9 8 21l353 422q5 5 7.5 7t6 3.5t6 -1.5t4.5 -9l236 -422q7 -12 3 -21t-14 -9h-36q-4 0 -6.5 2.5t-6 8t-4.5 7.5l-205 287l-284 -287q-2 -2 -6.5 -7.5t-7.5 -8t-7 -2.5h-37q-9 0 -10 9z" />
<glyph unicode="_" horiz-adv-x="1091" d="M-35 -96l8 55h985l-4 -55h-989z" />
<glyph unicode="`" horiz-adv-x="614" d="M225 1331.5q9 -26.5 35 -37.5l361 -145l12 25l-291 223q-32 23 -66.5 20t-46.5 -31q-13 -28 -4 -54.5z" />
<glyph unicode="a" d="M37 287q0 112 26 221t78 205t124 169t170 115.5t210 42.5q114 0 221 -49l-123 -827q-2 -14 -2 -25q0 -43 33 -43q54 0 131 90q10 13 22.5 14t16.5 -7q2 -3 3 -5.5t1 -4.5t-0.5 -5t-1 -5t-2.5 -5.5t-3.5 -5t-4.5 -6t-4 -6.5q-61 -80 -135 -122t-121 -42q-36 0 -56 22 t-22 54q-1 14 -1 28q0 18 1 37l27 217q-31 -83 -60.5 -140.5t-71.5 -110.5t-97 -80t-124 -27q-108 0 -171.5 70.5t-63.5 230.5zM203 303q0 -111 37.5 -175.5t93.5 -64.5t114 61.5t101.5 154t75.5 192t45 182.5l43 287q-27 53 -105 53q-89 0 -161.5 -51t-116.5 -128 t-74 -173.5t-41.5 -180.5t-11.5 -157z" />
<glyph unicode="b" horiz-adv-x="976" d="M98 330l125 823q1 9 1 17q0 34 -23 47t-59 13q-9 0 -19 -1l2 39q57 9 108.5 28.5t82.5 34.5t46 15q20 0 29.5 -11t5.5 -32l-147 -865q89 297 213 450.5t274 153.5q78 0 137.5 -68t59.5 -196q0 -72 -17.5 -158t-50 -174.5t-82.5 -171.5t-110.5 -147.5t-138.5 -103.5 t-162 -39q-62 0 -114.5 18t-95 56t-60.5 108q-10 41 -10 89q0 36 5 75zM236 156q3 -62 37 -93.5t104 -31.5q78 0 146.5 59.5t113.5 149t78 195.5t48 199.5t15 160.5q0 85 -30 128.5t-70 43.5q-65 0 -141 -79.5t-135.5 -189.5t-102.5 -218.5t-53 -172.5q-11 -72 -10 -126 q-1 -13 0 -25z" />
<glyph unicode="c" horiz-adv-x="817" d="M51 332q0 124 46.5 253.5t119.5 229.5t169 163.5t189 63.5q105 0 159 -52t54 -134q0 -48 -24 -76t-59 -28q-28 0 -48 16.5t-20 44.5q0 12 3.5 34t6.5 40t1.5 39.5t-9 36t-26.5 24.5t-50 10q-95 0 -178 -99t-127.5 -238.5t-44.5 -272.5q0 -150 52 -230.5t141 -80.5 q80 0 151.5 55t128.5 143q11 17 29 17h12q8 0 11 -5.5t1.5 -14t-6.5 -17.5q-166 -268 -387 -268q-134 0 -214.5 84t-80.5 262z" />
<glyph unicode="d" horiz-adv-x="1030" d="M51 287q0 141 41 275t114.5 241t187.5 172t249 65q8 0 86 -4l14 119q2 11 2 20q0 29 -20 41q-22 13 -59 13h-15l2 39q57 9 103 28.5t74 34.5t47 15t29.5 -11t6.5 -32l-163 -1139q-2 -14 -2 -26q0 -42 32 -42q54 0 131 90q10 13 22.5 14t16.5 -7q2 -3 3 -5.5t1 -4.5 t-0.5 -5t-1 -5t-2.5 -5.5t-3.5 -5t-4.5 -6t-4 -6.5q-61 -79 -133.5 -121.5t-114.5 -42.5q-31 0 -51.5 13t-28 33.5t-10.5 45.5t2 49l27 203q-26 -63 -47 -106.5t-52.5 -92t-65.5 -77.5t-81 -48.5t-102 -19.5q-230 0 -230 301zM211 303q0 -110 38 -175t93 -65q56 0 113 59.5 t100 150.5t75 190.5t46 189.5l43 287q-27 53 -105 53q-89 0 -161.5 -51t-116 -127.5t-73 -173.5t-41 -181t-11.5 -157z" />
<glyph unicode="e" horiz-adv-x="823" d="M51 332q0 166 75.5 332.5t194 272t236.5 105.5q94 0 144.5 -51.5t50.5 -132.5q0 -65 -41 -129.5t-98.5 -112.5t-138.5 -96t-139.5 -75.5t-123.5 -53.5q-3 -27 -3 -53q0 -50 12 -96q18 -70 68.5 -118t125.5 -48q133 0 262 198q11 17 29 17h12q8 0 11 -5.5t1.5 -14 t-6.5 -17.5q-166 -268 -377 -268q-134 0 -214.5 84t-80.5 262zM219 444q101 37 177.5 85t119 92.5t69 93.5t34.5 84.5t8 70.5q0 20 -3.5 39t-11.5 40t-26 33.5t-43 12.5q-63 0 -134.5 -79.5t-124.5 -209t-65 -262.5z" />
<glyph unicode="f" horiz-adv-x="550" d="M-344 -334q0 30 21 53t55 23q27 0 52 -17.5t42 -38t46.5 -38t64.5 -17.5q26 0 52.5 28t54 86.5t53 163t44.5 243.5l109 796q1 4 2 12.5t2 12.5h-145q-5 0 -9 4t-4 10v27q0 12 17 12h151q77 371 385 371q58 0 104 -17t72 -42.5t39 -52.5t13 -52q0 -74 -60 -74 q-32 0 -51 19t-41 65q-13 24 -23 39t-27 33t-39.5 27.5t-49.5 9.5q-44 0 -77 -30t-53 -86t-30 -100.5t-20 -109.5h159q4 0 10.5 -3.5t6.5 -8.5v-27q0 -14 -13 -14h-170l-73 -547q-26 -193 -67 -344.5t-89 -250t-106 -162.5t-115.5 -91t-120.5 -27q-88 0 -130 36t-42 79z" />
<glyph unicode="g" horiz-adv-x="1011" d="M-66 -182q0 76 32 129t87 53q27 0 46.5 -18.5t19.5 -40.5q0 -31 -22.5 -70.5t-22.5 -89.5q0 -176 256 -176q63 0 126 15.5t119.5 45.5t91.5 83t35 120q0 38 -11 63t-38 39.5t-52 21t-71 13.5l-366 66q-80 16 -107.5 48.5t-27.5 76.5q0 53 37.5 87.5t92.5 49t138 22.5 q-92 61 -137 134.5t-45 150.5q0 107 55 199t152 147t213 55q56 0 102 -12t80 -35.5t52.5 -41t41.5 -44.5q49 131 145 131q33 0 56.5 -17t23.5 -42q0 -34 -18.5 -54t-54.5 -20q-19 0 -41 2t-33 2q-45 0 -45 -34q0 -20 8 -65t8 -73q0 -56 -14 -109.5t-50 -107t-90 -95.5 t-140 -72t-195 -40q-99 -8 -148 -17.5t-65.5 -21.5t-16.5 -34q0 -28 25.5 -39.5t77.5 -18.5l288 -43q149 -22 227.5 -73.5t78.5 -147.5q0 -86 -46.5 -157t-120.5 -115t-163 -68t-178 -24q-87 0 -156.5 14t-124.5 44t-85 82t-30 122zM264 592q0 -90 44.5 -155.5t129.5 -65.5 q79 0 143 57.5t98 147.5t34 190q0 43 -9.5 82t-29.5 74t-56.5 56t-85.5 21q-80 0 -143 -61t-94 -152.5t-31 -193.5z" />
<glyph unicode="h" horiz-adv-x="933" d="M61 27l162 1126q1 9 1 17q0 34 -23 47t-59 13q-9 0 -19 -1l2 39q58 9 105 28.5t73 34.5t37 15q34 0 33 -32v-11l-131 -869q180 608 479 608q26 0 47 -4t45 -19.5t40 -41.5t27 -73.5t11 -112.5q0 -68 -10.5 -151t-30.5 -174.5t-54 -176.5t-76.5 -153.5t-103 -110 t-129.5 -41.5q-49 0 -77.5 27.5t-28.5 62.5q0 33 20 55.5t52 22.5q29 0 47 -17.5t24 -38t17.5 -38t29.5 -17.5q42 0 85 143.5t68.5 325t25.5 309.5q0 83 -17 120.5t-55 37.5q-94 0 -188 -118t-171 -336.5t-120 -497.5q-6 -43 -72 -43q-24 0 -46.5 11.5t-19.5 33.5z" />
<glyph unicode="i" horiz-adv-x="546" d="M74 829q-12 16 2 33q65 93 142 140t136 47q40 0 56 -35q11 -23 11 -51q0 -14 -3 -29l-133 -770q-9 -34 -6 -51t26 -17q60 0 133 90q23 26 39 7q8 -16 -12 -43q-59 -79 -136.5 -123.5t-119.5 -44.5q-39 0 -60 23.5t-21 53.5t3 58l127 731q4 18 4 31q0 36 -31 36 q-8 0 -15 -1t-15 -4.5t-14 -5.5t-14.5 -8t-12.5 -8.5t-13.5 -10.5t-12.5 -10.5t-13 -11.5t-12 -11q-16 -14 -20.5 -16.5t-14.5 1.5zM272 1327q0 34 26 59t60 25t61 -25.5t27 -58.5q0 -35 -27 -60.5t-61 -25.5t-60 25.5t-26 60.5z" />
<glyph unicode="j" horiz-adv-x="471" d="M-344 -334q0 30 21 53t55 23q27 0 52 -17.5t42 -38t46.5 -38t64.5 -17.5q55 0 109 115t87 344l107 758q1 12 1 23q0 44 -28 44q-22 0 -47 -12.5t-38 -23.5t-40 -35q-18 -14 -24 -16.5t-11 1.5q-6 6 -6 15q0 10 8 18q64 92 141 139.5t136 47.5q27 0 42.5 -19.5t18.5 -44.5 t0 -51l-74 -569q-23 -175 -62.5 -314.5t-87 -231.5t-105 -153.5t-116 -88t-120.5 -26.5q-88 0 -130 36t-42 79zM272 1327q0 34 26 59t60 25t60 -25t26 -59t-26 -60t-60 -26t-60 25.5t-26 60.5z" />
<glyph unicode="k" horiz-adv-x="940" d="M61 0l162 1153q1 9 1 17q0 34 -23 47t-59 13q-9 0 -19 -1l2 39q57 9 104 28.5t76 34.5t49 15q18 0 28 -11t7 -32l-106 -754q353 265 369 357q1 4 1 8q0 34 -63 34q-30 0 -74 -8l4 41q61 25 109.5 38.5t80.5 16t53.5 -4t30.5 -18.5t9 -30q0 -19 -11.5 -40.5t-49.5 -64.5 t-125 -117t-224 -181q181 -299 284.5 -428.5t182.5 -135.5l-55 -43q-126 0 -244 120t-282 427l-74 -520q-36 -15 -72 -15t-72 15z" />
<glyph unicode="l" horiz-adv-x="489" d="M76 125l147 1028q1 9 1 17q0 34 -23 47t-59 13q-9 0 -19 -1l2 39q57 9 103.5 28.5t74.5 34.5t47 15t30 -11t7 -32l-162 -1139q-6 -20 -3 -44t26 -24q60 0 133 90q23 26 39 7q2 -3 3.5 -5.5t2 -4.5t-0.5 -5t-1 -5t-2.5 -5.5t-3.5 -5l-4 -6t-4 -6.5q-61 -79 -136.5 -123.5 t-117.5 -44.5q-83 0 -83 99q0 20 3 44z" />
<glyph unicode="m" horiz-adv-x="1730" d="M74 829q-12 16 2 33q65 91 145.5 139t138.5 48q32 0 46.5 -17.5t12.5 -43t-7 -54.5l-82 -500q90 310 211.5 459t279.5 149q46 0 78 -14.5t55 -51.5q24 -36 26 -98v-20q0 -56 -11 -135l-41 -260q93 297 206 438t263 141q46 0 77.5 -14.5t54 -51t25.5 -98.5q1 -13 1 -27 q0 -54 -9 -128l-84 -559q-6 -34 -1 -51t28 -17q58 0 135 90q21 27 37 7q8 -16 -10 -43q-62 -81 -143.5 -122.5t-143.5 -41.5q-32 0 -47 16.5t-14 40.5t4 53l96 641q11 73 11 123q0 36 -6 60q-14 56 -69 57q-144 0 -278.5 -268.5t-202.5 -708.5q-35 -16 -69.5 -16t-67.5 16 l104 737q12 78 12 130q-1 31 -5 53q-12 56 -66 57q-146 0 -280.5 -268t-202.5 -709q-35 -14 -70 -14l-70 14l121 848q6 32 0.5 49.5t-26.5 17.5q-49 0 -129 -71q-16 -14 -20.5 -16.5t-14.5 1.5z" />
<glyph unicode="n" horiz-adv-x="1153" d="M74 829q-12 16 2 33q65 91 145.5 139t138.5 48q32 0 46.5 -17.5t12.5 -43t-7 -54.5l-82 -500q90 310 211.5 459t279.5 149q46 0 78 -14.5t55.5 -51t25.5 -98.5q0 -11 1 -22q0 -56 -10 -133l-88 -559q-6 -34 -1.5 -51t27.5 -17q62 0 135 90q23 26 39 7q8 -16 -12 -43 q-60 -80 -144 -122t-147 -42q-20 0 -32 7t-17.5 15t-6.5 26t0.5 28.5t4.5 33.5l98 641q13 77 13 128q0 33 -6 55q-14 56 -68 57q-69 0 -141 -70t-136.5 -195t-118.5 -309.5t-87 -402.5q-35 -14 -70 -14l-70 14l121 848q6 32 0.5 49.5t-26.5 17.5q-49 0 -129 -71 q-16 -14 -20.5 -16.5t-14.5 1.5z" />
<glyph unicode="o" horiz-adv-x="948" d="M61 395q0 111 42.5 228t110.5 209t161.5 151t187.5 59q154 0 241 -103t87 -298q0 -110 -39.5 -227.5t-103.5 -212t-155.5 -155t-186.5 -60.5q-153 0 -249 107.5t-96 301.5zM225 393q0 -176 51 -267t148 -91q72 0 132.5 59.5t97 151.5t57 196t20.5 201q0 352 -192 352 q-74 0 -135 -55.5t-99 -144t-59 -193t-21 -209.5z" />
<glyph unicode="p" horiz-adv-x="978" d="M-37 -408q1 12 9.5 23t19 21t21.5 40.5t16 77.5l153 1098q1 9 1 18q0 33 -23 46q-21 13 -55 13q-10 0 -21 -1v39q58 9 110 29t83.5 35.5t46.5 15.5q19 0 27.5 -12t4.5 -34l-84 -499q87 254 210 397t270 143q78 0 137 -68t59 -196q0 -72 -18 -158t-50.5 -174.5 t-82.5 -171.5t-110.5 -147.5t-138.5 -103.5t-161 -39q-101 0 -176 47l-35 -258q-2 -10 -2 -19q0 -32 23 -46q22 -14 69 -14q15 0 33 1l-10 -45q-64 -8 -126.5 -30t-104.5 -40t-64 -18q-18 0 -26 7.5t-5 22.5zM239 170q4 -40 17.5 -71t47 -49.5t83.5 -18.5q79 0 148.5 59.5 t115.5 149t79 195.5t48 199.5t15 160.5q0 85 -30.5 128.5t-70.5 43.5q-53 0 -114.5 -54.5t-115.5 -138.5t-101 -181.5t-77.5 -188t-39.5 -152.5q-6 -29 -6 -57q0 -13 1 -25z" />
<glyph unicode="q" horiz-adv-x="960" d="M49 287q0 181 80.5 357t209 286t261.5 110q40 0 71 -11t45.5 -23.5t31.5 -23.5t32 -11q37 0 39 55h31q10 0 15 -8t3 -19l-174 -1226q-1 -9 -1 -17q0 -34 23 -48q21 -14 67 -14q15 0 32 1l-8 -45q-65 -8 -121 -30t-88.5 -40t-44.5 -18q-33 0 -25 41l101 727 q-32 -79 -60.5 -132.5t-70 -106t-96.5 -79t-123 -26.5q-230 0 -230 301zM209 303q0 -110 38 -175t93 -65q57 0 114.5 61.5t101 155t75 195t45.5 189.5l41 274q-9 24 -47 39.5t-64 15.5q-82 0 -151 -51t-113 -128.5t-75.5 -173t-44.5 -181.5t-13 -156z" />
<glyph unicode="r" horiz-adv-x="862" d="M74 829q-11 14 2 33q65 91 145.5 139t138.5 48q29 0 43 -16.5t13.5 -42.5t-4.5 -56l-88 -520q55 178 121.5 316t149 227.5t163.5 89.5q60 0 87 -27t27 -64q0 -34 -26.5 -63t-67.5 -29q-32 0 -54.5 20.5t-34.5 42.5t-17 23q-43 -3 -107.5 -98.5t-123.5 -233.5t-105 -308.5 t-53 -309.5q-43 -16 -78 -16t-62 16l121 848q5 26 0 46.5t-26 20.5q-49 0 -129 -71q-16 -14 -22 -16.5t-13 1.5z" />
<glyph unicode="s" horiz-adv-x="684" d="M12 145q0 38 20.5 57t49.5 19q28 0 49.5 -20t36 -49t30 -58t39 -49t54.5 -20q117 0 117 163q0 65 -117 271q-94 159 -118 218q-30 70 -30 118q0 99 90 173t216 74q93 0 148.5 -46t55.5 -109q0 -53 -57 -53q-26 0 -51.5 25t-43 54.5t-46.5 54.5t-62 25q-51 0 -79.5 -36 t-28.5 -89q0 -34 3.5 -55.5t28.5 -80t76 -144.5q106 -180 134 -247q30 -70 30 -112q0 -60 -29.5 -110t-74.5 -79.5t-93.5 -46t-91.5 -16.5q-119 0 -187.5 52t-68.5 116z" />
<glyph unicode="t" horiz-adv-x="591" d="M92 987v27q0 12 17 12h159l39 279h146l-39 -279h172q14 0 14 -12v-27q0 -14 -14 -14h-180l-113 -813q-6 -34 -1.5 -51t27.5 -17q59 0 136 90q21 26 37 6q8 -15 -11 -43q-62 -80 -140 -121.5t-134 -41.5q-70 0 -70 83q0 12 2 27l123 881h-158q-12 0 -12 14z" />
<glyph unicode="u" horiz-adv-x="1144" d="M70 840q-9 13 12 41q61 81 145 124.5t146 43.5q32 0 46 -17.5t12 -43t-5 -54.5l-102 -641q-14 -79 -15 -131q0 -32 6 -54q14 -58 70 -57q68 0 139.5 70t135 193.5t117 303t85.5 388.5q6 43 74 43q23 0 45 -11.5t18 -33.5l-114 -822q-6 -32 -0.5 -49.5t26.5 -17.5 q49 0 129 71q16 14 20.5 16.5t14.5 -1.5q12 -16 -2 -33q-64 -91 -145 -136.5t-140 -45.5q-24 0 -38 9t-17.5 26t-2 34t6.5 41l84 500q-90 -306 -207.5 -458t-251.5 -152q-118 0 -166 62q-32 42 -32 121q0 38 8 85l96 612q3 21 3.5 30.5t-1 20t-8 14t-18.5 3.5 q-62 0 -135 -90q-22 -25 -39 -4z" />
<glyph unicode="v" horiz-adv-x="1028" d="M72 788q0 118 76 178t184 60h338q-85 -100 -151 -210t-102 -204.5t-53.5 -171.5t-17.5 -133q0 -116 48.5 -172.5t133.5 -56.5q70 0 131 38.5t103.5 100t73.5 138.5t46 154.5t15 147.5q0 69 -18.5 129.5t-37 102t-18.5 63.5q0 42 21 63t57 21q88 0 88 -188 q0 -160 -39.5 -315.5t-107.5 -277t-168.5 -196.5t-214.5 -75q-129 0 -203 76t-74 219q0 74 21.5 149.5t50 132.5t81 128t88 112t97.5 108h-350q-17 0 -27 -9t-10 -23q0 -13 13.5 -25.5t30.5 -22t30.5 -29.5t13.5 -46q0 -27 -18.5 -45.5t-48.5 -18.5q-35 0 -58.5 29.5 t-23.5 68.5z" />
<glyph unicode="w" horiz-adv-x="1421" d="M61 788q0 61 22 108t59.5 74.5t83 41.5t96.5 14h337q-85 -100 -151 -210t-101.5 -204.5t-53 -171.5t-17.5 -133q0 -111 54 -170t145 -59q47 0 80 12.5t73 46.5q-55 113 -55 271q0 94 25 202.5t67 203.5t106 158.5t134 63.5q60 0 86 -47t26 -137q0 -176 -64 -346.5 t-173 -315.5q59 -112 176 -112q85 0 160.5 94.5t116 221.5t40.5 239q0 77 -20 144.5t-40 111t-20 63.5q0 40 22 62t56 22q94 0 94 -188q0 -164 -38 -320.5t-104.5 -277t-163 -193.5t-206.5 -73q-124 0 -192 96q-56 -48 -133 -72t-148 -24q-123 0 -195.5 76t-72.5 219 q0 74 21.5 149.5t50 132.5t81 128t88 112t97.5 108h-350q-17 0 -27 -9t-10 -23q0 -13 13.5 -25.5t30.5 -22t30.5 -29.5t13.5 -46q0 -27 -19 -45.5t-49 -18.5q-35 0 -58.5 29.5t-23.5 68.5zM782 506q0 -171 39 -262q83 107 143 278.5t60 298.5q0 74 -18.5 117t-49.5 43 q-47 0 -88 -75t-63.5 -184t-22.5 -216z" />
<glyph unicode="x" horiz-adv-x="968" d="M-29 76q0 32 26.5 60t68.5 28q25 0 45.5 -13.5t31 -29.5t21 -29.5t18.5 -13.5q36 0 89 95t139 286l-129 362q-11 33 -27.5 44.5t-40.5 11.5q-36 0 -129 -43q-16 -8 -25 6q-7 18 4 26q64 34 114 71t72 59.5t38 37.5t24 15q33 0 48.5 -22.5t37.5 -85.5q6 -17 9 -26 l100 -290q37 82 63.5 134t63.5 112.5t69.5 95t74.5 57.5t87 23q56 0 83.5 -28.5t27.5 -66.5q0 -32 -26.5 -60t-67.5 -28q-25 0 -45 13t-30 29t-20.5 29t-17.5 13q-40 0 -95 -98.5t-143 -296.5l136 -393q14 -38 24 -53t29 -15q58 0 131 90q23 26 39 6q8 -16 -12 -43 q-123 -163 -236 -163q-23 0 -40 8.5t-29.5 29t-17.5 32t-15 40.5l-105 297q-36 -78 -62.5 -129.5t-62 -109t-67 -91t-71 -55.5t-81.5 -22q-58 0 -88.5 28.5t-30.5 65.5z" />
<glyph unicode="y" horiz-adv-x="985" d="M61.5 851.5q-0.5 2.5 0 4t1 3.5t2.5 3.5t5 3.5q64 34 114 71t71.5 59.5t37.5 37.5t24 15q33 0 48.5 -22.5t37.5 -85.5q6 -17 9 -26l260 -757l6 10q105 220 161 393.5t56 261.5q0 16 -3 26t-10.5 13t-13 4t-16.5 -0.5t-16 -1.5q-45 0 -74 26t-29 62t26.5 65.5t78.5 29.5 q47 0 81.5 -42t34.5 -120q0 -148 -54 -317t-202 -484q-123 -264 -223 -396t-184 -132q-62 0 -95.5 26.5t-33.5 69.5q0 39 28 63.5t66 24.5q28 0 46 -15.5t33.5 -31t37.5 -15.5q59 0 211 299l-297 844q-11 33 -27.5 44.5t-40.5 11.5q-39 0 -129 -43q-19 -7 -24 6q0 1 -1.5 4 l-2 4t-1 3.5z" />
<glyph unicode="z" horiz-adv-x="962" d="M18 -2l658 838q-10 -10 -46 -18.5t-89 -8.5q-49 0 -103.5 20t-94.5 43.5t-85.5 43.5t-77.5 20q-33 0 -33 -21q0 -13 16.5 -25.5t37 -22t37 -28t16.5 -42.5q0 -26 -16.5 -40t-44.5 -14q-40 0 -73.5 42.5t-33.5 101.5q0 63 51 112.5t135 49.5q40 0 89.5 -17t89.5 -37.5 t95.5 -37.5t106.5 -17q19 0 37 4t31.5 8.5t28.5 15t23.5 17t21.5 20.5t17 18.5t15.5 19.5t12.5 16l47 -39l-660 -840q10 10 55 19.5t101 9.5q59 0 138 -32.5t150 -64.5t111 -32q33 0 33 20q0 12 -16.5 24t-36.5 22t-36.5 28.5t-16.5 42.5q0 26 17 39.5t46 13.5q39 0 72 -42 t33 -101q0 -63 -50.5 -112.5t-136.5 -49.5q-60 0 -208.5 56.5t-213.5 56.5q-41 0 -74 -10.5t-57.5 -31t-36 -33.5t-28.5 -36q-4 -6 -6 -8z" />
<glyph unicode="{" horiz-adv-x="499" d="M104 590l2 31q84 38 111 59t31 65l53 377q9 61 20.5 108t33 97.5t51 89t76 74t106.5 59.5l-2 -55q-70 -36 -110.5 -127t-61.5 -246l-62 -413q-3 -32 -36 -53t-103 -48l-4 -6q32 -13 49.5 -21.5t36.5 -21t26 -26.5t5 -31l-58 -414q-24 -148 -7.5 -242.5t77.5 -130.5 l-16 -55q-66 30 -106.5 76t-54.5 100.5t-15.5 119t10.5 132.5l55 377q6 45 -15 67t-92 58z" />
<glyph unicode="|" horiz-adv-x="446" d="M41 -440l293 2078h96l-293 -2078h-96z" />
<glyph unicode="}" horiz-adv-x="499" d="M-63 -340l2 55q68 36 108.5 127t63.5 246l57 414q7 32 41 53t104 47v6q-41 18 -62 29t-37.5 30.5t-12.5 41.5l55 413q47 304 -68 373l17 55q86 -40 128 -107.5t44 -146.5t-10 -174l-52 -377q-6 -45 14.5 -66t92.5 -58l-6 -31q-81 -37 -107.5 -58.5t-32.5 -66.5l-55 -377 q-10 -77 -25.5 -134.5t-46 -115.5t-83.5 -103t-129 -75z" />
<glyph unicode="~" horiz-adv-x="933" d="M102 442h50q9 0 19 10t20 24t22.5 28.5t33 24.5t44.5 10q37 0 75.5 -21.5t67 -46.5t71 -46.5t87.5 -21.5q68 0 134 50t103 135h-51q-9 0 -29 -20.5t-49.5 -41t-60.5 -20.5q-46 0 -86 18t-65 39.5t-62.5 39.5t-79.5 18q-78 0 -140.5 -47.5t-103.5 -131.5z" />
<glyph unicode="&#xa1;" horiz-adv-x="391" d="M10 -145q16 119 85 349.5t93 381.5h35q-16 -146 -11.5 -386.5t-14.5 -344.5q-5 -56 -32 -92.5t-79 -36.5q-51 0 -68 36.5t-8 92.5zM162 948q8 43 40 73t70 30t62 -30t20 -73q-8 -41 -40 -70.5t-70 -29.5q-37 0 -61.5 29.5t-20.5 70.5z" />
<glyph unicode="&#xa2;" horiz-adv-x="821" d="M51 332q0 164 75.5 328.5t196.5 271t246 110.5l43 162h66l-45 -166q77 -14 116 -63.5t39 -118.5q0 -48 -24 -76t-59 -28q-28 0 -48 16.5t-20 44.5q0 10 7.5 54.5t3 74t-29.5 43.5l-249 -907q12 -2 37 -2q80 0 151.5 55t128.5 143q11 17 29 17h12q8 0 11 -5.5t1.5 -14 t-6.5 -17.5q-166 -268 -387 -268h-2l-31 -111h-65l33 117q-106 18 -168 102t-62 238zM213 387q0 -211 98 -283l244 893q-71 -3 -136 -62.5t-109.5 -149t-70.5 -195.5t-26 -203z" />
<glyph unicode="&#xa3;" horiz-adv-x="966" d="M-35 137q0 65 49.5 114.5t124.5 49.5q88 0 152 -84q27 42 41 90t14 76q0 55 -47 166h-236l11 49h202q-77 166 -77 289q0 129 57.5 225.5t154 144.5t216.5 48q166 0 250 -87t84 -221q0 -85 -33 -145.5t-94 -60.5q-32 0 -54 18t-22 53q0 24 25.5 82t25.5 121 q0 87 -46 137.5t-128 50.5q-88 0 -152 -55.5t-94.5 -144.5t-30.5 -199q0 -100 41 -256h234l-6 -49h-217q18 -81 18 -143q0 -71 -15 -120.5t-57 -109.5q50 -31 92 -43t99 -12q104 0 182 59t145 162l46 -4q-120 -338 -379 -338q-163 0 -254 94q-33 -49 -72.5 -71.5 t-97.5 -22.5q-68 0 -110 36.5t-42 100.5zM43 109q3 -30 20.5 -51t51.5 -21q72 0 129 102q-6 6 -18 20t-15.5 18t-12.5 13t-13 11.5t-11 7.5t-12.5 6t-13 2.5t-15.5 1.5q-35 0 -64.5 -30t-25.5 -80z" />
<glyph unicode="&#xa4;" horiz-adv-x="1026" d="M41 70l127 116q-83 123 -59 289q21 155 133 273l-90 108l47 47l90 -112q126 102 270 102q153 0 252 -107l125 117l37 -47l-125 -117q80 -120 59 -280q-21 -156 -137 -275l92 -114l-45 -45l-96 114q-128 -100 -270 -100q-149 0 -246 100l-125 -114zM186 459 q-22 -141 55.5 -245.5t209.5 -104.5q139 0 251.5 108.5t131.5 257.5q20 140 -60.5 243t-212.5 103q-137 0 -246.5 -106.5t-128.5 -255.5z" />
<glyph unicode="&#xa5;" horiz-adv-x="1167" d="M131 1229l6 43q210 -3 420 0l-4 -43q-72 -3 -100 -24t-17 -54l197 -524l321 524q26 43 2.5 59t-120.5 19l6 43q191 -3 379 0l-4 -43q-96 -3 -136.5 -22.5t-68.5 -67.5l-285 -449h250l-6 -72h-289l-37 -57l-12 -94h315l-12 -72h-313l-37 -278q-4 -37 22.5 -50t102.5 -18 l-6 -49q-210 9 -420 0l4 43q79 9 111.5 25t35.5 53l39 274h-307l10 72h305l13 92l-21 59h-276l10 72h240l-173 465q-15 35 -46 53t-99 21zM616 618l5 -10l10 10h-15z" />
<glyph unicode="&#xa6;" horiz-adv-x="446" d="M41 -440l100 714h97l-101 -714h-96zM233 924l101 714h96l-100 -714h-97z" />
<glyph unicode="&#xa7;" horiz-adv-x="950" d="M6 197l37 14q14 6 20 3t9 -17q5 -16 20 -113q15 -107 92.5 -172.5t194.5 -65.5q56 0 106 11t96.5 36t74 73.5t28.5 115.5q0 29 -7.5 54t-18 42.5t-32 33.5t-37 25t-46.5 19.5t-46.5 15t-50.5 13.5t-47 12q-10 2 -42.5 9.5t-48 11.5t-46.5 13t-47.5 18t-41.5 23t-39 31.5 t-28.5 39.5t-21 51t-6.5 63q-3 134 108 250q-44 50 -47 139q0 155 115.5 257t304.5 102q74 0 130 -12.5t81 -25.5t65 -41.5t60 -39.5l-12 -242l-39 -6q-11 -4 -15.5 -1.5t-7.5 13.5q0 11 -2 28t-6 43.5t-6 45.5q-29 184 -256 184q-122 0 -201.5 -70t-81.5 -175 q1 -37 14 -64.5t30.5 -42t45.5 -24.5t51 -14t56.5 -9t52.5 -10q10 -2 44 -10t57 -13.5t61 -18.5t64.5 -26.5t57 -36t49 -48.5t31 -62.5t11.5 -79.5q-6 -146 -107 -244q59 -69 56 -160q-3 -85 -44.5 -153.5t-107 -110.5t-144.5 -64t-163 -22q-30 0 -57 1.5t-52 6t-43.5 8 t-41 11.5t-34 11.5t-33 14.5t-27 14t-28 15.5t-24.5 13.5zM213 608q1 -25 8.5 -45.5t17.5 -34.5t28 -26.5t33 -19.5t40 -14.5t40 -10.5t43 -8.5t40 -8.5q1 0 60 -14t103 -29t83 -37q23 47 26 125q1 29 -6 54t-17 42t-31.5 33t-36 25t-46 19t-46 14t-50.5 12.5t-47 11.5 q-12 3 -46 10t-54 12t-49 14.5t-50 21.5v-2q-46 -69 -43 -144z" />
<glyph unicode="&#xa8;" horiz-adv-x="731" d="M211 1274q0 35 28.5 63.5t61.5 28.5q27 0 47.5 -20.5t20.5 -49.5q0 -36 -30 -64t-63 -28q-28 0 -46.5 20.5t-18.5 49.5zM543 1274q0 35 28.5 63.5t61.5 28.5q29 0 48 -20t19 -50q0 -36 -28 -64t-62 -28q-28 0 -47.5 20.5t-19.5 49.5z" />
<glyph unicode="&#xa9;" horiz-adv-x="1452" d="M111 643q28 200 134.5 360t263 248t333.5 88q132 0 241.5 -52t181.5 -142.5t103 -221t10 -280.5q-28 -200 -135.5 -360t-265 -248t-332.5 -88q-132 0 -241.5 52t-181 142.5t-102 221t-9.5 280.5zM141 643q-19 -133 11 -254t98 -209.5t173 -141t230 -52.5 q123 0 242.5 52.5t212.5 140.5t157.5 209.5t82.5 254.5q19 133 -11.5 254t-98.5 209.5t-173 141t-229 52.5q-165 0 -316.5 -88.5t-253 -240t-125.5 -328.5zM397 645q25 178 136.5 298t265.5 120q47 0 95.5 -12.5t82.5 -12.5h24q6 -79 33 -215h-41q-24 106 -72.5 155.5 t-140.5 49.5q-44 0 -83 -15.5t-78.5 -51.5t-69.5 -108t-45 -173q-27 -195 30.5 -309.5t163.5 -114.5q80 0 135.5 44.5t131.5 152.5h43q-55 -77 -109 -207q-12 2 -22 2q-35 0 -88 -12.5t-101 -12.5q-154 0 -235 119.5t-56 302.5z" />
<glyph unicode="&#xaa;" horiz-adv-x="649" d="M84 500l8 53h479l-8 -53h-479zM117 834q7 50 37 84t114.5 64t229.5 50l2 29q7 53 7.5 93t-23 63.5t-72.5 23.5q-43 0 -80.5 -32t-57.5 -107q-2 -6 -15 -12.5t-23 -6.5q-55 0 -46 52q9 61 72 96t146 35q91 0 142 -55.5t36 -151.5l-33 -256q-8 -49 22 -49q21 0 37 4l-6 -41 q-31 -18 -42.5 -21.5t-33.5 -3.5q-37 0 -54 41t-11 103q-26 -64 -77 -106t-124 -42q-75 0 -116.5 36.5t-30.5 109.5zM209 819q-4 -36 18.5 -59t61.5 -23q36 0 66.5 13t54 38t34.5 39.5t27 40.5l25 138q-86 -12 -145.5 -34.5t-87.5 -51t-39 -51.5t-15 -50z" />
<glyph unicode="&#xab;" horiz-adv-x="681" d="M66 469q179 128 331 287l-6 -43l-201 -246l134 -242l-7 -43q-106 156 -251 287zM332 469q185 132 330 287l-5 -43l-202 -246l133 -242l-4 -43q-105 154 -252 287z" />
<glyph unicode="&#xac;" horiz-adv-x="999" d="M113 653l16 92h811l-63 -452h-89l54 360h-729z" />
<glyph unicode="&#xad;" horiz-adv-x="778" d="M72 473v80h553v-80h-553z" />
<glyph unicode="&#xae;" horiz-adv-x="1452" d="M111 643q28 200 134.5 360t263 248t333.5 88q132 0 241.5 -52t181.5 -142.5t103 -221t10 -280.5q-28 -200 -135.5 -360t-265 -248t-332.5 -88q-132 0 -241.5 52t-181 142.5t-102 221t-9.5 280.5zM141 643q-19 -133 11 -254t98 -209.5t173 -141t230 -52.5 q123 0 242.5 52.5t212.5 140.5t157.5 209.5t82.5 254.5q19 133 -11.5 254t-98.5 209.5t-173 141t-229 52.5q-165 0 -316.5 -88.5t-253 -240t-125.5 -328.5zM373 238l6 26q49 6 67 15t21 32l94 652q3 27 -13 37.5t-61 15.5l5 28q45 -2 100.5 -2t116 1t82.5 1q68 0 118 -12 t77.5 -32.5t43.5 -48t16.5 -58.5t-2.5 -64q-22 -167 -262 -229l183 -295q8 -12 20.5 -20t20 -10.5t29 -6t26.5 -4.5l-10 -26q-86 6 -179 0q0 28 -22 67l-162 281l-82 -11l-41 -264q-3 -23 15.5 -31.5t70.5 -15.5l-6 -26q-131 6 -272 0zM612 608l41 4q102 14 164.5 46.5 t87.5 73t33 99.5q11 79 -27.5 130t-128.5 51q-93 0 -116 -2z" />
<glyph unicode="&#xaf;" horiz-adv-x="866" d="M203 1239l6 27v-13q-4 -8 -6 -14zM209 1253q9 21 37 21h545q30 0 36 -23q-9 -20 -41 -20h-544q-30 0 -33 22zM827 1239v12q0 2 1 7.5t1 7.5z" />
<glyph unicode="&#xb0;" horiz-adv-x="577" d="M150 1063q15 101 87.5 168t163.5 67q90 0 143 -67.5t40 -167.5q-13 -101 -86 -168.5t-164 -67.5q-90 0 -143.5 68t-40.5 168zM242 1063q-11 -75 16 -125.5t86 -50.5q58 0 99.5 50.5t52.5 125.5q11 78 -16.5 127t-88.5 49q-57 0 -97.5 -49.5t-51.5 -126.5z" />
<glyph unicode="&#xb1;" horiz-adv-x="880" d="M47 49l12 68h674l-12 -68h-674zM121 705l10 67h305l47 326h62l-45 -326h305l-10 -67h-306l-45 -324h-63l47 324h-307z" />
<glyph unicode="&#xb2;" horiz-adv-x="608" d="M92 793q10 50 29.5 89.5t48.5 68.5t51 45t58 38q33 20 49 32t30.5 35t14.5 52q0 45 -21.5 76t-58.5 31t-56 -14t-28 -50q-3 -23 2 -45t2 -33q-13 -30 -40 -32.5t-48 14t-21 33.5q-3 76 49 128t144 52t141 -43t49 -113q0 -22 -7.5 -41.5t-16.5 -32.5t-28.5 -28t-31 -22 t-36 -21t-33.5 -19q-46 -26 -69.5 -40.5t-54 -40t-36.5 -44.5h234q32 0 43 17l18 26h47l-20 -90q-6 -28 -43 -28h-361z" />
<glyph unicode="&#xb3;" horiz-adv-x="634" d="M123 946q0 47 49 47q25 0 38.5 -9.5t16.5 -20t5.5 -30t5.5 -28.5q14 -42 33.5 -56.5t64.5 -14.5q35 0 61.5 30.5t26.5 87.5q0 51 -23.5 75t-56 22.5t-70.5 -19.5l-16 43l49 23q88 31 88 90q0 42 -15.5 60t-49.5 18q-61 0 -83 -45.5t-9 -90.5l-64 13q-24 9 -24 28 q-2 63 46 104.5t128 41.5q76 0 123 -40t47 -85q0 -51 -41 -88q32 -15 55.5 -51t23.5 -84q0 -75 -61.5 -129t-140.5 -54q-90 0 -148.5 49t-58.5 113z" />
<glyph unicode="&#xb4;" horiz-adv-x="614" d="M195 1174l12 -23l352 145q59 21 59 70q0 22 -13 36.5t-38 14.5t-73 -33z" />
<glyph unicode="&#xb5;" horiz-adv-x="1155" d="M70 840q-9 13 12 41q61 81 145 124.5t146 43.5q32 0 46 -17.5t12 -43t-5 -54.5l-102 -641q-23 -127 -9 -184.5t70 -57.5q68 0 139.5 70t135 193.5t117 303t85.5 388.5q6 43 74 43q23 0 45 -11.5t18 -33.5l-114 -822q-6 -32 -0.5 -49.5t26.5 -17.5q49 0 129 71 q16 14 20.5 16.5t14.5 -1.5q12 -16 -2 -33q-64 -91 -145 -136.5t-140 -45.5q-24 0 -38 9t-17.5 26t-2 34t6.5 41l84 500q-90 -306 -207.5 -458t-251.5 -152q-110 0 -157 53q-8 -88 -1.5 -145.5t18.5 -85t20 -49.5t4 -40q-24 -81 -77 -116q-45 -30 -69 1q-23 29 -12 101 l78 512l6 37l96 612q3 21 3.5 30.5t-1 20t-8 14t-18.5 3.5q-62 0 -135 -90q-22 -25 -39 -4z" />
<glyph unicode="&#xb6;" horiz-adv-x="1110" d="M102 881q26 180 166.5 285.5t343.5 105.5h533l-2 -21q-47 -9 -69.5 -22t-26.5 -45l-175 -1219q-3 -37 12 -54t64 -24l-2 -24h-627l3 24q69 7 93 24t29 54l74 527h-33q-202 0 -305.5 104t-77.5 285zM270.5 698.5q7.5 -76.5 55.5 -120t139 -43.5h59l101 704h-41 q-76 0 -131.5 -25t-90 -75t-54.5 -111t-32 -147q-13 -106 -5.5 -182.5zM590 -35q-3 -36 10 -51.5t49 -15.5q41 0 59 15.5t23 51.5l170 1217q3 35 -5.5 46t-33.5 11h-92z" />
<glyph unicode="&#xb7;" horiz-adv-x="405" d="M-20 584q0 47 32.5 81.5t75.5 34.5q36 0 58 -24.5t22 -59.5q0 -48 -33 -83t-74 -35q-35 0 -58 24.5t-23 61.5z" />
<glyph unicode="&#xb8;" horiz-adv-x="585" d="M-12 -307q0 18 12.5 29.5t30.5 11.5q31 0 42.5 -18.5t11 -40t12 -40t44.5 -18.5q47 0 78 35.5t31 79.5q0 95 -127 133q-27 5 -21 31q1 4 7.5 13.5t23 34t33.5 56.5h41l-35 -68q32 -9 60.5 -21.5t57.5 -33t46.5 -50.5t17.5 -65q0 -77 -58 -124.5t-149 -47.5q-71 0 -115 28 t-44 75z" />
<glyph unicode="&#xb9;" horiz-adv-x="370" d="M82 1214v46l115 51q11 5 19 5t12.5 -2t7 -9t3 -11.5l1.5 -13.5v-408q0 -21 15 -27.5t44 -8.5v-33h-213v33q19 1 29 3t20 10.5t10 22.5v363z" />
<glyph unicode="&#xba;" horiz-adv-x="645" d="M84 500l8 53h479l-8 -53h-479zM137 979q18 130 103 206.5t186 78.5q104 -2 167 -81t44 -210q-17 -128 -100 -205.5t-183 -77.5q-105 0 -170.5 80.5t-46.5 208.5zM227 987q-14 -92 30 -170t112 -78q149 0 180 226q12 95 -29 174.5t-108 79.5q-148 0 -185 -232z" />
<glyph unicode="&#xbb;" horiz-adv-x="700" d="M23 182l8 43l198 242l-131 246l8 43q105 -158 250 -287q-176 -125 -333 -287zM309 182l8 43l199 242l-131 246l8 43q105 -158 250 -287q-179 -128 -334 -287z" />
<glyph unicode="&#xbc;" horiz-adv-x="1280" d="M53 -10l885 1313h90l-885 -1313h-90zM82 1214v46l115 51q11 5 19 5t12.5 -2t7 -9t3 -11.5l1.5 -13.5v-408q0 -21 15 -27.5t44 -8.5v-33h-213v33q19 1 29 3t20 10.5t10 22.5v363zM780 152v41l246 309q19 22 43.5 13.5t24.5 -32.5v-286h84v-45h-84v-80q0 -37 51 -37v-47 h-197v47q49 0 49 37v80h-217zM862 197h135v155z" />
<glyph unicode="&#xbd;" horiz-adv-x="1277" d="M53 -10l885 1313h90l-885 -1313h-90zM82 1214v46l115 51q11 5 19 5t12.5 -2t7 -9t3 -11.5l1.5 -13.5v-408q0 -21 15 -27.5t44 -8.5v-33h-213v33q19 1 29 3t20 10.5t10 22.5v363zM760 -12q10 50 29.5 89.5t48 68t51 45.5t57.5 38q33 20 49 32t30.5 35t14.5 52q0 45 -21 76 t-58 31t-56 -14t-28 -50q-3 -23 2 -45t2 -33q-13 -30 -40 -32.5t-48 14t-21 33.5q-3 76 49 128t144 52t141 -43t49 -113q0 -22 -7.5 -41.5t-17 -32.5t-28.5 -28t-31 -22t-36.5 -21t-33.5 -19q-44 -25 -68.5 -40t-54.5 -40.5t-36 -44.5h233q32 0 43 17l19 26h47l-21 -90 q-6 -28 -43 -28h-360z" />
<glyph unicode="&#xbe;" horiz-adv-x="1490" d="M123 946q0 47 49 47q25 0 38.5 -9.5t16.5 -20t5.5 -30t5.5 -28.5q14 -42 33.5 -56.5t64.5 -14.5q35 0 61.5 30.5t26.5 87.5q0 51 -23.5 75t-56 22.5t-70.5 -19.5l-16 43l49 23q88 31 88 90q0 42 -15.5 60t-49.5 18q-61 0 -83 -45.5t-9 -90.5l-64 13q-24 9 -24 28 q-2 63 46 104.5t128 41.5q76 0 123 -40t47 -85q0 -51 -41 -88q32 -15 55.5 -51t23.5 -84q0 -75 -61.5 -129t-140.5 -54q-90 0 -148.5 49t-58.5 113zM274 -10l885 1313h88l-885 -1313h-88zM1032 152v41l246 309q19 22 43.5 13.5t24.5 -32.5v-286h84v-45h-84v-80q0 -37 51 -37 v-47h-199v47q49 0 49 37v80h-215zM1114 197h133v155z" />
<glyph unicode="&#xbf;" horiz-adv-x="923" d="M23 12q0 71 42.5 140.5t106 132t129 127t121.5 148.5t74 173h49q0 -51 -17 -101t-46 -92.5t-64 -85t-72 -88.5t-69 -94t-56.5 -109t-32.5 -126q-6 -34 -6 -64q0 -90 47.5 -143t132.5 -53q108 0 174 85t66 197q0 23 -6 47t-6 37q0 45 30.5 72t63.5 27t60.5 -28t27.5 -87 q0 -165 -124 -283t-298 -118q-166 0 -246.5 82.5t-80.5 203.5zM457 930q0 49 32.5 85t75.5 36q36 0 60 -26.5t24 -63.5q0 -43 -34.5 -78t-77.5 -35q-33 0 -56.5 23.5t-23.5 58.5z" />
<glyph unicode="&#xc0;" horiz-adv-x="1230" d="M-39 0l4 43q88 10 131 40.5t74 102.5l510 1096h90l238 -1135q8 -48 15 -60q21 -32 117 -43q6 0 13 -1l-4 -43q-213 9 -422 0l4 43q27 2 47 5t34 7.5t23 8.5t14 12t7 13t1 16.5t-2.5 18.5t-5 22.5t-5.5 25.5l-53 256h-451l-133 -281q-20 -49 13 -70.5t116 -33.5l-6 -43 q-183 10 -369 0zM362 479h418l-127 627zM532 1577q-9 27 5 55q12 28 46 30.5t66 -20.5l291 -223l-12 -24l-361 145q-26 10 -35 37z" />
<glyph unicode="&#xc1;" horiz-adv-x="1230" d="M-39 0l4 43q88 10 131 40.5t74 102.5l510 1096h90l238 -1135q8 -48 15 -60q21 -32 117 -43q6 0 13 -1l-4 -43q-213 9 -422 0l4 43q27 2 47 5t34 7.5t23 8.5t14 12t7 13t1 16.5t-2.5 18.5t-5 22.5t-5.5 25.5l-53 256h-451l-133 -281q-20 -49 13 -70.5t116 -33.5l-6 -43 q-183 10 -369 0zM362 479h418l-127 627zM557 1419l299 211q48 33 74 33q25 0 38 -14.5t13 -36.5q0 -49 -59 -70l-353 -145z" />
<glyph unicode="&#xc2;" horiz-adv-x="1230" d="M-39 0l4 43q88 10 131 40.5t74 102.5l510 1096h90l238 -1135q8 -48 15 -60q21 -32 117 -43q6 0 13 -1l-4 -43q-213 9 -422 0l4 43q27 2 47 5t34 7.5t23 8.5t14 12t7 13t1 16.5t-2.5 18.5t-5 22.5t-5.5 25.5l-53 256h-451l-133 -281q-20 -49 13 -70.5t116 -33.5l-6 -43 q-183 10 -369 0zM362 479h418l-127 627zM479 1395q135 108 309 311q97 -171 228 -311h-37l-201 178l-258 -178h-41z" />
<glyph unicode="&#xc3;" horiz-adv-x="1230" d="M-39 0l4 43q88 10 131 40.5t74 102.5l510 1096h90l238 -1135q8 -48 15 -60q21 -32 117 -43q6 0 13 -1l-4 -43q-213 9 -422 0l4 43q27 2 47 5t34 7.5t23 8.5t14 12t7 13t1 16.5t-2.5 18.5t-5 22.5t-5.5 25.5l-53 256h-451l-133 -281q-20 -49 13 -70.5t116 -33.5l-6 -43 q-183 10 -369 0zM362 479h418l-127 627zM479 1466q9 74 64.5 133.5t122.5 59.5q47 0 92 -22.5t74 -49t64.5 -49t64.5 -22.5q47 0 85.5 29t49.5 65l32 -4q-12 -86 -66 -138.5t-138 -52.5q-46 0 -91 22.5t-74 49.5t-62.5 49.5t-59.5 22.5q-44 0 -80 -32t-43 -67z" />
<glyph unicode="&#xc4;" horiz-adv-x="1230" d="M-39 0l4 43q88 10 131 40.5t74 102.5l510 1096h90l238 -1135q8 -48 15 -60q21 -32 117 -43q6 0 13 -1l-4 -43q-213 9 -422 0l4 43q27 2 47 5t34 7.5t23 8.5t14 12t7 13t1 16.5t-2.5 18.5t-5 22.5t-5.5 25.5l-53 256h-451l-133 -281q-20 -49 13 -70.5t116 -33.5l-6 -43 q-183 10 -369 0zM362 479h418l-127 627zM524 1520q0 35 28.5 63.5t61.5 28.5q27 0 47.5 -20.5t20.5 -49.5q0 -36 -29.5 -64t-62.5 -28q-28 0 -47 20.5t-19 49.5zM856 1520q0 35 28.5 63.5t61.5 28.5q29 0 48.5 -20.5t19.5 -49.5q0 -36 -28 -64t-62 -28q-28 0 -48 20.5 t-20 49.5z" />
<glyph unicode="&#xc5;" horiz-adv-x="1230" d="M-39 0l4 43q88 10 131 40.5t74 102.5l510 1096h90l238 -1135q8 -48 15 -60q21 -32 117 -43q6 0 13 -1l-4 -43q-213 9 -422 0l4 43q27 2 47 5t34 7.5t23 8.5t14 12t7 13t1 16.5t-2.5 18.5t-5 22.5t-5.5 25.5l-53 256h-451l-133 -281q-20 -49 13 -70.5t116 -33.5l-6 -43 q-183 10 -369 0zM362 479h418l-127 627zM608 1628q0 82 61 144.5t140 62.5q68 0 110 -45.5t42 -112.5q0 -82 -61 -144.5t-142 -62.5q-66 0 -108 45.5t-42 112.5zM680 1630q0 -44 24 -71t64 -27q52 0 86.5 40.5t34.5 102.5q0 44 -24 71.5t-64 27.5q-52 0 -86.5 -41 t-34.5 -103z" />
<glyph unicode="&#xc6;" horiz-adv-x="1785" d="M-41 0l6 43q82 10 126 39.5t104 101.5l876 1030q-18 8 -84 15l4 43h766q17 0 21 -7t6 -32l-8 -207h-43l-9 45q-24 78 -69.5 113t-116.5 35h-260q-9 0 -14 -15l-76 -534h264q33 0 56 8.5t40 30t25.5 38.5t23.5 52q3 8 5 12l38 -4q-39 -186 -47 -328l-37 4q-4 38 -7.5 56.5 t-14 39.5t-31.5 29t-55 8h-266l-78 -550q-3 -11 8 -11h252q75 0 126 30t89 91l84 127l43 -2q-48 -107 -96 -301q-266 4 -799 0l8 53q77 9 107.5 25t36.5 53l4 29l32 268h-536l-234 -278q-34 -42 -1.5 -69t114.5 -38l-8 -43q-187 10 -375 0zM506 479h504l98 701q-2 2 -2 4z " />
<glyph unicode="&#xc7;" horiz-adv-x="1101" d="M82 647q18 135 73 255t137 209.5t192.5 141.5t232.5 52q68 0 142.5 -18.5t127.5 -18.5h45q2 -18 8.5 -66.5t10 -72t10 -62.5t14.5 -74t19 -71l-62 4q-39 163 -121 244t-221 81q-54 0 -103 -14t-104 -52t-99 -99t-81 -163t-57 -235q-22 -160 -7 -283t59.5 -206.5 t112.5 -126.5t152 -43q114 0 206 75.5t200 241.5l78 -6q-116 -176 -173 -332q-12 4 -26 4q-57 0 -137.5 -17t-143.5 -18l-22 -45q32 -9 60.5 -21.5t57.5 -33t46.5 -50.5t17.5 -65q0 -77 -58 -124.5t-149 -47.5q-71 0 -115.5 28t-44.5 75q0 18 12.5 29.5t30.5 11.5 q31 0 43 -18.5t11 -40t12 -40t45 -18.5q47 0 78 35.5t31 79.5q0 95 -127 133q-27 5 -21 31q1 3 6 11t18 27.5t27 42.5q-157 7 -268 96t-157 239t-19 335z" />
<glyph unicode="&#xc8;" horiz-adv-x="952" d="M-20 0l6 53q77 9 107 25t36 53l145 1026q4 38 -20.5 52t-99.5 20l4 43h766q16 0 20 -7t6 -32l-8 -207h-41l-10 45q-24 78 -69.5 113t-116.5 35h-261q-9 0 -14 -15l-76 -534h264q33 0 56 8.5t40 30t25.5 38.5t23.5 52q3 8 5 12l39 -4q-39 -186 -47 -328l-37 4 q-4 38 -7.5 56.5t-14.5 39.5t-32 29t-55 8h-266l-78 -550q-3 -11 9 -11h251q142 0 218 121l81 127l43 -2q-48 -107 -96 -301q-265 4 -796 0zM389 1577.5q-9 26.5 4 54.5q12 28 46.5 30.5t66.5 -20.5l291 -223l-13 -24l-360 145q-26 11 -35 37.5z" />
<glyph unicode="&#xc9;" horiz-adv-x="952" d="M-20 0l6 53q77 9 107 25t36 53l145 1026q4 38 -20.5 52t-99.5 20l4 43h766q16 0 20 -7t6 -32l-8 -207h-41l-10 45q-24 78 -69.5 113t-116.5 35h-261q-9 0 -14 -15l-76 -534h264q33 0 56 8.5t40 30t25.5 38.5t23.5 52q3 8 5 12l39 -4q-39 -186 -47 -328l-37 4 q-4 38 -7.5 56.5t-14.5 39.5t-32 29t-55 8h-266l-78 -550q-3 -11 9 -11h251q142 0 218 121l81 127l43 -2q-48 -107 -96 -301q-265 4 -796 0zM414 1419l299 211q48 33 73 33t38.5 -14.5t13.5 -36.5q0 -48 -60 -70l-352 -145z" />
<glyph unicode="&#xca;" horiz-adv-x="952" d="M-20 0l6 53q77 9 107 25t36 53l145 1026q4 38 -20.5 52t-99.5 20l4 43h766q16 0 20 -7t6 -32l-8 -207h-41l-10 45q-24 78 -69.5 113t-116.5 35h-261q-9 0 -14 -15l-76 -534h264q33 0 56 8.5t40 30t25.5 38.5t23.5 52q3 8 5 12l39 -4q-39 -186 -47 -328l-37 4 q-4 38 -7.5 56.5t-14.5 39.5t-32 29t-55 8h-266l-78 -550q-3 -11 9 -11h251q142 0 218 121l81 127l43 -2q-48 -107 -96 -301q-265 4 -796 0zM336 1395q135 108 309 311q98 -174 227 -311h-36l-201 178l-258 -178h-41z" />
<glyph unicode="&#xcb;" horiz-adv-x="952" d="M-20 0l6 53q77 9 107 25t36 53l145 1026q4 38 -20.5 52t-99.5 20l4 43h766q16 0 20 -7t6 -32l-8 -207h-41l-10 45q-24 78 -69.5 113t-116.5 35h-261q-9 0 -14 -15l-76 -534h264q33 0 56 8.5t40 30t25.5 38.5t23.5 52q3 8 5 12l39 -4q-39 -186 -47 -328l-37 4 q-4 38 -7.5 56.5t-14.5 39.5t-32 29t-55 8h-266l-78 -550q-3 -11 9 -11h251q142 0 218 121l81 127l43 -2q-48 -107 -96 -301q-265 4 -796 0zM381 1520q0 35 28.5 63.5t61.5 28.5q27 0 47.5 -20.5t20.5 -49.5q0 -36 -30 -64t-63 -28q-28 0 -46.5 20.5t-18.5 49.5zM713 1520 q0 35 28.5 63.5t61.5 28.5q29 0 48 -20t19 -50q0 -36 -28 -64t-62 -28q-28 0 -47.5 20.5t-19.5 49.5z" />
<glyph unicode="&#xcc;" horiz-adv-x="528" d="M-18 0l4 43q81 9 112.5 25t34.5 53l146 1034q6 37 -19.5 50.5t-101.5 23.5l4 43q205 -9 420 0l-4 -43q-81 -9 -112.5 -25t-35.5 -53l-145 -1034q-6 -37 19.5 -50.5t103.5 -23.5l-7 -43q-205 9 -419 0zM170 1577.5q9 -26.5 35 -37.5l360 -145l13 24l-291 223 q-32 23 -66.5 20.5t-46.5 -30.5q-13 -28 -4 -54.5z" />
<glyph unicode="&#xcd;" horiz-adv-x="528" d="M-18 0l4 43q81 9 112.5 25t34.5 53l146 1034q6 37 -19.5 50.5t-101.5 23.5l4 43q205 -9 420 0l-4 -43q-81 -9 -112.5 -25t-35.5 -53l-145 -1034q-6 -37 19.5 -50.5t103.5 -23.5l-7 -43q-205 9 -419 0zM195 1419l12 -22l352 145q59 21 59 70q0 22 -13 36.5t-38 14.5 t-73 -33z" />
<glyph unicode="&#xce;" horiz-adv-x="528" d="M-18 0l4 43q81 9 112.5 25t34.5 53l146 1034q6 37 -19.5 50.5t-101.5 23.5l4 43q205 -9 420 0l-4 -43q-81 -9 -112.5 -25t-35.5 -53l-145 -1034q-6 -37 19.5 -50.5t103.5 -23.5l-7 -43q-205 9 -419 0zM117 1395q135 108 309 311q98 -174 227 -311h-37l-200 178l-258 -178 h-41z" />
<glyph unicode="&#xcf;" horiz-adv-x="528" d="M-18 0l4 43q81 9 112.5 25t34.5 53l146 1034q6 37 -19.5 50.5t-101.5 23.5l4 43q205 -9 420 0l-4 -43q-81 -9 -112.5 -25t-35.5 -53l-145 -1034q-6 -37 19.5 -50.5t103.5 -23.5l-7 -43q-205 9 -419 0zM162 1520q0 35 28.5 63.5t61.5 28.5q27 0 47 -20.5t20 -49.5 q0 -36 -29.5 -64t-62.5 -28q-28 0 -46.5 20.5t-18.5 49.5zM494 1520q0 35 28.5 63.5t61.5 28.5q29 0 48 -20t19 -50q0 -36 -28 -64t-62 -28q-28 0 -47.5 20.5t-19.5 49.5z" />
<glyph unicode="&#xd0;" horiz-adv-x="1165" d="M-18 0l4 45q70 13 108 46t43 71l62 442h-125l10 64h123l63 440q13 107 -114 121l6 43q106 -4 141 -4q43 0 124 2t128 2q269 0 416 -128t147 -382q0 -212 -81.5 -384.5t-233.5 -273t-346 -100.5q-20 0 -106 13.5t-128 13.5t-119 -13.5t-122 -17.5zM283 158q-12 -73 30 -80 q99 -17 146 -17q127 2 225.5 60t157.5 157.5t89 226t30 275.5q0 96 -19.5 173.5t-61 138.5t-112.5 95t-166 34q-100 0 -170 -4l-78 -549h138l-9 -64h-137z" />
<glyph unicode="&#xd1;" horiz-adv-x="1202" d="M-18 0l4 43q99 11 134.5 26t41.5 52l145 1030q7 40 -22 54t-111 24l6 43q146 -9 289 0l440 -950l113 833q7 36 -23.5 49.5t-128.5 24.5l7 43q187 -9 378 0l-4 -43q-96 -11 -132.5 -26t-39.5 -52l-161 -1151h-41l-519 1126l-141 -1009q-4 -36 26.5 -49.5t125.5 -24.5 l-4 -43q-188 9 -383 0zM457 1466q9 74 64 133.5t122 59.5q47 0 92 -22.5t74 -49t64.5 -49t64.5 -22.5q47 0 85.5 29t49.5 65l33 -4q-12 -86 -66.5 -138.5t-138.5 -52.5q-46 0 -91 22.5t-74 49.5t-62.5 49.5t-59.5 22.5q-44 0 -79.5 -32t-42.5 -67z" />
<glyph unicode="&#xd2;" horiz-adv-x="1150" d="M72 516q0 120 28.5 236.5t83.5 215.5t129 175t170.5 119t202.5 43q206 0 324 -147t118 -380q0 -116 -26.5 -231.5t-79 -218t-124.5 -181.5t-169.5 -125.5t-206.5 -46.5q-138 0 -241.5 72t-156 194t-52.5 275zM238 528q0 -227 82 -364t219 -137q86 0 158 47t120 122.5 t81 173t48 195t15 191.5q0 223 -85 361t-223 138q-83 0 -153.5 -46.5t-117.5 -121t-80.5 -171t-48.5 -195t-15 -193.5zM473 1577.5q9 -26.5 35 -37.5l360 -145l13 24l-291 223q-32 23 -66.5 20.5t-46.5 -30.5q-13 -28 -4 -54.5z" />
<glyph unicode="&#xd3;" horiz-adv-x="1150" d="M72 516q0 120 28.5 236.5t83.5 215.5t129 175t170.5 119t202.5 43q206 0 324 -147t118 -380q0 -116 -26.5 -231.5t-79 -218t-124.5 -181.5t-169.5 -125.5t-206.5 -46.5q-138 0 -241.5 72t-156 194t-52.5 275zM238 528q0 -227 82 -364t219 -137q86 0 158 47t120 122.5 t81 173t48 195t15 191.5q0 223 -85 361t-223 138q-83 0 -153.5 -46.5t-117.5 -121t-80.5 -171t-48.5 -195t-15 -193.5zM498 1419l12 -22l352 145q60 22 60 70q0 22 -13.5 36.5t-38.5 14.5t-73 -33z" />
<glyph unicode="&#xd4;" horiz-adv-x="1150" d="M72 516q0 120 28.5 236.5t83.5 215.5t129 175t170.5 119t202.5 43q206 0 324 -147t118 -380q0 -116 -26.5 -231.5t-79 -218t-124.5 -181.5t-169.5 -125.5t-206.5 -46.5q-138 0 -241.5 72t-156 194t-52.5 275zM238 528q0 -227 82 -364t219 -137q86 0 158 47t120 122.5 t81 173t48 195t15 191.5q0 223 -85 361t-223 138q-83 0 -153.5 -46.5t-117.5 -121t-80.5 -171t-48.5 -195t-15 -193.5zM420 1395q135 108 309 311q98 -174 227 -311h-36l-201 178l-258 -178h-41z" />
<glyph unicode="&#xd5;" horiz-adv-x="1150" d="M72 516q0 120 28.5 236.5t83.5 215.5t129 175t170.5 119t202.5 43q206 0 324 -147t118 -380q0 -116 -26.5 -231.5t-79 -218t-124.5 -181.5t-169.5 -125.5t-206.5 -46.5q-138 0 -241.5 72t-156 194t-52.5 275zM238 528q0 -227 82 -364t219 -137q86 0 158 47t120 122.5 t81 173t48 195t15 191.5q0 223 -85 361t-223 138q-83 0 -153.5 -46.5t-117.5 -121t-80.5 -171t-48.5 -195t-15 -193.5zM420 1466q9 74 64 133.5t122 59.5q47 0 92 -22.5t74 -49t64.5 -49t64.5 -22.5q47 0 85.5 29t49.5 65l33 -4q-12 -86 -66.5 -138.5t-138.5 -52.5 q-46 0 -91 22.5t-73.5 49.5t-62 49.5t-59.5 22.5q-44 0 -80 -32t-43 -67z" />
<glyph unicode="&#xd6;" horiz-adv-x="1150" d="M72 516q0 120 28.5 236.5t83.5 215.5t129 175t170.5 119t202.5 43q206 0 324 -147t118 -380q0 -116 -26.5 -231.5t-79 -218t-124.5 -181.5t-169.5 -125.5t-206.5 -46.5q-138 0 -241.5 72t-156 194t-52.5 275zM238 528q0 -227 82 -364t219 -137q86 0 158 47t120 122.5 t81 173t48 195t15 191.5q0 223 -85 361t-223 138q-83 0 -153.5 -46.5t-117.5 -121t-80.5 -171t-48.5 -195t-15 -193.5zM465 1520q0 35 28.5 63.5t61.5 28.5q27 0 47.5 -20.5t20.5 -49.5q0 -36 -30 -64t-63 -28q-28 0 -46.5 20.5t-18.5 49.5zM797 1520q0 35 28.5 63.5 t61.5 28.5q29 0 48 -20t19 -50q0 -36 -28 -64t-62 -28q-28 0 -47.5 20.5t-19.5 49.5z" />
<glyph unicode="&#xd7;" horiz-adv-x="800" d="M78 272l262 242l-193 244l70 65l193 -243l262 243l51 -65l-260 -244l190 -242l-67 -65l-193 242l-262 -242z" />
<glyph unicode="&#xd8;" horiz-adv-x="1257" d="M72 516q0 120 28.5 236.5t83.5 215.5t129 175t170.5 119t202.5 43q192 0 313 -134l99 129l51 -34l-111 -146q90 -137 90 -342q0 -116 -26.5 -231.5t-79 -218t-124.5 -181.5t-169.5 -125.5t-206.5 -46.5q-159 0 -278 101l-80 -107l-53 35l88 117q-127 152 -127 395z M238 528q0 -174 47 -295l624 820q-40 96 -106 149t-150 53q-83 0 -153.5 -46.5t-117.5 -121t-80.5 -171t-48.5 -195t-15 -193.5zM315 170q82 -143 224 -143q86 0 158 47t120 122.5t81 173t48 195t15 191.5q0 125 -27 227z" />
<glyph unicode="&#xd9;" horiz-adv-x="1265" d="M121 1229l6 43q211 -6 426 0l-4 -43q-78 -9 -110 -25t-38 -53q-36 -254 -77 -544q-37 -256 -37 -279q0 -132 63.5 -208.5t171.5 -76.5q114 0 214 76t163 176l119 860q7 36 -19.5 50t-105.5 24l6 43q208 -6 420 0l-4 -43q-78 -9 -110 -25t-38 -53l-145 -1034 q-4 -37 21.5 -51t103.5 -23l-4 -43q-59 3 -171 3t-149 -3l6 47q36 28 45 74l13 94q-67 -99 -173 -167t-245 -68q-154 0 -243 91.5t-89 245.5q0 27 2 53t5 55t12 94.5t19 133t31 211.5t42 291q6 36 -21 50t-106 24zM524 1577.5q-9 26.5 4 54.5q12 28 46.5 30.5t66.5 -20.5 l291 -223l-12 -24l-361 145q-26 11 -35 37.5z" />
<glyph unicode="&#xda;" horiz-adv-x="1265" d="M121 1229l6 43q211 -6 426 0l-4 -43q-78 -9 -110 -25t-38 -53q-36 -254 -77 -544q-37 -256 -37 -279q0 -132 63.5 -208.5t171.5 -76.5q114 0 214 76t163 176l119 860q7 36 -19.5 50t-105.5 24l6 43q208 -6 420 0l-4 -43q-78 -9 -110 -25t-38 -53l-145 -1034 q-4 -37 21.5 -51t103.5 -23l-4 -43q-59 3 -171 3t-149 -3l6 47q36 28 45 74l13 94q-67 -99 -173 -167t-245 -68q-154 0 -243 91.5t-89 245.5q0 27 2 53t5 55t12 94.5t19 133t31 211.5t42 291q6 36 -21 50t-106 24zM549 1419l299 211q48 33 74 33q25 0 38 -14.5t13 -36.5 q0 -48 -60 -70l-352 -145z" />
<glyph unicode="&#xdb;" horiz-adv-x="1265" d="M121 1229l6 43q211 -6 426 0l-4 -43q-78 -9 -110 -25t-38 -53q-36 -254 -77 -544q-37 -256 -37 -279q0 -132 63.5 -208.5t171.5 -76.5q114 0 214 76t163 176l119 860q7 36 -19.5 50t-105.5 24l6 43q208 -6 420 0l-4 -43q-78 -9 -110 -25t-38 -53l-145 -1034 q-4 -37 21.5 -51t103.5 -23l-4 -43q-59 3 -171 3t-149 -3l6 47q36 28 45 74l13 94q-67 -99 -173 -167t-245 -68q-154 0 -243 91.5t-89 245.5q0 27 2 53t5 55t12 94.5t19 133t31 211.5t42 291q6 36 -21 50t-106 24zM471 1395q135 108 309 311q97 -171 228 -311h-37l-201 178 l-258 -178h-41z" />
<glyph unicode="&#xdc;" horiz-adv-x="1265" d="M121 1229l6 43q211 -6 426 0l-4 -43q-78 -9 -110 -25t-38 -53q-36 -254 -77 -544q-37 -256 -37 -279q0 -132 63.5 -208.5t171.5 -76.5q114 0 214 76t163 176l119 860q7 36 -19.5 50t-105.5 24l6 43q208 -6 420 0l-4 -43q-78 -9 -110 -25t-38 -53l-145 -1034 q-4 -37 21.5 -51t103.5 -23l-4 -43q-59 3 -171 3t-149 -3l6 47q36 28 45 74l13 94q-67 -99 -173 -167t-245 -68q-154 0 -243 91.5t-89 245.5q0 27 2 53t5 55t12 94.5t19 133t31 211.5t42 291q6 36 -21 50t-106 24zM516 1520q0 35 28.5 63.5t61.5 28.5q27 0 47.5 -20.5 t20.5 -49.5q0 -36 -29.5 -64t-62.5 -28q-28 0 -47 20.5t-19 49.5zM848 1520q0 35 28.5 63.5t61.5 28.5q29 0 48.5 -20.5t19.5 -49.5q0 -36 -28.5 -64t-62.5 -28q-28 0 -47.5 20.5t-19.5 49.5z" />
<glyph unicode="&#xdd;" horiz-adv-x="1167" d="M131 1229l6 43q210 -3 420 0l-4 -43q-72 -3 -100 -24t-17 -54l197 -524l321 524q26 43 2.5 59t-120.5 19l6 43q191 -3 379 0l-4 -43q-96 -3 -136.5 -22.5t-68.5 -67.5l-367 -578l-59 -444q-4 -37 22.5 -50t102.5 -18l-6 -49q-210 9 -420 0l4 43q79 9 111.5 25t35.5 53 l60 438l-220 596q-15 35 -46 53t-99 21zM506 1419l12 -22l352 145q60 22 60 70q0 22 -13 36.5t-38 14.5q-26 0 -74 -33z" />
<glyph unicode="&#xde;" horiz-adv-x="1032" d="M-18 0l4 43q81 9 112.5 25t34.5 53l146 1034q6 37 -19.5 50.5t-101.5 23.5l4 43q205 -9 420 0l-4 -43q-81 -9 -112.5 -25t-35.5 -53l-18 -125h153q221 0 330 -105.5t82 -285.5q-25 -176 -163 -278.5t-357 -102.5h-154l-18 -137q-6 -37 19.5 -50.5t103.5 -23.5l-7 -43 q-205 9 -419 0zM311 307h178q72 0 125.5 16.5t88 44.5t58.5 73.5t36.5 93.5t21.5 114q14 71 10 130t-25.5 102.5t-77 67.5t-144.5 24h-176z" />
<glyph unicode="&#xdf;" horiz-adv-x="1046" d="M-20 0l6 43q74 6 105 22t38 54l125 893q18 125 118 192.5t232 67.5q90 0 156 -21.5t101.5 -58t52 -79t16.5 -91.5q0 -99 -66.5 -184t-199.5 -121q313 -52 313 -305q0 -186 -126.5 -299t-328.5 -113h-78l5 57h65q139 0 219 105t80 252q0 102 -51.5 180t-124.5 78 q-44 -7 -138.5 -21.5t-148.5 -23.5l-61 -424q-12 -89 -74.5 -146t-148.5 -57h-86zM356 670l52 8q176 34 269 121t93 241q0 79 -39 129t-113 50q-95 0 -147.5 -51.5t-71.5 -184.5z" />
<glyph unicode="&#xe0;" d="M37 287q0 112 26 221t78 205t124 169t170 115.5t210 42.5q114 0 221 -49l-123 -827q-11 -68 31 -68q54 0 131 90q10 13 22.5 14t16.5 -7q2 -3 3 -5.5t1 -4.5t-0.5 -5t-1 -5t-2.5 -5.5t-3.5 -5t-4.5 -6t-4 -6.5q-61 -80 -135 -122t-121 -42q-36 0 -56.5 22.5t-22 54 t0.5 64.5l27 217q-31 -83 -60.5 -140.5t-71.5 -110.5t-97 -80t-124 -27q-108 0 -171.5 70.5t-63.5 230.5zM203 303q0 -111 37.5 -175.5t93.5 -64.5t114 61.5t101.5 154t75.5 192t45 182.5l43 287q-27 53 -105 53q-89 0 -161.5 -51t-116.5 -128t-74 -173.5t-41.5 -180.5 t-11.5 -157zM393 1331.5q9 -26.5 35 -37.5l360 -145l13 25l-291 223q-32 23 -66.5 20t-46.5 -31q-13 -28 -4 -54.5z" />
<glyph unicode="&#xe1;" d="M37 287q0 112 26 221t78 205t124 169t170 115.5t210 42.5q114 0 221 -49l-123 -827q-11 -68 31 -68q54 0 131 90q10 13 22.5 14t16.5 -7q2 -3 3 -5.5t1 -4.5t-0.5 -5t-1 -5t-2.5 -5.5t-3.5 -5t-4.5 -6t-4 -6.5q-61 -80 -135 -122t-121 -42q-36 0 -56.5 22.5t-22 54 t0.5 64.5l27 217q-31 -83 -60.5 -140.5t-71.5 -110.5t-97 -80t-124 -27q-108 0 -171.5 70.5t-63.5 230.5zM203 303q0 -111 37.5 -175.5t93.5 -64.5t114 61.5t101.5 154t75.5 192t45 182.5l43 287q-27 53 -105 53q-89 0 -161.5 -51t-116.5 -128t-74 -173.5t-41.5 -180.5 t-11.5 -157zM416 1174l12 -23l352 145q60 22 60 70q0 22 -13.5 36.5t-38.5 14.5t-73 -33z" />
<glyph unicode="&#xe2;" d="M37 287q0 112 26 221t78 205t124 169t170 115.5t210 42.5q114 0 221 -49l-123 -827q-11 -68 31 -68q54 0 131 90q10 13 22.5 14t16.5 -7q2 -3 3 -5.5t1 -4.5t-0.5 -5t-1 -5t-2.5 -5.5t-3.5 -5t-4.5 -6t-4 -6.5q-61 -80 -135 -122t-121 -42q-36 0 -56.5 22.5t-22 54 t0.5 64.5l27 217q-31 -83 -60.5 -140.5t-71.5 -110.5t-97 -80t-124 -27q-108 0 -171.5 70.5t-63.5 230.5zM203 303q0 -111 37.5 -175.5t93.5 -64.5t114 61.5t101.5 154t75.5 192t45 182.5l43 287q-27 53 -105 53q-89 0 -161.5 -51t-116.5 -128t-74 -173.5t-41.5 -180.5 t-11.5 -157zM338 1149q135 108 309 311q98 -174 227 -311h-36l-201 178l-258 -178h-41z" />
<glyph unicode="&#xe3;" d="M37 287q0 112 26 221t78 205t124 169t170 115.5t210 42.5q114 0 221 -49l-123 -827q-11 -68 31 -68q54 0 131 90q10 13 22.5 14t16.5 -7q2 -3 3 -5.5t1 -4.5t-0.5 -5t-1 -5t-2.5 -5.5t-3.5 -5t-4.5 -6t-4 -6.5q-61 -80 -135 -122t-121 -42q-36 0 -56.5 22.5t-22 54 t0.5 64.5l27 217q-31 -83 -60.5 -140.5t-71.5 -110.5t-97 -80t-124 -27q-108 0 -171.5 70.5t-63.5 230.5zM203 303q0 -111 37.5 -175.5t93.5 -64.5t114 61.5t101.5 154t75.5 192t45 182.5l43 287q-27 53 -105 53q-89 0 -161.5 -51t-116.5 -128t-74 -173.5t-41.5 -180.5 t-11.5 -157zM340 1221q9 74 64 133t122 59q47 0 92 -22.5t74 -49t64.5 -49t64.5 -22.5q47 0 85.5 29t49.5 65l33 -4q-12 -86 -66.5 -138.5t-138.5 -52.5q-46 0 -91 22.5t-73.5 49.5t-62 49.5t-59.5 22.5q-44 0 -80 -32t-43 -67z" />
<glyph unicode="&#xe4;" d="M37 287q0 112 26 221t78 205t124 169t170 115.5t210 42.5q114 0 221 -49l-123 -827q-11 -68 31 -68q54 0 131 90q10 13 22.5 14t16.5 -7q2 -3 3 -5.5t1 -4.5t-0.5 -5t-1 -5t-2.5 -5.5t-3.5 -5t-4.5 -6t-4 -6.5q-61 -80 -135 -122t-121 -42q-36 0 -56.5 22.5t-22 54 t0.5 64.5l27 217q-31 -83 -60.5 -140.5t-71.5 -110.5t-97 -80t-124 -27q-108 0 -171.5 70.5t-63.5 230.5zM203 303q0 -111 37.5 -175.5t93.5 -64.5t114 61.5t101.5 154t75.5 192t45 182.5l43 287q-27 53 -105 53q-89 0 -161.5 -51t-116.5 -128t-74 -173.5t-41.5 -180.5 t-11.5 -157zM383 1274q0 35 28.5 63.5t61.5 28.5q27 0 47.5 -20.5t20.5 -49.5q0 -36 -29.5 -64t-62.5 -28q-28 0 -47 20.5t-19 49.5zM715 1274q0 35 28.5 63.5t61.5 28.5q29 0 48 -20t19 -50q0 -36 -28 -64t-62 -28q-28 0 -47.5 20.5t-19.5 49.5z" />
<glyph unicode="&#xe5;" d="M37 287q0 112 26 221t78 205t124 169t170 115.5t210 42.5q114 0 221 -49l-123 -827q-11 -68 31 -68q54 0 131 90q10 13 22.5 14t16.5 -7q2 -3 3 -5.5t1 -4.5t-0.5 -5t-1 -5t-2.5 -5.5t-3.5 -5t-4.5 -6t-4 -6.5q-61 -80 -135 -122t-121 -42q-36 0 -56.5 22.5t-22 54 t0.5 64.5l27 217q-31 -83 -60.5 -140.5t-71.5 -110.5t-97 -80t-124 -27q-108 0 -171.5 70.5t-63.5 230.5zM203 303q0 -111 37.5 -175.5t93.5 -64.5t114 61.5t101.5 154t75.5 192t45 182.5l43 287q-27 53 -105 53q-89 0 -161.5 -51t-116.5 -128t-74 -173.5t-41.5 -180.5 t-11.5 -157zM469 1382q0 82 61 144.5t140 62.5q68 0 109.5 -45t41.5 -112q0 -82 -61 -144.5t-142 -62.5q-66 0 -107.5 45t-41.5 112zM541 1384q0 -44 24 -71t64 -27q52 0 86.5 41t34.5 103q0 44 -24 71t-64 27q-52 0 -86.5 -41t-34.5 -103z" />
<glyph unicode="&#xe6;" horiz-adv-x="1398" d="M51 287q0 113 25.5 221.5t76.5 204.5t122 169t168.5 115.5t209.5 42.5q16 0 34.5 -3t50.5 -12t68 -32.5t68 -58.5l-12 -31q133 139 268 139q96 0 146.5 -51.5t50.5 -132.5q0 -65 -41 -129.5t-98.5 -112.5t-138.5 -96t-139.5 -75.5t-123.5 -53.5q-9 -79 8.5 -149t68 -118 t126.5 -48q134 0 260 198q13 17 31 17h12q8 0 11 -5.5t1.5 -14t-6.5 -17.5q-170 -268 -376 -268q-132 0 -211.5 80t-83.5 251q-31 -76 -58.5 -127.5t-68.5 -102t-94.5 -76t-120.5 -25.5q-234 0 -234 301zM215 303q0 -111 37.5 -175.5t93.5 -64.5t112.5 59.5t99.5 150 t74.5 191t45.5 189.5l43 287q-27 53 -105 53q-75 0 -138 -35.5t-105.5 -95t-74 -131.5t-49 -151.5t-26 -148t-8.5 -128.5zM795 444q101 37 177 85t118.5 92.5t69 93.5t34.5 84.5t8 70.5q0 20 -3.5 39t-11.5 40t-26.5 33.5t-44.5 12.5q-62 0 -132.5 -79.5t-123.5 -209 t-65 -262.5z" />
<glyph unicode="&#xe7;" horiz-adv-x="817" d="M51 332q0 124 46.5 253.5t119.5 229.5t169 163.5t189 63.5q105 0 159 -52t54 -134q0 -48 -24 -76t-59 -28q-28 0 -48 16.5t-20 44.5q0 12 3.5 34t6.5 40t1.5 39.5t-9 36t-26.5 24.5t-50 10q-95 0 -178 -99t-127.5 -238.5t-44.5 -272.5q0 -150 52 -230.5t141 -80.5 q80 0 151.5 55t128.5 143q11 17 29 17h12q8 0 11 -5.5t1.5 -14t-6.5 -17.5q-161 -258 -373 -268l-26 -54q32 -9 60.5 -21.5t57.5 -33t46.5 -50.5t17.5 -65q0 -77 -58 -124.5t-149 -47.5q-71 0 -115 28t-44 75q0 18 12.5 29.5t30.5 11.5q31 0 42.5 -18.5t11 -40t12 -40 t44.5 -18.5q47 0 78 35.5t31 79.5q0 95 -127 133q-27 5 -21 31q1 4 6.5 13t19.5 30.5t29 46.5q-123 8 -195.5 92.5t-72.5 253.5z" />
<glyph unicode="&#xe8;" horiz-adv-x="823" d="M51 332q0 166 75.5 332.5t194 272t236.5 105.5q94 0 144.5 -51.5t50.5 -132.5q0 -65 -41 -129.5t-98.5 -112.5t-138.5 -96t-139.5 -75.5t-123.5 -53.5q-9 -79 8.5 -149t68.5 -118t126 -48q133 0 262 198q11 17 29 17h12q8 0 11 -5.5t1.5 -14t-6.5 -17.5 q-166 -268 -377 -268q-134 0 -214.5 84t-80.5 262zM219 444q101 37 177.5 85t119 92.5t69 93.5t34.5 84.5t8 70.5q0 20 -3.5 39t-11.5 40t-26 33.5t-43 12.5q-63 0 -134.5 -79.5t-124.5 -209t-65 -262.5zM303 1331.5q9 -26.5 35 -37.5l360 -145l13 25l-291 223 q-32 23 -66.5 20t-46.5 -31q-13 -28 -4 -54.5z" />
<glyph unicode="&#xe9;" horiz-adv-x="823" d="M51 332q0 166 75.5 332.5t194 272t236.5 105.5q94 0 144.5 -51.5t50.5 -132.5q0 -65 -41 -129.5t-98.5 -112.5t-138.5 -96t-139.5 -75.5t-123.5 -53.5q-9 -79 8.5 -149t68.5 -118t126 -48q133 0 262 198q11 17 29 17h12q8 0 11 -5.5t1.5 -14t-6.5 -17.5 q-166 -268 -377 -268q-134 0 -214.5 84t-80.5 262zM219 444q101 37 177.5 85t119 92.5t69 93.5t34.5 84.5t8 70.5q0 20 -3.5 39t-11.5 40t-26 33.5t-43 12.5q-63 0 -134.5 -79.5t-124.5 -209t-65 -262.5zM328 1174l12 -23l352 145q60 22 60 70q0 22 -13.5 36.5t-38.5 14.5 t-73 -33z" />
<glyph unicode="&#xea;" horiz-adv-x="823" d="M51 332q0 166 75.5 332.5t194 272t236.5 105.5q94 0 144.5 -51.5t50.5 -132.5q0 -65 -41 -129.5t-98.5 -112.5t-138.5 -96t-139.5 -75.5t-123.5 -53.5q-9 -79 8.5 -149t68.5 -118t126 -48q133 0 262 198q11 17 29 17h12q8 0 11 -5.5t1.5 -14t-6.5 -17.5 q-166 -268 -377 -268q-134 0 -214.5 84t-80.5 262zM219 444q101 37 177.5 85t119 92.5t69 93.5t34.5 84.5t8 70.5q0 20 -3.5 39t-11.5 40t-26 33.5t-43 12.5q-63 0 -134.5 -79.5t-124.5 -209t-65 -262.5zM250 1149q135 108 309 311q98 -174 227 -311h-36l-201 178l-258 -178 h-41z" />
<glyph unicode="&#xeb;" horiz-adv-x="823" d="M51 332q0 166 75.5 332.5t194 272t236.5 105.5q94 0 144.5 -51.5t50.5 -132.5q0 -65 -41 -129.5t-98.5 -112.5t-138.5 -96t-139.5 -75.5t-123.5 -53.5q-9 -79 8.5 -149t68.5 -118t126 -48q133 0 262 198q11 17 29 17h12q8 0 11 -5.5t1.5 -14t-6.5 -17.5 q-166 -268 -377 -268q-134 0 -214.5 84t-80.5 262zM219 444q101 37 177.5 85t119 92.5t69 93.5t34.5 84.5t8 70.5q0 20 -3.5 39t-11.5 40t-26 33.5t-43 12.5q-63 0 -134.5 -79.5t-124.5 -209t-65 -262.5zM295 1274q0 35 28.5 63.5t61.5 28.5q27 0 47.5 -20.5t20.5 -49.5 q0 -36 -30 -64t-63 -28q-28 0 -46.5 20.5t-18.5 49.5zM627 1274q0 35 28.5 63.5t61.5 28.5q29 0 48 -20t19 -50q0 -36 -28 -64t-62 -28q-28 0 -47.5 20.5t-19.5 49.5z" />
<glyph unicode="&#xec;" horiz-adv-x="583" d="M74 829q-12 16 2 33q65 93 142 140t136 47q39 0 53 -33.5t9 -81.5l-109 -770q-6 -34 -2 -51t27 -17q56 0 133 90q23 26 39 7q8 -16 -12 -43q-62 -81 -136 -122.5t-127 -41.5q-85 0 -73 110l104 752q12 67 -27 67q-22 0 -47 -13t-37 -23t-40 -35q-16 -14 -20.5 -16.5 t-14.5 1.5zM149 1331q9 -27 35 -37l361 -145l12 25l-291 223q-32 23 -66 20t-46 -31q-14 -28 -5 -55z" />
<glyph unicode="&#xed;" horiz-adv-x="583" d="M74 829q-12 16 2 33q65 93 142 140t136 47q39 0 53 -33.5t9 -81.5l-109 -770q-6 -34 -2 -51t27 -17q56 0 133 90q23 26 39 7q8 -16 -12 -43q-62 -81 -136 -122.5t-127 -41.5q-85 0 -73 110l104 752q12 67 -27 67q-22 0 -47 -13t-37 -23t-40 -35q-16 -14 -20.5 -16.5 t-14.5 1.5zM174 1174l12 -23l353 145q59 21 59 70q0 22 -13 36.5t-38 14.5q-26 0 -74 -33z" />
<glyph unicode="&#xee;" horiz-adv-x="583" d="M74 829q-12 16 2 33q65 93 142 140t136 47q39 0 53 -33.5t9 -81.5l-109 -770q-6 -34 -2 -51t27 -17q56 0 133 90q23 26 39 7q8 -16 -12 -43q-62 -81 -136 -122.5t-127 -41.5q-85 0 -73 110l104 752q12 67 -27 67q-22 0 -47 -13t-37 -23t-40 -35q-16 -14 -20.5 -16.5 t-14.5 1.5zM96 1149q138 111 310 311q98 -174 227 -311h-37l-201 178l-258 -178h-41z" />
<glyph unicode="&#xef;" horiz-adv-x="583" d="M74 829q-12 16 2 33q65 93 142 140t136 47q39 0 53 -33.5t9 -81.5l-109 -770q-6 -34 -2 -51t27 -17q56 0 133 90q23 26 39 7q8 -16 -12 -43q-62 -81 -136 -122.5t-127 -41.5q-85 0 -73 110l104 752q12 67 -27 67q-22 0 -47 -13t-37 -23t-40 -35q-16 -14 -20.5 -16.5 t-14.5 1.5zM141 1274q0 35 28.5 63.5t61.5 28.5q27 0 47.5 -20.5t20.5 -49.5q0 -36 -29.5 -64t-62.5 -28q-28 0 -47 20.5t-19 49.5zM473 1274q0 35 28.5 63.5t61.5 28.5q29 0 48.5 -20.5t19.5 -49.5q0 -36 -28 -64t-62 -28q-28 0 -48 20.5t-20 49.5z" />
<glyph unicode="&#xf0;" horiz-adv-x="1028" d="M66 479q17 127 65 234t114.5 178.5t148.5 111t169 39.5q159 0 232 -137l30 221q3 34 0 58l-245 -72l6 55l219 64q-24 30 -74.5 37t-130.5 2l10 51q142 25 232 25q82 0 110 -72l129 39l-10 -56l-104 -30q12 -73 -4 -152l-127 -905q-6 -49 17 -63.5t83 -8.5l-4 -51 q-76 -17 -144 -44.5t-88 -27.5q-34 0 -26 45l41 150q-122 -190 -305 -190q-81 0 -149.5 32.5t-119 93t-71.5 157t-4 216.5zM227 516q-34 -231 24 -361t177 -130q56 0 106.5 28t85 70.5t56.5 82t33 73.5l77 552q-25 65 -78 113.5t-135 48.5q-129 0 -222 -136t-124 -341z" />
<glyph unicode="&#xf1;" horiz-adv-x="1153" d="M74 829q-12 16 2 33q65 91 145.5 139t138.5 48q32 0 46.5 -17.5t12.5 -43t-7 -54.5l-82 -500q90 310 211.5 459t279.5 149q46 0 78 -14.5t55.5 -51t26 -98t-9.5 -155.5l-88 -559q-6 -34 -1.5 -51t27.5 -17q62 0 135 90q23 26 39 7q8 -16 -12 -43q-60 -80 -144 -122 t-147 -42q-20 0 -32 7t-17.5 15t-6.5 26t0.5 28.5t4.5 33.5l98 641q21 127 7.5 183.5t-68.5 56.5q-69 0 -141 -70t-136.5 -195t-118.5 -309.5t-87 -402.5q-70 -29 -140 0l121 848q6 32 0.5 49.5t-26.5 17.5q-49 0 -129 -71q-16 -14 -20.5 -16.5t-14.5 1.5zM371 1221 q9 74 64 133t122 59q47 0 92 -22.5t74 -49t64.5 -49t64.5 -22.5q47 0 85.5 29t49.5 65l33 -4q-12 -86 -66.5 -138.5t-138.5 -52.5q-46 0 -91 22.5t-74 49.5t-62.5 49.5t-59.5 22.5q-44 0 -79.5 -32t-42.5 -67z" />
<glyph unicode="&#xf2;" horiz-adv-x="948" d="M61 395q0 111 42.5 228t110.5 209t161.5 151t187.5 59q154 0 241 -103t87 -298q0 -110 -39.5 -227.5t-103.5 -212t-155.5 -155t-186.5 -60.5q-153 0 -249 107.5t-96 301.5zM225 393q0 -176 51 -267t148 -91q72 0 132.5 59.5t97 151.5t57 196t20.5 201q0 352 -192 352 q-74 0 -135 -55.5t-99 -144t-59 -193t-21 -209.5zM362 1331q9 -27 35 -37l361 -145l12 25l-291 223q-32 23 -66 20t-46 -31q-14 -28 -5 -55z" />
<glyph unicode="&#xf3;" horiz-adv-x="948" d="M61 395q0 111 42.5 228t110.5 209t161.5 151t187.5 59q154 0 241 -103t87 -298q0 -110 -39.5 -227.5t-103.5 -212t-155.5 -155t-186.5 -60.5q-153 0 -249 107.5t-96 301.5zM225 393q0 -176 51 -267t148 -91q72 0 132.5 59.5t97 151.5t57 196t20.5 201q0 352 -192 352 q-74 0 -135 -55.5t-99 -144t-59 -193t-21 -209.5zM387 1174l12 -23l353 145q59 21 59 70q0 22 -13 36.5t-38 14.5q-26 0 -74 -33z" />
<glyph unicode="&#xf4;" horiz-adv-x="948" d="M61 395q0 111 42.5 228t110.5 209t161.5 151t187.5 59q154 0 241 -103t87 -298q0 -110 -39.5 -227.5t-103.5 -212t-155.5 -155t-186.5 -60.5q-153 0 -249 107.5t-96 301.5zM225 393q0 -176 51 -267t148 -91q72 0 132.5 59.5t97 151.5t57 196t20.5 201q0 352 -192 352 q-74 0 -135 -55.5t-99 -144t-59 -193t-21 -209.5zM309 1149q135 108 309 311q97 -171 228 -311h-37l-201 178l-258 -178h-41z" />
<glyph unicode="&#xf5;" horiz-adv-x="948" d="M61 395q0 111 42.5 228t110.5 209t161.5 151t187.5 59q154 0 241 -103t87 -298q0 -110 -39.5 -227.5t-103.5 -212t-155.5 -155t-186.5 -60.5q-153 0 -249 107.5t-96 301.5zM225 393q0 -176 51 -267t148 -91q72 0 132.5 59.5t97 151.5t57 196t20.5 201q0 352 -192 352 q-74 0 -135 -55.5t-99 -144t-59 -193t-21 -209.5zM309 1221q9 74 64.5 133t122.5 59q47 0 92 -22.5t74 -49t64.5 -49t64.5 -22.5q47 0 85.5 29t49.5 65l32 -4q-12 -86 -66 -138.5t-138 -52.5q-46 0 -91 22.5t-74 49.5t-62.5 49.5t-59.5 22.5q-44 0 -80 -32t-43 -67z" />
<glyph unicode="&#xf6;" horiz-adv-x="948" d="M61 395q0 111 42.5 228t110.5 209t161.5 151t187.5 59q154 0 241 -103t87 -298q0 -110 -39.5 -227.5t-103.5 -212t-155.5 -155t-186.5 -60.5q-153 0 -249 107.5t-96 301.5zM225 393q0 -176 51 -267t148 -91q72 0 132.5 59.5t97 151.5t57 196t20.5 201q0 352 -192 352 q-74 0 -135 -55.5t-99 -144t-59 -193t-21 -209.5zM354 1274q0 35 28.5 63.5t61.5 28.5q27 0 47.5 -20.5t20.5 -49.5q0 -36 -29.5 -64t-62.5 -28q-28 0 -47 20.5t-19 49.5zM686 1274q0 35 28.5 63.5t61.5 28.5q29 0 48.5 -20.5t19.5 -49.5q0 -36 -28 -64t-62 -28 q-28 0 -48 20.5t-20 49.5z" />
<glyph unicode="&#xf7;" horiz-adv-x="944" d="M133 502l10 67h674l-10 -67h-674zM373 211q4 25 27 45t46 20q30 0 49 -24t15 -57q-4 -26 -28 -47t-46 -21q-32 0 -50 24t-13 60zM461 838q4 25 27.5 45t46.5 20q30 0 48.5 -24.5t14.5 -57.5q-4 -26 -28 -46.5t-46 -20.5q-32 0 -50 24t-13 60z" />
<glyph unicode="&#xf8;" horiz-adv-x="968" d="M61 395q0 111 42.5 228t110.5 209t161.5 151t187.5 59q136 0 223 -84l50 68l53 -35l-64 -84q66 -101 66 -266q0 -110 -39.5 -227.5t-103.5 -212t-155.5 -155t-186.5 -60.5q-131 0 -216 73l-28 -36l-53 34l38 49q-86 106 -86 289zM225 393q0 -93 15 -164l465 623 q-45 143 -166 143q-74 0 -135 -55.5t-99 -144t-59 -193t-21 -209.5zM262 156q50 -121 162 -121q72 0 132.5 59.5t97 151.5t57 196t20.5 201q0 78 -8 127z" />
<glyph unicode="&#xf9;" horiz-adv-x="1144" d="M70 840q-9 13 12 41q61 81 145 124.5t146 43.5q32 0 46 -17.5t12 -43t-5 -54.5l-102 -641q-23 -127 -9 -184.5t70 -57.5q68 0 139.5 70t135 193.5t117 303t85.5 388.5q6 43 74 43q23 0 45 -11.5t18 -33.5l-114 -822q-6 -32 -0.5 -49.5t26.5 -17.5q49 0 129 71 q16 14 20.5 16.5t14.5 -1.5q12 -16 -2 -33q-64 -91 -145 -136.5t-140 -45.5q-24 0 -38 9t-17.5 26t-2 34t6.5 41l84 500q-90 -306 -207.5 -458t-251.5 -152q-118 0 -165.5 62t-24.5 206l96 612q3 21 3.5 30.5t-1 20t-8 14t-18.5 3.5q-62 0 -135 -90q-22 -25 -39 -4z M440 1331.5q9 -26.5 35 -37.5l361 -145l12 25l-291 223q-32 23 -66.5 20t-46.5 -31q-13 -28 -4 -54.5z" />
<glyph unicode="&#xfa;" horiz-adv-x="1144" d="M70 840q-9 13 12 41q61 81 145 124.5t146 43.5q32 0 46 -17.5t12 -43t-5 -54.5l-102 -641q-23 -127 -9 -184.5t70 -57.5q68 0 139.5 70t135 193.5t117 303t85.5 388.5q6 43 74 43q23 0 45 -11.5t18 -33.5l-114 -822q-6 -32 -0.5 -49.5t26.5 -17.5q49 0 129 71 q16 14 20.5 16.5t14.5 -1.5q12 -16 -2 -33q-64 -91 -145 -136.5t-140 -45.5q-24 0 -38 9t-17.5 26t-2 34t6.5 41l84 500q-90 -306 -207.5 -458t-251.5 -152q-118 0 -165.5 62t-24.5 206l96 612q3 21 3.5 30.5t-1 20t-8 14t-18.5 3.5q-62 0 -135 -90q-22 -25 -39 -4z M465 1174l12 -23l352 145q60 22 60 70q0 22 -13 36.5t-38 14.5q-26 0 -74 -33z" />
<glyph unicode="&#xfb;" horiz-adv-x="1144" d="M70 840q-9 13 12 41q61 81 145 124.5t146 43.5q32 0 46 -17.5t12 -43t-5 -54.5l-102 -641q-23 -127 -9 -184.5t70 -57.5q68 0 139.5 70t135 193.5t117 303t85.5 388.5q6 43 74 43q23 0 45 -11.5t18 -33.5l-114 -822q-6 -32 -0.5 -49.5t26.5 -17.5q49 0 129 71 q16 14 20.5 16.5t14.5 -1.5q12 -16 -2 -33q-64 -91 -145 -136.5t-140 -45.5q-24 0 -38 9t-17.5 26t-2 34t6.5 41l84 500q-90 -306 -207.5 -458t-251.5 -152q-118 0 -165.5 62t-24.5 206l96 612q3 21 3.5 30.5t-1 20t-8 14t-18.5 3.5q-62 0 -135 -90q-22 -25 -39 -4z M387 1149q135 108 309 311q97 -171 228 -311h-37l-201 178l-258 -178h-41z" />
<glyph unicode="&#xfc;" horiz-adv-x="1144" d="M70 840q-9 13 12 41q61 81 145 124.5t146 43.5q32 0 46 -17.5t12 -43t-5 -54.5l-102 -641q-23 -127 -9 -184.5t70 -57.5q68 0 139.5 70t135 193.5t117 303t85.5 388.5q6 43 74 43q23 0 45 -11.5t18 -33.5l-114 -822q-6 -32 -0.5 -49.5t26.5 -17.5q49 0 129 71 q16 14 20.5 16.5t14.5 -1.5q12 -16 -2 -33q-64 -91 -145 -136.5t-140 -45.5q-24 0 -38 9t-17.5 26t-2 34t6.5 41l84 500q-90 -306 -207.5 -458t-251.5 -152q-118 0 -165.5 62t-24.5 206l96 612q3 21 3.5 30.5t-1 20t-8 14t-18.5 3.5q-62 0 -135 -90q-22 -25 -39 -4z M432 1274q0 35 28.5 63.5t61.5 28.5q27 0 47.5 -20.5t20.5 -49.5q0 -36 -29.5 -64t-62.5 -28q-28 0 -47 20.5t-19 49.5zM764 1274q0 35 28.5 63.5t61.5 28.5q29 0 48.5 -20.5t19.5 -49.5q0 -36 -28.5 -64t-62.5 -28q-28 0 -47.5 20.5t-19.5 49.5z" />
<glyph unicode="&#xfd;" horiz-adv-x="985" d="M61.5 851.5q-0.5 2.5 0 4t1 3.5t2.5 3.5t5 3.5q64 34 114 71t71.5 59.5t37.5 37.5t24 15q33 0 48.5 -22.5t37.5 -85.5q6 -17 9 -26l260 -757l6 10q105 220 161 393.5t56 261.5q0 16 -3 26t-10.5 13t-13 4t-16.5 -0.5t-16 -1.5q-45 0 -74 26t-29 62t26.5 65.5t78.5 29.5 q47 0 81.5 -42t34.5 -120q0 -148 -54 -317t-202 -484q-123 -264 -223 -396t-184 -132q-62 0 -95.5 26.5t-33.5 69.5q0 39 28 63.5t66 24.5q28 0 46 -15.5t33.5 -31t37.5 -15.5q59 0 211 299l-297 844q-11 33 -27.5 44.5t-40.5 11.5q-39 0 -129 -43q-19 -7 -24 6q0 1 -1.5 4 l-2 4t-1 3.5zM403 1174l299 210q48 33 74 33q25 0 38 -14.5t13 -36.5q0 -49 -59 -70l-352 -145z" />
<glyph unicode="&#xfe;" d="M-39 -408q0 14 6.5 24t16 18.5t21.5 39.5t20 82l198 1397q6 44 -20.5 63.5t-83.5 12.5l6 39q59 9 109.5 28.5t79.5 34.5t40 15q9 0 15 -1.5t12 -5.5t8 -13t0 -23l-57 -400q51 57 128.5 98t162.5 41q151 0 239 -107t88 -300q0 -101 -21.5 -197.5t-63.5 -179t-100 -145 t-136 -98t-166 -35.5q-158 0 -246 118l-45 -327q-4 -44 27 -64t94 -12l-6 -43q-65 -9 -127.5 -31.5t-103 -40.5t-60.5 -18q-35 0 -35 30zM244 279v2q-8 -49 15.5 -108t77 -103.5t118.5 -44.5q75 0 135 37.5t98.5 99t64.5 145t37 169.5t11 177q0 154 -47.5 247t-145.5 93 q-80 0 -157 -47t-129 -110zM281 760l2 8q0 -2 -1 -4.5t-1 -3.5z" />
<glyph unicode="&#xff;" horiz-adv-x="985" d="M61.5 851.5q-0.5 2.5 0 4t1 3.5t2.5 3.5t5 3.5q64 34 114 71t71.5 59.5t37.5 37.5t24 15q33 0 48.5 -22.5t37.5 -85.5q6 -17 9 -26l260 -757l6 10q105 220 161 393.5t56 261.5q0 16 -3 26t-10.5 13t-13 4t-16.5 -0.5t-16 -1.5q-45 0 -74 26t-29 62t26.5 65.5t78.5 29.5 q47 0 81.5 -42t34.5 -120q0 -148 -54 -317t-202 -484q-123 -264 -223 -396t-184 -132q-62 0 -95.5 26.5t-33.5 69.5q0 39 28 63.5t66 24.5q28 0 46 -15.5t33.5 -31t37.5 -15.5q59 0 211 299l-297 844q-11 33 -27.5 44.5t-40.5 11.5q-39 0 -129 -43q-19 -7 -24 6q0 1 -1.5 4 l-2 4t-1 3.5zM369 1274q0 35 28.5 63.5t61.5 28.5q27 0 47 -20.5t20 -49.5q0 -36 -29.5 -64t-62.5 -28q-28 0 -46.5 20.5t-18.5 49.5zM700 1274q0 35 29 63.5t62 28.5q29 0 48 -20t19 -50q0 -36 -28 -64t-62 -28q-28 0 -48 20.5t-20 49.5z" />
<glyph unicode="&#x152;" horiz-adv-x="1648" d="M82 647q18 135 73 255t137 209.5t192.5 141.5t232.5 52q62 0 134 -16t79 -17h690q17 0 21 -7t6 -32l-9 -207h-41l-10 45q-24 78 -69.5 113t-116.5 35h-260q-10 0 -15 -15l-36 -268q0 -6 4 -14h-7l-36 -252h264q19 0 35 4t27 8t23 16.5t17.5 18t15.5 25t12.5 25t12.5 30.5 q2 4 3.5 7.5t2.5 6.5l39 -4q-39 -186 -47 -328l-37 4q-4 38 -7.5 56.5t-14 39.5t-31.5 29t-55 8h-267l-38 -274l41 -2l-54 -84l-26 -190q-3 -11 8 -11h252q142 0 215 121l84 127l43 -2q-48 -107 -96 -301q-249 4 -740 0q-9 -2 -36.5 -8t-43 -8.5t-43.5 -5.5t-57 -3 q-165 0 -282.5 88t-166.5 241t-22 343zM239 405q15 -123 59.5 -206.5t112.5 -126.5t152 -43q61 0 119 22v2h4q73 34 143 107l134 944q-87 147 -273 147q-54 0 -103 -14t-104 -52t-99 -99t-81 -163t-57 -235q-22 -160 -7 -283z" />
<glyph unicode="&#x153;" horiz-adv-x="1474" d="M61 395q0 111 42.5 228t110.5 209t161.5 151t187.5 59q113 0 191.5 -57t111.5 -166q74 103 163.5 163t176.5 60q94 0 145.5 -52t51.5 -132q0 -65 -41 -129.5t-98.5 -112.5t-138.5 -96t-139.5 -75.5t-123.5 -53.5q-10 -79 7.5 -149t68.5 -118t127 -48q70 0 137.5 55.5 t122.5 142.5q11 17 31 17h12q10 0 12 -11.5t-6 -25.5q-170 -268 -379 -268q-210 0 -270 186q-67 -87 -149 -136.5t-170 -49.5q-153 0 -249 107.5t-96 301.5zM225 393q0 -176 51 -267t148 -91q72 0 133 61t98 150.5t58 199.5q0 7 4 23q14 103 14 174q0 352 -192 352 q-74 0 -135 -55.5t-99 -144t-59 -193t-21 -209.5zM870 444q101 37 177.5 85t119 92.5t69 93.5t34.5 84.5t8 70.5q0 20 -3.5 39t-12 40t-27 33.5t-43.5 12.5q-63 0 -134 -79.5t-123.5 -209t-64.5 -262.5z" />
<glyph unicode="&#x178;" horiz-adv-x="1167" d="M131 1229l6 43q210 -3 420 0l-4 -43q-72 -3 -100 -24t-17 -54l197 -524l321 524q26 43 2.5 59t-120.5 19l6 43q191 -3 379 0l-4 -43q-96 -3 -136.5 -22.5t-68.5 -67.5l-367 -578l-59 -444q-4 -37 22.5 -50t102.5 -18l-6 -49q-210 9 -420 0l4 43q79 9 111.5 25t35.5 53 l60 438l-220 596q-15 35 -46 53t-99 21zM473 1520q0 35 28.5 63.5t61.5 28.5q27 0 47.5 -20.5t20.5 -49.5q0 -36 -29.5 -64t-62.5 -28q-28 0 -47 20.5t-19 49.5zM805 1520q0 35 28.5 63.5t61.5 28.5q29 0 48.5 -20.5t19.5 -49.5q0 -36 -28.5 -64t-62.5 -28q-28 0 -47.5 20.5 t-19.5 49.5z" />
<glyph unicode="&#x2c6;" horiz-adv-x="776" d="M193 1149q135 108 309 311q98 -174 227 -311h-37l-200 178l-259 -178h-40z" />
<glyph unicode="&#x2dc;" horiz-adv-x="903" d="M201 1221q9 74 64 133t122 59q47 0 92 -22.5t74 -49t64.5 -49t64.5 -22.5q47 0 85.5 29t49.5 65l33 -4q-12 -86 -66.5 -138.5t-138.5 -52.5q-46 0 -91 22.5t-74 49.5t-62.5 49.5t-59.5 22.5q-44 0 -79.5 -32t-42.5 -67z" />
<glyph unicode="&#x2000;" horiz-adv-x="917" />
<glyph unicode="&#x2001;" horiz-adv-x="1835" />
<glyph unicode="&#x2002;" horiz-adv-x="917" />
<glyph unicode="&#x2003;" horiz-adv-x="1835" />
<glyph unicode="&#x2004;" horiz-adv-x="611" />
<glyph unicode="&#x2005;" horiz-adv-x="458" />
<glyph unicode="&#x2006;" horiz-adv-x="305" />
<glyph unicode="&#x2007;" horiz-adv-x="305" />
<glyph unicode="&#x2008;" horiz-adv-x="229" />
<glyph unicode="&#x2009;" horiz-adv-x="367" />
<glyph unicode="&#x200a;" horiz-adv-x="101" />
<glyph unicode="&#x2010;" horiz-adv-x="696" d="M72 473v80h553v-80h-553z" />
<glyph unicode="&#x2011;" horiz-adv-x="696" d="M72 473v80h553v-80h-553z" />
<glyph unicode="&#x2012;" horiz-adv-x="696" d="M72 473v80h553v-80h-553z" />
<glyph unicode="&#x2013;" horiz-adv-x="1366" d="M61 473v80h1192v-80h-1192z" />
<glyph unicode="&#x2014;" horiz-adv-x="1820" d="M51 473v80h1678v-80h-1678z" />
<glyph unicode="&#x2018;" horiz-adv-x="307" d="M125 1022q0 65 40.5 142.5t98.5 121.5q15 15 23 0l12 -18q-65 -61 -80 -150q-1 -4 -2 -10.5t-2 -9.5q20 4 33 4q22 0 42.5 -18.5t24.5 -47.5q6 -55 -27.5 -92t-78.5 -37q-40 0 -62 32.5t-22 82.5z" />
<glyph unicode="&#x2019;" horiz-adv-x="294" d="M145 1157q-7 55 26.5 92t80.5 37q40 0 61 -32.5t21 -82.5q0 -65 -40 -142.5t-97 -121.5q-1 -1 -4.5 -3t-5.5 -2.5t-4.5 -1t-4.5 1.5t-4 5l-14 19q68 64 82 149q1 4 2 11t2 10q-20 -4 -35 -4q-22 0 -42.5 18t-23.5 47z" />
<glyph unicode="&#x201a;" horiz-adv-x="315" d="M-10 51q-7 55 26 92t80 37q40 0 61 -32t21 -82q0 -65 -40 -143t-97 -122q-17 -13 -23 0l-14 19q68 64 82 149q1 4 2 11t2 10q-20 -4 -35 -4q-22 0 -42 18t-23 47z" />
<glyph unicode="&#x201c;" horiz-adv-x="593" d="M125 1022q0 65 40 142.5t97 121.5q17 13 23 0l14 -18q-67 -64 -82 -150q-2 -8 -2 -20q20 4 33 4q22 0 42 -18.5t23 -47.5q7 -55 -26 -92t-80 -37q-40 0 -61 32.5t-21 82.5zM412 1022q0 65 40 142.5t97 121.5q16 12 22 0l15 -18q-67 -64 -82 -150q-2 -8 -2 -20q20 4 33 4 q22 0 42 -18.5t23 -47.5q7 -55 -26 -92t-80 -37q-40 0 -61 32.5t-21 82.5z" />
<glyph unicode="&#x201d;" horiz-adv-x="458" d="M145 1157q-7 55 26.5 92t80.5 37q40 0 61 -32.5t21 -82.5q0 -65 -40 -142.5t-97 -121.5q-1 -1 -4.5 -3t-5.5 -2.5t-4.5 -1t-4.5 1.5t-4 5l-14 19q68 64 82 149q1 4 2 11t2 10q-20 -4 -35 -4q-22 0 -42.5 18t-23.5 47zM430 1157q-6 55 28 92t79 37q40 0 62 -32.5t22 -82.5 q0 -65 -41 -142.5t-99 -121.5q-17 -11 -22 0l-13 19q65 62 80 149q1 4 2 11t2 10q-20 -4 -32 -4q-22 0 -43 18t-25 47z" />
<glyph unicode="&#x201e;" horiz-adv-x="612" d="M-10 51q-7 55 26 92t80 37q40 0 61 -32t21 -82q0 -65 -40 -143t-97 -122q-17 -13 -23 0l-14 19q68 64 82 149q1 4 2 11t2 10q-20 -4 -35 -4q-22 0 -42 18t-23 47zM285 51q-6 55 28 92t80 37q40 0 61 -32t21 -82q0 -65 -40 -143t-97 -122q-18 -14 -25 0l-12 19 q68 64 82 149q2 8 2 21q-20 -4 -33 -4q-22 0 -42.5 18t-24.5 47z" />
<glyph unicode="&#x2022;" horiz-adv-x="466" d="M113 584q0 60 48 108.5t105 48.5q49 0 81 -35t32 -83q0 -62 -47 -111t-105 -49q-49 0 -81.5 35t-32.5 86z" />
<glyph unicode="&#x2026;" horiz-adv-x="1083" d="M-10 66q0 47 32.5 81.5t75.5 34.5q36 0 58 -25t22 -61q0 -46 -32.5 -81t-73.5 -35q-36 0 -59 24t-23 62zM319 66q0 47 33 81.5t76 34.5q36 0 58 -25t22 -61q0 -46 -34 -81t-75 -35q-34 0 -57 24t-23 62zM649 66q0 47 32.5 81.5t74.5 34.5q36 0 59 -25t23 -61 q0 -46 -34 -81t-75 -35q-34 0 -57 24t-23 62z" />
<glyph unicode="&#x202f;" horiz-adv-x="367" />
<glyph unicode="&#x2039;" horiz-adv-x="415" d="M66 469q179 128 331 287l-6 -43l-201 -246l134 -242l-7 -43q-106 156 -251 287z" />
<glyph unicode="&#x203a;" horiz-adv-x="413" d="M23 182l8 43l198 242l-131 246l8 43q105 -158 250 -287q-176 -125 -333 -287z" />
<glyph unicode="&#x205f;" horiz-adv-x="458" />
<glyph unicode="&#x20ac;" horiz-adv-x="1449" d="M78 483l14 72h166q0 30 8 92l8 51h-161l14 72h164q65 234 230 384.5t380 150.5q68 0 142.5 -18.5t127.5 -18.5h46q2 -16 10.5 -81.5t12.5 -92t14.5 -77t23.5 -95.5l-61 4q-39 163 -121.5 244t-221.5 81q-50 0 -96.5 -12t-98 -45t-94 -85t-80.5 -139t-61 -200h523l-15 -72 h-520q-2 -4 -2 -10q-9 -72 -12 -133h514l-14 -72h-500q6 -216 97 -335t233 -119q114 0 205.5 75t199.5 242l78 -6q-114 -173 -172 -332q-12 4 -27 4q-58 0 -141 -18.5t-154 -18.5q-212 0 -341 140t-138 368h-180z" />
<glyph unicode="&#x2122;" horiz-adv-x="1239" d="M139 1147l21 98q2 10 12 18.5t21 8.5h382q10 0 18.5 -9t6.5 -18l-8 -98h-41l-12 33q-5 16 -23 16h-86l-45 -317q-1 -10 14.5 -15.5t32.5 -5.5l-6 -51h-215l8 51q48 0 51 21l43 317h-84q-18 0 -26 -16l-21 -33h-43zM596 807l6 47q29 8 37.5 13.5t9.5 19.5l43 297 q1 18 -5.5 24.5t-31.5 12.5l7 51h147l135 -283l213 283h129l-8 -49q-22 -8 -28 -14t-9 -25l-43 -297q-1 -16 4.5 -20.5t32.5 -12.5l-6 -47h-191l9 47q27 8 35.5 13.5t11.5 19.5l30 225l-184 -256q-14 -23 -31 -23t-24 23l-129 258l-33 -227q-1 -14 6 -19.5t33 -13.5l-8 -47 h-158z" />
<glyph unicode="&#x25fc;" horiz-adv-x="1044" d="M0 0v1044h1044v-1044h-1044z" />
</font>
</defs>
</svg>
