<?xml version="1.0" standalone="no"?>
<!DOCTYPE svg PUBLIC "-//W3C//DTD SVG 1.1//EN" "http://www.w3.org/Graphics/SVG/1.1/DTD/svg11.dtd" >
<svg xmlns="http://www.w3.org/2000/svg" xmlns:xlink="http://www.w3.org/1999/xlink" version="1.1">
<metadata></metadata>
<defs>
<font id="argent_cfthin" horiz-adv-x="1236" >
<font-face units-per-em="2048" ascent="1638" descent="-410" />
<missing-glyph horiz-adv-x="450" />
<glyph unicode="&#xfb01;" horiz-adv-x="1089" d="M31 0v39q56 7 86 24t30 52v862h-98q-5 0 -9.5 4t-4.5 8v25q0 4 4.5 8t9.5 4h98q4 191 98 290t247 99q138 0 214 -42.5t76 -106.5q0 -76 -67 -76q-40 0 -60.5 18t-27.5 44t-16 52t-38 44t-81 18q-201 0 -201 -340h213q5 0 9.5 -4t4.5 -8v-25q0 -4 -4.5 -8t-9.5 -4h-213 v-862q0 -61 117 -76v-39q-188 9 -377 0zM670 952v39q60 7 110 20.5t77 23t38 9.5q49 0 49 -38q0 -11 -6 -88t-6 -150v-653q0 -61 117 -76v-39q-189 9 -377 0v39q56 7 86 24t30 52v755q0 46 -27.5 65t-90.5 17z" />
<glyph unicode="&#xfb02;" horiz-adv-x="985" d="M31 0v39q56 7 86 24t30 52v862h-92q-5 0 -9.5 4t-4.5 8v25q0 4 4.5 8t9.5 4h92q4 195 97.5 292t244.5 97q76 0 135 -17t106 -56t72 -109t25 -168v-932q0 -50 28 -67.5t89 -8.5v-37q-17 -4 -47.5 -11t-41 -9.5t-31 -7.5t-28.5 -6t-22 -3.5t-21.5 -3.5t-17.5 -1.5t-20 -0.5 q-13 0 -22 9.5t-9 27.5v1071q0 46 -3 81t-15 74.5t-32 65.5t-57 43t-88 17q-198 0 -198 -340h239q5 0 10 -4t5 -8v-25q0 -4 -5 -8t-10 -4h-239v-862q0 -61 117 -76v-39q-188 9 -377 0z" />
<glyph horiz-adv-x="0" />
<glyph horiz-adv-x="682" />
<glyph unicode=" "  horiz-adv-x="450" />
<glyph unicode="&#x09;" horiz-adv-x="450" />
<glyph unicode="&#xa0;" horiz-adv-x="450" />
<glyph unicode="!" horiz-adv-x="417" d="M102 78q0 40 29.5 69t69.5 29q38 0 67 -29t29 -69t-29 -69t-67 -29q-40 0 -69.5 29t-29.5 69zM113 1180q0 125 96 125t96 -125q0 -123 -38.5 -355.5t-41.5 -380.5h-32q-3 148 -41.5 380.5t-38.5 355.5z" />
<glyph unicode="&#x22;" horiz-adv-x="518" d="M72 1243l49 -393q0 -14 10 -14q14 0 14 14l48 393q1 24 -18 43t-44 19q-22 0 -40.5 -19t-18.5 -43zM311 1243l47 -393q0 -14 11 -14q5 0 8.5 3t5.5 7l2 4l47 393q0 25 -19 43.5t-44 18.5q-22 0 -40.5 -19t-17.5 -43z" />
<glyph unicode="#" horiz-adv-x="1198" d="M70 426q3 31 32 31h215l113 438h-246q-25 0 -28 31l-2 -2q3 30 32 30h260l109 422h63l-106 -422h301l109 422h63l-106 -422h227q32 0 29 -30l2 2q1 -15 -8 -23t-25 -8h-240l-110 -438h268q32 0 29 -31l2 4q-3 -31 -33 -31h-281l-114 -460h-74l119 460h-299l-115 -460h-74 l119 460h-201q-31 0 -28 31zM387 457h297l115 438h-301z" />
<glyph unicode="$" horiz-adv-x="931" d="M51 276h41q11 0 25 -26q37 -96 132.5 -160.5t239.5 -64.5q112 0 180 70t68 186q0 31 -6.5 59t-22.5 52t-31 42.5t-43.5 38.5t-46.5 32t-54.5 29.5t-54 25t-56.5 24.5q-83 35 -143.5 70.5t-113 82.5t-79.5 107.5t-27 132.5q0 138 98.5 233t276.5 95h6v106h52v-108 q65 -5 122.5 -24t71.5 -19q13 0 19 0.5t13.5 7t12.5 20.5h39l12 -256l-24 2q-21 3 -31 25q-34 81 -121.5 139.5t-181.5 58.5q-111 0 -175.5 -66t-64.5 -163q0 -54 16.5 -95t53.5 -74.5t81 -58t114 -55.5q16 -7 55 -24t59 -26t57 -27.5t58.5 -31.5t52.5 -34t49.5 -40 t40 -44.5t33 -51.5t19.5 -58.5t8 -67.5q0 -105 -56 -190.5t-141.5 -130t-179.5 -44.5h-12v-100h-52v102q-62 6 -119.5 24.5t-95.5 34t-57 15.5t-34 -12.5t-21 -34.5h-45z" />
<glyph unicode="%" horiz-adv-x="1251" d="M92 1024q0 117 60.5 199t160.5 82q101 0 162.5 -82t61.5 -199t-61.5 -200t-162.5 -83q-99 0 -160 83t-61 200zM199 -10l819 1313h72l-824 -1313h-67zM207 1024q0 -244 106 -244q111 0 111 244q0 242 -111 242q-106 0 -106 -242zM715 260q0 116 61.5 198.5t159.5 82.5 q101 0 162 -82t61 -199t-61 -200t-162 -83q-98 0 -159.5 83t-61.5 200zM829 260q0 -244 107 -244q111 0 111 244q0 242 -111 242q-107 0 -107 -242z" />
<glyph unicode="&#x26;" horiz-adv-x="1390" d="M41 395q0 110 52 190.5t134 116t176 25.5q-114 37 -177.5 114t-63.5 177q0 118 95.5 202.5t272.5 84.5q154 0 241 -82.5t87 -190.5q0 -92 -41 -146.5t-100 -54.5q-33 0 -55.5 15t-22.5 43q0 19 8.5 32.5t21 25.5t25 28.5t21 49t8.5 79.5q0 82 -56.5 123t-140.5 41 q-99 0 -154 -71t-55 -189q0 -103 68 -187.5t170 -107.5l-8 -37l-12 2q-134 21 -232 -66t-98 -237q0 -160 109.5 -262.5t283.5 -102.5q170 0 286.5 104.5t116.5 268.5q0 80 -43.5 141.5t-111.5 61.5q-49 0 -80 -28t-30.5 -65t28.5 -73h-33q-49 29 -49 78q0 40 30.5 74 t94.5 79l237 162q41 28 63.5 46.5t48 47.5t37 63.5t11.5 78.5q0 90 -63 135.5t-162 23.5q-9 -2 -15 -1t-9 3t-3 4q-2 11 2 16t17 11q76 33 139 33q54 0 107.5 -25t93 -81.5t39.5 -131.5q0 -53 -30 -103.5t-75.5 -89.5t-106.5 -76t-115.5 -63.5t-109.5 -51.5q-8 -3 -12.5 -5 t-10.5 -5t-11 -5q119 -13 199.5 -93.5t82.5 -181.5q2 -117 -75.5 -208t-205.5 -138t-282 -47q-105 0 -202.5 27t-177.5 78t-128.5 134t-48.5 187z" />
<glyph unicode="'" horiz-adv-x="266" d="M72 1243l49 -393q0 -14 10 -14q14 0 14 14l48 393q1 24 -18 43t-44 19q-22 0 -40.5 -19t-18.5 -43z" />
<glyph unicode="(" horiz-adv-x="585" d="M82 606q0 270 111 515.5t280 416.5q17 14 39 14h2q20 0 27.5 -8t-2.5 -18q-95 -96 -166 -254t-105.5 -330t-34.5 -336q0 -249 79.5 -507t215.5 -402q15 -15 12 -26t-22 -11h-6q-22 0 -39 14q-169 171 -280 416.5t-111 515.5z" />
<glyph unicode=")" horiz-adv-x="585" d="M44.5 1544q7.5 8 27.5 8h2q22 0 39 -14q169 -171 280 -416.5t111 -515.5t-111 -515.5t-280 -416.5q-17 -14 -39 -14h-6q-19 0 -22.5 11t11.5 26q136 144 215.5 402t79.5 507q0 164 -34.5 336t-105 330t-165.5 254q-10 10 -2.5 18z" />
<glyph unicode="*" horiz-adv-x="649" d="M49 821q44 -56 111 -28l110 137q13 15 2.5 29.5t-30.5 9.5l-166 -35q-55 -44 -27 -113zM49 1149q-29 -69 27 -111l164 -37q22 -5 33.5 9.5t-1.5 29.5l-112 138q-66 28 -111 -29zM242 750q9 -71 82 -80q73 9 82 80l-62 159q-7 20 -20.5 20t-20.5 -20zM242 1225l61 -160 q5 -13 12.5 -18t14.5 0t12 18l64 160q-9 71 -82 80q-73 -9 -82 -80zM376 1010.5q12 -14.5 34 -9.5l163 37q55 43 27 111q-47 56 -111 29l-112 -138q-13 -15 -1 -29.5zM377 959.5q-11 -14.5 2 -29.5l110 -137q65 -27 111 28q27 68 -27 113l-165 35q-20 5 -31 -9.5z" />
<glyph unicode="+" horiz-adv-x="1003" d="M143 500v63h326v326h66v-326h325v-63h-325v-328h-66v328h-326z" />
<glyph unicode="," horiz-adv-x="425" d="M113 76q0 46 26.5 72t67.5 26q49 0 77.5 -39t28.5 -94q0 -62 -29 -127t-81 -111q-16 -11 -27 0l-12 21q25 25 45 67.5t20 81.5q0 15 -4 21q-20 -4 -30 -4q-31 0 -56.5 24t-25.5 62z" />
<glyph unicode="-" horiz-adv-x="696" d="M72 477v72h553v-72h-553z" />
<glyph unicode="." horiz-adv-x="378" d="M92 78q0 40 29 69t67 29q40 0 69.5 -29t29.5 -69t-29.5 -69t-69.5 -29q-38 0 -67 29t-29 69z" />
<glyph unicode="/" horiz-adv-x="806" d="M92 -164l547 1641h76l-547 -1641h-76z" />
<glyph unicode="0" horiz-adv-x="1105" d="M72 641q0 97 16 188.5t53.5 178.5t91.5 152t136.5 104t183.5 39t183.5 -39t136.5 -104t91.5 -152t53.5 -178.5t16 -188.5q0 -98 -16 -191t-53.5 -181.5t-91.5 -154t-136.5 -105.5t-183.5 -40t-183.5 40t-136.5 106t-91.5 154.5t-53.5 181.5t-16 190zM231 641 q0 -335 74.5 -479t247.5 -144t247 144t74 479q0 333 -74 473.5t-247 140.5q-174 0 -248 -141t-74 -473z" />
<glyph unicode="1" horiz-adv-x="589" d="M92 1153v47q64 8 111 24t66.5 29.5t39.5 24t39 10.5t32 -10.5t13 -32.5q0 -15 -6 -85.5t-6 -147.5v-897q0 -61 117 -76v-39q-187 9 -377 0v39q56 7 86.5 24t30.5 52v983q0 46 -28.5 55.5t-117.5 -0.5z" />
<glyph unicode="2" horiz-adv-x="1005" d="M61 41q194 180 292 286q358 388 358 666q0 120 -59 192t-169 72q-107 0 -170 -67t-63 -176q0 -50 14.5 -87t14.5 -61q0 -34 -27 -52.5t-59 -18.5q-38 0 -72.5 33.5t-34.5 111.5q0 71 24.5 135.5t72 116.5t125 82.5t175.5 30.5q106 0 184 -29t122 -80.5t64.5 -112 t20.5 -131.5q0 -61 -17.5 -121.5t-36.5 -107.5t-71.5 -112t-81 -99.5t-109 -108t-112.5 -101.5t-132 -112q-49 -42 -74 -63h452q72 0 109.5 13t56.5 53l62 129h34l-69 -275q-6 -23 -24 -35t-42 -12h-756z" />
<glyph unicode="3" horiz-adv-x="1054" d="M86 270q-6 54 16 86.5t68 32.5q43 0 64 -37.5t38 -109.5q11 -48 27 -83.5t42.5 -68t69.5 -50t101 -17.5q130 0 218.5 98t88.5 252q0 71 -23 129t-59 92.5t-76.5 53t-78.5 18.5q-44 0 -75.5 -8t-92.5 -37l-29 63l86 35q253 96 250 303q0 105 -59 170t-148 65 q-104 0 -159.5 -62.5t-55.5 -170.5q0 -44 10 -76.5t10 -56.5q0 -35 -21.5 -52.5t-53.5 -17.5q-41 0 -76 38.5t-35 109.5q0 151 102.5 243.5t278.5 92.5q160 0 258 -86.5t98 -198.5q0 -93 -62 -169.5t-200 -123.5q81 18 153 -4t119.5 -70.5t75 -113.5t27.5 -133 q0 -173 -140.5 -302t-330.5 -129q-93 0 -174 29.5t-132.5 74.5t-83 95t-36.5 96z" />
<glyph unicode="4" horiz-adv-x="1005" d="M72 453l641 852h32v-848h27q73 0 105 53l22 39h35l-37 -113q-12 -47 -70 -47h-82v-274q0 -37 31 -52t115 -24v-39q-218 9 -436 0v39q83 9 114 24t31 52v274h-514zM129 457h471v622z" />
<glyph unicode="5" horiz-adv-x="1036" d="M72 270q-5 54 16.5 86.5t67.5 32.5q18 0 33 -8.5t24.5 -20t18.5 -34t13.5 -38.5t12.5 -46q13 -47 30.5 -83t45.5 -68.5t71.5 -50t100.5 -17.5q130 0 212.5 97.5t82.5 258.5q0 184 -103.5 305t-248.5 121q-28 0 -54 -3.5t-45.5 -7.5t-40.5 -13.5t-33 -15t-31 -19 t-25.5 -18.5t-24 -20t-21.5 -18h-45l51 582h471q69 0 105 11t55 46h66l-35 -137q-6 -23 -24 -35t-42 -12h-563l-37 -416q57 65 151 101t195 36q110 0 197 -40t139.5 -106.5t79.5 -145.5t27 -164q0 -87 -36.5 -167.5t-98.5 -139t-147.5 -93.5t-178.5 -35q-95 0 -176.5 29 t-134 74t-84 95t-37.5 97z" />
<glyph unicode="6" horiz-adv-x="1032" d="M72 604q0 78 12.5 157t37.5 158.5t67.5 148t98 121.5t133.5 83.5t169 30.5q115 0 241 -76l-36 -58q-52 42 -104 66.5t-122 24.5q-75 0 -135 -38.5t-97 -99t-62.5 -142t-36 -160.5t-11.5 -161q14 17 39 38.5t67 49t102.5 46t125.5 18.5q166 0 283 -110.5t117 -284.5 q0 -75 -28.5 -151.5t-80 -140.5t-133.5 -104t-180 -40q-124 0 -216.5 51.5t-146 141t-79 197.5t-25.5 234zM225 569q0 -261 90 -401.5t224 -140.5q131 0 198.5 111t67.5 284q0 88 -28.5 163t-91.5 126t-150 51q-119 0 -214.5 -66.5t-95.5 -126.5z" />
<glyph unicode="7" horiz-adv-x="944" d="M61 1057l62 233h16q81 -18 193 -18h561l-490 -1221q-15 -39 -33.5 -57.5t-45.5 -18.5q-31 0 -48.5 15t-17.5 41q0 14 16 50t93 191q206 419 426 873h-486q-4 0 -28 0.5t-33 0t-31.5 -3t-34.5 -8.5t-29 -15t-30 -25t-23 -37h-37z" />
<glyph unicode="8" horiz-adv-x="1075" d="M72 346q0 51 16.5 100.5t50 97t94 85t140.5 55.5q-62 21 -106.5 58.5t-67 81.5t-32 83.5t-9.5 77.5q0 36 8.5 74t34.5 83.5t66 80.5t110 58.5t160 23.5t160.5 -23.5t110 -58.5t65 -81t34 -83.5t8.5 -73.5q0 -40 -9.5 -79.5t-31.5 -83.5t-66 -81t-106 -57 q79 -18 139.5 -55.5t95 -85t51 -97t16.5 -100.5q0 -65 -26.5 -127.5t-80 -118t-147 -89.5t-213.5 -34q-96 0 -176 22.5t-132.5 60t-88.5 86t-52 99t-16 101.5zM233 346q0 -147 76.5 -233t227.5 -86t226 86t75 233q0 144 -75.5 230t-225.5 86t-227 -86.5t-77 -229.5zM307 985 q0 -57 11 -104t35.5 -88.5t71.5 -64.5t112 -23q53 0 93.5 16t66 42t41.5 63t22 75.5t6 83.5q0 44 -6 81.5t-22 73.5t-41.5 61t-66 40.5t-93.5 15.5q-65 0 -112 -22.5t-71.5 -62.5t-35.5 -86t-11 -101z" />
<glyph unicode="9" horiz-adv-x="1024" d="M66 868q0 76 28 152t79.5 140t133.5 104.5t180 40.5q100 0 179.5 -34.5t132 -92.5t88 -139t50.5 -170t15 -189q0 -95 -17 -189.5t-57 -187t-98 -163t-147 -114.5t-197 -44q-120 0 -241 75l34 58q110 -90 226 -90q93 0 162 56.5t106.5 149t55 191.5t18.5 203 q-12 -16 -37.5 -38t-67 -49t-102.5 -45t-127 -18q-107 0 -197 48t-145 138.5t-55 206.5zM221 862q0 -87 28.5 -162.5t91 -126.5t148.5 -51q81 0 155.5 34t115.5 78.5t41 80.5q0 260 -90.5 401t-223.5 141q-90 0 -151 -54.5t-88 -141t-27 -199.5z" />
<glyph unicode=":" horiz-adv-x="423" d="M96 78q0 40 29 69t68 29q40 0 69 -29t29 -69t-29 -69t-69 -29q-39 0 -68 29t-29 69zM96 772q0 40 29 69t68 29q40 0 69 -29t29 -69q0 -41 -29 -69.5t-69 -28.5q-39 0 -68 28.5t-29 69.5z" />
<glyph unicode=";" horiz-adv-x="419" d="M92 770q0 40 29 69t67 29q40 0 69.5 -29t29.5 -69q0 -41 -29.5 -69.5t-69.5 -28.5q-39 0 -67.5 28.5t-28.5 69.5zM113 76q0 46 26.5 72t67.5 26q49 0 77.5 -39t28.5 -94q0 -62 -29 -127t-81 -111q-16 -11 -27 0l-12 21q25 25 45 67.5t20 81.5q0 15 -4 21q-20 -4 -30 -4 q-31 0 -56.5 24t-25.5 62z" />
<glyph unicode="&#x3c;" horiz-adv-x="1036" d="M143 471v84q355 135 750 350v-51q-153 -92 -358.5 -186.5t-372.5 -153.5q169 -61 374 -156t357 -186v-51q-395 215 -750 350z" />
<glyph unicode="=" horiz-adv-x="1044" d="M143 319v66h717v-66h-717zM143 688v66h717v-66h-717z" />
<glyph unicode="&#x3e;" horiz-adv-x="1036" d="M143 121v51q153 92 357.5 187t373.5 155q-167 58 -372 153t-359 187v51q395 -215 750 -350v-84q-355 -135 -750 -350z" />
<glyph unicode="?" horiz-adv-x="983" d="M102 948q0 69 24.5 132t71 114t123 81t171.5 30q103 0 180.5 -29.5t121.5 -80t65.5 -111t21.5 -130.5q0 -59 -21 -113t-55 -96t-75 -82t-82.5 -80.5t-76.5 -82.5t-59 -96t-27 -113h-49q-10 59 6.5 117.5t48 105t70.5 102.5t74 108.5t58.5 124.5t23.5 148q0 116 -62 188 t-166 72q-102 0 -161.5 -67t-59.5 -176q0 -50 14.5 -87t14.5 -61q0 -34 -26.5 -52.5t-55.5 -18.5q-41 0 -77 35.5t-36 117.5zM350 78q0 40 28 69t68 29t69.5 -29t29.5 -69t-29.5 -69t-69.5 -29t-68 29t-28 69z" />
<glyph unicode="@" horiz-adv-x="1417" d="M72 514q0 139 50 264t134.5 215t201 142.5t244.5 52.5q129 0 247 -50t205.5 -137.5t139.5 -214.5t52 -272q0 -153 -90.5 -264t-198.5 -111q-16 0 -33 3.5t-45 16.5t-54 46.5t-42 83.5q-101 -162 -277 -162q-59 0 -106 16t-80 58t-33 106q0 49 22 88t76 76t155.5 65.5 t248.5 47.5v28q0 101 -11 138q-26 90 -133 90q-108 0 -149 -28t-41 -120q0 -27 -13.5 -37t-39.5 -10q-28 0 -47 14.5t-19 42.5q0 73 89.5 127t230.5 54q135 0 197.5 -61.5t62.5 -207.5v-335q0 -22 1.5 -35.5t8 -29.5t22 -24t39.5 -8q26 0 47 31t32.5 81t17.5 106.5t6 113.5 q0 130 -27.5 239.5t-84.5 197.5t-153 138t-223 50q-102 0 -184 -37t-135.5 -98t-89.5 -143t-51 -168.5t-15 -178.5q0 -95 19.5 -188t59 -175.5t95 -145t133.5 -99.5t168 -37v-39q-170 0 -314.5 89.5t-230 247t-85.5 347.5zM516 317q0 -57 32.5 -92t94.5 -35q42 0 83.5 17 t74.5 44.5t52.5 48.5t35.5 42v199q-103 -14 -174 -33t-109.5 -37.5t-59 -46t-25.5 -50t-5 -57.5z" />
<glyph unicode="A" horiz-adv-x="1294" d="M20 0v39q89 10 128.5 39.5t64.5 101.5l381 1102h82l428 -1141q1 -4 4.5 -15.5t5 -15t5.5 -13t7.5 -12.5t10.5 -10t15 -10t20 -8t26.5 -7.5t33.5 -5.5t42 -5v-39q-108 4 -217 4l-217 -4v39q32 3 54.5 7t37.5 8.5t22 12t10 13t0.5 17.5t-6 20t-11 25t-11.5 28l-94 258h-490 l-96 -283q-5 -14 -5 -26q0 -27 26 -43q37 -24 124 -37v-39q-97 5 -192 5t-189 -5zM369 475h454l-233 643z" />
<glyph unicode="B" horiz-adv-x="1155" d="M51 0v39q80 6 109.5 21t29.5 53v991q0 54 -29 87.5t-110 41.5v39q75 -4 151.5 -4t162 2t129.5 2q112 0 197.5 -19.5t134.5 -49t80 -71t41.5 -79t10.5 -78.5q0 -86 -52.5 -146t-188.5 -118q173 -17 280 -111.5t107 -234.5q0 -167 -135 -266t-379 -99h-539zM338 109 q0 -28 7 -39t31.5 -16t84.5 -5h112q369 0 369 303q0 129 -89.5 225.5t-225.5 96.5l-289 -47v-518zM338 670q182 24 280 60t138.5 92.5t40.5 152.5q0 48 -17 90.5t-51.5 78t-94.5 56.5t-138 21q-119 0 -158 -2v-549z" />
<glyph unicode="C" horiz-adv-x="1177" d="M72 639q0 182 69 332.5t203.5 242t310.5 91.5q66 0 147.5 -17.5t145.5 -17.5h41q51 -200 115 -344h-66q-66 166 -166 247.5t-260 81.5q-54 0 -103 -12.5t-101.5 -50.5t-90 -97.5t-62 -162.5t-24.5 -238q0 -158 35 -286t95.5 -210.5t140.5 -126.5t172 -44q122 0 211 74.5 t182 240.5h70q-89 -158 -133 -330h-31q-54 0 -141.5 -17.5t-169.5 -17.5q-107 0 -201.5 35.5t-165 98t-121.5 146t-76.5 181t-25.5 201.5z" />
<glyph unicode="D" horiz-adv-x="1222" d="M51 0v41q81 22 110 40t29 54v977q0 51 -29 82t-110 39v39q75 -4 141 -4t144.5 2t130.5 2q208 0 357 -67.5t233 -211.5t84 -356q0 -284 -166 -460.5t-422 -176.5q-58 0 -147 13.5t-113 13.5q-128 0 -242 -27zM338 168q0 -62 52 -86.5t149 -26.5h14q91 1 161 25 q76 26 127.5 75.5t84.5 123t47 160t14 192.5q0 96 -16.5 182t-54 163.5t-93 133t-139.5 86.5q-78 29 -174 29h-12q-97 0 -160 -4v-1053z" />
<glyph unicode="E" horiz-adv-x="1009" d="M51 4v51q83 10 111 23t28 49v1032q0 38 -29.5 53t-109.5 21v39h807q20 0 26 -6.5t9 -30.5l20 -205h-36l-21 43q-72 150 -217 150h-289q-12 0 -12 -13v-542h289q37 0 61 9.5t38.5 32.5t20.5 42t15 57h43q-8 -83 -7.5 -165t7.5 -163h-43q-8 36 -15 56t-21.5 41.5 t-38.5 30.5t-60 9h-289v-555q0 -12 12 -12h283q146 0 207 119l65 129h43q-29 -99 -57 -295h-840z" />
<glyph unicode="F" horiz-adv-x="968" d="M51 0v39q83 10 111 23t28 49v1048q0 38 -29.5 53t-109.5 21v39h811q20 0 26 -6.5t9 -30.5l21 -205h-39l-21 43q-69 150 -217 150h-291q-12 0 -12 -13v-542h289q37 0 61 9.5t38.5 32.5t20.5 42t15 57h43q-8 -83 -7.5 -165t7.5 -163h-43q-8 36 -15 56t-21.5 41.5 t-38.5 30.5t-60 9h-289v-507q0 -36 28 -49t111 -23v-39q-106 4 -213 4z" />
<glyph unicode="G" horiz-adv-x="1290" d="M72 639q0 136 40 257t113 212t183.5 144t242.5 53q71 0 152.5 -17.5t144.5 -17.5h41q51 -200 115 -344h-66q-66 169 -162.5 249t-261.5 80q-55 0 -104 -12.5t-102 -50t-90.5 -97.5t-62 -163t-24.5 -238q0 -158 35 -286t95.5 -210.5t140.5 -126.5t172 -44q71 0 119 6.5 t81 27t51 42.5t27 71t11 92t2 125q0 97 -5 115q-8 32 -47 42q-21 6 -65 9l-47 6v35q105 -3 196 -3q136 0 242 7v-39l-55 -10q-16 -3 -27.5 -7.5t-20.5 -14t-14.5 -18t-9.5 -25.5t-6 -29t-2.5 -37t-0.5 -40.5t0.5 -48t0.5 -52.5q0 -81 4 -183l41 -4q8 -3 8 -10v-41 q-31 6 -78 6q-48 0 -101.5 -18t-127 -36t-168.5 -18q-144 0 -262 54.5t-192.5 147t-115 211t-40.5 249.5z" />
<glyph unicode="H" horiz-adv-x="1265" d="M51 0v39q82 9 113 24t31 52v1042q0 37 -31 52t-113 24v39q108 -4 217 -4l217 4v-39q-82 -9 -112.5 -24t-30.5 -52v-498h582v498q0 37 -31 52t-113 24v39q108 -4 217 -4l217 4v-39q-82 -9 -112.5 -24t-30.5 -52v-1042q0 -37 30.5 -52t112.5 -24v-39q-108 4 -217 4l-217 -4 v39q82 9 113 24t31 52v497h-582v-497q0 -37 30.5 -52t112.5 -24v-39q-108 4 -217 4z" />
<glyph unicode="I" horiz-adv-x="536" d="M51 0v39q82 9 113 24t31 52v1042q0 37 -31 52t-113 24v39q108 -4 217 -4l217 4v-39q-82 -9 -112.5 -24t-30.5 -52v-1042q0 -37 30.5 -52t112.5 -24v-39q-108 4 -217 4z" />
<glyph unicode="J" horiz-adv-x="550" d="M-41 -315q62 0 112.5 31.5t79.5 80t44.5 101t15.5 100.5v1159q0 37 -31 52t-114 24v39q110 -4 218 -4t216 4v-39q-82 -9 -113 -24t-31 -52v-989q0 -121 -18 -212t-51 -150t-83.5 -95.5t-109.5 -51.5t-135 -15v41z" />
<glyph unicode="K" horiz-adv-x="1175" d="M41 0v39q82 9 112.5 24t30.5 52v1042q0 37 -30.5 52t-112.5 24v39q108 -4 217 -4l217 4v-39q-82 -9 -112.5 -24t-30.5 -52v-579l497 583q16 19 16 32q0 23 -46 32q-26 5 -92 8v39q94 -4 188 -4l188 4v-39q-8 0 -35.5 -1.5t-35.5 -2t-28 -4t-30.5 -8.5t-24.5 -14.5 t-26 -22.5l-422 -496l377 -485q66 -87 144 -135t122 -50l-49 -39q-137 0 -220 38t-159 143l-311 417l-53 -63v-395q0 -37 30.5 -52t112.5 -24v-39q-108 4 -217 4z" />
<glyph unicode="L" horiz-adv-x="995" d="M41 1233v39q108 -4 217 -4l217 4v-39q-82 -9 -112.5 -24t-30.5 -52v-1096q0 -12 12 -13h293q150 0 207 118l65 129h45q-32 -103 -59 -295q-213 4 -425.5 4t-424.5 -4v51q83 10 111 23t28 49v1034q0 37 -30.5 52t-112.5 24z" />
<glyph unicode="M" horiz-adv-x="1437" d="M31 0v39q101 11 133.5 25t32.5 51v1040q0 40 -32.5 54t-119.5 24v39q78 -4 156.5 -4t156.5 4l416 -1008l342 1008q71 -5 141.5 -5t141.5 5v-35q-76 -9 -105.5 -25t-29.5 -53v-1044q0 -37 30.5 -52t112.5 -24v-39q-108 4 -217 4l-217 -4v39q82 9 112.5 24t30.5 52v1015 l-383 -1130l-481 1135v-1020q0 -37 34.5 -51t133.5 -25v-39q-99 4 -196 4t-193 -4z" />
<glyph unicode="N" horiz-adv-x="1224" d="M31 0v39q108 11 142 25t34 51v1038q0 41 -32.5 55.5t-119.5 24.5v39q74 -4 149.5 -4t151.5 4l609 -967v852q0 37 -33.5 51t-136.5 25v39q98 -4 198 -4t201 4v-39q-104 -11 -139 -25t-35 -51v-1157h-37l-721 1135v-1020q0 -37 34.5 -51t133.5 -25v-39q-98 4 -197.5 4 t-201.5 -4z" />
<glyph unicode="O" d="M72 641q0 189 65 339t190.5 237.5t290.5 87.5t290.5 -87.5t191 -235.5t65.5 -331q0 -193 -63 -345t-185.5 -240.5t-285.5 -88.5q-122 0 -227.5 53t-177.5 143t-113 211.5t-41 256.5zM231 702q0 -146 32.5 -273t89 -216t135 -139.5t167.5 -50.5q52 0 100.5 17.5t96 60.5 t82.5 107.5t56.5 167t21.5 230.5q0 188 -55.5 337.5t-152.5 233t-218 83.5q-51 0 -98.5 -15.5t-95 -55.5t-82.5 -101.5t-57 -160.5t-22 -225z" />
<glyph unicode="P" horiz-adv-x="1034" d="M51 0v39q80 6 109.5 21t29.5 53v991q0 54 -29 87.5t-110 41.5v39q75 -4 160.5 -4t180.5 2t136 2q113 0 198.5 -20.5t135 -52.5t80 -77t41 -86.5t10.5 -89.5q0 -68 -30 -127.5t-96 -113.5t-184.5 -94t-281.5 -58l-63 -8v-432q0 -38 29.5 -53t109.5 -21v-39q-106 4 -213 4z M338 594l76 8q124 16 207.5 47t128.5 78.5t63 101t18 125.5q0 51 -18 97.5t-53.5 85t-95.5 61.5t-136 23q-155 0 -190 -2v-625z" />
<glyph unicode="Q" d="M72 639q0 135 39.5 256.5t110.5 212.5t175.5 144t227.5 53q253 0 404 -181t151 -469q0 -106 -13 -190t-44.5 -161t-83.5 -135.5t-132 -106t-188 -80.5q-259 -80 -316 -117q90 41 226 41q57 0 119 -18.5t107 -40t99.5 -40t98.5 -18.5q84 0 146.5 42.5t62.5 82.5h45 q0 -127 -69.5 -195.5t-193.5 -68.5q-55 0 -104 23t-87 55.5t-75.5 65.5t-85.5 56t-102 23q-100 0 -160.5 -36t-77.5 -79h-139q37 70 158 128t235 83q-149 0 -273 95.5t-192.5 248.5t-68.5 326zM231 694q0 -158 32 -287.5t87.5 -213.5t128 -129.5t154.5 -45.5q122 0 211.5 78 t133.5 207.5t46 294.5q0 142 -35 266t-93.5 209t-136 133.5t-161.5 48.5q-52 0 -99 -12.5t-98 -50.5t-87 -97.5t-59.5 -162.5t-23.5 -238z" />
<glyph unicode="R" horiz-adv-x="1110" d="M51 0v39q80 6 109.5 21t29.5 53v991q0 54 -29 87.5t-110 41.5v39q75 -4 160.5 -4t180.5 2t136 2q469 0 469 -332q0 -56 -22.5 -106.5t-71.5 -99t-137 -88.5t-209 -66l207 -299q78 -110 170 -182.5t145 -75.5l-28 -39q-86 0 -159.5 33.5t-130.5 87.5t-128 147l-225 303 q-11 0 -17 -2l-53 -8v-432q0 -38 29.5 -53t109.5 -21v-39q-106 4 -213 4zM338 590l65 10q128 23 214 56t133.5 78t66.5 96t19 120q0 54 -18.5 101.5t-54.5 86t-96.5 61t-138.5 22.5q-155 0 -190 -2v-629z" />
<glyph unicode="S" horiz-adv-x="931" d="M51 276h41q11 0 25 -26q37 -96 132.5 -160.5t239.5 -64.5q112 0 180 70t68 186q0 31 -6.5 59t-22.5 52t-31 42.5t-43.5 38.5t-46.5 32t-54.5 29.5t-54 25t-56.5 24.5q-83 35 -143.5 70.5t-113 82.5t-79.5 107.5t-27 132.5q0 138 98.5 233t276.5 95q70 0 122.5 -11.5 t83 -22.5t46.5 -11q13 0 19 0.5t13.5 7t12.5 20.5h39l12 -256l-24 2q-21 3 -31 25q-34 81 -121.5 139.5t-181.5 58.5q-111 0 -175.5 -66t-64.5 -163q0 -54 16.5 -95t53.5 -74.5t81 -58t114 -55.5q16 -7 55 -24t59 -26t57 -27.5t58.5 -31.5t52.5 -34t49.5 -40t40 -44.5 t33 -51.5t19.5 -58.5t8 -67.5q0 -105 -56 -190.5t-141.5 -130t-179.5 -44.5q-79 0 -151 19t-119 38t-66 19t-34 -12.5t-21 -34.5h-45z" />
<glyph unicode="T" horiz-adv-x="1009" d="M31 1018l75 276h23q28 -9 40.5 -12.5t41 -6.5t70.5 -3h522q43 0 72 3t40.5 6.5t40.5 12.5h23l-68 -276h-41q5 60 5 103v13q-1 46 -20.5 69.5t-63.5 23.5h-203v-1112q0 -37 30.5 -52t112.5 -24v-39q-108 4 -217 4l-217 -4v39q82 9 112.5 24t30.5 52v1112h-176 q-65 0 -96.5 -35.5t-99.5 -173.5h-37z" />
<glyph unicode="U" horiz-adv-x="1316" d="M31 1233v39q110 -4 220 -4l220 4v-39q-82 -9 -112.5 -24t-30.5 -52v-776q0 -153 79.5 -246.5t213.5 -93.5q66 0 128.5 24.5t109.5 64t81.5 83.5t54.5 88v856q0 37 -30.5 52t-112.5 24v39q108 -4 217 -4l217 4v-39q-82 -9 -112.5 -24t-30.5 -52v-1042q0 -37 30.5 -52 t112.5 -24v-39q-104 4 -185.5 4t-139.5 -4v39q34 29 34 76v112q-23 -45 -59 -86.5t-87.5 -79t-123 -59.5t-152.5 -22q-174 0 -286.5 113t-112.5 294v770q0 37 -30.5 52t-112.5 24z" />
<glyph unicode="V" horiz-adv-x="1288" d="M20 1233v39q106 -4 211 -4t209 4v-39q-79 -11 -102 -25.5t-10 -48.5l364 -956l334 956q12 35 -17.5 48.5t-117.5 25.5v39q93 -4 187 -4t190 4v-39q-90 -10 -132.5 -24.5t-54.5 -49.5l-413 -1177h-62l-438 1177q-14 36 -42.5 50.5t-105.5 23.5z" />
<glyph unicode="W" horiz-adv-x="1880" d="M20 1233v39q108 -4 213 -4t207 4v-39q-76 -11 -100 -25.5t-12 -48.5l329 -956l234 770h2l-64 186q-12 35 -36 49.5t-91 24.5v39q98 -4 202 -4t212 4v-39q-84 -11 -112 -25.5t-17 -48.5l332 -956l299 956q11 35 -23 48t-127 26v39q98 -4 196 -4l196 4v-39 q-91 -11 -133.5 -25t-53.5 -49l-379 -1177h-61l-313 909l-287 -909h-60l-405 1177q-12 36 -41.5 50.5t-106.5 23.5z" />
<glyph unicode="X" horiz-adv-x="1144" d="M51 1233v39q93 -4 186 -4t185 4v-39q-43 -7 -63 -33t-5 -51l246 -418l248 397q10 15 10 29q0 19 -18 37q-30 31 -92 39v39q82 -4 164 -4t163 4v-39q-109 -12 -190 -137l-256 -412l307 -518q40 -71 66.5 -95.5t89.5 -31.5v-39q-86 4 -175 4t-182 -4v39q45 6 68 24t10 41 l-266 449l-266 -428q-11 -18 -11 -32q0 -17 14 -27q26 -22 89 -27v-39q-88 4 -167.5 4t-152.5 -4v39q56 8 108 37.5t83 81.5l276 442l-291 492q-38 63 -77 98.5t-101 42.5z" />
<glyph unicode="Y" horiz-adv-x="1206" d="M31 1233v39q109 -2 217.5 -2t216.5 2v-39q-75 -3 -102 -22.5t-9 -51.5l289 -532l266 514q10 20 10 35q0 20 -16 32q-29 22 -133 25v39q102 -2 203 -2l203 2v-39q-101 -3 -143.5 -25.5t-67.5 -70.5l-297 -574v-448q0 -37 31.5 -51t113.5 -17v-47q-109 4 -218 4t-216 -4v39 q82 9 112.5 24t30.5 52v448l-329 596q-19 34 -55.5 52.5t-106.5 21.5z" />
<glyph unicode="Z" horiz-adv-x="1064" d="M41 0l774 1227h-524q-60 0 -87.5 -32.5t-97.5 -176.5h-34l75 276h23q26 -9 39.5 -12.5t42 -6.5t70.5 -3h688l-770 -1223h387q39 0 72 10t60 30.5t41 34t36 38.5l102 125h61q-72 -118 -116 -232l35 -4q18 0 18 -12v-39q-224 4 -447.5 4t-447.5 -4z" />
<glyph unicode="[" horiz-adv-x="505" d="M92 -328v1870l363 12q-3 -27 -43 -30l-197 -19v-1796l197 -18q18 -1 29.5 -10t13.5 -21zM455 -340v-2v2zM455 1554v2v-2z" />
<glyph unicode="\" horiz-adv-x="806" d="M96 1477h76l547 -1641h-76z" />
<glyph unicode="]" horiz-adv-x="505" d="M51 -340q2 12 13.5 21t29.5 10l197 18v1796l-197 19q-40 3 -43 30l363 -12v-1870zM51 -340v-2v2zM51 1554v2v-2z" />
<glyph unicode="^" horiz-adv-x="743" d="M41 932q-2 8 4 18l317 426q1 1 4 4.5t4 4t4 -1t7 -7.5l317 -426q6 -10 4.5 -18t-10.5 -8h-41q-2 0 -3.5 2.5t-4.5 7t-6 6.5l-264 293l-267 -293q-2 -2 -4.5 -6.5t-4 -7t-3.5 -2.5h-41q-10 0 -12 8z" />
<glyph unicode="_" horiz-adv-x="1222" d="M61 -41h1049v-47h-1049v47z" />
<glyph unicode="`" horiz-adv-x="612" d="M104.5 1331q7.5 -25 32.5 -37l363 -145l10 22l-293 222q-31 23 -63.5 20t-44.5 -31q-12 -26 -4.5 -51z" />
<glyph unicode="a" horiz-adv-x="948" d="M51 236q0 55 14 98t53 88.5t106 82.5t175.5 73t257.5 67l2 29v65q0 120 -6 158q-14 79 -68 96q-21 6 -48 6q-70 0 -119 -16.5t-73.5 -43t-39.5 -58t-22 -63.5t-14 -58.5t-23 -43t-43 -16.5q-35 0 -54.5 21t-19.5 53q0 110 118 190t285 80q62 0 106 -8t74 -28.5t47.5 -45 t27 -69.5t12 -88.5t2.5 -114.5v-526q0 -49 27 -64q20 -11 61 -11q14 0 29 1v-43q-74 -16 -140 -43t-90 -27q-31 0 -31 33l9 160q-45 -76 -129 -135.5t-191 -59.5q-51 0 -100 13.5t-94.5 42.5t-73 82t-27.5 123zM209 240q0 -91 48 -145t132 -54q50 0 96.5 21.5t80.5 55 t55.5 63t35.5 57.5v358q-100 -23 -177 -51.5t-124 -60.5t-78 -63t-45 -66t-19 -60t-5 -55z" />
<glyph unicode="b" horiz-adv-x="1056" d="M20 1235v39q76 10 147 41t83 31q33 0 33 -39v-408q46 60 122.5 101.5t159.5 41.5q190 0 305 -140.5t115 -389.5q0 -244 -122.5 -387t-305.5 -143q-62 0 -116 22t-95 44t-72 22q-60 0 -90 -70h-24q-21 0 -21 23v1136q-1 47 -29 65q-21 13 -61 13q-13 0 -29 -2zM283 236 q1 -23 21.5 -57.5t54.5 -70t87 -60.5t109 -25q143 0 211 107t68 345q0 105 -15.5 196t-47 165.5t-86.5 117.5t-128 43q-83 0 -153 -46t-121 -113v-602z" />
<glyph unicode="c" horiz-adv-x="884" d="M61 516q0 232 119 379t309 147q152 0 242 -76t92 -171q0 -27 -24 -53.5t-54 -26.5t-54 20.5t-23 48.5v9q0 87 -36 145q-38 62 -126 61q-131 0 -209 -120t-78 -336q0 -251 87 -383.5t212 -132.5q96 0 157.5 50.5t78.5 119.5q3 16 18 16h39q18 0 10 -25q-74 -208 -309 -208 q-203 0 -327 148.5t-124 387.5z" />
<glyph unicode="d" horiz-adv-x="1052" d="M51 530q0 234 123 373t299 139q98 0 163 -39t116 -102v246q0 48 -28 65q-21 13 -61 13q-14 0 -30 -2v51q57 8 107 26t79.5 32t44.5 14q31 0 31 -39v-1141q0 -49 27 -64q20 -11 61 -11q14 0 29 1v-45q-74 -16 -140 -43t-90 -27q-14 0 -22.5 11t-7.5 26l20 148 q-16 -63 -95.5 -121.5t-195.5 -58.5q-195 0 -312.5 148t-117.5 400zM203 541q0 -136 30.5 -249t101 -189t171.5 -76q105 0 173 73t73 154v590q-115 157 -269 157q-141 0 -210.5 -110t-69.5 -350z" />
<glyph unicode="e" horiz-adv-x="929" d="M61 522q0 240 118 380t308 140q78 0 145.5 -25.5t121 -75.5t84 -131t30.5 -185q0 -93 -77 -93h-566v-6q-1 -242 83 -370q84 -130 220 -129q87 0 146 36.5t102 122.5q4 11 13.5 19t17.5 8h22q6 0 11 -7t2 -18q-74 -208 -334 -208q-201 0 -324 151t-123 391zM225 573h502 q0 203 -58 314.5t-180 111.5q-125 0 -194.5 -114.5t-69.5 -311.5z" />
<glyph unicode="f" horiz-adv-x="649" d="M31 0v39q56 7 86 24t30 52v862h-92q-5 0 -9.5 4t-4.5 8v25q0 4 4.5 8t9.5 4h92q3 193 75 282t208 89q82 0 145.5 -48t63.5 -104q0 -42 -14 -62t-60 -20q-39 0 -56.5 20t-18 48.5t-0.5 56.5t-12 48t-44 20q-43 0 -73 -18.5t-43.5 -49.5t-21.5 -70q-6 -35 -6 -71v-10v-41 v-40q1 -20 1 -30h239q5 0 10 -4t5 -8v-25q0 -4 -5 -8t-10 -4h-239v-862q0 -61 117 -76v-39q-94 4 -188 4t-189 -4z" />
<glyph unicode="g" horiz-adv-x="1042" d="M61 240q0 68 61 108q48 32 120 32q21 0 45 -3q-84 48 -133.5 129.5t-49.5 177.5q0 71 22.5 134t66 113.5t116 80.5t164.5 30q192 0 301 -141q28 139 135 139q30 0 47.5 -4t24.5 -15.5t8.5 -21t1.5 -30.5q0 -35 -11 -47t-38 -9q-17 2 -35.5 5.5t-29.5 5.5t-19 2 q-35 0 -46 -21t1 -47q39 -86 39 -174q0 -95 -42.5 -177.5t-129 -136t-199.5 -53.5q-38 0 -109 14.5t-110 14.5q-49 0 -72.5 -19.5t-23.5 -47.5q0 -21 13.5 -36.5t43 -27t63 -19.5t87.5 -18l262 -39q163 -26 238 -86t75 -180q0 -142 -129 -229.5t-319 -87.5 q-203 0 -317.5 78.5t-114.5 220.5q0 68 25.5 110.5t80.5 42.5q70 0 70 -63q0 -20 -13.5 -62t-13.5 -88q0 -78 79 -138t206 -60q169 0 245 70.5t76 189.5q0 78 -45.5 108t-161.5 51l-299 47q-140 25 -198 68.5t-58 108.5zM254 680q0 -59 12.5 -113.5t38 -101.5t70.5 -75 t104 -28q60 0 105 28t70.5 75t38 101.5t12.5 113.5t-12.5 113.5t-38.5 101.5t-71 75.5t-104 28.5q-58 0 -103 -28.5t-70.5 -75.5t-38.5 -101.5t-13 -113.5z" />
<glyph unicode="h" horiz-adv-x="1048" d="M31 1235v39q57 8 107 26t79.5 32t44.5 14q31 0 31 -39v-371l-8 -98q14 23 42 53.5t71.5 67t105 61t125.5 24.5q68 0 116.5 -16.5t84.5 -55.5t53.5 -107.5t17.5 -168.5v-581q0 -61 117 -76v-39q-93 4 -186.5 4t-188.5 -4v39q56 9 86.5 25t30.5 51v585q0 283 -158 283 q-154 0 -304 -178q-4 -4 -5 -6v-684q0 -35 30.5 -51t86.5 -25v-39q-94 4 -188 4t-187 -4v39q54 7 84.5 24t30.5 52v1044q0 47 -28 65q-21 13 -62 13q-13 0 -29 -2z" />
<glyph unicode="i" horiz-adv-x="460" d="M41 952v39q60 7 110 20.5t77 23t38 9.5q49 0 49 -38q0 -11 -6 -88t-6 -150v-653q0 -61 117 -76v-39q-94 4 -188 4t-189 -4v39q56 7 86.5 24t30.5 52v755q0 46 -28 65q-25 17 -79 17h-12zM139 1329q0 31 24 54.5t56 23.5q31 0 56.5 -24t25.5 -54q0 -33 -25 -56.5 t-57 -23.5q-33 0 -56.5 23.5t-23.5 56.5z" />
<glyph unicode="j" horiz-adv-x="456" d="M-61 -397q77 1 133.5 49.5t82 117t25.5 144.5v956q0 46 -29 65q-26 17 -80 17h-12v39q61 7 111.5 20.5t78 23t38.5 9.5q47 0 47 -38q0 -11 -6 -88t-6 -150v-682q0 -121 -17.5 -212t-49 -150t-79.5 -95.5t-103.5 -51.5t-127.5 -15zM154 1329q0 31 24 54.5t55 23.5 t56.5 -24t25.5 -54q0 -31 -25.5 -55.5t-56.5 -24.5t-55 23.5t-24 56.5z" />
<glyph unicode="k" horiz-adv-x="980" d="M41 1235v39q76 10 146.5 41t82.5 31q33 0 33 -39v-752q128 108 208.5 189t164.5 186q11 14 11 25q0 27 -62 34v37q71 -4 142 -4l142 4v-37q-5 -1 -20 -2.5t-18.5 -2t-16 -2.5t-16.5 -3.5t-14.5 -4.5t-16 -6.5t-15 -9t-17 -12t-17 -15t-19.5 -18.5l-331 -331l327 -414 q50 -64 116.5 -107.5t109.5 -46.5l-50 -39q-212 0 -346 170l-262 340v-370q0 -35 30.5 -51t86.5 -25v-39q-76 4 -170 4t-207 -4v39q56 7 86.5 24t30.5 52v1044q0 47 -28 65q-21 13 -62 13q-13 0 -29 -2z" />
<glyph unicode="l" horiz-adv-x="440" d="M20 1235v39q76 10 147 41t83 31q33 0 33 -39v-1174q-1 -49 27 -67q18 -12 51 -12q17 0 38 3v-37q-18 -4 -47.5 -11t-41 -9.5t-31.5 -7.5t-28 -6t-21.5 -3.5t-21 -3.5t-17 -1.5t-19.5 -0.5q-33 0 -33 37v1145q-1 47 -29 65q-21 13 -61 13q-13 0 -29 -2z" />
<glyph unicode="m" horiz-adv-x="1593" d="M31 934v39q57 8 107 26t79.5 31.5t44.5 13.5q13 0 22.5 -9t8.5 -25l-19 -176q20 33 46 63.5t69 66.5t103 58t129 22q96 0 160 -53.5t77 -156.5q16 32 42.5 64t68 67t102 57t129.5 22q129 0 187.5 -70t58.5 -222v-637q0 -61 117 -76v-39q-94 4 -187.5 4t-187.5 -4v39 q58 11 86.5 26t28.5 50v630q0 115 -33 176.5t-109 61.5q-97 0 -181.5 -65t-111.5 -123v-680q0 -34 30 -49.5t89 -26.5v-39q-94 4 -188.5 4t-188.5 -4v39q60 11 88.5 26t28.5 50v630q0 116 -33.5 177t-111.5 61q-95 0 -178.5 -65t-110.5 -123v-680q0 -34 29.5 -49.5 t87.5 -26.5v-39q-94 4 -188 4t-187 -4v39q54 7 84.5 24t30.5 52v743q0 46 -28 64q-21 13 -62 14q-13 0 -29 -2z" />
<glyph unicode="n" horiz-adv-x="1048" d="M31 934v39q58 8 107.5 26t78 31.5t41.5 13.5q16 0 26 -9t9 -25l-19 -181q17 26 45.5 57t74.5 69.5t108.5 63.5t126.5 25q69 0 116.5 -16t84 -54.5t54 -107t17.5 -170.5v-581q0 -61 117 -76v-39q-93 4 -186.5 4t-188.5 -4v39q56 9 86.5 25t30.5 51v585q0 283 -158 283 q-57 0 -112 -22.5t-96.5 -58.5t-63 -58.5t-37.5 -44.5v-684q0 -35 30.5 -51t86.5 -25v-39q-94 4 -188 4t-187 -4v39q54 7 84.5 24t30.5 52v743q0 46 -28 64q-21 13 -62 14q-13 0 -29 -2z" />
<glyph unicode="o" horiz-adv-x="1001" d="M61 506q0 122 35.5 224t95.5 169.5t138.5 105t165.5 37.5q90 0 171 -37t141.5 -103.5t96 -165t35.5 -214.5q0 -122 -35.5 -225t-95 -171.5t-138 -107t-165.5 -38.5q-186 0 -315.5 147t-129.5 379zM221 547q0 -230 85 -375t226 -145q244 0 244 458q0 226 -85 370t-226 144 q-244 0 -244 -452z" />
<glyph unicode="p" horiz-adv-x="1064" d="M31 934v39q57 8 107 26t79.5 31.5t44.5 13.5q31 0 31 -38v-113q44 58 126 103.5t175 45.5q184 0 297 -141t113 -387q0 -124 -34.5 -226t-94 -168t-139 -102t-169.5 -36q-169 0 -274 114v-329q0 -49 31 -67q23 -13 72 -13q16 0 36 2v-43q-66 -7 -126 -28t-100.5 -38.5 t-64.5 -17.5q-37 0 -37 28q0 12 7 23t16 20.5t16 39.5t7 75v1110q0 47 -28 64q-22 14 -62 14q-13 0 -29 -2zM266 762v12q-3 -6 0 -12zM293 272q2 -36 23.5 -78.5t56.5 -80t86.5 -63t105.5 -25.5q149 0 218 104.5t69 353.5q0 108 -15.5 197.5t-47.5 162t-88 113.5t-130 41 q-86 0 -161.5 -50t-116.5 -113v-562z" />
<glyph unicode="q" horiz-adv-x="1075" d="M61 530q0 234 123 373t299 139q59 0 112.5 -22.5t95.5 -45t75 -22.5q61 0 94 74h25q20 0 20 -22v-1237q0 -49 31 -67q23 -13 72 -13q16 0 36 2v-43q-67 -7 -121.5 -28t-85 -38.5t-44.5 -17.5q-31 0 -31 39v532q-42 -65 -112 -108t-165 -43q-191 0 -307.5 148.5 t-116.5 399.5zM213 541q0 -100 18 -190.5t53.5 -163.5t94.5 -116.5t135 -43.5q172 0 248 188v559q2 23 -18 60.5t-54 75t-87 64.5t-109 27q-141 0 -211 -110t-70 -350z" />
<glyph unicode="r" horiz-adv-x="768" d="M29 0v39q57 7 89 24t32 52v741q0 46 -28 64q-21 13 -62 14q-14 0 -29 -2v39q58 8 106 26.5t76 32.5t41 14q16 0 26 -9t9 -25l-31 -193q61 110 133.5 170t183.5 60q75 0 118.5 -28.5t43.5 -68.5q0 -86 -73 -86q-26 0 -43.5 11t-27.5 27t-20.5 31.5t-31.5 26.5t-52 11 q-27 0 -53.5 -12.5t-45 -29.5t-38 -42.5t-29 -42.5t-21.5 -39.5t-13 -24.5v-665q0 -59 112 -76v-39q-92 8 -185 8t-187 -8z" />
<glyph unicode="s" horiz-adv-x="778" d="M55 268h13q15 0 21.5 -0.5t15.5 -5.5t10 -16q11 -56 66.5 -108.5t123 -81.5t121.5 -29q77 0 123.5 48.5t46.5 125.5q0 35 -12.5 65.5t-31 53t-54 47t-68.5 43.5t-87 48q-7 4 -11 6l-10 5t-11 6q-125 68 -187.5 144.5t-62.5 177.5q0 97 77 171t198 74q52 0 95.5 -14 t75 -28.5t54.5 -14.5q35 0 49 41h39l19 -246h-19q-5 0 -8.5 0.5t-6.5 2t-5 2t-4 3.5t-3 4t-3 5.5t-3 5.5q-44 81 -123.5 141t-150.5 60q-78 0 -119 -49t-41 -117q0 -75 46 -123t157 -109q11 -6 52.5 -27.5t59 -31t55 -32.5t56 -38.5t46 -41.5t40.5 -49t23 -53.5t10 -62.5 q0 -80 -44.5 -148t-111 -104t-135.5 -36q-70 0 -149.5 32.5t-112.5 32.5q-47 0 -59 -45h-37z" />
<glyph unicode="t" horiz-adv-x="585" d="M31 989v25q0 4 4.5 8t9.5 4q85 0 128 63.5t65 215.5h47v-279h235q5 0 10 -4t5 -8v-25q0 -4 -5 -8t-10 -4h-235v-789q0 -57 26 -95t84 -38q48 0 81.5 24.5t51.5 55.5v-61q-23 -30 -71.5 -54t-102.5 -24q-211 0 -211 231v750h-98q-5 0 -9.5 4t-4.5 8z" />
<glyph unicode="u" horiz-adv-x="1058" d="M31 969v45l219 20q41 3 41 -33v-682q0 -272 172 -272q35 0 69 11.5t59 25.5t52.5 40.5t41.5 41.5t34.5 45.5t23 35t15.5 25.5v621q0 45 -11.5 62t-41.5 16l-66 -2v45l219 20q26 1 34.5 -5.5t8.5 -27.5v-839q0 -48 27 -64q19 -11 58 -12q15 0 32 2v-41q-73 -16 -138.5 -43 t-91.5 -27q-13 0 -20.5 11t-5.5 26l16 215q-2 -3 -19 -26t-27 -37t-33 -40.5t-41.5 -43.5t-46 -39t-53.5 -35t-58.5 -22t-65.5 -9q-139 0 -211.5 80.5t-72.5 276.5v559q0 44 -13.5 62t-44.5 16z" />
<glyph unicode="v" horiz-adv-x="1048" d="M31 987v39h393v-41l-57 -8q-33 -4 -42.5 -33.5t3.5 -58.5l239 -639l228 631q4 11 4 21q-1 22 -19 43q-28 30 -71 36l-47 8v41h356v-39l-60 -10q-85 -19 -112 -100l-318 -885h-16l-334 893q-32 80 -86 92z" />
<glyph unicode="w" horiz-adv-x="1615" d="M31 987v39h399v-41l-63 -8q-41 -6 -41 -48q0 -19 8 -44l223 -641l215 608l-10 33q-28 86 -88 92l-53 8v41h378v-41l-55 -8q-31 -4 -37.5 -33.5t6.5 -58.5l224 -641l223 633q6 16 6 30q0 18 -10 34q-18 28 -78 36l-49 8v41h356v-39l-57 -10q-54 -15 -79 -37 q-27 -24 -40 -63l-315 -877h-11l-286 786l-281 -786h-12l-320 885q-29 79 -92 92z" />
<glyph unicode="x" horiz-adv-x="1077" d="M41 0v39l57 10l13 2q13 2 18 3t19.5 4.5t23 7.5t22.5 10t24 14t22.5 18.5t23 25t19.5 30.5l198 338l-233 387q-25 40 -53.5 61t-71.5 27l-60 10v39h400v-41l-51 -8q-22 -2 -30.5 -13.5t-5.5 -25t13 -27.5l168 -280l158 268q13 21 15 36t-7 23t-20.5 12t-30.5 7l-47 8v41 h358v-39l-55 -10q-25 -4 -38.5 -7.5t-44 -15t-56 -35t-46.5 -57.5l-161 -272l274 -453q25 -40 53 -61t70 -27l57 -10v-39q-99 4 -198.5 4t-200.5 -4v41l53 8q31 3 36.5 25t-9.5 41l-211 348l-199 -336q-13 -21 -15 -36t8 -23t23 -12t33 -7l41 -8v-41q-89 4 -178 4z" />
<glyph unicode="y" horiz-adv-x="1054" d="M31 987v39q111 -5 210.5 -5t186.5 5v-39l-70 -6q-9 0 -15.5 -0.5t-17 -3.5t-14 -8.5t-6.5 -15.5t4 -25l271 -711l247 711q6 18 -0.5 29.5t-16.5 15t-23.5 6t-14.5 2.5l-49 6v39q71 -4 146 -4t155 4v-39l-41 -6q-5 -2 -31.5 -5.5t-42.5 -13.5t-24 -34l-482 -1348 q-1 -1 -3 -6.5t-3 -7.5t-3.5 -5.5t-6 -5t-9.5 -3t-13 -1.5q-23 0 -32.5 8.5t-4.5 20.5l186 461q0 12 -60.5 162.5t-155 382t-138.5 342.5q-11 25 -23 37t-20.5 14t-24.5 2z" />
<glyph unicode="z" horiz-adv-x="868" d="M43 45l600 938l-356 2q-64 0 -93 -34.5t-99 -178.5l-3 -6h-29l76 283h23q29 -9 41.5 -12.5t43 -7t75.5 -3.5q292 0 505 4l-630 -991l387 -2h4q77 1 109 37q33 38 100 187l1.5 3l1.5 3t1.5 3.5t1.5 3.5h31l-66 -274h-702q-9 0 -19.5 15.5t-3.5 29.5z" />
<glyph unicode="{" horiz-adv-x="516" d="M92 590v31q82 37 106.5 58t24.5 66v377q0 77 9 134.5t33 115.5t73.5 103t124.5 75l2 -55q-133 -69 -133 -373v-422q0 -39 -114 -84q-4 -2 -6.5 -3t-6 -2.5t-6.5 -2.5v-6q88 -35 107 -50q26 -18 26 -42v-422q0 -304 133 -373l-2 -55q-75 30 -124.5 75t-73.5 103t-33 115.5 t-9 134.5v377q0 45 -25 67t-106 58z" />
<glyph unicode="|" horiz-adv-x="466" d="M184 -440v2078h99v-2078h-99z" />
<glyph unicode="}" horiz-adv-x="516" d="M51 -285q133 69 133 373v422q0 39 114 84q4 2 6.5 3t6 2.5t6.5 2.5v6q-88 35 -107 50q-25 19 -26 42v422q0 304 -133 373l2 55q75 -30 124.5 -75t73.5 -103t33 -115.5t9 -134.5v-377q0 -45 24.5 -66t106.5 -58v-31q-81 -36 -106 -58t-25 -67v-377q0 -77 -9 -134.5 t-33 -115.5t-73.5 -103t-124.5 -75z" />
<glyph unicode="~" horiz-adv-x="1032" d="M143 449h52q7 30 39 61t92 31q34 0 77.5 -21t80.5 -45.5t90 -45.5t102 -21q66 0 125.5 47t87.5 129h-51q-51 -80 -140 -80q-43 0 -86.5 17.5t-74.5 38.5t-77 38.5t-93 17.5q-76 0 -134 -43.5t-90 -123.5z" />
<glyph unicode="&#xa1;" horiz-adv-x="417" d="M102 952q0 40 29.5 69.5t69.5 29.5q38 0 67 -29.5t29 -69.5t-29 -69t-67 -29q-40 0 -69.5 29t-29.5 69zM113 -150q0 123 38.5 355.5t41.5 380.5h32q3 -148 41.5 -380.5t38.5 -355.5q0 -124 -96 -124t-96 124z" />
<glyph unicode="&#xa2;" horiz-adv-x="884" d="M61 516q0 232 119 379t309 147q36 0 52 -2l43 164h63l-45 -176q102 -25 160.5 -91.5t60.5 -141.5q0 -27 -24 -53.5t-54 -26.5t-54 20.5t-23 48.5q0 147 -78 193l-228 -887q69 -63 156 -63q96 0 157.5 50.5t78.5 119.5q3 16 18 16h39q18 0 10 -25q-74 -208 -309 -208 q-88 0 -170 32l-35 -137h-63l43 166q-107 65 -166.5 189t-59.5 286zM219 543q0 -257 94 -396l217 850q-4 0 -12 1t-12 1q-131 0 -209 -120t-78 -336z" />
<glyph unicode="&#xa3;" horiz-adv-x="1093" d="M61 152q0 59 44 102t120 43q94 0 178 -84q20 44 26.5 67.5t6.5 59.5q0 46 -21 94.5t-63 116.5h-243v45h215q-41 67 -63.5 110t-44 110t-21.5 128q0 58 13.5 109.5t44 98t76 80t114.5 53.5t155 20q97 0 173.5 -30t123 -81.5t70.5 -114.5t24 -133q0 -80 -34 -115.5 t-74 -35.5q-31 0 -58.5 19t-27.5 54q0 24 14 58.5t14 87.5q0 109 -60.5 176t-164.5 67q-113 0 -176.5 -74.5t-63.5 -201.5q0 -43 6 -84t19.5 -84t24 -71t31 -77t28.5 -69h231v-45h-213q37 -109 37 -189q0 -112 -63 -186q87 -51 190 -51q77 0 134.5 15.5t98 48.5t65.5 66 t54 85h41q-19 -83 -49.5 -145.5t-64.5 -98.5t-76.5 -58.5t-81 -30t-82.5 -7.5q-177 0 -285 94q-25 -41 -74.5 -67.5t-88.5 -26.5q-74 0 -126.5 41.5t-52.5 110.5zM143 141q0 -43 24.5 -73.5t74.5 -30.5q75 0 116 98q-14 12 -34.5 31t-28.5 25.5t-21 15.5t-24.5 11.5 t-26.5 2.5q-32 0 -56 -20.5t-24 -59.5z" />
<glyph unicode="&#xa4;" horiz-adv-x="1222" d="M178 70l115 112q-109 122 -109 285q0 160 105 281l-111 108l41 43l111 -111q118 105 278 105t283 -107l113 113l40 -43l-112 -111q104 -120 104 -278q0 -162 -108 -283l116 -114l-40 -41l-115 114q-120 -104 -281 -104q-153 0 -276 102l-113 -112zM262 467 q0 -148 101 -256.5t247 -108.5q145 0 249 109t104 256t-103.5 253.5t-249.5 106.5t-247 -106t-101 -254z" />
<glyph unicode="&#xa5;" horiz-adv-x="1206" d="M31 1233v39q218 -3 434 0v-39q-75 -3 -102 -22.5t-9 -51.5l289 -532l266 514q23 45 -6 67t-133 25v39q203 -3 406 0v-39q-101 -3 -143.5 -25.5t-67.5 -70.5l-267 -516h281v-64h-311v-104h311v-64h-311v-274q0 -37 31.5 -51t113.5 -17v-47q-219 9 -434 0v39q82 9 112.5 24 t30.5 52v274h-297v64h297v104h-297v64h264l-296 538q-19 34 -55.5 52.5t-106.5 21.5z" />
<glyph unicode="&#xa6;" horiz-adv-x="466" d="M184 274h99v-714h-99v714zM184 924v714h99v-714h-99z" />
<glyph unicode="&#xa8;" horiz-adv-x="708" d="M102 1284q0 31 22.5 54.5t53.5 23.5t54.5 -23.5t23.5 -54.5t-23.5 -53.5t-54.5 -22.5t-53.5 22.5t-22.5 53.5zM444 1284q0 31 22.5 54.5t53.5 23.5t54.5 -23.5t23.5 -54.5t-23.5 -53.5t-54.5 -22.5t-53.5 22.5t-22.5 53.5z" />
<glyph unicode="&#xa9;" horiz-adv-x="1552" d="M102 643q0 149 52.5 279.5t142.5 221.5t214.5 143t264.5 52q139 0 263 -52t214.5 -143t143.5 -221.5t53 -279.5q0 -199 -91 -359t-245 -248.5t-338 -88.5q-140 0 -264.5 52t-214.5 143t-142.5 221.5t-52.5 279.5zM127 643q0 -179 85.5 -331t235 -242t328.5 -90 q132 0 252.5 53t207.5 142.5t138 211.5t51 256q0 178 -86.5 331t-236 243t-326.5 90q-179 0 -328.5 -90t-235 -242.5t-85.5 -331.5zM408 645q0 116 43 211t127 152t194 57q50 0 103 -11.5t88 -11.5q12 0 22 -2q32 -119 72 -217h-39q-41 108 -101 158.5t-161 50.5 q-37 0 -69.5 -8.5t-66.5 -32t-57.5 -62t-39 -103t-15.5 -148.5q0 -199 80 -312.5t198 -113.5q84 0 136.5 45t119.5 156h39q-51 -88 -82 -209h-24q-37 0 -91 -11.5t-106 -11.5q-164 0 -267 119.5t-103 304.5z" />
<glyph unicode="&#xaa;" horiz-adv-x="733" d="M100 825q0 40 15 68.5t54.5 55.5t115 47.5t190.5 35.5v27q0 47 -3.5 75.5t-16.5 56t-40.5 40t-72.5 12.5q-41 0 -76 -31.5t-45 -103.5q0 -8 -13 -16.5t-26 -8.5q-49 0 -49 43q0 65 60.5 101.5t154.5 36.5q88 0 150.5 -54.5t62.5 -148.5v-256q0 -53 43 -53q26 0 29 2v-33 q-29 -18 -41.5 -22.5t-34.5 -4.5q-41 0 -64.5 42.5t-23.5 109.5q-15 -65 -66 -110.5t-133 -45.5q-74 0 -122 34t-48 101zM111 508v45h510v-45h-510zM193 827q0 -41 30 -66.5t78 -25.5q37 0 67 12.5t52.5 38.5t31 38.5t23.5 39.5v144q-74 -11 -128.5 -28.5t-83.5 -35 t-45.5 -41t-20.5 -40t-4 -36.5z" />
<glyph unicode="&#xab;" horiz-adv-x="694" d="M72 471q176 127 311 279v-31l-184 -250l184 -248v-31q-133 150 -311 281zM332 471q176 127 311 279v-31l-184 -250l184 -248v-31q-133 150 -311 281z" />
<glyph unicode="&#xac;" horiz-adv-x="1146" d="M143 657v84h861v-448h-84v364h-777z" />
<glyph unicode="&#xad;" horiz-adv-x="778" d="M72 477v72h553v-72h-553z" />
<glyph unicode="&#xae;" horiz-adv-x="1552" d="M102 643q0 149 52.5 279.5t142.5 221.5t214.5 143t264.5 52q139 0 263 -52t214.5 -143t143.5 -221.5t53 -279.5q0 -199 -91 -359t-245 -248.5t-338 -88.5q-140 0 -264.5 52t-214.5 143t-142.5 221.5t-52.5 279.5zM127 643q0 -179 85.5 -331t235 -242t328.5 -90 q132 0 252.5 53t207.5 142.5t138 211.5t51 256q0 178 -86.5 331t-236 243t-326.5 90q-179 0 -328.5 -90t-235 -242.5t-85.5 -331.5zM442 233v25q54 6 72 14.5t18 32.5v664q0 28 -17.5 38t-68.5 15v27h320q73 0 128.5 -12.5t88 -32.5t52.5 -49.5t27 -58t7 -62.5 q0 -168 -250 -234l244 -301q10 -12 24 -20t23.5 -10.5t30.5 -6t28 -4.5l-4 -25h-190q-4 32 -31 66l-223 287h-88v-281q0 -24 20.5 -32.5t81.5 -14.5v-25h-293zM633 612h49q79 0 135.5 19t86 52t42 70.5t12.5 82.5q0 79 -49.5 130.5t-148.5 51.5h-127v-406z" />
<glyph unicode="&#xaf;" horiz-adv-x="866" d="M102 1229v37q0 -11 4 -19q-4 -8 -4 -18zM106 1247q8 17 37 17h580q29 0 37 -17q-8 -16 -37 -16h-580q-29 0 -37 16zM760 1247q4 8 4 19v-37q0 10 -4 18z" />
<glyph unicode="&#xb0;" horiz-adv-x="624" d="M82 1063q0 100 67.5 167.5t163.5 67.5t163 -67.5t67 -167.5t-67 -168t-163 -68t-163.5 68t-67.5 168zM176 1063q0 -77 37 -128.5t102 -51.5q64 0 102 52t38 128q0 79 -38 129.5t-102 50.5q-66 0 -102.5 -50.5t-36.5 -129.5z" />
<glyph unicode="&#xb1;" horiz-adv-x="1044" d="M143 51v66h717v-66h-717zM143 707v63h326v326h66v-326h325v-63h-325v-328h-66v328h-326z" />
<glyph unicode="&#xb2;" horiz-adv-x="608" d="M92 793q10 50 29.5 89.5t48.5 68.5t51 45t58 38q56 34 72 52q22 27 22 67q0 45 -22 76t-60 31q-39 0 -58 -14t-28 -50q-3 -24 2 -45.5t2 -32.5q-13 -30 -39.5 -32.5t-47 13.5t-20.5 31q-3 78 49 130.5t146 52.5q92 0 141 -43t49 -113q0 -22 -7.5 -41.5t-16.5 -32.5 t-28.5 -28t-31 -22t-36 -21t-33.5 -19q-6 -4 -27 -15.5t-31.5 -17.5t-29 -17.5t-29 -19.5t-23 -18t-19.5 -19.5t-9 -17.5h242q32 0 43 17l18 26h47l-20 -90q-6 -28 -43 -28h-361z" />
<glyph unicode="&#xb3;" horiz-adv-x="632" d="M123 946q0 47 47 47q25 0 38.5 -9.5t16.5 -20t5.5 -30t5.5 -28.5q15 -43 34.5 -57t65.5 -14q35 0 61 29t27 89q-1 51 -24.5 75t-55.5 22.5t-70 -19.5l-16 43l49 23q90 32 90 90q0 43 -15 60.5t-50 17.5q-44 0 -70 -24.5t-28.5 -54.5t2.5 -57l-60 13q-24 9 -24 28 q-2 63 46 104.5t126 41.5q74 0 121 -40.5t47 -84.5q0 -49 -39 -88q30 -16 53.5 -51.5t23.5 -83.5q0 -75 -61.5 -129t-138.5 -54q-89 0 -148 49t-59 113z" />
<glyph unicode="&#xb4;" horiz-adv-x="612" d="M102 1171l11 -22l360 145q25 12 33.5 37t-4.5 51q-10 28 -44 31t-63 -20z" />
<glyph unicode="&#xb5;" horiz-adv-x="1079" d="M31 969v45l219 20q41 3 41 -33v-682q0 -272 172 -272q35 0 69 11.5t59 25.5t52.5 40.5t41.5 41.5t34.5 45.5t23 35t15.5 25.5v621q0 45 -11.5 62t-41.5 16l-66 -2v45l219 20q26 1 34.5 -5.5t8.5 -27.5v-839q0 -49 27 -64.5t90 -9.5v-41q-73 -16 -138.5 -43t-91.5 -27 q-13 0 -20.5 11t-5.5 26l16 215q-2 -3 -19 -26t-27 -37t-33 -40.5t-41.5 -43.5t-46 -39t-53.5 -35t-58.5 -22t-65.5 -9q-150 0 -219 89q4 -91 21.5 -157t35.5 -92.5t31.5 -49t11.5 -39.5q-13 -87 -62 -124q-40 -32 -69 1q-24 29 -24 98v502q-10 62 -10 129v559 q0 44 -13.5 62t-44.5 16z" />
<glyph unicode="&#xb6;" horiz-adv-x="1167" d="M39 881q0 182 127 286.5t344 104.5h565v-12q-47 -9 -69.5 -22.5t-22.5 -45.5v-1235q0 -36 19 -53.5t73 -24.5v-16h-657v16q73 7 97 24t24 54v537h-29q-217 0 -344 103.5t-127 283.5zM221 881q0 -64 7 -114.5t26.5 -97t51 -77t83 -48.5t121.5 -18h29v721h-29 q-70 0 -121.5 -18.5t-83 -50t-51 -79.5t-26.5 -100t-7 -118zM688 -43q0 -36 16.5 -52t57.5 -16t57.5 16t16.5 52v1233q0 35 -10.5 46t-37.5 11h-100v-1290z" />
<glyph unicode="&#xb7;" horiz-adv-x="399" d="M82 600q0 40 29 69t67 29q40 0 69 -29t29 -69q0 -41 -29 -69.5t-69 -28.5q-39 0 -67.5 28.5t-28.5 69.5z" />
<glyph unicode="&#xb8;" horiz-adv-x="577" d="M102 -319q0 20 12.5 34.5t35.5 14.5q25 0 37.5 -12t17 -29t10 -33.5t22 -28.5t46.5 -12q46 0 69 32.5t23 76.5q0 102 -158 141q-24 5 -24 22q0 6 6 16.5t20.5 37t28.5 59.5h41l-29 -66q38 -10 71.5 -24t68 -35.5t55 -54.5t20.5 -72q0 -73 -51.5 -115.5t-142.5 -42.5 q-73 0 -126 23.5t-53 67.5z" />
<glyph unicode="&#xb9;" horiz-adv-x="366" d="M82 1219v41l115 51q7 3 12.5 4t9.5 1.5t7 -2.5t4.5 -3.5t2.5 -6.5t1.5 -7t1.5 -9v-8v-412q0 -21 15.5 -28t43.5 -9v-28h-209v28q18 1 29 3.5t20.5 11t9.5 22.5v371z" />
<glyph unicode="&#xba;" horiz-adv-x="729" d="M100 971q0 133 78.5 211t186.5 80q108 -2 186 -78t78 -203q0 -131 -78 -210t-186 -79q-106 0 -185.5 77.5t-79.5 201.5zM111 508v45h510v-45h-510zM188 995q0 -96 60.5 -176t140.5 -80q152 0 152 217q0 98 -58.5 180.5t-136.5 82.5q-70 0 -114 -54t-44 -170z" />
<glyph unicode="&#xbb;" horiz-adv-x="694" d="M51 190v31l185 248l-185 250v31q135 -152 311 -279q-178 -131 -311 -281zM311 190v31l185 248l-185 250v31q133 -150 312 -279q-181 -133 -312 -281z" />
<glyph unicode="&#xbc;" horiz-adv-x="1271" d="M49 -10l885 1313h84l-885 -1313h-84zM82 1219v41l115 51q7 3 12.5 4t9.5 1.5t7 -2.5t4.5 -3.5t2.5 -6.5t1.5 -7t1.5 -9v-8v-412q0 -21 15.5 -28t43.5 -9v-28h-209v28q18 1 29 3.5t20.5 11t9.5 22.5v371zM772 152v41l246 309q19 22 43 13.5t24 -32.5v-286h84v-45h-84v-80 q0 -37 52 -37v-47h-197v47q49 0 49 37v80h-217zM854 197h135v157z" />
<glyph unicode="&#xbd;" horiz-adv-x="1265" d="M49 -10l885 1313h84l-885 -1313h-84zM82 1219v41l115 51q7 3 12.5 4t9.5 1.5t7 -2.5t4.5 -3.5t2.5 -6.5t1.5 -7t1.5 -9v-8v-412q0 -21 15.5 -28t43.5 -9v-28h-209v28q18 1 29 3.5t20.5 11t9.5 22.5v371zM752 -12q10 50 29.5 89.5t48 68t51 45.5t57.5 38q56 34 72 52 q22 27 22 67q0 45 -22 76t-60 31q-39 0 -58 -14t-28 -50q-3 -24 2 -45.5t2 -32.5q-13 -30 -39.5 -32t-46.5 14t-20 31q-3 78 48.5 130t145.5 52q92 0 141.5 -43t49.5 -113q0 -22 -7.5 -41.5t-17 -32.5t-28.5 -28t-31 -22t-36.5 -21t-33.5 -19q-6 -4 -27 -15.5t-31.5 -17.5 t-29 -17.5t-29 -19.5t-23 -18t-19.5 -19.5t-9 -17.5h242q32 0 43 17l18 26h48l-21 -90q-6 -28 -43 -28h-360z" />
<glyph unicode="&#xbe;" horiz-adv-x="1484" d="M123 946q0 47 47 47q25 0 38.5 -9.5t16.5 -20t5.5 -30t5.5 -28.5q15 -43 34.5 -57t65.5 -14q35 0 61 29t27 89q-1 51 -24.5 75t-55.5 22.5t-70 -19.5l-16 43l49 23q90 32 90 90q0 43 -15 60.5t-50 17.5q-44 0 -70 -24.5t-28.5 -54.5t2.5 -57l-60 13q-24 9 -24 28 q-2 63 46 104.5t126 41.5q74 0 121 -40.5t47 -84.5q0 -49 -39 -88q30 -16 53.5 -51.5t23.5 -83.5q0 -75 -61.5 -129t-138.5 -54q-89 0 -148 49t-59 113zM274 -10l885 1313h84l-885 -1313h-84zM1032 152v41l246 309q19 22 43.5 13.5t24.5 -32.5v-286h84v-45h-84v-80 q0 -37 51 -37v-47h-195v47q49 0 49 37v80h-219zM1114 197h137v157z" />
<glyph unicode="&#xbf;" horiz-adv-x="921" d="M72 76q0 59 21 113t54.5 96t74.5 82t83 80.5t77 82.5t58.5 96t26.5 113h49q8 -52 -2.5 -101.5t-35 -92.5t-55.5 -86.5t-64 -90.5t-60.5 -95.5t-45 -111t-17.5 -128.5q0 -116 61.5 -188t165.5 -72q102 0 161.5 67t59.5 176q0 52 -14.5 88t-14.5 60q0 34 26.5 53t55.5 19 q41 0 77 -36t36 -118q0 -69 -24.5 -132t-71 -113.5t-122.5 -80.5t-171 -30q-103 0 -180.5 29t-121.5 79.5t-65.5 111t-21.5 130.5zM408 952q0 40 29 69.5t69 29.5q39 0 67.5 -29.5t28.5 -69.5t-28 -69t-68 -29t-69 29t-29 69z" />
<glyph unicode="&#xc0;" horiz-adv-x="1294" d="M20 0v39q89 10 128.5 39.5t64.5 101.5l381 1102h82l428 -1141q1 -4 4.5 -15.5t5 -15t5.5 -13t7.5 -12.5t10.5 -10t15 -10t20 -8t26.5 -7.5t33.5 -5.5t42 -5v-39q-217 9 -434 0v39q32 3 54.5 7t37.5 8.5t22 12t10 13t0.5 17.5t-6 20t-11 25t-11.5 28l-94 258h-490 l-96 -283q-16 -46 21 -69.5t124 -36.5v-39q-194 10 -381 0zM369 475h454l-233 643zM450 1577q-8 25 5 51q10 28 43.5 30.5t62.5 -20.5l293 -221l-10 -22l-361 145q-25 12 -33 37z" />
<glyph unicode="&#xc1;" horiz-adv-x="1294" d="M20 0v39q89 10 128.5 39.5t64.5 101.5l381 1102h82l428 -1141q1 -4 4.5 -15.5t5 -15t5.5 -13t7.5 -12.5t10.5 -10t15 -10t20 -8t26.5 -7.5t33.5 -5.5t42 -5v-39q-217 9 -434 0v39q32 3 54.5 7t37.5 8.5t22 12t10 13t0.5 17.5t-6 20t-11 25t-11.5 28l-94 258h-490 l-96 -283q-16 -46 21 -69.5t124 -36.5v-39q-194 10 -381 0zM369 475h454l-233 643zM440 1417l293 221q29 23 63 20.5t44 -30.5q13 -26 4.5 -51t-33.5 -37l-360 -145z" />
<glyph unicode="&#xc2;" horiz-adv-x="1294" d="M20 0v39q89 10 128.5 39.5t64.5 101.5l381 1102h82l428 -1141q1 -4 4.5 -15.5t5 -15t5.5 -13t7.5 -12.5t10.5 -10t15 -10t20 -8t26.5 -7.5t33.5 -5.5t42 -5v-39q-217 9 -434 0v39q32 3 54.5 7t37.5 8.5t22 12t10 13t0.5 17.5t-6 20t-11 25t-11.5 28l-94 258h-490 l-96 -283q-16 -46 21 -69.5t124 -36.5v-39q-194 10 -381 0zM367 1395q153 139 280 311q121 -168 279 -311h-31l-248 184l-250 -184h-30zM369 475h454l-233 643z" />
<glyph unicode="&#xc3;" horiz-adv-x="1294" d="M20 0v39q89 10 128.5 39.5t64.5 101.5l381 1102h82l428 -1141q1 -4 4.5 -15.5t5 -15t5.5 -13t7.5 -12.5t10.5 -10t15 -10t20 -8t26.5 -7.5t33.5 -5.5t42 -5v-39q-217 9 -434 0v39q32 3 54.5 7t37.5 8.5t22 12t10 13t0.5 17.5t-6 20t-11 25t-11.5 28l-94 258h-490 l-96 -283q-16 -46 21 -69.5t124 -36.5v-39q-194 10 -381 0zM307 1464q-3 82 41 134.5t119 52.5q57 0 114.5 -20t95.5 -44.5t83.5 -44.5t81.5 -20q46 0 77 24.5t33 57.5h35q-3 -88 -49.5 -140.5t-138.5 -52.5q-54 0 -111.5 21.5t-97.5 48t-84 48t-74 21.5q-39 0 -62.5 -26.5 t-23.5 -59.5h-39zM369 475h454l-233 643z" />
<glyph unicode="&#xc4;" horiz-adv-x="1294" d="M20 0v39q89 10 128.5 39.5t64.5 101.5l381 1102h82l428 -1141q1 -4 4.5 -15.5t5 -15t5.5 -13t7.5 -12.5t10.5 -10t15 -10t20 -8t26.5 -7.5t33.5 -5.5t42 -5v-39q-217 9 -434 0v39q32 3 54.5 7t37.5 8.5t22 12t10 13t0.5 17.5t-6 20t-11 25t-11.5 28l-94 258h-490 l-96 -283q-16 -46 21 -69.5t124 -36.5v-39q-194 10 -381 0zM369 475h454l-233 643zM399 1530q0 31 22.5 54.5t53.5 23.5t54.5 -23.5t23.5 -54.5t-23.5 -53.5t-54.5 -22.5t-53.5 22.5t-22.5 53.5zM741 1530q0 31 22.5 54.5t53.5 23.5t54.5 -23.5t23.5 -54.5t-23.5 -53.5 t-54.5 -22.5t-53.5 22.5t-22.5 53.5z" />
<glyph unicode="&#xc5;" horiz-adv-x="1294" d="M20 0v39q89 10 128.5 39.5t64.5 101.5l381 1102h82l428 -1141q1 -4 4.5 -15.5t5 -15t5.5 -13t7.5 -12.5t10.5 -10t15 -10t20 -8t26.5 -7.5t33.5 -5.5t42 -5v-39q-217 9 -434 0v39q32 3 54.5 7t37.5 8.5t22 12t10 13t0.5 17.5t-6 20t-11 25t-11.5 28l-94 258h-490 l-96 -283q-16 -46 21 -69.5t124 -36.5v-39q-194 10 -381 0zM369 475h454l-233 643zM463 1653q0 75 53 128.5t131 53.5t131 -53.5t53 -128.5t-53 -129t-131 -54t-131 54t-53 129zM535 1653q0 -55 31 -89t81 -34t81.5 34t31.5 89t-31.5 90t-81.5 35t-81 -35t-31 -90z" />
<glyph unicode="&#xc6;" horiz-adv-x="1880" d="M20 0v39q84 10 125.5 39t94.5 102l778 1039q-30 8 -96 14v39h807q20 0 25.5 -6.5t8.5 -30.5l21 -205h-39l-21 43q-69 150 -217 150h-288q-11 0 -11 -13v-542h289q30 0 51.5 8t34 17.5t22.5 32t14 37t11 46.5h43q-15 -166 0 -328h-43q-8 37 -14.5 56t-20.5 41t-38 31 t-60 9h-289v-555q0 -12 11 -12h284q147 0 205 119l66 129h45q-38 -129 -58 -295h-839v51q83 10 111 23t28 49v301h-576l-206 -283q-29 -41 8.5 -68t120.5 -38v-39q-196 10 -388 0zM522 475h539v692q0 7 -4 19z" />
<glyph unicode="&#xc7;" horiz-adv-x="1177" d="M72 639q0 182 69 332.5t203.5 242t310.5 91.5q66 0 147.5 -17.5t145.5 -17.5h41q51 -200 115 -344h-66q-66 166 -166 247.5t-260 81.5q-54 0 -103 -12.5t-101.5 -50.5t-90 -97.5t-62 -162.5t-24.5 -238q0 -158 35 -286t95.5 -210.5t140.5 -126.5t172 -44q122 0 211 74.5 t182 240.5h70q-89 -158 -133 -330h-31q-54 0 -141.5 -17.5t-169.5 -17.5q-30 0 -54 3l-20 -46q38 -10 71.5 -24t68 -35.5t55 -54.5t20.5 -72q0 -73 -52 -115.5t-143 -42.5q-73 0 -125.5 23.5t-52.5 67.5q0 21 12 35t35 14q25 0 37.5 -12t17 -29t10 -33.5t22 -28.5t46.5 -12 q46 0 69 32.5t23 76.5q0 52 -41.5 87.5t-115.5 53.5q-25 6 -25 22q0 5 5 14.5t18.5 33.5t25.5 49q-151 24 -265.5 120.5t-173 235.5t-58.5 299z" />
<glyph unicode="&#xc8;" horiz-adv-x="1009" d="M51 4v51q83 10 111 23t28 49v1032q0 38 -29.5 53t-109.5 21v39h807q20 0 26 -6.5t9 -30.5l20 -205h-36l-21 43q-72 150 -217 150h-289q-12 0 -12 -13v-542h289q37 0 61 9.5t38.5 32.5t20.5 42t15 57h43q-15 -166 0 -328h-43q-8 36 -15 56t-21.5 41.5t-38.5 30.5t-60 9 h-289v-555q0 -12 12 -12h283q146 0 207 119l65 129h43q-29 -99 -57 -295h-840zM308.5 1577q-8.5 25 4.5 51q10 28 44 30.5t63 -20.5l293 -221l-11 -22l-360 145q-25 12 -33.5 37z" />
<glyph unicode="&#xc9;" horiz-adv-x="1009" d="M51 4v51q83 10 111 23t28 49v1032q0 38 -29.5 53t-109.5 21v39h807q20 0 26 -6.5t9 -30.5l20 -205h-36l-21 43q-72 150 -217 150h-289q-12 0 -12 -13v-542h289q37 0 61 9.5t38.5 32.5t20.5 42t15 57h43q-15 -166 0 -328h-43q-8 36 -15 56t-21.5 41.5t-38.5 30.5t-60 9 h-289v-555q0 -12 12 -12h283q146 0 207 119l65 129h43q-29 -99 -57 -295h-840zM299 1417l293 221q29 23 62.5 20.5t43.5 -30.5q13 -26 5 -51t-33 -37l-361 -145z" />
<glyph unicode="&#xca;" horiz-adv-x="1009" d="M51 4v51q83 10 111 23t28 49v1032q0 38 -29.5 53t-109.5 21v39h807q20 0 26 -6.5t9 -30.5l20 -205h-36l-21 43q-72 150 -217 150h-289q-12 0 -12 -13v-542h289q37 0 61 9.5t38.5 32.5t20.5 42t15 57h43q-15 -166 0 -328h-43q-8 36 -15 56t-21.5 41.5t-38.5 30.5t-60 9 h-289v-555q0 -12 12 -12h283q146 0 207 119l65 129h43q-29 -99 -57 -295h-840zM225 1395q156 142 281 311q123 -170 278 -311h-30l-248 184l-250 -184h-31z" />
<glyph unicode="&#xcb;" horiz-adv-x="1009" d="M51 4v51q83 10 111 23t28 49v1032q0 38 -29.5 53t-109.5 21v39h807q20 0 26 -6.5t9 -30.5l20 -205h-36l-21 43q-72 150 -217 150h-289q-12 0 -12 -13v-542h289q37 0 61 9.5t38.5 32.5t20.5 42t15 57h43q-15 -166 0 -328h-43q-8 36 -15 56t-21.5 41.5t-38.5 30.5t-60 9 h-289v-555q0 -12 12 -12h283q146 0 207 119l65 129h43q-29 -99 -57 -295h-840zM258 1530q0 31 22.5 54.5t53.5 23.5t54.5 -23.5t23.5 -54.5t-23.5 -53.5t-54.5 -22.5t-53.5 22.5t-22.5 53.5zM600 1530q0 31 22.5 54.5t53.5 23.5t54.5 -23.5t23.5 -54.5t-23.5 -53.5 t-54.5 -22.5t-53.5 22.5t-22.5 53.5z" />
<glyph unicode="&#xcc;" horiz-adv-x="536" d="M51 0v39q82 9 113 24t31 52v1042q0 37 -31 52t-113 24v39q217 -9 434 0v-39q-82 -9 -112.5 -24t-30.5 -52v-1042q0 -37 30.5 -52t112.5 -24v-39q-217 9 -434 0zM71 1577q8 -25 33 -37l361 -145l10 22l-293 221q-29 23 -62.5 20.5t-43.5 -30.5q-13 -26 -5 -51z" />
<glyph unicode="&#xcd;" horiz-adv-x="536" d="M51 0v39q82 9 113 24t31 52v1042q0 37 -31 52t-113 24v39q217 -9 434 0v-39q-82 -9 -112.5 -24t-30.5 -52v-1042q0 -37 30.5 -52t112.5 -24v-39q-217 9 -434 0zM61 1417l11 -22l360 145q25 12 33.5 37t-4.5 51q-10 28 -44 30.5t-63 -20.5z" />
<glyph unicode="&#xce;" horiz-adv-x="536" d="M-12 1395q153 139 280 311q121 -168 279 -311h-31l-248 184l-250 -184h-30zM51 0v39q82 9 113 24t31 52v1042q0 37 -31 52t-113 24v39q217 -9 434 0v-39q-82 -9 -112.5 -24t-30.5 -52v-1042q0 -37 30.5 -52t112.5 -24v-39q-217 9 -434 0z" />
<glyph unicode="&#xcf;" horiz-adv-x="536" d="M20 1530q0 31 22.5 54.5t53.5 23.5t54.5 -23.5t23.5 -54.5t-23.5 -53.5t-54.5 -22.5t-53.5 22.5t-22.5 53.5zM51 0v39q82 9 113 24t31 52v1042q0 37 -31 52t-113 24v39q217 -9 434 0v-39q-82 -9 -112.5 -24t-30.5 -52v-1042q0 -37 30.5 -52t112.5 -24v-39q-217 9 -434 0z M362 1530q0 31 22.5 54.5t53.5 23.5t54.5 -23.5t23.5 -54.5t-23.5 -53.5t-54.5 -22.5t-53.5 22.5t-22.5 53.5z" />
<glyph unicode="&#xd0;" horiz-adv-x="1239" d="M51 610v52h156v450q0 50 -29.5 81.5t-109.5 39.5v39q75 -4 141 -4t144 2t130 2q316 0 495 -160t179 -475q0 -188 -77 -334t-210.5 -224.5t-300.5 -78.5q-58 0 -148 13.5t-114 13.5q-127 0 -239 -27v41q81 22 110 40t29 54v475h-156zM352 168q0 -62 52 -86.5t149 -26.5 q99 -2 176.5 24.5t128.5 76t84 123t47.5 160t14.5 192.5q0 96 -17 182t-55 163.5t-94 133t-139.5 86.5t-186.5 29q-94 0 -160 -4v-559h191v-52h-191v-442z" />
<glyph unicode="&#xd1;" horiz-adv-x="1224" d="M31 0v39q108 11 142 25t34 51v1038q0 41 -32.5 55.5t-119.5 24.5v39q149 -9 301 0l609 -967v852q0 37 -33.5 51t-136.5 25v39q197 -9 399 0v-39q-104 -11 -139 -25t-35 -51v-1157h-37l-721 1135v-1020q0 -37 34.5 -51t133.5 -25v-39q-195 9 -399 0zM274 1464 q-3 82 41 134.5t119 52.5q57 0 114.5 -20t95.5 -44.5t83.5 -44.5t81.5 -20q46 0 77.5 24.5t33.5 57.5h34q-3 -88 -49.5 -140.5t-138.5 -52.5q-54 0 -111.5 21.5t-97.5 48t-84 48t-74 21.5q-39 0 -62.5 -26.5t-23.5 -59.5h-39z" />
<glyph unicode="&#xd2;" d="M72 641q0 189 65 339t190.5 237.5t290.5 87.5t290.5 -87.5t191 -235.5t65.5 -331q0 -193 -63 -345t-185.5 -240.5t-285.5 -88.5q-122 0 -227.5 53t-177.5 143t-113 211.5t-41 256.5zM231 702q0 -146 32.5 -273t89 -216t135 -139.5t167.5 -50.5q52 0 100.5 17.5t96 60.5 t82.5 107.5t56.5 167t21.5 230.5q0 188 -55.5 337.5t-152.5 233t-218 83.5q-51 0 -98.5 -15.5t-95 -55.5t-82.5 -101.5t-57 -160.5t-22 -225zM421.5 1577q8.5 -25 33.5 -37l360 -145l10 22l-293 221q-29 23 -62.5 20.5t-43.5 -30.5q-13 -26 -4.5 -51z" />
<glyph unicode="&#xd3;" d="M72 641q0 189 65 339t190.5 237.5t290.5 87.5t290.5 -87.5t191 -235.5t65.5 -331q0 -193 -63 -345t-185.5 -240.5t-285.5 -88.5q-122 0 -227.5 53t-177.5 143t-113 211.5t-41 256.5zM231 702q0 -146 32.5 -273t89 -216t135 -139.5t167.5 -50.5q52 0 100.5 17.5t96 60.5 t82.5 107.5t56.5 167t21.5 230.5q0 188 -55.5 337.5t-152.5 233t-218 83.5q-51 0 -98.5 -15.5t-95 -55.5t-82.5 -101.5t-57 -160.5t-22 -225zM412 1417l10 -22l360 145q25 12 33.5 37t-4.5 51q-10 28 -43.5 30.5t-62.5 -20.5z" />
<glyph unicode="&#xd4;" d="M72 641q0 189 65 339t190.5 237.5t290.5 87.5t290.5 -87.5t191 -235.5t65.5 -331q0 -193 -63 -345t-185.5 -240.5t-285.5 -88.5q-122 0 -227.5 53t-177.5 143t-113 211.5t-41 256.5zM231 702q0 -146 32.5 -273t89 -216t135 -139.5t167.5 -50.5q52 0 100.5 17.5t96 60.5 t82.5 107.5t56.5 167t21.5 230.5q0 188 -55.5 337.5t-152.5 233t-218 83.5q-51 0 -98.5 -15.5t-95 -55.5t-82.5 -101.5t-57 -160.5t-22 -225zM338 1395q153 139 280 311q121 -168 279 -311h-31l-248 184l-249 -184h-31z" />
<glyph unicode="&#xd5;" d="M72 641q0 189 65 339t190.5 237.5t290.5 87.5t290.5 -87.5t191 -235.5t65.5 -331q0 -193 -63 -345t-185.5 -240.5t-285.5 -88.5q-122 0 -227.5 53t-177.5 143t-113 211.5t-41 256.5zM231 702q0 -146 32.5 -273t89 -216t135 -139.5t167.5 -50.5q52 0 100.5 17.5t96 60.5 t82.5 107.5t56.5 167t21.5 230.5q0 188 -55.5 337.5t-152.5 233t-218 83.5q-51 0 -98.5 -15.5t-95 -55.5t-82.5 -101.5t-57 -160.5t-22 -225zM279 1464q-3 82 41 134.5t118 52.5q57 0 114.5 -20t95.5 -44.5t83.5 -44.5t81.5 -20q46 0 77.5 24.5t33.5 57.5h34 q-3 -88 -49.5 -140.5t-138.5 -52.5q-54 0 -111.5 21.5t-97.5 48t-84 48t-74 21.5q-39 0 -62.5 -26.5t-23.5 -59.5h-38z" />
<glyph unicode="&#xd6;" d="M72 641q0 189 65 339t190.5 237.5t290.5 87.5t290.5 -87.5t191 -235.5t65.5 -331q0 -193 -63 -345t-185.5 -240.5t-285.5 -88.5q-122 0 -227.5 53t-177.5 143t-113 211.5t-41 256.5zM231 702q0 -146 32.5 -273t89 -216t135 -139.5t167.5 -50.5q52 0 100.5 17.5t96 60.5 t82.5 107.5t56.5 167t21.5 230.5q0 188 -55.5 337.5t-152.5 233t-218 83.5q-51 0 -98.5 -15.5t-95 -55.5t-82.5 -101.5t-57 -160.5t-22 -225zM371 1530q0 31 22.5 54.5t52.5 23.5q31 0 54.5 -23.5t23.5 -54.5t-23.5 -53.5t-54.5 -22.5t-53 22.5t-22 53.5zM713 1530 q0 31 22.5 54.5t52.5 23.5q31 0 54.5 -23.5t23.5 -54.5t-23.5 -53.5t-54.5 -22.5t-53 22.5t-22 53.5z" />
<glyph unicode="&#xd7;" horiz-adv-x="897" d="M143 270l244 246l-244 244l62 61l244 -246l243 246l62 -61l-244 -244l244 -246l-62 -61l-243 246l-244 -246z" />
<glyph unicode="&#xd8;" d="M72 641q0 189 65 339t190.5 237.5t290.5 87.5q218 0 365 -150l111 145l45 -28l-119 -158q145 -180 145 -463q0 -193 -63 -345t-185.5 -240.5t-285.5 -88.5q-213 0 -363 150l-121 -158l-47 29l129 170q-75 91 -116 213.5t-41 259.5zM231 702q0 -242 84 -421l588 772 q-58 98 -140 152.5t-177 54.5q-51 0 -98.5 -15.5t-95 -55.5t-82.5 -101.5t-57 -160.5t-22 -225zM344 227q58 -98 138 -151t173 -53q52 0 100.5 17.5t96 60.5t82.5 107.5t56.5 167t21.5 230.5q0 220 -80 393z" />
<glyph unicode="&#xd9;" horiz-adv-x="1316" d="M31 1233v39q220 -9 440 0v-39q-82 -9 -112.5 -24t-30.5 -52v-776q0 -153 79.5 -246.5t213.5 -93.5q66 0 128.5 24.5t109.5 64t81.5 83.5t54.5 88v856q0 37 -30.5 52t-112.5 24v39q217 -9 434 0v-39q-82 -9 -112.5 -24t-30.5 -52v-1042q0 -37 30.5 -52t112.5 -24v-39 q-209 9 -325 0v39q34 29 34 76v112q-23 -45 -59 -86.5t-87.5 -79t-123 -59.5t-152.5 -22q-174 0 -286.5 113t-112.5 294v770q0 37 -30.5 52t-112.5 24zM460.5 1577q-8.5 25 4.5 51q10 28 43.5 30.5t62.5 -20.5l293 -221l-10 -22l-360 145q-25 12 -33.5 37z" />
<glyph unicode="&#xda;" horiz-adv-x="1316" d="M31 1233v39q220 -9 440 0v-39q-82 -9 -112.5 -24t-30.5 -52v-776q0 -153 79.5 -246.5t213.5 -93.5q66 0 128.5 24.5t109.5 64t81.5 83.5t54.5 88v856q0 37 -30.5 52t-112.5 24v39q217 -9 434 0v-39q-82 -9 -112.5 -24t-30.5 -52v-1042q0 -37 30.5 -52t112.5 -24v-39 q-209 9 -325 0v39q34 29 34 76v112q-23 -45 -59 -86.5t-87.5 -79t-123 -59.5t-152.5 -22q-174 0 -286.5 113t-112.5 294v770q0 37 -30.5 52t-112.5 24zM453 1417l292 221q29 23 63 20.5t44 -30.5q13 -26 4.5 -51t-33.5 -37l-360 -145z" />
<glyph unicode="&#xdb;" horiz-adv-x="1316" d="M31 1233v39q220 -9 440 0v-39q-82 -9 -112.5 -24t-30.5 -52v-776q0 -153 79.5 -246.5t213.5 -93.5q66 0 128.5 24.5t109.5 64t81.5 83.5t54.5 88v856q0 37 -30.5 52t-112.5 24v39q217 -9 434 0v-39q-82 -9 -112.5 -24t-30.5 -52v-1042q0 -37 30.5 -52t112.5 -24v-39 q-209 9 -325 0v39q34 29 34 76v112q-23 -45 -59 -86.5t-87.5 -79t-123 -59.5t-152.5 -22q-174 0 -286.5 113t-112.5 294v770q0 37 -30.5 52t-112.5 24zM379 1395q153 139 280 311q121 -168 279 -311h-31l-248 184l-249 -184h-31z" />
<glyph unicode="&#xdc;" horiz-adv-x="1316" d="M31 1233v39q220 -9 440 0v-39q-82 -9 -112.5 -24t-30.5 -52v-776q0 -153 79.5 -246.5t213.5 -93.5q66 0 128.5 24.5t109.5 64t81.5 83.5t54.5 88v856q0 37 -30.5 52t-112.5 24v39q217 -9 434 0v-39q-82 -9 -112.5 -24t-30.5 -52v-1042q0 -37 30.5 -52t112.5 -24v-39 q-209 9 -325 0v39q34 29 34 76v112q-23 -45 -59 -86.5t-87.5 -79t-123 -59.5t-152.5 -22q-174 0 -286.5 113t-112.5 294v770q0 37 -30.5 52t-112.5 24zM410 1530q0 31 22.5 54.5t52.5 23.5q31 0 54.5 -23.5t23.5 -54.5t-23.5 -53.5t-54.5 -22.5t-53 22.5t-22 53.5zM752 1530 q0 31 22.5 54.5t52.5 23.5q31 0 54.5 -23.5t23.5 -54.5t-23.5 -53.5t-54.5 -22.5t-53 22.5t-22 53.5z" />
<glyph unicode="&#xdd;" horiz-adv-x="1206" d="M31 1233v39q218 -3 434 0v-39q-75 -3 -102 -22.5t-9 -51.5l289 -532l266 514q23 45 -6 67t-133 25v39q203 -3 406 0v-39q-101 -3 -143.5 -25.5t-67.5 -70.5l-297 -574v-448q0 -37 31.5 -51t113.5 -17v-47q-219 9 -434 0v39q82 9 112.5 24t30.5 52v448l-329 596 q-19 34 -55.5 52.5t-106.5 21.5zM395 1417l293 221q29 23 63 20.5t44 -30.5q13 -26 4.5 -51t-33.5 -37l-360 -145z" />
<glyph unicode="&#xde;" horiz-adv-x="1064" d="M51 0v39q82 9 113 24t31 52v1042q0 37 -31 52t-113 24v39q217 -9 434 0v-39q-82 -9 -112.5 -24t-30.5 -52v-131h188q232 0 363 -104t131 -279q0 -180 -130.5 -284.5t-363.5 -104.5h-188v-139q0 -37 30.5 -52t112.5 -24v-39q-217 9 -434 0zM342 303h231q81 0 138.5 25.5 t90 73t46.5 106.5t14 135q0 334 -289 334h-231v-674z" />
<glyph unicode="&#xdf;" horiz-adv-x="1071" d="M31 0v39q80 6 109.5 21t29.5 53v905q0 81 48.5 140.5t122 86.5t161.5 27q82 0 147.5 -17.5t106.5 -45t68.5 -65t38.5 -75t11 -76.5q0 -95 -58 -168t-183 -106q197 -31 292 -125.5t95 -235.5q0 -168 -116 -263t-302 -95h-86v55h72q127 0 197.5 78.5t70.5 224.5 q0 76 -32 150t-86.5 121t-114.5 47q-50 -8 -149.5 -22.5t-156.5 -24.5v-422q0 -89 -58.5 -148t-147.5 -59h-80zM317 668l58 10q185 33 262.5 113.5t77.5 203.5q0 96 -53.5 161t-147.5 65q-50 0 -84 -9.5t-61 -34.5t-39.5 -71t-12.5 -115v-323z" />
<glyph unicode="&#xe0;" horiz-adv-x="948" d="M51 236q0 55 14 98t53 88.5t106 82.5t175.5 73t257.5 67l2 29q2 176 -6 223q-14 79 -68 96q-21 6 -48 6q-70 0 -119 -16.5t-73.5 -43t-39.5 -58t-22 -63.5t-14.5 -58.5t-23 -43t-42.5 -16.5q-35 0 -54.5 21t-19.5 53q0 110 118 190t285 80q62 0 106 -8t74 -28.5t47.5 -45 t27 -69.5t12 -88.5t2.5 -114.5v-526q0 -49 27 -64t90 -10v-43q-74 -16 -140 -43t-90 -27q-31 0 -31 33l9 160q-45 -76 -129 -135.5t-191 -59.5q-51 0 -100 13.5t-94.5 42.5t-73 82t-27.5 123zM209 240q0 -91 48 -145t132 -54q50 0 96.5 21.5t80.5 55t55.5 63t35.5 57.5v358 q-100 -23 -177 -51.5t-124 -60.5t-78 -63t-45 -66t-19 -60t-5 -55zM276 1331q8 -25 33 -37l361 -145l10 22l-293 222q-29 23 -62.5 20t-43.5 -31q-13 -26 -5 -51z" />
<glyph unicode="&#xe1;" horiz-adv-x="948" d="M51 236q0 55 14 98t53 88.5t106 82.5t175.5 73t257.5 67l2 29q2 176 -6 223q-14 79 -68 96q-21 6 -48 6q-70 0 -119 -16.5t-73.5 -43t-39.5 -58t-22 -63.5t-14.5 -58.5t-23 -43t-42.5 -16.5q-35 0 -54.5 21t-19.5 53q0 110 118 190t285 80q62 0 106 -8t74 -28.5t47.5 -45 t27 -69.5t12 -88.5t2.5 -114.5v-526q0 -49 27 -64t90 -10v-43q-74 -16 -140 -43t-90 -27q-31 0 -31 33l9 160q-45 -76 -129 -135.5t-191 -59.5q-51 0 -100 13.5t-94.5 42.5t-73 82t-27.5 123zM209 240q0 -91 48 -145t132 -54q50 0 96.5 21.5t80.5 55t55.5 63t35.5 57.5v358 q-100 -23 -177 -51.5t-124 -60.5t-78 -63t-45 -66t-19 -60t-5 -55zM266 1171l10 -22l361 145q25 12 33.5 37t-4.5 51q-10 28 -44 31t-63 -20z" />
<glyph unicode="&#xe2;" horiz-adv-x="948" d="M51 236q0 55 14 98t53 88.5t106 82.5t175.5 73t257.5 67l2 29q2 176 -6 223q-14 79 -68 96q-21 6 -48 6q-70 0 -119 -16.5t-73.5 -43t-39.5 -58t-22 -63.5t-14.5 -58.5t-23 -43t-42.5 -16.5q-35 0 -54.5 21t-19.5 53q0 110 118 190t285 80q62 0 106 -8t74 -28.5t47.5 -45 t27 -69.5t12 -88.5t2.5 -114.5v-526q0 -49 27 -64t90 -10v-43q-74 -16 -140 -43t-90 -27q-31 0 -31 33l9 160q-45 -76 -129 -135.5t-191 -59.5q-51 0 -100 13.5t-94.5 42.5t-73 82t-27.5 123zM193 1149q153 139 280 311q121 -168 279 -311h-31l-248 184l-250 -184h-30z M209 240q0 -91 48 -145t132 -54q50 0 96.5 21.5t80.5 55t55.5 63t35.5 57.5v358q-100 -23 -177 -51.5t-124 -60.5t-78 -63t-45 -66t-19 -60t-5 -55z" />
<glyph unicode="&#xe3;" horiz-adv-x="948" d="M51 236q0 55 14 98t53 88.5t106 82.5t175.5 73t257.5 67l2 29q2 176 -6 223q-14 79 -68 96q-21 6 -48 6q-70 0 -119 -16.5t-73.5 -43t-39.5 -58t-22 -63.5t-14.5 -58.5t-23 -43t-42.5 -16.5q-35 0 -54.5 21t-19.5 53q0 110 118 190t285 80q62 0 106 -8t74 -28.5t47.5 -45 t27 -69.5t12 -88.5t2.5 -114.5v-526q0 -49 27 -64t90 -10v-43q-74 -16 -140 -43t-90 -27q-31 0 -31 33l9 160q-45 -76 -129 -135.5t-191 -59.5q-51 0 -100 13.5t-94.5 42.5t-73 82t-27.5 123zM133 1219q-3 82 41 134t119 52q57 0 114.5 -20t95.5 -44.5t83.5 -44.5t81.5 -20 q46 0 77 24.5t33 57.5h35q-3 -88 -49.5 -140.5t-138.5 -52.5q-54 0 -111.5 22t-97.5 48t-84 48t-74 22q-39 0 -62.5 -26.5t-23.5 -59.5h-39zM209 240q0 -91 48 -145t132 -54q50 0 96.5 21.5t80.5 55t55.5 63t35.5 57.5v358q-100 -23 -177 -51.5t-124 -60.5t-78 -63t-45 -66 t-19 -60t-5 -55z" />
<glyph unicode="&#xe4;" horiz-adv-x="948" d="M51 236q0 55 14 98t53 88.5t106 82.5t175.5 73t257.5 67l2 29q2 176 -6 223q-14 79 -68 96q-21 6 -48 6q-70 0 -119 -16.5t-73.5 -43t-39.5 -58t-22 -63.5t-14.5 -58.5t-23 -43t-42.5 -16.5q-35 0 -54.5 21t-19.5 53q0 110 118 190t285 80q62 0 106 -8t74 -28.5t47.5 -45 t27 -69.5t12 -88.5t2.5 -114.5v-526q0 -49 27 -64t90 -10v-43q-74 -16 -140 -43t-90 -27q-31 0 -31 33l9 160q-45 -76 -129 -135.5t-191 -59.5q-51 0 -100 13.5t-94.5 42.5t-73 82t-27.5 123zM209 240q0 -91 48 -145t132 -54q50 0 96.5 21.5t80.5 55t55.5 63t35.5 57.5v358 q-100 -23 -177 -51.5t-124 -60.5t-78 -63t-45 -66t-19 -60t-5 -55zM225 1284q0 31 22.5 54.5t53.5 23.5t54.5 -23.5t23.5 -54.5t-23.5 -53.5t-54.5 -22.5t-53.5 22.5t-22.5 53.5zM567 1284q0 31 22.5 54.5t53.5 23.5t54.5 -23.5t23.5 -54.5t-23.5 -53.5t-54.5 -22.5 t-53.5 22.5t-22.5 53.5z" />
<glyph unicode="&#xe5;" horiz-adv-x="948" d="M51 236q0 55 14 98t53 88.5t106 82.5t175.5 73t257.5 67l2 29q2 176 -6 223q-14 79 -68 96q-21 6 -48 6q-70 0 -119 -16.5t-73.5 -43t-39.5 -58t-22 -63.5t-14.5 -58.5t-23 -43t-42.5 -16.5q-35 0 -54.5 21t-19.5 53q0 110 118 190t285 80q62 0 106 -8t74 -28.5t47.5 -45 t27 -69.5t12 -88.5t2.5 -114.5v-526q0 -49 27 -64t90 -10v-43q-74 -16 -140 -43t-90 -27q-31 0 -31 33l9 160q-45 -76 -129 -135.5t-191 -59.5q-51 0 -100 13.5t-94.5 42.5t-73 82t-27.5 123zM209 240q0 -91 48 -145t132 -54q50 0 96.5 21.5t80.5 55t55.5 63t35.5 57.5v358 q-100 -23 -177 -51.5t-124 -60.5t-78 -63t-45 -66t-19 -60t-5 -55zM289 1407q0 75 53 128.5t131 53.5t131 -53.5t53 -128.5t-53 -128.5t-131 -53.5t-131 53.5t-53 128.5zM360 1407q0 -55 31.5 -89t81.5 -34t81.5 34t31.5 89t-31.5 90t-81.5 35t-81.5 -35t-31.5 -90z" />
<glyph unicode="&#xe6;" horiz-adv-x="1529" d="M51 236q0 55 14 98t53 88.5t106 82.5t175.5 73t257.5 67l2 29q2 175 -6 220q-13 81 -68 100q-22 7 -53 7q-69 0 -117.5 -16.5t-72.5 -43t-38.5 -58.5t-21 -64.5t-14 -59t-23 -43t-42.5 -16.5q-35 0 -54.5 21t-19.5 53q0 110 118 190t285 80q116 0 172.5 -32.5 t77.5 -106.5q118 137 305 137q78 0 145.5 -25.5t121 -75.5t84 -131t30.5 -185q0 -93 -77 -93h-566q-1 -246 83.5 -375.5t219.5 -129.5q87 0 146 36.5t102 122.5q4 11 13.5 19t17.5 8h23q6 0 10.5 -7t1.5 -18q-74 -208 -334 -208q-117 0 -209 53q-50 -11 -96 -25.5 t-71.5 -22.5t-43.5 -8q-31 0 -31 33l9 160q-45 -76 -129 -135.5t-191 -59.5q-51 0 -100 13.5t-94.5 42.5t-73 82t-27.5 123zM209 240q0 -91 48 -145t132 -54q50 0 96.5 21.5t80.5 55t55.5 63t35.5 57.5v360q-118 -27 -205 -64.5t-132.5 -73t-71.5 -79t-32.5 -74t-6.5 -67.5z M825 573h502q0 426 -237 426q-125 0 -195 -114.5t-70 -311.5z" />
<glyph unicode="&#xe7;" horiz-adv-x="884" d="M61 516q0 232 119 379t309 147q152 0 242 -76t92 -171q0 -27 -24 -53.5t-54 -26.5t-54 20.5t-23 48.5q2 92 -36.5 153.5t-125.5 61.5q-131 0 -209 -120t-78 -336q0 -251 87 -383.5t212 -132.5q96 0 157.5 50.5t78.5 119.5q3 16 18 16h39q18 0 10 -25q-74 -208 -309 -208 h-6l-21 -46q38 -10 71.5 -24t68 -35.5t55 -54.5t20.5 -72q0 -73 -51.5 -115.5t-142.5 -42.5q-73 0 -125.5 23.5t-52.5 67.5q0 21 12 35t35 14q25 0 37.5 -12t17 -29t10 -33.5t22 -28.5t46.5 -12q46 0 69 32.5t23 76.5q0 102 -158 141q-24 5 -24 22q0 5 5 14.5t17.5 32 t24.5 48.5q-184 19 -294 164.5t-110 369.5z" />
<glyph unicode="&#xe8;" horiz-adv-x="929" d="M61 522q0 240 118 380t308 140q78 0 145.5 -25.5t121 -75.5t84 -131t30.5 -185q0 -93 -77 -93h-566q-1 -246 83.5 -375.5t219.5 -129.5q87 0 146 36.5t102 122.5q4 11 13.5 19t17.5 8h22q6 0 11 -7t2 -18q-74 -208 -334 -208q-201 0 -324 151t-123 391zM225 573h502 q0 203 -58 314.5t-180 111.5q-125 0 -194.5 -114.5t-69.5 -311.5zM288.5 1331q8.5 -25 33.5 -37l360 -145l10 22l-293 222q-29 23 -62.5 20t-43.5 -31q-13 -26 -4.5 -51z" />
<glyph unicode="&#xe9;" horiz-adv-x="929" d="M61 522q0 240 118 380t308 140q78 0 145.5 -25.5t121 -75.5t84 -131t30.5 -185q0 -93 -77 -93h-566q-1 -246 83.5 -375.5t219.5 -129.5q87 0 146 36.5t102 122.5q4 11 13.5 19t17.5 8h22q6 0 11 -7t2 -18q-74 -208 -334 -208q-201 0 -324 151t-123 391zM225 573h502 q0 203 -58 314.5t-180 111.5q-125 0 -194.5 -114.5t-69.5 -311.5zM279 1171l10 -22l360 145q25 12 33.5 37t-4.5 51q-10 28 -44 31t-63 -20z" />
<glyph unicode="&#xea;" horiz-adv-x="929" d="M61 522q0 240 118 380t308 140q78 0 145.5 -25.5t121 -75.5t84 -131t30.5 -185q0 -93 -77 -93h-566q-1 -246 83.5 -375.5t219.5 -129.5q87 0 146 36.5t102 122.5q4 11 13.5 19t17.5 8h22q6 0 11 -7t2 -18q-74 -208 -334 -208q-201 0 -324 151t-123 391zM205 1149 q153 139 280 311q121 -168 279 -311h-31l-248 184l-249 -184h-31zM225 573h502q0 203 -58 314.5t-180 111.5q-125 0 -194.5 -114.5t-69.5 -311.5z" />
<glyph unicode="&#xeb;" horiz-adv-x="929" d="M61 522q0 240 118 380t308 140q78 0 145.5 -25.5t121 -75.5t84 -131t30.5 -185q0 -93 -77 -93h-566q-1 -246 83.5 -375.5t219.5 -129.5q87 0 146 36.5t102 122.5q4 11 13.5 19t17.5 8h22q6 0 11 -7t2 -18q-74 -208 -334 -208q-201 0 -324 151t-123 391zM225 573h502 q0 203 -58 314.5t-180 111.5q-125 0 -194.5 -114.5t-69.5 -311.5zM238 1284q0 31 22.5 54.5t52.5 23.5q31 0 54.5 -23.5t23.5 -54.5t-23.5 -53.5t-54.5 -22.5t-53 22.5t-22 53.5zM580 1284q0 31 22.5 54.5t52.5 23.5q31 0 54.5 -23.5t23.5 -54.5t-23.5 -53.5t-54.5 -22.5 t-53 22.5t-22 53.5z" />
<glyph unicode="&#xec;" horiz-adv-x="460" d="M34.5 1331q8.5 -25 33.5 -37l360 -145l10 22l-293 222q-29 23 -62.5 20t-43.5 -31q-13 -26 -4.5 -51zM41 952v39q60 7 110 20.5t77 23t38 9.5q49 0 49 -38q0 -11 -6 -88t-6 -150v-653q0 -61 117 -76v-39q-188 9 -377 0v39q56 7 86.5 24t30.5 52v755q0 46 -28 65t-91 17z " />
<glyph unicode="&#xed;" horiz-adv-x="460" d="M25 1171l10 -22l360 145q25 12 33.5 37t-4.5 51q-10 28 -44 31t-63 -20zM41 952v39q60 7 110 20.5t77 23t38 9.5q49 0 49 -38q0 -11 -6 -88t-6 -150v-653q0 -61 117 -76v-39q-188 9 -377 0v39q56 7 86.5 24t30.5 52v755q0 46 -28 65t-91 17z" />
<glyph unicode="&#xee;" horiz-adv-x="460" d="M-49 1149q153 139 280 311q121 -168 279 -311h-31l-248 184l-249 -184h-31zM41 952v39q60 7 110 20.5t77 23t38 9.5q49 0 49 -38q0 -11 -6 -88t-6 -150v-653q0 -61 117 -76v-39q-188 9 -377 0v39q56 7 86.5 24t30.5 52v755q0 46 -28 65t-91 17z" />
<glyph unicode="&#xef;" horiz-adv-x="460" d="M-18 1284q0 31 22.5 54.5t52.5 23.5q31 0 54.5 -23.5t23.5 -54.5t-23.5 -53.5t-54.5 -22.5t-53 22.5t-22 53.5zM41 952v39q60 7 110 20.5t77 23t38 9.5q49 0 49 -38q0 -11 -6 -88t-6 -150v-653q0 -61 117 -76v-39q-188 9 -377 0v39q56 7 86.5 24t30.5 52v755q0 46 -28 65 t-91 17zM324 1284q0 31 22.5 54.5t52.5 23.5q31 0 54.5 -23.5t23.5 -54.5t-23.5 -53.5t-54.5 -22.5t-53 22.5t-22 53.5z" />
<glyph unicode="&#xf0;" horiz-adv-x="1062" d="M61 530q0 234 123 373t299 139q98 0 163 -39t116 -102v227q0 36 -6 60l-252 -74v53l231 68q-54 74 -231 39v51q63 14 105.5 21t87.5 9t75 -5t56 -25t42 -49l119 35v-54l-100 -28q16 -62 16 -144v-919q0 -49 27 -64t90 -10v-45q-74 -16 -139.5 -43t-89.5 -27q-14 0 -23 11 t-8 26l20 148q-16 -63 -95 -121.5t-195 -58.5q-195 0 -313 148t-118 400zM213 541q0 -136 30.5 -249t101 -189t171.5 -76q105 0 173 73t73 154v590q-115 157 -268 157q-141 0 -211 -110t-70 -350z" />
<glyph unicode="&#xf1;" horiz-adv-x="1048" d="M31 934v39q58 8 107.5 26t78 31.5t41.5 13.5q16 0 26 -9t9 -25l-19 -181q17 26 45.5 57t74.5 69.5t108.5 63.5t126.5 25q69 0 116.5 -16t84 -54.5t54 -107t17.5 -170.5v-581q0 -61 117 -76v-39q-186 9 -375 0v39q56 9 86.5 25t30.5 51v585q0 283 -158 283 q-57 0 -112 -22.5t-96.5 -58.5t-63 -58.5t-37.5 -44.5v-684q0 -35 30.5 -51t86.5 -25v-39q-188 9 -375 0v39q54 7 84.5 24t30.5 52v743q0 47 -28.5 64.5t-90.5 11.5zM186 1219q-3 82 41 134t119 52q57 0 114.5 -20t95.5 -44.5t83.5 -44.5t81.5 -20q46 0 77 24.5t33 57.5h35 q-3 -88 -49.5 -140.5t-138.5 -52.5q-54 0 -111.5 22t-97.5 48t-84 48t-74 22q-39 0 -62.5 -26.5t-23.5 -59.5h-39z" />
<glyph unicode="&#xf2;" horiz-adv-x="1001" d="M61 506q0 122 35.5 224t95.5 169.5t138.5 105t165.5 37.5q90 0 171 -37t141.5 -103.5t96 -165t35.5 -214.5q0 -122 -35.5 -225t-95 -171.5t-138 -107t-165.5 -38.5q-186 0 -315.5 147t-129.5 379zM221 547q0 -230 85 -375t226 -145q244 0 244 458q0 226 -85 370t-226 144 q-244 0 -244 -452zM304.5 1331q8.5 -25 33.5 -37l360 -145l11 22l-293 222q-29 23 -63 20t-44 -31q-13 -26 -4.5 -51z" />
<glyph unicode="&#xf3;" horiz-adv-x="1001" d="M61 506q0 122 35.5 224t95.5 169.5t138.5 105t165.5 37.5q90 0 171 -37t141.5 -103.5t96 -165t35.5 -214.5q0 -122 -35.5 -225t-95 -171.5t-138 -107t-165.5 -38.5q-186 0 -315.5 147t-129.5 379zM221 547q0 -230 85 -375t226 -145q244 0 244 458q0 226 -85 370t-226 144 q-244 0 -244 -452zM295 1171l10 -22l361 145q25 12 33 37t-5 51q-10 28 -43.5 31t-62.5 -20z" />
<glyph unicode="&#xf4;" horiz-adv-x="1001" d="M61 506q0 122 35.5 224t95.5 169.5t138.5 105t165.5 37.5q90 0 171 -37t141.5 -103.5t96 -165t35.5 -214.5q0 -122 -35.5 -225t-95 -171.5t-138 -107t-165.5 -38.5q-186 0 -315.5 147t-129.5 379zM221 547q0 -230 85 -375t226 -145q244 0 244 458q0 226 -85 370t-226 144 q-244 0 -244 -452zM221 1149q156 142 281 311q123 -170 278 -311h-30l-248 184l-250 -184h-31z" />
<glyph unicode="&#xf5;" horiz-adv-x="1001" d="M61 506q0 122 35.5 224t95.5 169.5t138.5 105t165.5 37.5q90 0 171 -37t141.5 -103.5t96 -165t35.5 -214.5q0 -122 -35.5 -225t-95 -171.5t-138 -107t-165.5 -38.5q-186 0 -315.5 147t-129.5 379zM162 1219q-3 82 41 134t119 52q57 0 114 -20t95 -44.5t83.5 -44.5 t81.5 -20q46 0 77.5 24.5t33.5 57.5h35q-3 -88 -50 -140.5t-139 -52.5q-54 0 -111.5 22t-97 48t-83.5 48t-74 22q-39 0 -62.5 -26.5t-23.5 -59.5h-39zM221 547q0 -230 85 -375t226 -145q244 0 244 458q0 226 -85 370t-226 144q-244 0 -244 -452z" />
<glyph unicode="&#xf6;" horiz-adv-x="1001" d="M61 506q0 122 35.5 224t95.5 169.5t138.5 105t165.5 37.5q90 0 171 -37t141.5 -103.5t96 -165t35.5 -214.5q0 -122 -35.5 -225t-95 -171.5t-138 -107t-165.5 -38.5q-186 0 -315.5 147t-129.5 379zM221 547q0 -230 85 -375t226 -145q244 0 244 458q0 226 -85 370t-226 144 q-244 0 -244 -452zM254 1284q0 31 22.5 54.5t53.5 23.5t54.5 -23.5t23.5 -54.5t-23.5 -53.5t-54.5 -22.5t-53.5 22.5t-22.5 53.5zM596 1284q0 31 22.5 54.5t53.5 23.5t54.5 -23.5t23.5 -54.5t-23.5 -53.5t-54.5 -22.5t-53.5 22.5t-22.5 53.5z" />
<glyph unicode="&#xf7;" horiz-adv-x="1044" d="M143 504v65h717v-65h-717zM457 203q0 28 21.5 49.5t47.5 21.5q28 0 50 -21.5t22 -49.5q0 -29 -22 -50.5t-50 -21.5q-27 0 -48 21.5t-21 50.5zM457 829q0 28 21.5 50t47.5 22q28 0 50 -22t22 -50q0 -29 -22 -50t-50 -21q-27 0 -48 21t-21 50z" />
<glyph unicode="&#xf8;" horiz-adv-x="1001" d="M61 506q0 122 35.5 224t95.5 169.5t138.5 105t165.5 37.5q160 0 278 -106l86 113l45 -29l-92 -125q127 -143 127 -373q0 -122 -35.5 -225t-95 -171.5t-138 -107t-165.5 -38.5q-168 0 -289 118l-55 -71l-45 28l61 84q-117 149 -117 367zM221 547q0 -172 45 -291l434 582 q-41 76 -101 118.5t-134 42.5q-244 0 -244 -452zM291 199q89 -172 241 -172q244 0 244 458q0 172 -49 297z" />
<glyph unicode="&#xf9;" horiz-adv-x="1058" d="M31 969v45l219 20q41 3 41 -33v-682q0 -272 172 -272q35 0 69 11.5t59 25.5t52.5 40.5t41.5 41.5t34.5 45.5t23 35t15.5 25.5v621q0 45 -11.5 62t-41.5 16l-66 -2v45l219 20q26 1 34.5 -5.5t8.5 -27.5v-839q0 -49 27 -64.5t90 -9.5v-41q-73 -16 -138.5 -43t-91.5 -27 q-13 0 -20.5 11t-5.5 26l16 215q-2 -3 -19 -26t-27 -37t-33 -40.5t-41.5 -43.5t-46 -39t-53.5 -35t-58.5 -22t-65.5 -9q-139 0 -211.5 80.5t-72.5 276.5v559q0 44 -13.5 62t-44.5 16zM333.5 1331q8.5 -25 33.5 -37l360 -145l10 22l-293 222q-29 23 -62.5 20t-43.5 -31 q-13 -26 -4.5 -51z" />
<glyph unicode="&#xfa;" horiz-adv-x="1058" d="M31 969v45l219 20q41 3 41 -33v-682q0 -272 172 -272q35 0 69 11.5t59 25.5t52.5 40.5t41.5 41.5t34.5 45.5t23 35t15.5 25.5v621q0 45 -11.5 62t-41.5 16l-66 -2v45l219 20q26 1 34.5 -5.5t8.5 -27.5v-839q0 -49 27 -64.5t90 -9.5v-41q-73 -16 -138.5 -43t-91.5 -27 q-13 0 -20.5 11t-5.5 26l16 215q-2 -3 -19 -26t-27 -37t-33 -40.5t-41.5 -43.5t-46 -39t-53.5 -35t-58.5 -22t-65.5 -9q-139 0 -211.5 80.5t-72.5 276.5v559q0 44 -13.5 62t-44.5 16zM324 1171l10 -22l360 145q25 12 33.5 37t-4.5 51q-10 28 -44 31t-63 -20z" />
<glyph unicode="&#xfb;" horiz-adv-x="1058" d="M31 969v45l219 20q41 3 41 -33v-682q0 -272 172 -272q35 0 69 11.5t59 25.5t52.5 40.5t41.5 41.5t34.5 45.5t23 35t15.5 25.5v621q0 45 -11.5 62t-41.5 16l-66 -2v45l219 20q26 1 34.5 -5.5t8.5 -27.5v-839q0 -49 27 -64.5t90 -9.5v-41q-73 -16 -138.5 -43t-91.5 -27 q-13 0 -20.5 11t-5.5 26l16 215q-2 -3 -19 -26t-27 -37t-33 -40.5t-41.5 -43.5t-46 -39t-53.5 -35t-58.5 -22t-65.5 -9q-139 0 -211.5 80.5t-72.5 276.5v559q0 44 -13.5 62t-44.5 16zM252 1149q153 139 280 311q121 -168 279 -311h-31l-248 184l-249 -184h-31z" />
<glyph unicode="&#xfc;" horiz-adv-x="1058" d="M31 969v45l219 20q41 3 41 -33v-682q0 -272 172 -272q35 0 69 11.5t59 25.5t52.5 40.5t41.5 41.5t34.5 45.5t23 35t15.5 25.5v621q0 45 -11.5 62t-41.5 16l-66 -2v45l219 20q26 1 34.5 -5.5t8.5 -27.5v-839q0 -49 27 -64.5t90 -9.5v-41q-73 -16 -138.5 -43t-91.5 -27 q-13 0 -20.5 11t-5.5 26l16 215q-2 -3 -19 -26t-27 -37t-33 -40.5t-41.5 -43.5t-46 -39t-53.5 -35t-58.5 -22t-65.5 -9q-139 0 -211.5 80.5t-72.5 276.5v559q0 44 -13.5 62t-44.5 16zM283 1284q0 31 22.5 54.5t52.5 23.5q31 0 54.5 -23.5t23.5 -54.5t-23.5 -53.5 t-54.5 -22.5t-53 22.5t-22 53.5zM625 1284q0 31 22.5 54.5t52.5 23.5q31 0 54.5 -23.5t23.5 -54.5t-23.5 -53.5t-54.5 -22.5t-53 22.5t-22 53.5z" />
<glyph unicode="&#xfd;" horiz-adv-x="1054" d="M31 987v39q223 -10 397 0v-39l-70 -6q-9 0 -15.5 -0.5t-17 -3.5t-14 -8.5t-6.5 -15.5t4 -25l271 -711l247 711q6 18 -0.5 29.5t-16.5 15t-23.5 6t-14.5 2.5l-49 6v39q141 -8 301 0v-39l-41 -6q-5 -2 -31.5 -5.5t-42.5 -13.5t-24 -34l-482 -1348q-1 -1 -3 -6.5t-3 -7.5 t-3.5 -5.5t-6 -5t-9.5 -3t-13 -1.5q-23 0 -32.5 8.5t-4.5 20.5l186 461q0 12 -60.5 162.5t-155 382t-138.5 342.5q-11 25 -23 37t-20.5 14t-24.5 2zM322 1171l10 -22l360 145q25 12 33.5 37t-4.5 51q-10 28 -44 31t-63 -20z" />
<glyph unicode="&#xfe;" horiz-adv-x="1054" d="M31 1235v39q57 8 107 26t79.5 32t44.5 14q31 0 31 -39v-414q43 59 122 104t175 45q184 0 299 -141t115 -387q0 -124 -34.5 -226t-94 -168t-139 -102t-169.5 -36q-169 0 -274 114v-329q0 -49 31 -66.5t108 -11.5v-43q-66 -7 -126 -28t-100.5 -38.5t-64.5 -17.5 q-37 0 -37 28q0 12 7 23t16 20.5t16 39.5t7 75v1411q0 47 -28.5 64.5t-90.5 11.5zM266 762v12q-3 -6 0 -12zM293 270q2 -36 23.5 -78.5t56.5 -80t86.5 -63t105.5 -25.5q142 0 214.5 108.5t72.5 345.5q0 105 -15.5 195t-47 164.5t-86.5 117.5t-128 43q-88 0 -164.5 -50 t-117.5 -113v-564z" />
<glyph unicode="&#xff;" horiz-adv-x="1054" d="M31 987v39q223 -10 397 0v-39l-70 -6q-9 0 -15.5 -0.5t-17 -3.5t-14 -8.5t-6.5 -15.5t4 -25l271 -711l247 711q6 18 -0.5 29.5t-16.5 15t-23.5 6t-14.5 2.5l-49 6v39q141 -8 301 0v-39l-41 -6q-5 -2 -31.5 -5.5t-42.5 -13.5t-24 -34l-482 -1348q-1 -1 -3 -6.5t-3 -7.5 t-3.5 -5.5t-6 -5t-9.5 -3t-13 -1.5q-23 0 -32.5 8.5t-4.5 20.5l186 461q0 12 -60.5 162.5t-155 382t-138.5 342.5q-11 25 -23 37t-20.5 14t-24.5 2zM279 1284q0 31 22.5 54.5t52.5 23.5q31 0 54.5 -23.5t23.5 -54.5t-23.5 -53.5t-54.5 -22.5t-53 22.5t-22 53.5zM621 1284 q0 31 22.5 54.5t52.5 23.5q31 0 54.5 -23.5t23.5 -54.5t-23.5 -53.5t-54.5 -22.5t-53 22.5t-22 53.5z" />
<glyph unicode="&#x152;" horiz-adv-x="1830" d="M72 637q0 184 69 334.5t203.5 242t310.5 91.5q60 0 132.5 -15.5t84.5 -17.5h113l4 4q2 -2 2 -4h686q20 0 26 -6.5t9 -30.5l23 -205h-39l-21 43q-72 150 -217 150h-289q-12 0 -12 -13v-542h291q30 0 51.5 8t34 17.5t22.5 32t14 37t11 46.5h43q-15 -166 0 -328h-43 q-8 37 -14.5 56t-20.5 41t-38 31t-60 9h-291v-555q0 -12 12 -12h283q149 0 207 119l65 129h45q-31 -100 -59 -295h-704q0 -1 -1 -3t-1 -3q0 1 -5 6h-120q-14 -2 -43 -8t-48.5 -9.5t-52.5 -6.5t-69 -3q-172 0 -308 87t-211 237.5t-75 335.5zM231 692q0 -160 35.5 -288 t97 -209.5t141.5 -124.5t171 -43q192 0 336 219v745q-57 122 -158 193t-240 71q-55 0 -103.5 -12.5t-101.5 -50t-91 -97.5t-62.5 -163.5t-24.5 -239.5z" />
<glyph unicode="&#x153;" horiz-adv-x="1642" d="M61 506q0 122 35.5 224t95.5 169.5t138.5 105t165.5 37.5q109 0 202 -51.5t154 -146.5q56 95 146 146.5t204 51.5q78 0 145.5 -25.5t120 -75.5t83 -131t30.5 -185q0 -93 -76 -93h-565q-1 -246 83.5 -375.5t217.5 -129.5q88 0 147 36.5t101 122.5q13 27 33 27h20 q7 0 12 -7t2 -18q-74 -208 -333 -208q-120 0 -213.5 55.5t-153.5 157.5q-60 -101 -152.5 -157t-197.5 -56q-186 0 -315.5 147t-129.5 379zM221 547q0 -230 85 -375t226 -145q244 0 244 458v37v4q-8 209 -93 341t-218 132q-244 0 -244 -452zM940 573h500q0 203 -58 314.5 t-180 111.5q-123 0 -192.5 -114.5t-69.5 -311.5z" />
<glyph unicode="&#x178;" horiz-adv-x="1206" d="M31 1233v39q218 -3 434 0v-39q-75 -3 -102 -22.5t-9 -51.5l289 -532l266 514q23 45 -6 67t-133 25v39q203 -3 406 0v-39q-101 -3 -143.5 -25.5t-67.5 -70.5l-297 -574v-448q0 -37 31.5 -51t113.5 -17v-47q-219 9 -434 0v39q82 9 112.5 24t30.5 52v448l-329 596 q-19 34 -55.5 52.5t-106.5 21.5zM354 1530q0 31 22.5 54.5t53.5 23.5t54.5 -23.5t23.5 -54.5t-23.5 -53.5t-54.5 -22.5t-53.5 22.5t-22.5 53.5zM696 1530q0 31 22.5 54.5t53.5 23.5t54.5 -23.5t23.5 -54.5t-23.5 -53.5t-54.5 -22.5t-53.5 22.5t-22.5 53.5z" />
<glyph unicode="&#x2c6;" horiz-adv-x="763" d="M102 1149q156 142 281 311q121 -168 279 -311h-31l-248 184l-250 -184h-31z" />
<glyph unicode="&#x2dc;" horiz-adv-x="894" d="M100 1219q-3 82 41 134t119 52q57 0 114.5 -20t95.5 -44.5t83.5 -44.5t81.5 -20q46 0 77 24.5t33 57.5h35q-3 -88 -49.5 -140.5t-138.5 -52.5q-54 0 -111.5 22t-97.5 48t-84 48t-74 22q-39 0 -62.5 -26.5t-23.5 -59.5h-39z" />
<glyph unicode="&#x2000;" horiz-adv-x="917" />
<glyph unicode="&#x2001;" horiz-adv-x="1835" />
<glyph unicode="&#x2002;" horiz-adv-x="917" />
<glyph unicode="&#x2003;" horiz-adv-x="1835" />
<glyph unicode="&#x2004;" horiz-adv-x="611" />
<glyph unicode="&#x2005;" horiz-adv-x="458" />
<glyph unicode="&#x2006;" horiz-adv-x="305" />
<glyph unicode="&#x2007;" horiz-adv-x="305" />
<glyph unicode="&#x2008;" horiz-adv-x="229" />
<glyph unicode="&#x2009;" horiz-adv-x="367" />
<glyph unicode="&#x200a;" horiz-adv-x="101" />
<glyph unicode="&#x2010;" horiz-adv-x="696" d="M72 477v72h553v-72h-553z" />
<glyph unicode="&#x2011;" horiz-adv-x="696" d="M72 477v72h553v-72h-553z" />
<glyph unicode="&#x2012;" horiz-adv-x="696" d="M72 477v72h553v-72h-553z" />
<glyph unicode="&#x2013;" horiz-adv-x="1366" d="M61 477v72h1192v-72h-1192z" />
<glyph unicode="&#x2014;" horiz-adv-x="1820" d="M51 477v72h1678v-72h-1678z" />
<glyph unicode="&#x2018;" horiz-adv-x="303" d="M51 1047q0 62 29.5 126.5t83.5 110.5q13 11 24 0l15 -20q-27 -25 -47.5 -68t-20.5 -82q0 -14 4 -20q20 4 31 4q31 0 56.5 -24t25.5 -62q0 -46 -25.5 -72.5t-66.5 -26.5q-49 0 -79 39.5t-30 94.5z" />
<glyph unicode="&#x2019;" horiz-adv-x="303" d="M51 1182q0 46 26.5 72t67.5 26q49 0 78 -39t29 -94q0 -62 -29.5 -127t-81.5 -111q-16 -11 -26 2l-13 19q25 25 45.5 68.5t20.5 82.5q0 15 -4 19q-20 -4 -31 -4q-31 0 -56.5 24t-25.5 62z" />
<glyph unicode="&#x201a;" horiz-adv-x="425" d="M113 76q0 46 26.5 72t67.5 26q49 0 77.5 -39t28.5 -94q0 -62 -29 -127t-81 -111q-16 -11 -27 0l-12 21q25 25 45 67.5t20 81.5q0 15 -4 21q-20 -4 -30 -4q-31 0 -56.5 24t-25.5 62z" />
<glyph unicode="&#x201c;" horiz-adv-x="583" d="M51 1047q0 62 29.5 126.5t83.5 110.5q13 11 24 0l13 -20q-26 -26 -46 -68.5t-20 -81.5q0 -14 4 -20q20 4 31 4q31 0 56.5 -24t25.5 -62q0 -46 -26.5 -72.5t-67.5 -26.5q-49 0 -78 39.5t-29 94.5zM332 1047q0 63 29 127t83 110q14 11 25 0l12 -20q-25 -25 -45 -68t-20 -82 q0 -14 4 -20q20 4 31 4q31 0 56 -24t25 -62q0 -46 -26.5 -72.5t-67.5 -26.5q-49 0 -77.5 39.5t-28.5 94.5z" />
<glyph unicode="&#x201d;" horiz-adv-x="575" d="M113 1182q0 46 26.5 72t67.5 26q49 0 77.5 -39t28.5 -94q0 -62 -29 -127t-81 -111q-17 -11 -27 2l-12 19q25 25 45 68.5t20 82.5q0 15 -4 19q-20 -4 -30 -4q-31 0 -56.5 24t-25.5 62zM393 1182q0 46 25.5 72t66.5 26q49 0 79 -39t30 -94q0 -62 -29.5 -127t-83.5 -111 q-14 -11 -24 2l-15 19q27 25 47.5 68.5t20.5 82.5q0 15 -4 19q-20 -4 -33 -4q-30 0 -55 24t-25 62z" />
<glyph unicode="&#x201e;" horiz-adv-x="720" d="M113 76q0 46 26.5 72t67.5 26q49 0 77.5 -39t28.5 -94q0 -62 -29 -127t-81 -111q-16 -11 -27 0l-12 21q25 25 45 67.5t20 81.5q0 15 -4 21q-20 -4 -30 -4q-31 0 -56.5 24t-25.5 62zM406 76q0 46 26.5 72t67.5 26q49 0 78.5 -39t29.5 -94q0 -63 -29 -127.5t-83 -110.5 q-15 -12 -27 0l-12 21q26 25 45.5 67t19.5 82q0 15 -4 21q-20 -4 -31 -4q-30 0 -55.5 24t-25.5 62z" />
<glyph unicode="&#x2022;" horiz-adv-x="501" d="M123 602q0 51 38 89t89 38q52 0 90.5 -38t38.5 -89q0 -52 -38 -89.5t-91 -37.5q-51 0 -89 37.5t-38 89.5z" />
<glyph unicode="&#x2026;" horiz-adv-x="1064" d="M92 78q0 40 29 69t67 29q40 0 69.5 -29t29.5 -69t-29.5 -69t-69.5 -29q-38 0 -67 29t-29 69zM416 78q0 40 28 69t68 29t68 -29t28 -69t-28 -69t-68 -29t-68 29t-28 69zM737 78q0 40 29.5 69t67.5 29q40 0 69 -29t29 -69t-29 -69t-69 -29q-38 0 -67.5 29t-29.5 69z" />
<glyph unicode="&#x202f;" horiz-adv-x="367" />
<glyph unicode="&#x2039;" horiz-adv-x="434" d="M72 471q176 127 311 279v-31l-184 -250l184 -248v-31q-133 150 -311 281z" />
<glyph unicode="&#x203a;" horiz-adv-x="434" d="M51 190v31l185 248l-185 250v31q135 -152 311 -279q-178 -131 -311 -281z" />
<glyph unicode="&#x205f;" horiz-adv-x="458" />
<glyph unicode="&#x20ac;" horiz-adv-x="1441" d="M80 492l12 63h168q-4 58 -4 84q0 39 2 59h-145l14 66h137q17 114 64.5 212.5t120 171.5t173.5 115t218 42q66 0 147.5 -17.5t145.5 -17.5h41q52 -205 114 -344h-65q-66 166 -166 247.5t-260 81.5q-51 0 -97.5 -11.5t-97 -44.5t-88 -85.5t-64 -142.5t-32.5 -207h549 l-15 -66h-536v-4q0 -82 8 -139h508l-12 -63h-488q39 -222 154.5 -343.5t271.5 -121.5q122 0 211 74.5t182 240.5h70q-89 -158 -133 -330h-31q-54 0 -141.5 -17.5t-169.5 -17.5q-114 0 -214 40t-172 110.5t-121 163.5t-69 201h-190z" />
<glyph unicode="&#x2122;" horiz-adv-x="1290" d="M41 1147l6 98q0 9 9.5 18t21.5 9h407q12 0 21.5 -9t9.5 -18l6 -98h-45l-16 33q-8 16 -27 16h-92v-317q0 -10 16.5 -15.5t36.5 -5.5v-51h-227v51q51 0 51 21v317h-90q-19 0 -27 -16l-16 -33h-45zM578 807v47q29 8 37 13.5t8 19.5v297q0 18 -8.5 24.5t-36.5 12.5v51h155 l187 -283l184 283h137v-49q-23 -8 -29 -14t-6 -25v-297q0 -16 6.5 -20.5t36.5 -12.5v-47h-200v47q29 8 37 13.5t8 19.5v225l-158 -256q-10 -23 -28.5 -23t-30.5 23l-177 258v-227q0 -7 2 -12t9 -8.5t12.5 -5.5t21.5 -7v-47h-167z" />
<glyph unicode="&#x25fc;" horiz-adv-x="1024" d="M0 0v1024h1024v-1024h-1024z" />
</font>
</defs>
</svg>
