<svg id="Layer_1" data-name="Layer 1" xmlns="http://www.w3.org/2000/svg" viewBox="0 0 299 467.74"><defs><style>.cls-1{fill:#3c1b42;}.cls-2{fill:#4bffac;}</style></defs><title>behemoth</title><path class="cls-1" d="M59,468.87l6.68-8.16c.25-.31,6.22-7.59,12.3-14.35C82.8,441,90.38,435.9,94.28,433.42v-5.67c-2.82-2.59-7.42-7.84-7.42-14.48V403.2l-10-10a82.54,82.54,0,0,1-9.11-11.68c-2.48,4-6.24,7.74-11.64,7.74-8.68,0-18.19-5.79-22.73-11.24l-.16-.2c-1.25,3-4.11,5.8-10.36,5.8-1.35,0-2.76-.1-4.25-.2s-3.28-.23-5-.23a8.44,8.44,0,0,1-6.82-3.35c-4.61-6-2.27-19.35-.54-26.55L3.5,348.5l3.32-11.94A41.37,41.37,0,0,1,.5,315.45c0-11,28.18-53.07,25.42-69-1.88-10.87-7-13.43-7-13.43s10.59-3.48,12.61-4.33L22.1,216.56l5.45-2.73c.91-.46,3.68-1.52,9.62-1.52,2,0,5.7-2.67,7.71-4.7,1.74-2.29,15-19.78,19.41-25.44A13.67,13.67,0,0,0,65.1,181a12.29,12.29,0,0,1-1.86-6.59c0-1.87,0-7.25,19.93-19.56-3.1-4.9-5.58-13.12-7.71-25.21C73.08,116.22,72.07,103,72,102.44l-.36-4.75,10.89-1.36C86,87.44,97.75,61.64,122.74,47.41c6.67-4.53,17.83-17.3,21.59-21.86L156.4,10.88,155.14,18,160,1.13s4.56,18.72,5.48,21.28l9.16,7.5c.09.07,9.16,7.51,17.58,14.54a19.52,19.52,0,0,1,3.3,3.44c22.09,14,30.59,38.34,33.2,48h12.07l-1,5.82c0,.07-1.28,8-1.28,24.14,0,13.15-6.44,23.93-10.44,29.35,15.16,15.48,15.16,18.11,15.16,19.9a41.36,41.36,0,0,1-1.66,8.86,203.07,203.07,0,0,0,12.83,20.57c5.55,7.56,22.13,17.6,28,20.83l7.78,4.24-9.36,5.46.24.18c6,4.69,12.8,10.11,12.87,10.16l5.51,4.4-13.2,8.25a116.6,116.6,0,0,0,8.47,11.74l3.12,3.9L290,280a120.67,120.67,0,0,1,5.87,35.41c0,17.1-8.4,34.25-11.63,40.2,1.31,3.62,3.53,10.82,3.53,17.82,0,10.49-10.94,30.63-25.91,30.63-5.75,0-8.37-3-9.43-4.75-1.69-2.84-1.72-6.31-1.1-9.53-10.17,12.93-13.34,12.93-15.1,12.93-3.74,0-7.12-1.87-9.55-3.72L208.8,414.35l3,11.55-4.65,9.81,6.08,2.66c11.68,5.11,26.11,21.51,26.72,22.2l7.25,8.29Z" transform="translate(-0.5 -1.13)"/><path class="cls-2" d="M281.43,259.45l-1.35-3.37,10.79-6.75s-6.75-5.4-12.82-10.12L272,234.49l8.1-4.72s-22.26-12.14-29.68-22.26a214,214,0,0,1-14.17-22.94s2-6.75,2-9.44-16.87-19.56-16.87-19.56,12.14-12.82,12.14-29.68,1.35-25,1.35-25H224.76S218.58,67.75,192,51.57a13.09,13.09,0,0,0-3-3.28c-8.49-7.1-17.54-14.5-17.54-14.5L175,44.66l-1.64-.37c-9.8-8-14.13-25-14.13-25S155,35.89,145.5,44l2.69-15.24s-14.08,17.1-22.81,22.94h0c-28.64,16.21-39.15,49.25-39.15,49.25L77,102.07s4,53.49,14.84,53.49c0,0-23.61,13.49-23.61,18.89s4.72,4.72,0,10.79-19.56,25.64-19.56,25.64-6.11,6.43-11.51,6.43-7.38,1-7.38,1l9.44,12.14-12.82,4.72s5.29,7.41,5.45,10.36C32.89,264.29,5.5,304,5.5,315.45s6.75,20.24,6.75,20.24L8.87,347.83l2.7,4.72s-6.75,25.64,2,25.64,15.52,2.7,15.52-5.4-5.4-22.26-5.4-22.26l6.07,3.37s4,16.87,7.42,20.91,11.47,9.44,18.89,9.44,10.79-13.49,10.79-13.49,7.42,12.82,13.49,18.89l11.47,11.47v12.14c0,6.75,7.42,12.14,7.42,12.14v10.79S87.8,443,81.73,449.7s-12.14,14.17-12.14,14.17H236.23s-14.17-16.19-25-20.91l-10.79-4.72,6.07-12.82-3.37-12.82,23.61-20.24s4.72,5.4,9.44,5.4,25-30.36,25-30.36l7.42-1.35v8.77l-9.44,8.1s-8.77,16.19,2.7,16.19,20.91-16.87,20.91-25.64-4-18.22-4-18.22,12.14-20.24,12.14-39.8-6.75-37.11-6.75-37.11l6.75-5.4S282.78,262.83,281.43,259.45Z" transform="translate(-0.5 -1.13)"/><path class="cls-1" d="M106.77,95.52s-3.37,22.94,14.84,22.94h18.22a37.63,37.63,0,0,0,4.39-17.54c0-10.12-3-14.17-3-14.17Z" transform="translate(-0.5 -1.13)"/><path class="cls-1" d="M204.74,95.52s3.37,22.94-14.84,22.94H171.68a37.63,37.63,0,0,1-4.39-17.54c0-10.12,3-14.17,3-14.17Z" transform="translate(-0.5 -1.13)"/><path class="cls-1" d="M217.88,102.94c.85.23,1.7.5,2.55.81q.64.24,1.29.52a11.32,11.32,0,0,1,1.43.76,4.45,4.45,0,0,1,2.27,3l-.05,1a6.42,6.42,0,0,1-.19,1c-.08.32-.18.64-.28,1l-.29.68a26.58,26.58,0,0,1-6.52,8.82A52.74,52.74,0,0,1,199.77,131c-.41.16-.82.33-1.23.47l-1.25.38-2.51.76-2.51.75-2.54.58-5.1,1.12-5.14.78a157.55,157.55,0,0,1-20.63,1.5c-6.87.14-13.68-.1-20.52-.51s-13.66-1.14-20.45-2.24a108.64,108.64,0,0,1-20.16-5,38.54,38.54,0,0,1-4.91-2.2,19.89,19.89,0,0,1-2.4-1.53,10.69,10.69,0,0,1-1.17-1,5.69,5.69,0,0,1-.57-.62,4.34,4.34,0,0,1-.58-.82,3.73,3.73,0,0,1-.43-.92,4.64,4.64,0,0,1-.16-2,4.06,4.06,0,0,1,.16-.9,7.15,7.15,0,0,1,1.68-3,12.16,12.16,0,0,1,5.08-2.94c2-.59,3.2,0,3.31.76s-.63,1.59-2.22,2.25A9,9,0,0,0,92,119a3.46,3.46,0,0,0-.68,1.45c-.05.1,0,.29,0,.35a.71.71,0,0,0,0,.21.93.93,0,0,0,.21.44,1,1,0,0,0,.18.19A2.28,2.28,0,0,0,92,122a6.89,6.89,0,0,0,.8.59,16.2,16.2,0,0,0,2,1.07,35.63,35.63,0,0,0,4.47,1.68,115.94,115.94,0,0,0,19.44,3.8c6.62.8,13.3,1.3,20,1.59s13.43.45,20.1.3a178,178,0,0,0,19.89-1.25l4.92-.64,4.85-.94,2.42-.47,2.37-.63,2.38-.63,1.19-.31c.39-.12.77-.26,1.15-.39A50.27,50.27,0,0,0,215,117a23.1,23.1,0,0,0,6-7l.25-.47.1-.24a2.16,2.16,0,0,0,.16-.5c0-.36-.28-.63-.55-.85a7.13,7.13,0,0,0-.78-.48c-.33-.18-.67-.35-1-.51-.71-.32-1.46-.62-2.23-.9-2-.76-3-1.7-2.8-2.44S215.58,102.35,217.88,102.94Z" transform="translate(-0.5 -1.13)"/><path class="cls-1" d="M103.77,409.66c-.28-.18-3.84-2.22-9.53-6.19a153.61,153.61,0,0,1-21.81-18.32,114.81,114.81,0,0,1-12.25-14.66,89.28,89.28,0,0,1-10.17-19l-.52-1.31c-.16-.44-.3-.9-.45-1.35l-.88-2.72c-.55-1.83-1-3.72-1.45-5.61a72,72,0,0,1-1.44-11.72l-.09-3c0-1,0-2,.06-2.93.07-2,.06-3.91.2-5.87l.37-5.9.56-5.9c.85-7.87,2.1-15.71,3.67-23.41s3.54-15.23,5.68-22.5a331.85,331.85,0,0,1,14.63-39.71c10.35-23.38,20.5-39.59,23.73-44.06,1.72-2.34,2.9-2.55,1.29.49a451.24,451.24,0,0,0-21.59,44.85,346.21,346.21,0,0,0-13.55,39.59c-2,7.21-3.73,14.66-5.17,22.24s-2.5,15.28-3.2,23l-.46,5.76-.27,5.75c-.1,1.91-.06,3.82-.1,5.71,0,.95,0,1.9,0,2.83l.13,2.74a65.89,65.89,0,0,0,1.47,10.7c.45,1.72.87,3.44,1.4,5.12l.85,2.49.42,1.23.5,1.2a83.24,83.24,0,0,0,9.69,17.46,108.6,108.6,0,0,0,11.74,13.68,147.91,147.91,0,0,0,21.05,17.25c5.5,3.74,8.92,5.66,9.19,5.83,4.63,2.75,6.2,5.47,5.42,7.11S108.65,412.56,103.77,409.66Z" transform="translate(-0.5 -1.13)"/><path class="cls-1" d="M198.53,409.39c.22-.19,3-2.28,7.62-6.14a206.62,206.62,0,0,0,17.8-16.89,152.49,152.49,0,0,0,20.69-27.5,100,100,0,0,0,8.05-17.62,75.45,75.45,0,0,0,3.95-19.57c.26-3.32.07-6.8,0-10.24s-.41-6.88-.68-10.3-.79-6.81-1.24-10.18-1.09-6.68-1.69-10a318.27,318.27,0,0,0-9.33-36.21c-6.86-21.6-13.78-37.12-15.5-41.71-.92-2.4-.47-3.47,1.12-.79,2.5,4.29,10.18,19.6,17.8,41.2A303.22,303.22,0,0,1,257.57,280a185.52,185.52,0,0,1,4.57,41.93A80.67,80.67,0,0,1,258.29,343a105.34,105.34,0,0,1-8.22,18.85,157.53,157.53,0,0,1-21.14,29,210.84,210.84,0,0,1-18.17,17.71c-4.68,4-7.59,6.26-7.82,6.45-4,3.09-7.18,3.05-8.18,1.56S194.69,412.35,198.53,409.39Z" transform="translate(-0.5 -1.13)"/><path class="cls-1" d="M151.51,463.53l-.68-16.36-.34-8.18-.17-4.09-.09-2,0-.51,0-.08,0-.14-.16,0h0l-.12-.05-.49-.25-2-1-3.93-2c-1-.47,1.63-5.22,2.57-4.59l3.75,2.32,1.88,1.16.47.29.8.48,1.76,1,0,1.91,0,.94,0,.52-.09,2L154.3,439l-.35,8.18-.69,16.36C153.27,464,151.56,464,151.51,463.53Z" transform="translate(-0.5 -1.13)"/></svg>