<?xml version="1.0" encoding="UTF-8"?>
<svg id="Layer_1" data-name="Layer 1" xmlns="http://www.w3.org/2000/svg" viewBox="0 0 1 1">
  <defs>
    <style>
      .cls-1 {
        stroke-width: 0px;
      }
    </style>
  </defs>
  <path class="cls-1" d="m.7.48s.04,0,.06,0c.13,0,.24-.11.24-.24s-.11-.24-.24-.24c-.1,0-.18.06-.22.15-.04-.06-.1-.11-.18-.11C.24.04.14.13.14.25c0,.03,0,.05.01.08-.1.07-.16.18-.16.3,0,.2.16.37.37.37s.37-.17.37-.37c0-.05-.01-.11-.03-.15Z"/>
  <circle class="cls-1" cx=".86" cy=".61" r=".1"/>
  <path class="cls-1" d="m.86.83s0,0,0,0c0,0,0-.02,0-.03,0-.04-.03-.06-.06-.06s-.06.03-.06.06.03.06.06.06c0,0,0,0,.01,0,0,0,0,0,0,.01,0,.03.02.05.05.05s.05-.02.05-.05-.02-.05-.05-.05Z"/>
</svg>