<?xml version="1.0" encoding="utf-8"?>
<!-- Generator: Adobe Illustrator 21.0.2, SVG Export Plug-In . SVG Version: 6.00 Build 0)  -->
<svg version="1.1" id="Layer_1" xmlns="http://www.w3.org/2000/svg" xmlns:xlink="http://www.w3.org/1999/xlink" x="0px" y="0px"
	 viewBox="0 0 200 150" style="enable-background:new 0 0 200 150;" xml:space="preserve">
<style type="text/css">
	.st0{fill:#3C1B42;}
	.st1{fill:#00FFD5;}
	.st2{fill:#FFFFFF;}
</style>
<g>
	<polygon class="st0" points="63,44.3 24.9,61.3 1.7,52.8 15.5,83.8 32.3,89.5 54.1,87.3 	"/>
	<polygon class="st0" points="132.2,28.8 178.8,35.2 197,20.7 191.2,53.9 164.6,67.7 	"/>
	<g>
		<path class="st1" d="M74.1,39.8l12.4-18.3l2.2,7.3c0,0,4.9-8,9.3-11.5s12-6.2,12-6.2l-6.7,10.5l15.5-4.3l-2.7,11.1l7.1-6.8
			c0,0,2.7-0.3,14.6,9s14.6,12.9,14.6,12.9v6.2c0,0,13.8,13.3,13.8,23.5S55.5,109.5,55.5,109.5s-6.2-7.5-6.2-17.7s0-14.6,0-14.6
			l-2.7-7.6l18.6-31.9L74.1,39.8z"/>
	</g>
	<path class="st2" d="M140.7,67.7v-5.2c0,0,4.4-4.5,13.3-4.5c12.4,0,16.4,2.8,16.4,2.8l-2.2,6.9H140.7z"/>
	<g>
		<path class="st1" d="M49.2,106.8c0,0,39-26.6,60.8-34.2s38.2-7,49.7-7c11.5,0,16.9,3.7,16.9,3.7s-20.4,69.4-61.2,69.4
			S49.2,106.8,49.2,106.8z"/>
	</g>
	<g>
		<path class="st2" d="M135.1,41.5c-7.3-3.4-14.9-2.5-17,2c-1.1,2.4-0.4,5.5,1.7,8.3c0.9-3.2,6.1-4.6,11.8-3.2
			c5.8,1.4,9.8,5.2,9,8.4c-0.3,1.2-1.2,2.2-2.5,2.8c3.1-0.4,5.5-1.7,6.5-3.9C146.6,51.3,142.4,44.9,135.1,41.5z"/>
		<path class="st0" d="M140.6,56.9c0.8-3.2-3.2-7-9-8.4c-5.7-1.4-10.9,0-11.8,3.2c1.7,2.3,4.4,4.5,7.8,6.1c3.7,1.7,7.4,2.3,10.5,2
			C139.3,59.1,140.3,58.1,140.6,56.9z"/>
	</g>
	<g>
		<path class="st2" d="M73.9,66.1c3.5-4.7,9.4-6.3,13.1-3.5c0,0,0.1,0.1,0.1,0.1c0.4-3.3-0.3-6.2-2.3-7.7c-4-3-11.5,0.2-16.8,7.2
			c-5.3,7-6.3,15.1-2.3,18.1c2.2,1.7,5.5,1.4,8.9-0.3c-0.2-0.1-0.3-0.2-0.5-0.3C70.5,76.9,70.3,70.8,73.9,66.1z"/>
		<path class="st0" d="M82.5,73.1c2.6-3.5,4.1-7.2,4.6-10.4c0,0-0.1-0.1-0.1-0.1c-3.7-2.8-9.6-1.2-13.1,3.5
			c-3.5,4.7-3.4,10.8,0.3,13.6c0.2,0.1,0.3,0.2,0.5,0.3C77.4,78.6,80.2,76.3,82.5,73.1z"/>
	</g>
</g>
</svg>
